<?xml version="1.0" encoding="UTF-8" standalone="no"?>
<!DOCTYPE svg PUBLIC "-//W3C//DTD SVG 1.1//EN" "http://www.w3.org/Graphics/SVG/1.1/DTD/svg11.dtd">
<svg width="100%" height="100%" viewBox="0 0 45 380" version="1.1" xmlns="http://www.w3.org/2000/svg" xmlns:xlink="http://www.w3.org/1999/xlink" xml:space="preserve" xmlns:serif="http://www.serif.com/" style="fill-rule:evenodd;clip-rule:evenodd;stroke-linecap:round;stroke-linejoin:round;stroke-miterlimit:1.5;">
    <rect x="0" y="0" width="45" height="380" style="fill:rgb(62,71,84);"/>
    <g id="Circuit" transform="matrix(0.1,0,0,-0.1,-344,506)">
        <g opacity="0.03">
            <path d="M3996,5774C3987,5765 3982,5750 3985,5741C3989,5729 3974,5707 3936,5672L3881,5620L3518,5620L3155,5620L3060,5525L2965,5430L1858,5430L750,5430L750,5203L750,4975L375,4978C124,4980 0,4977 0,4970C0,4963 129,4960 385,4960L770,4960L770,5410L2965,5410L3165,5610L3896,5610L3945,5659C3972,5687 4004,5710 4018,5712C4051,5716 4069,5744 4054,5768C4039,5791 4016,5794 3996,5774Z" style="fill:rgb(226,238,255);fill-rule:nonzero;"/>
            <path d="M3960,5605L3915,5560L3531,5560L3146,5561L3050,5465L2955,5370L1894,5370C1083,5370 831,5367 822,5358C813,5349 810,5289 810,5150C810,5011 807,4951 798,4942C789,4933 685,4930 393,4930C138,4930 0,4926 0,4920C0,4914 139,4910 398,4910C770,4910 798,4911 813,4928C827,4943 830,4978 832,5146L835,5345L1900,5348L2965,5350L3165,5550L3926,5550L3965,5590C3989,5614 4013,5630 4027,5630C4050,5630 4051,5628 4048,5553C4045,5475 4045,5475 4015,5470C3979,5464 3967,5424 3995,5403C4019,5386 4050,5404 4050,5435C4050,5448 4055,5462 4060,5465C4066,5468 4070,5511 4070,5561L4070,5650L4037,5650C4011,5650 3995,5640 3960,5605Z" style="fill:rgb(226,238,255);fill-rule:nonzero;"/>
            <path d="M3055,5420L2955,5320L1930,5320L904,5320L877,5292L850,5264L850,4967C850,4710 848,4670 835,4670C823,4670 820,4687 820,4765L820,4860L780,4860L740,4860L740,4725C740,4597 739,4590 720,4590C701,4590 700,4597 700,4730L700,4870L665,4870L630,4870L630,4730C630,4597 629,4590 610,4590C591,4590 590,4597 590,4725L590,4860L555,4860L520,4860L520,4724C520,4606 518,4589 504,4592C491,4595 488,4615 487,4725L485,4855L448,4858L410,4861L410,4721L410,4580L203,4577L-5,4575L213,4572L430,4570L430,4705C430,4833 431,4840 450,4840C469,4840 470,4833 470,4708L470,4575L502,4576L535,4577L535,4708C535,4827 537,4840 553,4840C568,4840 570,4827 570,4710L570,4580L650,4580L650,4715C650,4843 651,4850 670,4850C689,4850 690,4843 690,4710L690,4570L760,4570L760,4705C760,4832 761,4840 780,4840C798,4840 800,4832 802,4748L805,4655L838,4652L870,4649L870,5257L893,5278L916,5300L2965,5300L3165,5500L3401,5500C3617,5500 3638,5498 3653,5482C3663,5472 3670,5452 3670,5438C3670,5424 3677,5407 3686,5399C3709,5380 3735,5400 3735,5436C3735,5460 3730,5466 3709,5468C3694,5470 3672,5482 3659,5496L3637,5520L3396,5520L3155,5520L3055,5420Z" style="fill:rgb(226,238,255);fill-rule:nonzero;"/>
            <path d="M3842,5458C3835,5451 3830,5442 3830,5436C3830,5431 3818,5413 3803,5398C3777,5370 3774,5370 3660,5370C3549,5370 3542,5369 3520,5345L3497,5320L3295,5320L3094,5320L3040,5265L2986,5210L2639,5210C2229,5210 2260,5220 2260,5088C2260,5029 2256,4999 2247,4991C2238,4984 2122,4979 1885,4978C1566,4975 1536,4974 1526,4957C1518,4945 1518,4935 1526,4922C1536,4906 1566,4905 1884,4902C2182,4900 2230,4898 2230,4885C2230,4872 2184,4870 1891,4870C1631,4870 1550,4867 1542,4857C1536,4850 1530,4827 1528,4805L1525,4765L1360,4762C1206,4760 1194,4758 1172,4737C1150,4717 1149,4709 1152,4625L1155,4535L1068,4532L980,4529L921,4475L862,4420L448,4420C59,4420 32,4419 17,4402C7,4392 0,4375 0,4365C0,4348 2,4348 23,4368C46,4390 49,4390 460,4390L873,4390L936,4450L998,4510L1180,4510L1180,4614C1180,4687 1184,4721 1192,4727C1199,4731 1282,4737 1375,4740L1545,4745L1548,4775C1549,4792 1553,4815 1555,4828L1560,4850L2250,4850L2256,4875C2270,4930 2268,4930 1894,4930C1671,4930 1550,4934 1550,4940C1550,4946 1668,4950 1883,4951C2065,4951 2223,4953 2233,4955C2273,4963 2280,4979 2280,5069C2280,5123 2285,5161 2292,5168C2301,5177 2394,5180 2650,5180L2996,5180L3104,5290L3506,5290L3535,5320C3564,5350 3564,5350 3680,5350C3790,5350 3798,5351 3819,5374C3832,5388 3849,5396 3860,5393C3885,5386 3912,5427 3899,5452C3888,5473 3860,5476 3842,5458Z" style="fill:rgb(226,238,255);fill-rule:nonzero;"/>
            <path d="M4152,5458C4145,5451 4140,5442 4140,5436C4140,5431 4128,5413 4113,5398C4089,5373 4080,5370 4020,5370C3924,5370 3920,5364 3920,5213C3920,5110 3917,5091 3902,5077C3876,5053 3817,5055 3795,5080C3778,5099 3764,5100 3581,5100L3384,5100L3320,5035C3258,4973 3254,4970 3207,4970C3166,4970 3159,4972 3169,4984C3176,4992 3190,4996 3200,4993C3243,4982 3269,5039 3231,5060C3204,5074 3183,5063 3171,5029L3161,5000L2973,5000L2785,5000L2620,4835L2455,4670L2080,4670L1705,4670L1627,4592C1565,4530 1550,4509 1550,4484C1550,4463 1540,4445 1520,4425L1490,4396L1490,4263L1490,4130L768,4128L45,4125L45,3870L45,3615L103,3612C145,3610 160,3605 160,3595C160,3584 148,3580 115,3580C72,3580 30,3556 30,3531C30,3507 64,3490 111,3490C148,3490 160,3486 160,3475C160,3464 147,3460 107,3460C52,3460 30,3448 30,3418C30,3394 60,3380 114,3380C148,3380 160,3376 160,3365C160,3355 145,3350 104,3348C40,3345 16,3325 36,3293C44,3280 63,3274 104,3272C177,3268 175,3246 103,3242C45,3239 25,3222 34,3185C40,3163 46,3160 86,3160C142,3160 142,3137 86,3132C52,3129 49,3126 52,3103C56,3067 36,3064 20,3097C7,3124 6,3124 2,3103C-3,3068 16,3043 50,3042C78,3041 80,3044 80,3075C80,3106 83,3109 113,3112C139,3114 146,3120 148,3142C152,3173 129,3189 88,3184C69,3182 60,3186 60,3196C60,3206 73,3210 108,3210C163,3210 180,3222 180,3261C180,3292 165,3300 104,3300C72,3300 60,3304 60,3315C60,3325 76,3330 123,3332C180,3335 185,3337 188,3359C193,3393 166,3410 107,3410C36,3410 50,3434 126,3440C179,3445 185,3447 188,3469C193,3503 166,3520 107,3520C47,3520 46,3544 106,3548C175,3552 190,3559 190,3583C190,3618 171,3630 119,3630L71,3630L68,3668C66,3688 66,3796 68,3908L71,4110L789,4110C1435,4110 1508,4112 1514,4126C1517,4135 1520,4197 1520,4264L1520,4386L1550,4415C1571,4435 1580,4453 1580,4475C1580,4500 1593,4519 1648,4573L1716,4640L2465,4640L2630,4805C2721,4896 2799,4970 2804,4970C2809,4970 2731,4889 2630,4790L2448,4610L2090,4610L1732,4610L1671,4548C1625,4500 1610,4478 1610,4456C1610,4438 1600,4415 1584,4399L1558,4372L1560,4192C1560,4093 1558,4000 1554,3985C1543,3942 1525,3963 1520,4024C1514,4090 1494,4112 1460,4090C1450,4084 1443,4059 1440,4020C1434,3946 1416,3936 1412,4005C1410,4032 1404,4060 1398,4067C1390,4077 1256,4080 760,4080C414,4080 125,4077 116,4074C94,4066 94,4004 116,3996C125,3993 174,3990 226,3990C282,3990 320,3986 320,3980C320,3974 281,3970 224,3970C114,3970 90,3961 90,3921C90,3884 101,3880 222,3880C297,3880 321,3877 318,3868C315,3859 279,3853 204,3850L95,3845L95,3810L95,3775L207,3772C270,3771 320,3765 320,3760C320,3746 286,3740 180,3737L85,3735L85,3700L85,3665L143,3662L200,3659L200,3397L200,3135L100,3035C40,2975 0,2927 0,2915C0,2901 31,2927 115,3010L230,3125L230,3679L168,3682C120,3684 105,3689 105,3700C105,3712 127,3716 219,3720C313,3724 335,3728 344,3743C352,3755 352,3765 344,3778C335,3792 315,3795 221,3798C78,3801 73,3820 215,3820C317,3820 320,3821 337,3846C349,3865 351,3876 343,3889C335,3902 312,3906 221,3908C138,3910 110,3914 113,3923C115,3931 153,3937 225,3940C313,3944 335,3948 344,3963C352,3975 352,3985 344,3998C335,4012 315,4015 226,4018C141,4020 120,4024 120,4035C120,4048 203,4050 750,4050L1380,4050L1380,4009C1380,3957 1395,3930 1423,3930C1459,3930 1470,3949 1470,4012C1470,4044 1474,4070 1480,4070C1486,4070 1490,4046 1490,4016C1490,3971 1494,3958 1512,3946C1540,3926 1545,3926 1564,3946C1578,3959 1580,3993 1580,4159L1580,4356L1610,4385C1632,4407 1640,4423 1640,4450C1640,4480 1648,4494 1689,4534L1737,4582L2096,4581L2455,4580L2815,4940L3266,4940L3394,5070L3586,5070C3764,5070 3778,5069 3795,5050C3824,5018 3889,5023 3923,5058C3949,5085 3950,5089 3950,5207C3950,5290 3954,5331 3962,5336C3968,5340 3999,5342 4031,5341C4082,5339 4091,5342 4123,5369C4143,5387 4164,5398 4173,5395C4189,5388 4220,5414 4220,5434C4220,5451 4199,5470 4180,5470C4171,5470 4159,5465 4152,5458Z" style="fill:rgb(226,238,255);fill-rule:nonzero;"/>
            <path d="M3624,5311C3576,5307 3548,5299 3536,5288C3521,5272 3496,5270 3316,5270L3114,5270L3060,5215L3006,5160L2760,5160L2515,5160L2421,5066C2335,4980 2328,4970 2331,4938C2333,4918 2328,4895 2321,4887C2314,4878 2310,4861 2312,4848C2314,4830 2321,4825 2345,4825L2375,4825L2372,4894L2368,4963L2535,5130L3026,5130L3134,5240L3341,5240C3512,5240 3550,5243 3560,5255C3577,5275 3658,5275 3681,5254C3705,5233 3740,5244 3740,5274C3740,5298 3722,5321 3706,5318C3700,5317 3663,5314 3624,5311Z" style="fill:rgb(226,238,255);fill-rule:nonzero;"/>
            <path d="M3842,5308C3835,5301 3830,5289 3830,5280C3830,5271 3815,5250 3797,5232L3764,5200L3455,5200L3147,5200L3084,5140L3022,5080L2873,5080L2725,5080L2585,4940L2445,4800L2045,4800L1644,4800L1537,4691C1443,4596 1430,4579 1430,4548C1430,4523 1422,4506 1400,4485C1376,4462 1370,4448 1370,4414C1370,4372 1357,4350 1345,4370C1337,4383 1294,4383 1271,4370C1261,4365 1247,4347 1240,4331C1217,4273 1270,4218 1333,4234C1365,4242 1383,4273 1382,4317C1381,4335 1385,4352 1390,4355C1396,4358 1400,4380 1400,4404C1400,4438 1406,4452 1430,4475C1452,4496 1460,4513 1460,4540C1460,4572 1470,4586 1558,4673L1655,4770L2455,4770L2745,5060L3036,5060L3144,5170L3766,5170L3800,5205C3823,5228 3843,5240 3862,5240C3898,5240 3915,5269 3894,5298C3877,5323 3860,5326 3842,5308Z" style="fill:rgb(226,238,255);fill-rule:nonzero;"/>
            <path d="M3992,5308C3966,5282 3991,5231 4024,5243C4032,5246 4047,5238 4059,5226C4078,5206 4080,5192 4080,5069C4080,4977 4076,4930 4068,4922C4061,4915 4037,4910 4015,4910C3965,4910 3930,4879 3930,4835C3930,4817 3920,4795 3903,4778L3876,4750L3670,4750L3465,4750L3370,4655L3275,4560L3041,4560L2806,4560L2605,4360L2404,4160L2229,4160L2055,4160L1790,3895L1525,3630L1320,3630L1114,3630L1055,3570L996,3510L724,3510C429,3510 421,3508 434,3455L440,3430L660,3428C955,3424 954,3407 658,3400C535,3397 434,3393 433,3392C431,3391 430,3312 430,3217L430,3045L280,2895L130,2745L130,2318L130,1890L65,1890C27,1890 0,1886 0,1880C0,1873 29,1870 78,1872L155,1875L158,2305L160,2735L451,3026L453,3196L455,3365L669,3368C807,3369 888,3374 897,3381C916,3398 913,3438 891,3450C879,3456 788,3460 665,3460C504,3460 459,3463 462,3473C466,3482 532,3486 741,3488L1016,3490L1124,3600L1535,3600L2065,4130L2405,4130L2815,4540L3295,4540L3485,4730L3896,4730L3928,4763C3950,4785 3960,4806 3960,4826C3960,4867 3976,4880 4025,4880C4055,4880 4072,4886 4088,4903C4109,4925 4110,4936 4110,5070C4110,5212 4110,5214 4084,5241C4069,5256 4052,5279 4046,5292C4033,5319 4010,5326 3992,5308Z" style="fill:rgb(226,238,255);fill-rule:nonzero;"/>
            <path d="M3995,5156C3982,5146 3979,5136 3984,5115C3990,5092 3985,5081 3959,5054L3926,5020L3661,5020L3396,5020L3286,4910L3176,4800L2985,4800L2795,4800L2650,4655L2505,4510L2335,4510C2159,4510 2140,4506 2140,4469C2140,4427 2202,4420 2215,4461C2221,4479 2231,4480 2368,4480L2515,4480L2805,4770L3185,4770L3405,4990L3936,4990L3993,5049C4025,5082 4050,5117 4050,5129C4050,5157 4018,5173 3995,5156Z" style="fill:rgb(226,238,255);fill-rule:nonzero;"/>
            <path d="M3840,5151C3840,5143 3736,5140 3507,5140L3174,5140L3125,5090L3076,5040L2916,5040L2756,5040L2595,4880L2434,4720L2054,4720L1675,4720L1587,4632C1510,4555 1500,4540 1500,4509C1500,4483 1492,4466 1470,4445C1441,4418 1441,4414 1438,4306L1435,4195L1313,4192L1190,4189L1190,4315C1190,4450 1182,4480 1147,4480C1105,4480 1100,4464 1100,4317C1100,4211 1097,4179 1088,4182C1078,4185 1074,4225 1072,4326C1069,4474 1063,4494 1019,4483C994,4476 990,4458 987,4307C985,4157 966,4128 962,4267C959,4370 948,4391 905,4372C882,4361 881,4355 878,4270C874,4156 856,4151 852,4262C849,4353 839,4372 801,4368C776,4365 775,4363 770,4271C763,4141 743,4137 738,4264C735,4367 726,4386 686,4376C661,4370 661,4367 658,4273C656,4207 651,4175 643,4172C633,4169 630,4191 630,4259C630,4340 628,4350 608,4364C593,4375 582,4376 568,4369C553,4361 550,4347 550,4270C550,4187 549,4180 530,4180C511,4180 510,4187 510,4275C510,4369 510,4370 483,4376C443,4386 430,4360 430,4268L430,4190L218,4188L5,4185L5,3690L5,3195L7,3677L10,4160L233,4162L455,4165L458,4258C460,4330 464,4350 475,4350C486,4350 490,4329 492,4253L495,4155L565,4155L570,4249C573,4310 579,4345 587,4347C596,4350 600,4325 602,4253L605,4155L675,4155L678,4253C680,4330 684,4350 695,4350C707,4350 710,4333 710,4266C710,4162 714,4150 751,4150C790,4150 800,4174 800,4270C800,4322 804,4349 810,4345C816,4342 820,4301 820,4256C820,4165 830,4146 872,4152C894,4155 895,4160 900,4250C904,4326 908,4345 920,4345C932,4345 936,4326 940,4250C945,4160 946,4155 968,4152C1015,4145 1020,4161 1020,4317C1020,4428 1023,4461 1033,4458C1041,4455 1046,4412 1050,4309L1055,4165L1125,4165L1128,4308C1130,4424 1133,4450 1145,4450C1157,4450 1160,4424 1162,4313L1165,4175L1304,4172C1397,4170 1447,4173 1456,4181C1466,4189 1470,4220 1470,4299C1470,4405 1470,4407 1500,4435C1522,4456 1530,4473 1530,4500C1530,4531 1540,4545 1613,4618L1695,4700L2445,4700L2765,5020L3096,5020L3184,5110L3505,5110C3767,5109 3828,5107 3844,5095C3871,5074 3902,5093 3898,5128C3896,5149 3889,5156 3868,5158C3852,5160 3840,5157 3840,5151Z" style="fill:rgb(226,238,255);fill-rule:nonzero;"/>
            <path d="M3997,4995C3988,4987 3980,4976 3978,4970C3976,4963 3881,4959 3692,4959L3408,4959L3305,4855L3201,4750L3008,4750L2815,4750L2610,4545L2405,4340L2315,4340C2231,4340 2224,4342 2215,4363C2202,4392 2154,4399 2146,4372C2136,4343 2149,4320 2175,4320C2188,4320 2202,4316 2205,4310C2208,4304 2256,4300 2313,4300L2415,4300L2825,4710L3215,4710L3425,4920L3702,4920C3857,4920 3981,4924 3984,4929C3987,4934 3999,4936 4010,4933C4053,4922 4079,4979 4041,5000C4016,5013 4014,5013 3997,4995Z" style="fill:rgb(226,238,255);fill-rule:nonzero;"/>
            <path d="M3345,4790L3235,4680L3025,4680L2815,4680L2605,4470L2395,4260L2195,4260L1995,4260L1790,4055L1585,3850L1010,3848L435,3845L432,3733L429,3620L396,3620C375,3620 356,3612 342,3597C321,3574 320,3566 320,3334L320,3095L170,2945L20,2795L20,2682C20,2612 16,2563 8,2550C-9,2523 6,2513 30,2535C48,2551 50,2566 50,2669L50,2785L350,3085L350,3325C350,3581 352,3590 398,3590C411,3590 430,3595 441,3600C458,3610 460,3622 460,3720L460,3830L1605,3830L2015,4240L2415,4240L2825,4650L3234,4650L3350,4765L3467,4880L3776,4880L3802,4853C3816,4837 3830,4816 3832,4805C3834,4790 3843,4785 3865,4785C3892,4785 3895,4788 3895,4815C3895,4840 3891,4846 3869,4848C3854,4850 3832,4862 3819,4876C3797,4900 3794,4900 3626,4900L3455,4900L3345,4790Z" style="fill:rgb(226,238,255);fill-rule:nonzero;"/>
            <path d="M3684,4845C3670,4835 3637,4831 3565,4830L3465,4830L3365,4730L3265,4630L3045,4630L2825,4630L2615,4420L2405,4210L2215,4210L2025,4210L1820,4005L1615,3800L1165,3798L715,3795L715,3760L715,3725L1109,3720C1412,3716 1504,3712 1508,3703C1511,3693 1429,3690 1123,3690C697,3690 695,3690 702,3635L705,3605L840,3602C971,3599 1012,3590 980,3570C971,3564 848,3560 686,3561C437,3561 406,3559 389,3544C371,3528 370,3510 370,3296L370,3065L220,2915L70,2765L70,2468L70,2170L35,2170C16,2170 0,2166 0,2160C0,2155 20,2150 44,2150C76,2150 90,2155 94,2167C98,2176 100,2311 100,2468L99,2754L400,3055L400,3286C400,3467 403,3520 413,3529C422,3536 523,3541 715,3542C977,3545 1004,3547 1014,3563C1022,3575 1022,3585 1014,3598C1005,3612 982,3616 864,3620C749,3624 725,3628 725,3640C725,3653 778,3656 1124,3660C1490,3665 1524,3666 1534,3683C1542,3695 1542,3705 1534,3718C1524,3734 1490,3735 1129,3740C788,3744 735,3747 735,3760C735,3773 793,3775 1185,3778L1635,3780L2045,4190L2425,4190L2835,4600L3265,4600L3465,4800L3567,4800C3632,4800 3678,4795 3690,4788C3729,4763 3767,4811 3735,4844C3715,4864 3709,4864 3684,4845Z" style="fill:rgb(226,238,255);fill-rule:nonzero;"/>
            <path d="M3996,4838C3988,4826 3983,4813 3987,4807C3990,4802 3968,4774 3939,4744L3886,4690L3695,4690L3505,4690L3410,4595L3315,4500L3225,4500L3135,4500L2760,4125C2394,3759 2384,3750 2346,3750C2323,3750 2299,3757 2288,3767C2273,3780 2265,3782 2252,3774C2227,3758 2224,3713 2248,3706C2270,3699 2300,3708 2300,3721C2300,3726 2321,3730 2348,3730L2395,3730L3155,4490L3325,4490L3505,4670L3896,4670L3950,4725C3980,4755 4011,4780 4020,4780C4059,4780 4074,4832 4041,4850C4015,4864 4013,4863 3996,4838Z" style="fill:rgb(226,238,255);fill-rule:nonzero;"/>
            <path d="M3950,4705L3906,4660L3716,4660L3525,4660L3433,4568L3340,4475L3251,4472L3163,4468L2744,4049C2514,3819 2320,3630 2314,3630C2307,3630 2299,3637 2296,3646C2292,3656 2281,3660 2263,3658C2239,3655 2235,3650 2235,3625C2235,3600 2239,3595 2263,3592C2281,3590 2292,3594 2296,3604C2299,3613 2310,3620 2319,3620C2328,3620 2524,3809 2755,4040L3175,4460L3355,4460L3535,4640L3906,4640L3950,4685C3991,4727 3998,4730 4045,4730C4102,4730 4135,4706 4142,4660C4144,4640 4151,4635 4174,4635C4210,4635 4230,4661 4211,4684C4203,4693 4188,4700 4176,4700C4163,4700 4143,4711 4130,4725C4110,4746 4097,4750 4050,4750C3997,4750 3992,4748 3950,4705Z" style="fill:rgb(226,238,255);fill-rule:nonzero;"/>
            <path d="M3991,4683C3979,4673 3956,4655 3940,4643C3919,4625 3899,4620 3858,4620C3828,4620 3799,4615 3792,4608C3785,4601 3780,4568 3780,4529C3780,4468 3777,4459 3754,4441C3730,4422 3714,4420 3570,4420C3442,4420 3410,4417 3400,4405C3391,4394 3365,4390 3291,4390L3195,4390L2797,3992C2425,3620 2400,3593 2400,3560C2400,3528 2387,3512 2272,3397L2145,3270L1759,3270L1373,3270L1351,3294C1338,3308 1331,3323 1334,3329C1344,3345 1322,3380 1302,3380C1262,3380 1245,3329 1279,3311C1289,3305 1299,3303 1302,3305C1304,3308 1319,3296 1335,3280L1364,3250L2155,3250L2288,3383C2413,3508 2420,3517 2420,3555C2420,3594 2427,3602 2807,3982L3195,4370L3291,4370C3374,4370 3389,4373 3405,4390C3422,4408 3436,4410 3585,4410L3746,4410L3773,4438C3796,4462 3800,4475 3800,4526C3800,4559 3805,4591 3812,4598C3819,4605 3849,4610 3879,4610C3921,4610 3939,4615 3957,4632C3979,4653 3981,4653 3993,4636C4019,4600 4077,4640 4054,4678C4039,4702 4019,4704 3991,4683Z" style="fill:rgb(226,238,255);fill-rule:nonzero;"/>
            <path d="M4242,4608C4226,4592 4227,4575 4245,4560C4266,4542 4264,4477 4242,4457C4227,4443 4202,4440 4119,4440L4015,4440L3935,4360L3855,4280L3664,4280C3484,4280 3472,4279 3455,4260C3438,4241 3425,4239 3342,4241L3248,4243L2894,3889C2547,3542 2540,3534 2540,3495C2540,3456 2533,3448 2198,3113C1877,2792 1853,2770 1820,2770C1790,2770 1775,2761 1721,2706C1676,2660 1653,2644 1639,2647C1614,2654 1590,2633 1590,2605C1590,2574 1614,2556 1645,2564C1668,2570 1675,2585 1670,2619C1669,2627 1697,2662 1731,2696C1788,2754 1798,2760 1835,2760C1874,2760 1881,2766 2218,3103C2553,3438 2560,3446 2560,3485C2560,3524 2567,3532 2913,3878L3265,4230L3361,4230C3435,4230 3461,4234 3470,4245C3480,4257 3515,4260 3669,4260L3855,4260L4015,4420L4120,4420C4223,4420 4227,4421 4253,4448C4272,4468 4280,4487 4280,4513C4280,4533 4284,4550 4289,4550C4302,4550 4312,4584 4304,4604C4297,4623 4259,4625 4242,4608Z" style="fill:rgb(226,238,255);fill-rule:nonzero;"/>
            <path d="M3957,4572C3947,4561 3940,4537 3940,4514C3940,4479 3933,4468 3877,4412L3814,4350L3628,4350C3475,4350 3440,4347 3430,4335C3421,4324 3395,4320 3321,4320L3225,4320L2847,3942C2494,3589 2470,3563 2470,3530C2470,3498 2456,3481 2317,3342L2165,3190L2073,3190L1982,3190L1841,3052L1700,2914L1700,2858C1700,2797 1682,2770 1639,2770C1608,2770 1590,2753 1590,2725C1590,2698 1608,2680 1636,2680C1665,2680 1684,2704 1676,2733C1672,2750 1677,2763 1695,2780C1715,2799 1720,2813 1720,2854L1720,2905L1985,3170L2175,3170L2328,3323C2473,3468 2480,3477 2480,3515C2480,3554 2488,3562 2858,3932L3235,4310L3331,4310C3405,4310 3431,4314 3440,4325C3450,4337 3486,4340 3644,4340L3836,4340L3893,4398C3945,4451 3950,4459 3950,4501C3950,4526 3955,4551 3962,4558C3969,4565 4002,4570 4040,4570C4112,4570 4147,4550 4134,4516C4120,4480 4174,4454 4200,4485C4217,4506 4203,4540 4176,4540C4164,4540 4143,4551 4130,4565C4110,4587 4098,4590 4040,4590C3988,4590 3969,4586 3957,4572Z" style="fill:rgb(226,238,255);fill-rule:nonzero;"/>
            <path d="M3684,4526C3679,4513 3657,4510 3556,4510L3434,4510L3395,4470L3356,4430L3265,4430L3175,4430L2767,4022C2366,3621 2360,3614 2360,3575C2360,3539 2354,3528 2307,3482L2254,3430L2039,3430L1823,3430L1801,3406C1788,3392 1766,3380 1752,3378C1698,3371 1701,3310 1756,3310C1774,3310 1781,3317 1786,3338C1790,3353 1804,3377 1818,3393L1844,3420L2276,3420L2323,3468C2363,3509 2370,3522 2370,3555C2370,3594 2378,3603 2783,4008L3195,4420L3376,4420L3454,4500L3562,4500C3657,4500 3672,4498 3690,4480C3718,4452 3753,4469 3748,4508C3746,4529 3739,4536 3717,4538C3699,4540 3688,4536 3684,4526Z" style="fill:rgb(226,238,255);fill-rule:nonzero;"/>
            <path d="M3840,4525C3829,4512 3829,4505 3838,4492C3863,4458 3862,4448 3834,4419L3806,4390L3614,4390C3456,4390 3420,4387 3410,4375C3401,4364 3375,4360 3306,4360L3215,4360L2822,3967C2436,3581 2430,3574 2430,3535C2430,3497 2423,3488 2297,3362L2165,3230L2070,3230L1975,3230L1820,3075C1686,2940 1662,2921 1631,2918C1598,2915 1595,2912 1592,2883C1589,2856 1593,2848 1614,2838C1636,2829 1643,2830 1661,2846C1674,2857 1679,2872 1676,2885C1672,2901 1702,2937 1823,3058L1975,3210L2165,3210L2308,3353C2443,3488 2450,3497 2450,3535C2450,3574 2457,3582 2833,3958L3215,4340L3303,4340C3377,4340 3396,4343 3417,4360C3441,4378 3458,4380 3629,4380L3816,4380L3848,4413C3866,4431 3880,4449 3880,4454C3880,4458 3887,4468 3896,4477C3904,4486 3910,4502 3908,4514C3904,4541 3859,4548 3840,4525Z" style="fill:rgb(226,238,255);fill-rule:nonzero;"/>
            <path d="M3991,4522C3985,4511 3983,4500 3987,4497C3990,4493 3958,4452 3915,4405L3838,4320L3645,4320C3466,4320 3452,4319 3435,4300C3419,4283 3404,4280 3326,4280L3235,4280L2872,3917C2517,3561 2510,3554 2510,3515C2510,3476 2503,3468 2337,3302L2165,3130L2105,3130L2045,3130L1921,3006C1852,2937 1793,2883 1788,2886C1784,2889 1771,2886 1760,2880C1731,2864 1733,2812 1763,2801C1796,2788 1825,2810 1825,2849C1825,2875 1843,2898 1940,2995L2055,3110L2175,3110L2530,3465L2530,3555L3235,4260L3331,4260C3414,4260 3429,4263 3445,4280C3462,4299 3476,4300 3649,4300L3835,4300L3920,4385C3974,4439 4013,4470 4029,4472C4051,4474 4055,4480 4055,4505C4055,4530 4051,4536 4028,4538C4010,4540 3998,4535 3991,4522Z" style="fill:rgb(226,238,255);fill-rule:nonzero;"/>
            <path d="M4132,4327L4080,4274L4080,4035L4080,3795L3993,3708L3905,3620L3814,3620C3736,3620 3721,3617 3705,3600C3689,3582 3674,3580 3548,3580L3409,3580L3184,3358L2960,3137L2960,2816L2960,2495L2590,2125L2220,1755L2220,1670L2220,1585L2060,1425L1900,1265L1900,1110L1900,955L2055,800L2210,645L2210,559C2210,483 2208,471 2187,452C2170,435 2151,430 2114,430L2065,430L1873,622L1680,815L1680,1544L1653,1572L1626,1600L813,1600C97,1600 0,1598 0,1585C0,1572 96,1570 808,1570C1579,1570 1618,1569 1633,1552C1648,1535 1650,1494 1650,1169L1650,805L1853,602L2055,400L2116,400C2171,400 2179,403 2208,433C2239,465 2240,468 2240,561L2240,655L2085,810L1930,965L1930,1265L2250,1585L2250,1755L2990,2495L2990,3125L3425,3560L3566,3560C3694,3560 3709,3562 3725,3580C3740,3597 3756,3600 3829,3600L3915,3600L4100,3785L4100,4256L4196,4350L4506,4350C4795,4350 4818,4349 4833,4332C4847,4316 4850,4289 4850,4162C4850,4069 4854,4001 4862,3985L4873,3960L5495,3960C6104,3960 6117,3960 6135,3940C6152,3922 6166,3920 6304,3920L6456,3920L6508,3973C6557,4022 6560,4029 6560,4076C6560,4122 6563,4129 6608,4173L6656,4220L6896,4220L6925,4190C6951,4163 6960,4160 7015,4160C7064,4160 7081,4156 7095,4140C7108,4125 7126,4120 7160,4120C7213,4120 7240,4099 7240,4059C7240,4030 7257,4010 7281,4010C7325,4010 7331,4082 7287,4096C7275,4100 7252,4113 7237,4126C7217,4143 7196,4150 7166,4150C7136,4150 7118,4156 7105,4170C7091,4186 7074,4190 7025,4190C6970,4190 6961,4193 6935,4220L6906,4250L6775,4250L6644,4250L6587,4192C6533,4138 6530,4132 6530,4085C6530,4041 6526,4032 6488,3993L6446,3950L6299,3950C6165,3950 6152,3952 6135,3970C6117,3990 6106,3990 5508,3990C5173,3990 4895,3992 4890,3995C4884,3999 4880,4071 4880,4164L4880,4326L4852,4353L4824,4380L4504,4380L4184,4380L4132,4327Z" style="fill:rgb(226,238,255);fill-rule:nonzero;"/>
            <path d="M4247,4172L4140,4065L4140,3920L4140,3775L4037,3672L3935,3570L3854,3570C3778,3570 3772,3568 3745,3540L3716,3510L3576,3510L3435,3510L3232,3307L3030,3105L3030,2785L3030,2465L2660,2095L2290,1725L2290,1645L2290,1565L2130,1405L1970,1245L1970,1125L1970,1005L2125,850L2280,695L2280,570L2280,444L2232,397L2184,350L2105,350L2025,350L1818,557L1610,765L1610,1120C1610,1426 1608,1479 1594,1498L1579,1520L789,1520C270,1520 0,1517 0,1510C0,1503 266,1500 778,1500C1370,1500 1559,1497 1568,1488C1577,1479 1580,1383 1580,1115L1580,755L1798,537L2015,320L2194,320L2310,434L2310,695L2154,851L1998,1008L1999,1121L2001,1235L2160,1395L2320,1555L2320,1715L2690,2085L3060,2456L3060,3095L3445,3480L3726,3480L3755,3510C3782,3538 3788,3540 3865,3540L3945,3540L4170,3765L4170,4055L4375,4260L4557,4260C4657,4260 4745,4257 4754,4254C4768,4249 4770,4227 4770,4111L4770,3974L4823,3922L4876,3870L5485,3870C5995,3869 6099,3867 6120,3855C6139,3844 6187,3841 6315,3840L6485,3840L6563,3918C6639,3994 6640,3996 6640,4046C6640,4091 6644,4100 6678,4133L6716,4170L6806,4170C6893,4170 6897,4169 6925,4140C6950,4114 6961,4110 7007,4110C7051,4110 7061,4106 7072,4088C7079,4075 7083,4059 7081,4052C7074,4016 7140,3994 7158,4026C7173,4053 7160,4081 7129,4087C7114,4090 7091,4103 7079,4116C7062,4135 7046,4140 7010,4140C6973,4140 6959,4145 6940,4165C6918,4189 6911,4190 6805,4190L6694,4190L6652,4147C6614,4108 6610,4100 6610,4054C6610,4006 6608,4002 6542,3937L6474,3869L6299,3875C6203,3878 5846,3883 5505,3885L4885,3890L4843,3932L4800,3974L4800,4111C4800,4230 4798,4249 4782,4263C4766,4278 4735,4280 4559,4280L4355,4280L4247,4172Z" style="fill:rgb(226,238,255);fill-rule:nonzero;"/>
            <path d="M3688,4220C3676,4201 3664,4200 3470,4200L3265,4200L2922,3857C2603,3538 2580,3513 2580,3480C2580,3447 2557,3421 2227,3092C1881,2746 1874,2740 1835,2740C1800,2740 1788,2734 1747,2692C1707,2651 1700,2639 1700,2604C1700,2525 1621,2502 1562,2563L1530,2596L1530,2711C1530,2814 1532,2829 1550,2845C1575,2868 1575,2892 1551,2914C1510,2951 1457,2892 1494,2851C1507,2837 1510,2810 1510,2714L1510,2594L1548,2557C1582,2524 1592,2520 1636,2520C1700,2520 1720,2539 1720,2601C1720,2640 1725,2651 1758,2683C1790,2714 1803,2720 1840,2720L1885,2720L2242,3077C2594,3429 2600,3436 2600,3475C2600,3514 2606,3521 2933,3848L3265,4180L3468,4180C3636,4180 3674,4177 3686,4165C3708,4144 3747,4146 3760,4169C3774,4196 3773,4206 3754,4224C3733,4246 3703,4244 3688,4220Z" style="fill:rgb(226,238,255);fill-rule:nonzero;"/>
            <path d="M3795,4185L3738,4130L3492,4130L3245,4130L2932,3817C2627,3512 2620,3504 2620,3465C2620,3426 2613,3418 2257,3062C2058,2863 1888,2700 1879,2700C1871,2700 1853,2688 1839,2674C1826,2660 1808,2651 1798,2653C1789,2656 1772,2651 1761,2643C1724,2618 1740,2570 1785,2570C1813,2570 1830,2589 1830,2620C1830,2651 1857,2680 1886,2680C1898,2680 2042,2817 2268,3043C2623,3398 2630,3406 2630,3445C2630,3484 2637,3492 2943,3798L3255,4110L3744,4110L3783,4148C3817,4181 3822,4183 3831,4168C3845,4142 3896,4145 3910,4171C3924,4197 3899,4240 3870,4240C3860,4240 3826,4215 3795,4185Z" style="fill:rgb(226,238,255);fill-rule:nonzero;"/>
            <path d="M3975,4216C3967,4203 3962,4185 3966,4176C3978,4145 3951,4130 3886,4130C3811,4130 3780,4106 3780,4049C3780,4025 3773,4006 3757,3992C3735,3971 3725,3970 3529,3970L3325,3970L2822,3467L2320,2965L2320,2917C2320,2891 2315,2870 2310,2870C2304,2870 2294,2859 2288,2845C2279,2824 2280,2817 2295,2800C2319,2773 2346,2775 2365,2804C2378,2823 2379,2833 2370,2849C2364,2861 2355,2870 2350,2870C2344,2870 2340,2891 2340,2918L2340,2965L3325,3950L3744,3950L3772,3977C3794,3998 3800,4013 3800,4045C3800,4067 3805,4091 3812,4098C3819,4105 3851,4110 3885,4110C3934,4110 3951,4114 3965,4130C3975,4141 3996,4150 4011,4150C4054,4150 4074,4195 4044,4224C4022,4247 3993,4244 3975,4216Z" style="fill:rgb(226,238,255);fill-rule:nonzero;"/>
            <path d="M3686,4065C3674,4053 3638,4050 3488,4050L3305,4050L3062,3807C2854,3599 2815,3564 2794,3568C2750,3576 2721,3523 2752,3492C2780,3464 2830,3485 2830,3524C2831,3538 2917,3633 3068,3788L3305,4030L3488,4030C3664,4030 3673,4029 3689,4008C3724,3965 3787,4010 3760,4060C3747,4084 3708,4087 3686,4065Z" style="fill:rgb(226,238,255);fill-rule:nonzero;"/>
            <path d="M3830,4059C3823,4048 3821,4031 3825,4022C3834,3999 3763,3930 3730,3930C3712,3930 3688,3913 3650,3875L3596,3820L3440,3820L3285,3820L3002,3537L2720,3255L2720,3134L2720,3013L2635,2926L2550,2840L2550,2692L2550,2544L2482,2477C2433,2429 2407,2410 2388,2410C2355,2410 2336,2387 2344,2355C2351,2326 2393,2311 2415,2330C2423,2337 2430,2357 2430,2374C2430,2400 2443,2418 2500,2475L2570,2544L2570,2835L2740,3005L2740,3245L3295,3800L3596,3800L3650,3855C3686,3892 3712,3910 3729,3910C3743,3910 3770,3926 3796,3950C3822,3974 3849,3990 3864,3990C3908,3990 3930,4049 3896,4072C3875,4087 3841,4080 3830,4059Z" style="fill:rgb(226,238,255);fill-rule:nonzero;"/>
            <path d="M3968,4055C3959,4036 3959,4027 3968,4018C3977,4009 3976,4002 3963,3988C3951,3975 3932,3970 3891,3970L3835,3970L3740,3875L3645,3780L3475,3780L3305,3780L3032,3507L2760,3235L2760,3115L2760,2995L2675,2910L2590,2825L2590,2650L2590,2475L2502,2387C2438,2324 2408,2300 2389,2300C2359,2300 2340,2283 2340,2255C2340,2228 2358,2210 2385,2210C2413,2210 2430,2229 2430,2260C2430,2279 2452,2308 2515,2370L2600,2455L2600,2805L2780,2985L2780,3225L3315,3760L3655,3760L3845,3950L3901,3950C3943,3950 3961,3955 3974,3969C3983,3979 4004,3990 4020,3993C4076,4005 4067,4080 4009,4080C3987,4080 3977,4074 3968,4055Z" style="fill:rgb(226,238,255);fill-rule:nonzero;"/>
            <path d="M3523,3911C3508,3892 3494,3890 3405,3890L3305,3890L2992,3577L2680,3265L2680,3145L2680,3025L2530,2875L2380,2725L2380,2625C2380,2536 2378,2523 2360,2512C2322,2489 2340,2430 2385,2430C2430,2430 2446,2483 2410,2515C2393,2531 2390,2546 2390,2623L2390,2714L2700,3026L2700,3255L3317,3872L3413,3873C3494,3875 3510,3872 3519,3858C3535,3833 3576,3836 3594,3862C3626,3907 3559,3953 3523,3911Z" style="fill:rgb(226,238,255);fill-rule:nonzero;"/>
            <path d="M3845,3914C3835,3904 3831,3888 3834,3876C3838,3860 3826,3841 3783,3798L3726,3740L3525,3740L3325,3740L3062,3477L2800,3215L2800,3095L2800,2975L2710,2885L2620,2795L2620,2590L2620,2385L2402,2167L2185,1950L2044,1950L1904,1950L1872,1917C1845,1889 1840,1877 1840,1834C1840,1791 1844,1779 1870,1755C1887,1739 1899,1721 1897,1715C1889,1695 1911,1670 1935,1670C1970,1670 1987,1706 1964,1731C1954,1742 1939,1749 1929,1748C1919,1746 1900,1756 1886,1769C1850,1803 1849,1876 1883,1908C1905,1929 1916,1930 2051,1930L2195,1930L2630,2365L2630,2785L2810,2965L2810,3205L3325,3720L3726,3720L3785,3780C3829,3824 3852,3840 3871,3840C3900,3840 3930,3863 3930,3885C3930,3905 3902,3930 3880,3930C3870,3930 3854,3923 3845,3914Z" style="fill:rgb(226,238,255);fill-rule:nonzero;"/>
            <path d="M3990,3915C3983,3907 3980,3889 3982,3875C3986,3858 3980,3844 3964,3829C3945,3812 3940,3796 3940,3760C3940,3724 3935,3708 3917,3692C3894,3671 3887,3670 3629,3670L3365,3670L3117,3422L2870,3175L2870,3055L2870,2935L2785,2850L2700,2765L2700,2550L2700,2335L2420,2055L2140,1775L2140,1725C2140,1685 2136,1672 2119,1662C2095,1647 2097,1612 2122,1596C2159,1573 2199,1632 2165,1660C2156,1668 2150,1689 2150,1719L2150,1765L2720,2335L2720,2765L2890,2935L2890,3175L3365,3650L3904,3650L3932,3677C3956,3700 3960,3712 3960,3755C3960,3813 3979,3840 4021,3840C4067,3840 4086,3883 4054,3914C4034,3934 4006,3934 3990,3915Z" style="fill:rgb(226,238,255);fill-rule:nonzero;"/>
            <path d="M4430,3877C4430,3841 4381,3800 4339,3800C4300,3800 4260,3767 4260,3734C4259,3724 4253,3704 4245,3690C4236,3675 4231,3636 4230,3590L4230,3515L4142,3427L4055,3340L3990,3340L3924,3340L3852,3267L3780,3195L3780,3125L3780,3055L3570,2845L3360,2635L3360,2480L3360,2325L3145,2110L2929,1894L2930,1405L2930,916L2863,848C2815,799 2788,780 2770,780C2751,780 2722,758 2662,697L2580,615L2580,550L2580,485L2452,357L2325,230L2176,230L2027,230L1911,115L1795,0L2716,0L2853,138L2990,277L2990,726L3100,834L3100,1815L3540,2255L3540,2565L3960,2985L3960,3056C3960,3151 3978,3170 4071,3170L4135,3170L4410,3445L4410,3521C4410,3593 4411,3597 4443,3628L4476,3660L5136,3660L5195,3600L5254,3540L5490,3540L5490,3700L5830,3700L5830,3630C5830,3572 5833,3559 5849,3550C5861,3544 5966,3540 6119,3540L6370,3540L6370,3770L6223,3770C6093,3770 6071,3772 6042,3790C6011,3809 5992,3810 5417,3810L4824,3810L4780,3855L4736,3900L4583,3900L4430,3900L4430,3877ZM2895,375C2946,325 2913,240 2843,240C2799,240 2760,277 2760,320C2760,361 2799,400 2840,400C2859,400 2880,391 2895,375Z" style="fill:rgb(226,238,255);fill-rule:nonzero;"/>
            <path d="M3835,3770C3825,3759 3820,3742 3823,3730C3828,3710 3825,3710 3586,3710L3345,3710L3087,3452L2830,3195L2830,3075L2830,2955L2745,2870L2660,2785L2660,2580L2660,2375L2407,2122L2155,1870L2062,1870C2012,1870 1970,1874 1970,1879C1970,1895 1930,1902 1914,1889C1906,1882 1900,1865 1902,1851C1904,1831 1911,1824 1933,1822C1951,1820 1962,1824 1966,1834C1971,1847 1990,1850 2069,1850L2165,1850L2680,2365L2680,2775L2850,2945L2850,3185L3103,3437L3355,3689L3615,3691C3758,3691 3883,3696 3892,3701C3917,3714 3916,3766 3891,3780C3864,3794 3856,3793 3835,3770Z" style="fill:rgb(226,238,255);fill-rule:nonzero;"/>
            <path d="M4132,3618C4125,3611 4120,3597 4120,3586C4120,3575 4108,3553 4093,3538C4066,3510 4066,3510 3932,3510L3797,3510L3754,3470L3710,3430L3593,3430L3475,3430L3298,3253L3120,3075L3120,2755L3120,2435L2750,2065L2380,1695L2380,1605L2380,1515L2228,1363C2077,1211 2076,1210 2079,1169C2081,1138 2076,1122 2060,1105C2035,1079 2036,1053 2063,1036C2099,1013 2139,1072 2105,1100C2096,1108 2090,1129 2090,1159L2090,1205L2400,1515L2400,1685L3140,2425L3140,3075L3485,3420L3726,3420L3794,3490L4076,3490L4105,3520C4120,3536 4137,3547 4142,3544C4147,3541 4162,3541 4175,3544C4204,3551 4218,3593 4200,3615C4185,3633 4149,3635 4132,3618Z" style="fill:rgb(226,238,255);fill-rule:nonzero;"/>
            <path d="M3832,3461C3825,3457 3816,3440 3811,3424L3804,3395L3654,3392L3505,3390L3338,3222L3170,3055L3170,2740L3170,2425L2795,2050L2420,1675L2420,1595L2420,1515L2310,1405C2215,1311 2200,1291 2200,1263C2200,1241 2194,1227 2179,1220C2150,1204 2156,1156 2188,1152C2232,1145 2258,1193 2225,1220C2193,1247 2209,1274 2325,1390L2440,1505L2440,1665L3190,2415L3190,3055L3353,3217L3515,3379L3677,3381C3766,3381 3844,3379 3849,3375C3870,3363 3900,3390 3900,3420C3900,3459 3863,3481 3832,3461Z" style="fill:rgb(226,238,255);fill-rule:nonzero;"/>
            <path d="M3994,3445C3990,3437 3983,3430 3978,3430C3972,3430 3948,3412 3924,3390L3880,3350L3698,3350L3515,3350L3357,3192L3200,3035L3200,2720L3200,2405L2828,2033L2457,1662L2459,1580L2461,1498L2361,1396L2260,1294L2260,1204L2260,1114L2223,1078C2202,1058 2174,1040 2161,1038C2129,1034 2111,1006 2126,983C2149,947 2200,961 2200,1003C2200,1014 2218,1042 2240,1066L2280,1110L2280,1295L2470,1485L2470,1655L3220,2405L3220,3035L3525,3340L3896,3340L3930,3375C3970,3416 3976,3417 3999,3388C4012,3372 4023,3369 4043,3374C4074,3381 4089,3422 4070,3445C4054,3465 4001,3464 3994,3445Z" style="fill:rgb(226,238,255);fill-rule:nonzero;"/>
            <path d="M4360,3350C4349,3339 4340,3326 4340,3320C4340,3315 4349,3301 4360,3290C4376,3274 4380,3257 4380,3200L4380,3130L4055,2805L3730,2481L3730,2313L3730,2144L3655,2070L3580,1996L3580,1515L3580,1035L3453,908C3370,826 3316,780 3300,778C3280,776 3275,769 3275,745C3275,718 3278,715 3305,715C3330,715 3336,719 3338,741C3340,758 3384,809 3475,900L3610,1035L3610,1986L3760,2134L3760,2475L4410,3125L4410,3201C4410,3257 4414,3281 4425,3290C4445,3307 4444,3333 4422,3353C4398,3375 4384,3374 4360,3350Z" style="fill:rgb(226,238,255);fill-rule:nonzero;"/>
            <path d="M3523,3290C3513,3279 3501,3270 3495,3270C3489,3270 3427,3213 3357,3142L3230,3015L3230,2695L3230,2375L2865,2010L2500,1645L2500,1560L2500,1474L2425,1400L2350,1326L2350,1254C2350,1202 2346,1179 2335,1170C2315,1154 2319,1121 2343,1106C2379,1083 2419,1142 2385,1170C2374,1179 2370,1201 2370,1249L2370,1316L2510,1454L2510,1625L2880,1998L3250,2370L3250,3015L3367,3132C3432,3197 3490,3250 3496,3250C3502,3250 3515,3241 3525,3230C3547,3206 3563,3205 3584,3226C3606,3247 3604,3287 3581,3300C3553,3314 3542,3313 3523,3290Z" style="fill:rgb(226,238,255);fill-rule:nonzero;"/>
            <path d="M3685,3294C3675,3284 3671,3268 3674,3256C3677,3243 3671,3227 3658,3213C3639,3193 3627,3190 3551,3190L3465,3190L3367,3092L3270,2995L3270,2680L3270,2365L2900,1995L2530,1625L2530,1540L2530,1454L2484,1410C2459,1385 2434,1356 2429,1345C2424,1334 2414,1317 2408,1308C2383,1274 2433,1233 2465,1260C2485,1276 2484,1299 2463,1322C2447,1340 2449,1343 2498,1393L2550,1446L2550,1615L3290,2355L3290,2996L3384,3088L3477,3180L3562,3180C3634,3180 3650,3183 3665,3200C3675,3211 3695,3220 3709,3220C3757,3220 3778,3254 3754,3289C3736,3314 3708,3316 3685,3294Z" style="fill:rgb(226,238,255);fill-rule:nonzero;"/>
            <path d="M4242,3238C4225,3221 4227,3185 4245,3170C4286,3136 4271,3116 3965,2810L3670,2515L3670,2347L3670,2180L3600,2114L3530,2048L3530,1756L3530,1465L3355,1290L3180,1115L3180,720L3180,325L3100,245L3020,165L3020,83C3020,16 3023,0 3035,0C3047,0 3050,15 3050,78L3050,155L3210,315L3210,1105L3550,1445L3550,2026L3700,2174L3700,2505L3990,2795C4260,3065 4280,3087 4280,3120C4280,3144 4286,3159 4300,3168C4338,3191 4320,3250 4275,3250C4263,3250 4249,3245 4242,3238Z" style="fill:rgb(226,238,255);fill-rule:nonzero;"/>
            <path d="M4140,3151C4135,3140 4132,3125 4135,3118C4138,3110 4129,3093 4115,3080C4101,3067 4090,3045 4090,3031C4090,3010 4040,2955 3855,2770L3620,2535L3620,2370L3620,2204L3545,2130L3470,2056L3470,1775L3470,1495L3398,1423C3339,1363 3320,1350 3294,1350C3251,1350 3210,1384 3210,1420C3210,1453 3188,1474 3161,1465C3120,1452 3127,1390 3169,1390C3179,1390 3199,1376 3215,1360C3240,1334 3251,1330 3295,1330C3345,1330 3347,1331 3423,1408L3500,1485L3500,2046L3650,2194L3650,2535L3880,2765C4036,2921 4110,3002 4110,3016C4110,3050 4146,3088 4172,3083C4187,3080 4202,3086 4214,3099C4230,3117 4231,3124 4222,3145C4207,3177 4156,3180 4140,3151Z" style="fill:rgb(226,238,255);fill-rule:nonzero;"/>
            <path d="M3686,3139C3666,3123 3645,3120 3559,3120L3455,3120L3383,3048L3310,2976L3310,2660L3310,2345L2940,1975L2570,1605L2570,1445L2570,1284L2537,1252C2517,1232 2494,1220 2477,1220C2437,1220 2421,1170 2454,1148C2481,1129 2525,1159 2515,1189C2512,1200 2524,1220 2550,1245L2590,1284L2590,1595L3330,2335L3330,2976L3456,3100L3561,3100C3654,3100 3669,3098 3685,3080C3709,3053 3736,3055 3755,3084C3787,3133 3732,3176 3686,3139Z" style="fill:rgb(226,238,255);fill-rule:nonzero;"/>
            <path d="M4002,3138C3985,3121 3987,3085 4005,3070C4040,3041 4022,3017 3795,2790L3570,2565L3570,2400L3570,2235L3430,2095L3290,1955L3290,1707C3290,1527 3287,1454 3278,1440C3255,1403 3302,1363 3335,1390C3354,1406 3354,1429 3335,1450C3323,1463 3320,1510 3320,1705L3319,1943L3459,2084L3600,2225L3600,2555L3825,2780C4005,2959 4050,3010 4050,3031C4050,3046 4057,3063 4065,3070C4097,3096 4077,3150 4035,3150C4023,3150 4009,3145 4002,3138Z" style="fill:rgb(226,238,255);fill-rule:nonzero;"/>
            <path d="M4466,2834C4446,2814 4446,2786 4465,2770C4478,2759 4480,2658 4480,1972L4480,1186L4537,1128L4594,1070L4736,1070L4788,1017C4831,973 4840,958 4840,929C4840,856 4876,860 4184,860L3564,860L3527,822L3490,784L3490,392C3490,50 3492,0 3505,0C3518,0 3520,50 3520,388L3520,776L3586,840L4205,840L4823,839L4847,861C4865,878 4870,894 4870,930C4870,973 4866,979 4807,1038L4744,1100L4674,1100L4604,1100L4557,1148L4510,1196L4510,1977C4510,2626 4512,2759 4524,2763C4544,2771 4550,2806 4533,2829C4516,2854 4487,2856 4466,2834Z" style="fill:rgb(226,238,255);fill-rule:nonzero;"/>
            <path d="M3726,2069C3696,2026 3746,1976 3789,2006C3814,2024 3816,2052 3794,2074C3772,2096 3744,2094 3726,2069Z" style="fill:rgb(226,238,255);fill-rule:nonzero;"/>
            <path d="M3742,1614C3715,1596 3714,1569 3738,1547C3763,1524 3786,1526 3804,1551C3820,1574 3816,1598 3792,1618C3772,1633 3769,1633 3742,1614Z" style="fill:rgb(226,238,255);fill-rule:nonzero;"/>
            <path d="M3388,1613C3368,1608 3357,1580 3366,1557C3380,1518 3440,1533 3440,1575C3440,1601 3415,1619 3388,1613Z" style="fill:rgb(226,238,255);fill-rule:nonzero;"/>
        </g>
    </g>
    <g transform="matrix(1,0,0,1,-1.83315,19)">
        <g transform="matrix(16,0,0,16,7.26915,6.81398)">
            <path d="M0.215,0.01C0.166,0.01 0.126,-0.005 0.095,-0.036C0.064,-0.067 0.049,-0.107 0.049,-0.156L0.049,-0.544C0.049,-0.593 0.064,-0.633 0.095,-0.664C0.126,-0.695 0.166,-0.71 0.215,-0.71C0.264,-0.71 0.304,-0.695 0.335,-0.664C0.366,-0.633 0.381,-0.593 0.381,-0.544L0.381,-0.462L0.277,-0.462L0.277,-0.544C0.277,-0.564 0.271,-0.58 0.26,-0.592C0.249,-0.604 0.234,-0.61 0.216,-0.61C0.198,-0.61 0.183,-0.604 0.172,-0.592C0.161,-0.58 0.155,-0.564 0.155,-0.544L0.155,-0.156C0.155,-0.136 0.161,-0.12 0.172,-0.108C0.183,-0.096 0.198,-0.09 0.216,-0.09C0.234,-0.09 0.249,-0.096 0.26,-0.108C0.271,-0.12 0.277,-0.136 0.277,-0.156L0.277,-0.256L0.381,-0.256L0.381,-0.156C0.381,-0.107 0.366,-0.067 0.335,-0.036C0.304,-0.005 0.264,0.01 0.215,0.01Z" style="fill:rgb(227,238,255);fill-rule:nonzero;"/>
        </g>
        <g transform="matrix(16,0,0,16,13.9892,6.81398)">
            <path d="M0.058,-0.7L0.164,-0.7L0.164,-0.1L0.353,-0.1L0.353,0L0.058,0L0.058,-0.7Z" style="fill:rgb(227,238,255);fill-rule:nonzero;"/>
        </g>
        <g transform="matrix(16,0,0,16,20.0212,6.81398)">
            <path d="M0.219,0.01C0.168,0.01 0.127,-0.005 0.096,-0.037C0.065,-0.068 0.049,-0.108 0.049,-0.159L0.049,-0.541C0.049,-0.592 0.065,-0.632 0.096,-0.664C0.127,-0.695 0.168,-0.71 0.219,-0.71C0.27,-0.71 0.311,-0.695 0.342,-0.664C0.373,-0.632 0.389,-0.592 0.389,-0.541L0.389,-0.159C0.389,-0.108 0.373,-0.068 0.342,-0.037C0.311,-0.005 0.27,0.01 0.219,0.01ZM0.219,-0.09C0.239,-0.09 0.255,-0.096 0.266,-0.108C0.277,-0.12 0.283,-0.137 0.283,-0.159L0.283,-0.541C0.283,-0.563 0.277,-0.58 0.266,-0.592C0.255,-0.604 0.239,-0.61 0.219,-0.61C0.199,-0.61 0.183,-0.604 0.172,-0.592C0.161,-0.58 0.155,-0.563 0.155,-0.541L0.155,-0.159C0.155,-0.137 0.161,-0.12 0.172,-0.108C0.183,-0.096 0.199,-0.09 0.219,-0.09Z" style="fill:rgb(227,238,255);fill-rule:nonzero;"/>
        </g>
        <g transform="matrix(16,0,0,16,27.0292,6.81398)">
            <path d="M0.215,0.01C0.166,0.01 0.126,-0.005 0.095,-0.036C0.064,-0.067 0.049,-0.107 0.049,-0.156L0.049,-0.544C0.049,-0.593 0.064,-0.633 0.095,-0.664C0.126,-0.695 0.166,-0.71 0.215,-0.71C0.264,-0.71 0.304,-0.695 0.335,-0.664C0.366,-0.633 0.381,-0.593 0.381,-0.544L0.381,-0.462L0.277,-0.462L0.277,-0.544C0.277,-0.564 0.271,-0.58 0.26,-0.592C0.249,-0.604 0.234,-0.61 0.216,-0.61C0.198,-0.61 0.183,-0.604 0.172,-0.592C0.161,-0.58 0.155,-0.564 0.155,-0.544L0.155,-0.156C0.155,-0.136 0.161,-0.12 0.172,-0.108C0.183,-0.096 0.198,-0.09 0.216,-0.09C0.234,-0.09 0.249,-0.096 0.26,-0.108C0.271,-0.12 0.277,-0.136 0.277,-0.156L0.277,-0.256L0.381,-0.256L0.381,-0.156C0.381,-0.107 0.366,-0.067 0.335,-0.036C0.304,-0.005 0.264,0.01 0.215,0.01Z" style="fill:rgb(227,238,255);fill-rule:nonzero;"/>
        </g>
        <g transform="matrix(16,0,0,16,33.7492,6.81398)">
            <path d="M0.204,-0.288L0.164,-0.211L0.164,0L0.058,0L0.058,-0.7L0.164,-0.7L0.164,-0.416L0.304,-0.7L0.418,-0.7L0.269,-0.403L0.429,0L0.315,0L0.204,-0.288Z" style="fill:rgb(227,238,255);fill-rule:nonzero;"/>
        </g>
        <g transform="matrix(16,0,0,16,15.9012,20.814)">
            <path d="M0.54,-0.7L0.54,0L0.434,0L0.434,-0.48L0.335,0L0.261,0L0.162,-0.48L0.162,0L0.058,0L0.058,-0.7L0.208,-0.7L0.3,-0.253L0.388,-0.7L0.54,-0.7Z" style="fill:rgb(227,238,255);fill-rule:nonzero;"/>
        </g>
        <g transform="matrix(16,0,0,16,25.4692,20.814)">
            <path d="M0.312,-0.364C0.337,-0.352 0.357,-0.334 0.37,-0.311C0.383,-0.288 0.39,-0.26 0.39,-0.227L0.39,-0.162C0.39,-0.109 0.375,-0.067 0.344,-0.036C0.313,-0.005 0.27,0.01 0.214,0.01C0.158,0.01 0.115,-0.005 0.084,-0.036C0.053,-0.067 0.038,-0.109 0.038,-0.162L0.038,-0.227C0.038,-0.26 0.045,-0.288 0.058,-0.311C0.071,-0.334 0.091,-0.352 0.116,-0.364C0.093,-0.377 0.076,-0.395 0.064,-0.418C0.051,-0.44 0.045,-0.468 0.045,-0.499L0.045,-0.545C0.045,-0.596 0.06,-0.637 0.09,-0.666C0.119,-0.695 0.161,-0.71 0.214,-0.71C0.267,-0.71 0.309,-0.695 0.339,-0.666C0.368,-0.637 0.383,-0.596 0.383,-0.545L0.383,-0.499C0.383,-0.468 0.377,-0.44 0.365,-0.418C0.352,-0.395 0.335,-0.377 0.312,-0.364ZM0.151,-0.493C0.151,-0.44 0.172,-0.413 0.214,-0.413C0.256,-0.413 0.277,-0.44 0.277,-0.493L0.277,-0.547C0.277,-0.568 0.272,-0.583 0.261,-0.594C0.25,-0.605 0.235,-0.61 0.214,-0.61C0.193,-0.61 0.178,-0.605 0.167,-0.594C0.156,-0.583 0.151,-0.568 0.151,-0.547L0.151,-0.493ZM0.284,-0.233C0.284,-0.26 0.278,-0.281 0.267,-0.294C0.255,-0.307 0.237,-0.313 0.214,-0.313C0.191,-0.313 0.173,-0.307 0.162,-0.294C0.15,-0.281 0.144,-0.26 0.144,-0.233L0.144,-0.16C0.144,-0.113 0.167,-0.09 0.214,-0.09C0.261,-0.09 0.284,-0.113 0.284,-0.16L0.284,-0.233Z" style="fill:rgb(227,238,255);fill-rule:nonzero;"/>
        </g>
    </g>
    <g id="logo" transform="matrix(0.144652,0,0,0.144652,2.60594,351.513)">
        <g id="path1388" transform="matrix(0.264583,0,0,0.264583,-130.714,-218.367)">
            <path d="M717.038,858.57L856.29,858.57C892.609,858.57 919.184,874.072 936.014,905.076C938.849,911.631 940.266,918.363 940.266,925.273L940.266,928.727C940.266,957.605 920.778,978.688 881.802,991.975C873.475,994.279 864.971,995.43 856.29,995.43L718.101,995.43C699.144,995.43 685.68,1003.93 677.707,1020.94L677.707,1063.2L896.684,1063.2L896.684,1054.69C899.164,1043.88 905.896,1038.48 916.881,1038.48L920.07,1038.48C932.825,1040.61 939.203,1044.86 939.203,1051.24L939.203,1084.99C939.203,1091.72 932.825,1095.97 920.07,1097.74L654.321,1097.74C640.857,1095.97 634.125,1090.66 634.125,1081.8L634.125,1019.88C634.125,1003.05 647.235,986.749 673.455,970.981C687.629,964.249 702.156,960.883 717.038,960.883L855.227,960.883C873.652,960.883 886.762,952.999 894.558,937.231C895.975,934.928 896.684,931.828 896.684,927.93L896.684,926.07C896.684,911.365 886.762,901.001 866.92,894.977C864.085,893.737 860.188,893.117 855.227,893.117L718.101,893.117C693.652,893.117 679.125,906.139 674.518,932.182C669.026,937.674 663.003,940.42 656.447,940.42L653.258,940.42C640.503,938.472 634.125,934.308 634.125,927.93L634.125,917.832C634.125,900.824 647.235,884.436 673.455,868.668C687.629,861.936 702.156,858.57 717.038,858.57Z" style="fill:rgb(226,238,255);fill-rule:nonzero;"/>
        </g>
        <g id="path1391" transform="matrix(0.455057,0,0,0.50612,-115.92,-318.968)">
            <path d="M680.858,680.21C684.716,680.21 688.712,684.206 692.846,692.198L730.464,750.485L731.291,750.899L731.704,750.899C732.255,750.623 744.932,730.953 769.735,691.888C774.145,684.102 778.003,680.21 781.31,680.21L782.55,680.21C787.924,680.21 790.818,682.69 791.232,687.651C760.985,736.223 743.072,764.196 737.491,771.568C735.287,772.67 733.358,773.221 731.704,773.221L730.877,773.221C726.192,773.221 722.334,769.777 719.302,762.887C718.269,762.129 702.422,737.395 671.763,688.684C671.487,688.271 671.35,687.72 671.35,687.031C671.35,682.828 674.519,680.554 680.858,680.21Z" style="fill:rgb(226,238,255);fill-rule:nonzero;"/>
        </g>
        <g id="path1394" transform="matrix(-0.880393,0,0,1.13586,0,-27.6526)">
            <path d="M-178.964,31.82L-143.099,31.82C-139.945,32.277 -138.367,33.522 -138.367,35.556L-138.367,36.116C-138.948,38.607 -140.526,39.852 -143.099,39.852L-174.73,39.852C-186.56,39.852 -194.53,43.671 -198.64,51.309C-198.764,52.222 -199.013,52.679 -199.387,52.679L-209.349,52.679L-209.847,52.492C-207.813,46.141 -204.409,41.409 -199.636,38.296C-193.077,33.979 -186.187,31.82 -178.964,31.82L-178.964,31.82ZM-205.613,55.605L-162.526,55.605C-159.371,56.062 -157.794,57.307 -157.794,59.341L-157.794,59.964C-158.375,62.454 -159.952,63.7 -162.526,63.7L-205.613,63.7C-208.768,63.243 -210.345,61.998 -210.345,59.964L-210.345,59.341C-209.764,56.851 -208.187,55.605 -205.613,55.605ZM-209.349,66.626L-199.636,66.626C-199.387,66.668 -198.557,68.038 -197.145,70.736C-192.787,76.796 -185.315,79.826 -174.73,79.826L-143.099,79.826C-139.945,80.241 -138.367,81.487 -138.367,83.562L-138.367,84.123C-138.948,86.613 -140.526,87.859 -143.099,87.859L-178.964,87.859C-189.964,87.859 -199.096,83.542 -206.36,74.907C-208.685,70.839 -209.847,68.141 -209.847,66.813L-209.349,66.626Z" style="fill:rgb(226,238,255);fill-rule:nonzero;"/>
        </g>
    </g>
    <g transform="matrix(1,0,0,1,-13.1033,17.1666)">
        <g transform="matrix(8,0,0,8,16.0993,142.791)">
            <path d="M0.058,-0.7L0.224,-0.7C0.275,-0.7 0.315,-0.685 0.345,-0.655C0.375,-0.624 0.39,-0.584 0.39,-0.533L0.39,-0.167C0.39,-0.116 0.375,-0.076 0.345,-0.046C0.315,-0.015 0.275,0 0.224,0L0.058,0L0.058,-0.7ZM0.219,-0.1C0.24,-0.1 0.256,-0.106 0.267,-0.117C0.278,-0.128 0.284,-0.144 0.284,-0.165L0.284,-0.535C0.284,-0.556 0.278,-0.572 0.267,-0.583C0.256,-0.594 0.24,-0.6 0.219,-0.6L0.164,-0.6L0.164,-0.1L0.219,-0.1Z" style="fill:rgb(227,238,255);fill-rule:nonzero;"/>
        </g>
        <g transform="matrix(8,0,0,8,19.6033,142.791)">
            <path d="M0.219,0.01C0.168,0.01 0.127,-0.005 0.096,-0.037C0.065,-0.068 0.049,-0.108 0.049,-0.159L0.049,-0.541C0.049,-0.592 0.065,-0.632 0.096,-0.664C0.127,-0.695 0.168,-0.71 0.219,-0.71C0.27,-0.71 0.311,-0.695 0.342,-0.664C0.373,-0.632 0.389,-0.592 0.389,-0.541L0.389,-0.159C0.389,-0.108 0.373,-0.068 0.342,-0.037C0.311,-0.005 0.27,0.01 0.219,0.01ZM0.219,-0.09C0.239,-0.09 0.255,-0.096 0.266,-0.108C0.277,-0.12 0.283,-0.137 0.283,-0.159L0.283,-0.541C0.283,-0.563 0.277,-0.58 0.266,-0.592C0.255,-0.604 0.239,-0.61 0.219,-0.61C0.199,-0.61 0.183,-0.604 0.172,-0.592C0.161,-0.58 0.155,-0.563 0.155,-0.541L0.155,-0.159C0.155,-0.137 0.161,-0.12 0.172,-0.108C0.183,-0.096 0.199,-0.09 0.219,-0.09Z" style="fill:rgb(227,238,255);fill-rule:nonzero;"/>
        </g>
        <g transform="matrix(8,0,0,8,23.1073,142.791)">
            <path d="M0.024,-0.7L0.362,-0.7L0.362,-0.6L0.246,-0.6L0.246,0L0.14,0L0.14,-0.6L0.024,-0.6L0.024,-0.7Z" style="fill:rgb(227,238,255);fill-rule:nonzero;"/>
        </g>
        <g transform="matrix(8,0,0,8,26.2753,142.791)">
            <path d="M0.024,-0.7L0.362,-0.7L0.362,-0.6L0.246,-0.6L0.246,0L0.14,0L0.14,-0.6L0.024,-0.6L0.024,-0.7Z" style="fill:rgb(227,238,255);fill-rule:nonzero;"/>
        </g>
        <g transform="matrix(8,0,0,8,29.3633,142.791)">
            <path d="M0.058,-0.7L0.359,-0.7L0.359,-0.6L0.164,-0.6L0.164,-0.405L0.319,-0.405L0.319,-0.305L0.164,-0.305L0.164,-0.1L0.359,-0.1L0.359,0L0.058,0L0.058,-0.7Z" style="fill:rgb(227,238,255);fill-rule:nonzero;"/>
        </g>
        <g transform="matrix(8,0,0,8,32.4833,142.791)">
            <path d="M0.058,-0.7L0.224,-0.7C0.275,-0.7 0.315,-0.685 0.345,-0.655C0.375,-0.624 0.39,-0.584 0.39,-0.533L0.39,-0.167C0.39,-0.116 0.375,-0.076 0.345,-0.046C0.315,-0.015 0.275,0 0.224,0L0.058,0L0.058,-0.7ZM0.219,-0.1C0.24,-0.1 0.256,-0.106 0.267,-0.117C0.278,-0.128 0.284,-0.144 0.284,-0.165L0.284,-0.535C0.284,-0.556 0.278,-0.572 0.267,-0.583C0.256,-0.594 0.24,-0.6 0.219,-0.6L0.164,-0.6L0.164,-0.1L0.219,-0.1Z" style="fill:rgb(227,238,255);fill-rule:nonzero;"/>
        </g>
    </g>
    <g transform="matrix(1,0,0,1,0.246464,41)">
        <g transform="matrix(8,0,0,8,12.3098,129.171)">
            <path d="M0.219,0.01C0.168,0.01 0.127,-0.005 0.096,-0.037C0.065,-0.068 0.049,-0.108 0.049,-0.159L0.049,-0.541C0.049,-0.592 0.065,-0.632 0.096,-0.664C0.127,-0.695 0.168,-0.71 0.219,-0.71C0.27,-0.71 0.311,-0.695 0.342,-0.664C0.373,-0.632 0.389,-0.592 0.389,-0.541L0.389,-0.159C0.389,-0.108 0.373,-0.068 0.342,-0.037C0.311,-0.005 0.27,0.01 0.219,0.01ZM0.219,-0.09C0.239,-0.09 0.255,-0.096 0.266,-0.108C0.277,-0.12 0.283,-0.137 0.283,-0.159L0.283,-0.541C0.283,-0.563 0.277,-0.58 0.266,-0.592C0.255,-0.604 0.239,-0.61 0.219,-0.61C0.199,-0.61 0.183,-0.604 0.172,-0.592C0.161,-0.58 0.155,-0.563 0.155,-0.541L0.155,-0.159C0.155,-0.137 0.161,-0.12 0.172,-0.108C0.183,-0.096 0.199,-0.09 0.219,-0.09Z" style="fill:rgb(227,238,255);fill-rule:nonzero;"/>
        </g>
        <g transform="matrix(8,0,0,8,15.8138,129.171)">
            <path d="M0.058,-0.7L0.224,-0.7C0.275,-0.7 0.315,-0.685 0.345,-0.655C0.375,-0.624 0.39,-0.584 0.39,-0.533L0.39,-0.167C0.39,-0.116 0.375,-0.076 0.345,-0.046C0.315,-0.015 0.275,0 0.224,0L0.058,0L0.058,-0.7ZM0.219,-0.1C0.24,-0.1 0.256,-0.106 0.267,-0.117C0.278,-0.128 0.284,-0.144 0.284,-0.165L0.284,-0.535C0.284,-0.556 0.278,-0.572 0.267,-0.583C0.256,-0.594 0.24,-0.6 0.219,-0.6L0.164,-0.6L0.164,-0.1L0.219,-0.1Z" style="fill:rgb(227,238,255);fill-rule:nonzero;"/>
        </g>
        <g transform="matrix(8,0,0,8,19.3178,129.171)">
            <path d="M0.058,-0.7L0.224,-0.7C0.275,-0.7 0.315,-0.685 0.345,-0.655C0.375,-0.624 0.39,-0.584 0.39,-0.533L0.39,-0.167C0.39,-0.116 0.375,-0.076 0.345,-0.046C0.315,-0.015 0.275,0 0.224,0L0.058,0L0.058,-0.7ZM0.219,-0.1C0.24,-0.1 0.256,-0.106 0.267,-0.117C0.278,-0.128 0.284,-0.144 0.284,-0.165L0.284,-0.535C0.284,-0.556 0.278,-0.572 0.267,-0.583C0.256,-0.594 0.24,-0.6 0.219,-0.6L0.164,-0.6L0.164,-0.1L0.219,-0.1Z" style="fill:rgb(227,238,255);fill-rule:nonzero;"/>
        </g>
    </g>
    <g transform="matrix(1,0,0,1,13.9181,36)">
        <g transform="matrix(8,0,0,8,-7.36991,113.229)">
            <path d="M0.024,-0.7L0.362,-0.7L0.362,-0.6L0.246,-0.6L0.246,0L0.14,0L0.14,-0.6L0.024,-0.6L0.024,-0.7Z" style="fill:rgb(227,238,255);fill-rule:nonzero;"/>
        </g>
        <g transform="matrix(8,0,0,8,-4.28191,113.229)">
            <path d="M0.296,0L0.219,-0.289L0.164,-0.289L0.164,0L0.058,0L0.058,-0.7L0.224,-0.7C0.275,-0.7 0.315,-0.685 0.345,-0.655C0.375,-0.624 0.39,-0.584 0.39,-0.533L0.39,-0.456C0.39,-0.424 0.384,-0.396 0.371,-0.371C0.358,-0.346 0.34,-0.327 0.317,-0.313L0.406,0L0.296,0ZM0.164,-0.389L0.219,-0.389C0.24,-0.389 0.256,-0.395 0.267,-0.406C0.278,-0.417 0.284,-0.433 0.284,-0.454L0.284,-0.535C0.284,-0.556 0.278,-0.572 0.267,-0.583C0.256,-0.594 0.24,-0.6 0.219,-0.6L0.164,-0.6L0.164,-0.389Z" style="fill:rgb(227,238,255);fill-rule:nonzero;"/>
        </g>
        <g transform="matrix(8,0,0,8,-0.801909,113.229)">
            <rect x="0.058" y="-0.7" width="0.106" height="0.7" style="fill:rgb(227,238,255);fill-rule:nonzero;"/>
        </g>
        <g transform="matrix(8,0,0,8,0.974091,113.229)">
            <path d="M0.058,-0.7L0.224,-0.7C0.275,-0.7 0.315,-0.685 0.345,-0.655C0.375,-0.624 0.39,-0.584 0.39,-0.533L0.39,-0.451C0.39,-0.4 0.375,-0.36 0.345,-0.33C0.315,-0.299 0.275,-0.284 0.224,-0.284L0.164,-0.284L0.164,0L0.058,0L0.058,-0.7ZM0.219,-0.384C0.24,-0.384 0.256,-0.39 0.267,-0.401C0.278,-0.412 0.284,-0.428 0.284,-0.449L0.284,-0.535C0.284,-0.556 0.278,-0.572 0.267,-0.583C0.256,-0.594 0.24,-0.6 0.219,-0.6L0.164,-0.6L0.164,-0.384L0.219,-0.384Z" style="fill:rgb(227,238,255);fill-rule:nonzero;"/>
        </g>
        <g transform="matrix(8,0,0,8,4.34209,113.229)">
            <path d="M0.058,-0.7L0.164,-0.7L0.164,-0.1L0.353,-0.1L0.353,0L0.058,0L0.058,-0.7Z" style="fill:rgb(227,238,255);fill-rule:nonzero;"/>
        </g>
        <g transform="matrix(8,0,0,8,7.39809,113.229)">
            <rect x="0.065" y="-0.105" width="0.106" height="0.105" style="fill:rgb(227,238,255);fill-rule:nonzero;"/>
        </g>
    </g>
    <g transform="matrix(1,0,0,1,19.4365,26.1016)">
        <g transform="matrix(8,0,0,8,-7.36991,113.229)">
            <path d="M0.321,-0.362C0.347,-0.35 0.367,-0.332 0.381,-0.309C0.394,-0.286 0.401,-0.257 0.401,-0.224L0.401,-0.167C0.401,-0.116 0.386,-0.076 0.356,-0.046C0.326,-0.015 0.286,0 0.235,0L0.058,0L0.058,-0.7L0.226,-0.7C0.277,-0.7 0.317,-0.685 0.347,-0.655C0.377,-0.624 0.392,-0.584 0.392,-0.533L0.392,-0.496C0.392,-0.433 0.368,-0.389 0.321,-0.362ZM0.164,-0.6L0.164,-0.41L0.211,-0.41C0.236,-0.41 0.255,-0.416 0.268,-0.429C0.28,-0.441 0.286,-0.46 0.286,-0.485L0.286,-0.535C0.286,-0.556 0.28,-0.572 0.269,-0.583C0.258,-0.594 0.242,-0.6 0.221,-0.6L0.164,-0.6ZM0.295,-0.235C0.295,-0.26 0.289,-0.279 0.277,-0.292C0.264,-0.304 0.245,-0.31 0.22,-0.31L0.164,-0.31L0.164,-0.1L0.23,-0.1C0.251,-0.1 0.267,-0.106 0.278,-0.117C0.289,-0.128 0.295,-0.144 0.295,-0.165L0.295,-0.235Z" style="fill:rgb(227,238,255);fill-rule:nonzero;"/>
        </g>
        <g transform="matrix(8,0,0,8,-3.85791,113.229)">
            <rect x="0.058" y="-0.7" width="0.106" height="0.7" style="fill:rgb(227,238,255);fill-rule:nonzero;"/>
        </g>
        <g transform="matrix(8,0,0,8,-2.08191,113.229)">
            <path d="M0.058,-0.7L0.175,-0.7L0.31,-0.23L0.31,-0.7L0.414,-0.7L0.414,0L0.302,0L0.162,-0.448L0.162,0L0.058,0L0.058,-0.7Z" style="fill:rgb(227,238,255);fill-rule:nonzero;"/>
        </g>
        <g transform="matrix(8,0,0,8,1.69409,113.229)">
            <rect x="0.065" y="-0.105" width="0.106" height="0.105" style="fill:rgb(227,238,255);fill-rule:nonzero;"/>
        </g>
    </g>
    <g transform="matrix(1,0,0,1,2,12)">
        <path d="M11.948,272L12,242" style="fill:none;stroke:rgb(227,238,255);stroke-opacity:0.42;stroke-width:1px;"/>
    </g>
    <g transform="matrix(1,0,0,1,2.28114,19.6977)">
        <g transform="matrix(12,0,0,12,30.3411,269.202)">
            <path d="M0.215,0.01C0.166,0.01 0.126,-0.005 0.095,-0.036C0.064,-0.067 0.049,-0.107 0.049,-0.156L0.049,-0.544C0.049,-0.593 0.064,-0.633 0.095,-0.664C0.126,-0.695 0.166,-0.71 0.215,-0.71C0.264,-0.71 0.304,-0.695 0.335,-0.664C0.366,-0.633 0.381,-0.593 0.381,-0.544L0.381,-0.462L0.277,-0.462L0.277,-0.544C0.277,-0.564 0.271,-0.58 0.26,-0.592C0.249,-0.604 0.234,-0.61 0.216,-0.61C0.198,-0.61 0.183,-0.604 0.172,-0.592C0.161,-0.58 0.155,-0.564 0.155,-0.544L0.155,-0.156C0.155,-0.136 0.161,-0.12 0.172,-0.108C0.183,-0.096 0.198,-0.09 0.216,-0.09C0.234,-0.09 0.249,-0.096 0.26,-0.108C0.271,-0.12 0.277,-0.136 0.277,-0.156L0.277,-0.256L0.381,-0.256L0.381,-0.156C0.381,-0.107 0.366,-0.067 0.335,-0.036C0.304,-0.005 0.264,0.01 0.215,0.01Z" style="fill:rgb(227,238,255);fill-rule:nonzero;"/>
        </g>
        <g transform="matrix(12,0,0,12,35.3811,269.202)">
            <path d="M0.398,-0.7L0.282,0L0.14,0L0.024,-0.7L0.132,-0.7L0.212,-0.15L0.292,-0.7L0.398,-0.7Z" style="fill:rgb(227,238,255);fill-rule:nonzero;"/>
        </g>
    </g>
    <g transform="matrix(0.472222,0,0,2.11111,8.33333,-247.444)">
        <path d="M12,238L30,221.895" style="fill:none;stroke:rgb(227,238,255);stroke-opacity:0.41;stroke-width:0.65px;"/>
    </g>
    <g transform="matrix(1,0,0,1,13.7407,1)">
        <g transform="matrix(12,0,0,12,4.59529,80.0827)">
            <rect x="0.058" y="-0.7" width="0.106" height="0.7" style="fill:rgb(227,238,255);fill-rule:nonzero;"/>
        </g>
        <g transform="matrix(12,0,0,12,7.25929,80.0827)">
            <path d="M0.058,-0.7L0.175,-0.7L0.31,-0.23L0.31,-0.7L0.414,-0.7L0.414,0L0.302,0L0.162,-0.448L0.162,0L0.058,0L0.058,-0.7Z" style="fill:rgb(227,238,255);fill-rule:nonzero;"/>
        </g>
    </g>
    <g transform="matrix(0.970138,-1.0582e-18,0,1.22002,-118.655,20.4755)">
        <path d="M163,238.804C163,237.808 161.984,237 160.732,237L130.268,237C129.016,237 128,237.808 128,238.804L128,264.196C128,265.192 129.016,266 130.268,266L160.732,266C161.984,266 163,265.192 163,264.196L163,238.804Z" style="fill:rgb(226,238,255);"/>
    </g>
    <g transform="matrix(1,0,0,1,4.09308,4)">
        <g transform="matrix(12,0,0,12,6.14892,120.652)">
            <path d="M0.296,0L0.219,-0.289L0.164,-0.289L0.164,0L0.058,0L0.058,-0.7L0.224,-0.7C0.275,-0.7 0.315,-0.685 0.345,-0.655C0.375,-0.624 0.39,-0.584 0.39,-0.533L0.39,-0.456C0.39,-0.424 0.384,-0.396 0.371,-0.371C0.358,-0.346 0.34,-0.327 0.317,-0.313L0.406,0L0.296,0ZM0.164,-0.389L0.219,-0.389C0.24,-0.389 0.256,-0.395 0.267,-0.406C0.278,-0.417 0.284,-0.433 0.284,-0.454L0.284,-0.535C0.284,-0.556 0.278,-0.572 0.267,-0.583C0.256,-0.594 0.24,-0.6 0.219,-0.6L0.164,-0.6L0.164,-0.389Z" style="fill:rgb(227,238,255);fill-rule:nonzero;"/>
        </g>
        <g transform="matrix(12,0,0,12,11.3689,120.652)">
            <path d="M0.058,-0.7L0.359,-0.7L0.359,-0.6L0.164,-0.6L0.164,-0.405L0.319,-0.405L0.319,-0.305L0.164,-0.305L0.164,-0.1L0.359,-0.1L0.359,0L0.058,0L0.058,-0.7Z" style="fill:rgb(227,238,255);fill-rule:nonzero;"/>
        </g>
        <g transform="matrix(12,0,0,12,16.0489,120.652)">
            <path d="M0.205,0.01C0.172,0.01 0.142,0.003 0.116,-0.012C0.09,-0.027 0.07,-0.047 0.056,-0.073C0.041,-0.099 0.034,-0.129 0.034,-0.162L0.034,-0.187L0.136,-0.198L0.136,-0.172C0.136,-0.147 0.142,-0.127 0.154,-0.112C0.166,-0.097 0.183,-0.09 0.204,-0.09C0.225,-0.09 0.241,-0.096 0.254,-0.108C0.266,-0.12 0.272,-0.136 0.272,-0.157C0.272,-0.18 0.266,-0.201 0.253,-0.222C0.24,-0.243 0.214,-0.271 0.175,-0.308C0.123,-0.357 0.088,-0.398 0.069,-0.431C0.05,-0.464 0.04,-0.499 0.04,-0.538C0.04,-0.591 0.054,-0.632 0.083,-0.664C0.112,-0.695 0.151,-0.71 0.201,-0.71C0.251,-0.71 0.29,-0.694 0.319,-0.663C0.348,-0.632 0.362,-0.59 0.362,-0.537L0.362,-0.519L0.26,-0.508L0.26,-0.528C0.26,-0.555 0.255,-0.575 0.245,-0.589C0.235,-0.603 0.221,-0.61 0.202,-0.61C0.183,-0.61 0.169,-0.604 0.159,-0.593C0.149,-0.582 0.144,-0.565 0.144,-0.543C0.144,-0.521 0.151,-0.5 0.164,-0.48C0.177,-0.459 0.203,-0.43 0.241,-0.392C0.293,-0.34 0.329,-0.298 0.348,-0.267C0.367,-0.235 0.376,-0.2 0.376,-0.162C0.376,-0.129 0.369,-0.099 0.355,-0.073C0.34,-0.047 0.32,-0.027 0.294,-0.012C0.268,0.003 0.238,0.01 0.205,0.01Z" style="fill:rgb(227,238,255);fill-rule:nonzero;"/>
        </g>
        <g transform="matrix(12,0,0,12,20.9449,120.652)">
            <path d="M0.058,-0.7L0.359,-0.7L0.359,-0.6L0.164,-0.6L0.164,-0.405L0.319,-0.405L0.319,-0.305L0.164,-0.305L0.164,-0.1L0.359,-0.1L0.359,0L0.058,0L0.058,-0.7Z" style="fill:rgb(227,238,255);fill-rule:nonzero;"/>
        </g>
        <g transform="matrix(12,0,0,12,25.6249,120.652)">
            <path d="M0.024,-0.7L0.362,-0.7L0.362,-0.6L0.246,-0.6L0.246,0L0.14,0L0.14,-0.6L0.024,-0.6L0.024,-0.7Z" style="fill:rgb(227,238,255);fill-rule:nonzero;"/>
        </g>
    </g>
    <g transform="matrix(1,0,0,1,2.14924,7)">
        <g transform="matrix(8,0,0,8,28.157,251.088)">
            <path d="M0.54,-0.7L0.54,0L0.434,0L0.434,-0.48L0.335,0L0.261,0L0.162,-0.48L0.162,0L0.058,0L0.058,-0.7L0.208,-0.7L0.3,-0.253L0.388,-0.7L0.54,-0.7Z" style="fill:rgb(227,238,255);fill-rule:nonzero;"/>
        </g>
        <g transform="matrix(8,0,0,8,32.941,251.088)">
            <path d="M0.219,0.01C0.168,0.01 0.127,-0.005 0.096,-0.037C0.065,-0.068 0.049,-0.108 0.049,-0.159L0.049,-0.541C0.049,-0.592 0.065,-0.632 0.096,-0.664C0.127,-0.695 0.168,-0.71 0.219,-0.71C0.27,-0.71 0.311,-0.695 0.342,-0.664C0.373,-0.632 0.389,-0.592 0.389,-0.541L0.389,-0.159C0.389,-0.108 0.373,-0.068 0.342,-0.037C0.311,-0.005 0.27,0.01 0.219,0.01ZM0.219,-0.09C0.239,-0.09 0.255,-0.096 0.266,-0.108C0.277,-0.12 0.283,-0.137 0.283,-0.159L0.283,-0.541C0.283,-0.563 0.277,-0.58 0.266,-0.592C0.255,-0.604 0.239,-0.61 0.219,-0.61C0.199,-0.61 0.183,-0.604 0.172,-0.592C0.161,-0.58 0.155,-0.563 0.155,-0.541L0.155,-0.159C0.155,-0.137 0.161,-0.12 0.172,-0.108C0.183,-0.096 0.199,-0.09 0.219,-0.09Z" style="fill:rgb(227,238,255);fill-rule:nonzero;"/>
        </g>
        <g transform="matrix(8,0,0,8,36.445,251.088)">
            <path d="M0.058,-0.7L0.224,-0.7C0.275,-0.7 0.315,-0.685 0.345,-0.655C0.375,-0.624 0.39,-0.584 0.39,-0.533L0.39,-0.167C0.39,-0.116 0.375,-0.076 0.345,-0.046C0.315,-0.015 0.275,0 0.224,0L0.058,0L0.058,-0.7ZM0.219,-0.1C0.24,-0.1 0.256,-0.106 0.267,-0.117C0.278,-0.128 0.284,-0.144 0.284,-0.165L0.284,-0.535C0.284,-0.556 0.278,-0.572 0.267,-0.583C0.256,-0.594 0.24,-0.6 0.219,-0.6L0.164,-0.6L0.164,-0.1L0.219,-0.1Z" style="fill:rgb(227,238,255);fill-rule:nonzero;"/>
        </g>
    </g>
    <g transform="matrix(1.12777,0,0,0.9,-3.16319,7.6)">
        <rect x="6" y="186" width="33.793" height="20" style="fill:rgb(19,19,19);stroke:rgb(26,26,26);stroke-width:1.47px;"/>
    </g>
    <g transform="matrix(1,0,0,1,34.2781,4.11988)">
        <path d="M7.722,228.851L6.03,228.851L6.03,230.543L5.094,230.543L5.094,228.851L3.402,228.851L3.402,227.915L5.094,227.915L5.094,226.223L6.03,226.223L6.03,227.915L7.722,227.915L7.722,228.851Z" style="fill:rgb(227,238,255);fill-rule:nonzero;stroke:rgb(227,238,255);stroke-opacity:0;stroke-width:1px;stroke-linecap:butt;stroke-miterlimit:2;"/>
    </g>
    <g transform="matrix(1,0,0,1,0.278145,3.59188)">
        <rect x="3.318" y="227.663" width="2.88" height="1.248" style="fill:rgb(227,238,255);fill-rule:nonzero;stroke:rgb(227,238,255);stroke-opacity:0;stroke-width:1px;stroke-linecap:butt;stroke-miterlimit:2;"/>
    </g>
</svg>
