<?xml version="1.0" encoding="UTF-8" standalone="no"?>
<!DOCTYPE svg PUBLIC "-//W3C//DTD SVG 1.1//EN" "http://www.w3.org/Graphics/SVG/1.1/DTD/svg11.dtd">
<svg width="100%" height="100%" viewBox="0 0 23 23" version="1.1" xmlns="http://www.w3.org/2000/svg" xmlns:xlink="http://www.w3.org/1999/xlink" xml:space="preserve" xmlns:serif="http://www.serif.com/" style="fill-rule:evenodd;clip-rule:evenodd;stroke-linejoin:round;stroke-miterlimit:2;">
    <g transform="matrix(0.884615,0,0,0.884615,11.5,11.5)">
        <g transform="matrix(0.971467,0,0,0.973472,2.44249e-15,0.0256595)">
            <circle cx="0" cy="0" r="12.8" style="fill:rgb(62,71,83);stroke:rgb(96,112,136);stroke-width:0.58px;"/>
        </g>
        <circle cx="0" cy="0" r="9.7" style="fill:rgb(226,238,255);"/>
    </g>
    <g transform="matrix(1,0,0,1.0403,-1.77636e-15,0.79058)">
        <path d="M13,0.422C13,0.287 12.886,0.177 12.745,0.177L10.255,0.177C10.114,0.177 10,0.287 10,0.422L10,5.755C10,5.89 10.114,6 10.255,6L12.745,6C12.886,6 13,5.89 13,5.755L13,0.422Z" style="fill:rgb(226,238,255);stroke:rgb(62,71,83);stroke-width:0.29px;stroke-linecap:round;stroke-miterlimit:1.5;"/>
    </g>
</svg>
