<?xml version="1.0" encoding="UTF-8" standalone="no"?>
<!DOCTYPE svg PUBLIC "-//W3C//DTD SVG 1.1//EN" "http://www.w3.org/Graphics/SVG/1.1/DTD/svg11.dtd">
<svg width="100%" height="100%" viewBox="0 0 26 26" version="1.1" xmlns="http://www.w3.org/2000/svg" xmlns:xlink="http://www.w3.org/1999/xlink" xml:space="preserve" xmlns:serif="http://www.serif.com/" style="fill-rule:evenodd;clip-rule:evenodd;stroke-linejoin:round;stroke-miterlimit:2;">
    <g transform="matrix(1,0,0,1,13,13)">
        <g transform="matrix(0.971467,0,0,0.973472,2.44249e-15,0.0256595)">
            <circle cx="0" cy="0" r="12.8" style="fill:rgb(94,110,131);stroke:rgb(35,40,48);stroke-width:1.03px;"/>
        </g>
        <circle cx="0" cy="0" r="9.7" style="fill:rgb(39,43,48);"/>
    </g>
    <g transform="matrix(0.819653,0,0,1.35252,3.54416,-0.155421)">
        <path d="M13,0.397C13,0.275 12.837,0.177 12.637,0.177L10.363,0.177C10.163,0.177 10,0.275 10,0.397L10,5.78C10,5.901 10.163,6 10.363,6L12.637,6C12.837,6 13,5.901 13,5.78L13,0.397Z" style="fill:rgb(219,227,239);"/>
    </g>
</svg>
