<?xml version="1.0" encoding="UTF-8" standalone="no"?>
<!DOCTYPE svg PUBLIC "-//W3C//DTD SVG 1.1//EN" "http://www.w3.org/Graphics/SVG/1.1/DTD/svg11.dtd">
<svg width="100%" height="100%" viewBox="0 0 60 380" version="1.1" xmlns="http://www.w3.org/2000/svg" xmlns:xlink="http://www.w3.org/1999/xlink" xml:space="preserve" xmlns:serif="http://www.serif.com/" style="fill-rule:evenodd;clip-rule:evenodd;stroke-linecap:round;stroke-linejoin:round;stroke-miterlimit:1.5;">
    <g transform="matrix(0.640244,0,0,0.969388,0,0)">
        <rect x="0" y="0" width="164" height="392" style="fill:rgb(62,71,84);"/>
    </g>
    <g id="Circuit" transform="matrix(1,0,0,1,143,-95)">
        <g opacity="0.62">
            <g transform="matrix(1,0,0,1,-164.853,125.415)">
                <g opacity="0.03">
                    <g transform="matrix(1,0,0,1,-640,-400)">
                        <clipPath id="_clip1">
                            <rect x="0" y="0" width="1280" height="800"/>
                        </clipPath>
                        <g clip-path="url(#_clip1)">
                            <g transform="matrix(0.1,0,0,-0.1,0,800)">
                                <path d="M5902,7937L5840,7874L5840,6959L5840,6044L5895,5990C5941,5944 5950,5930 5950,5900C5950,5870 5941,5856 5900,5815C5856,5772 5850,5761 5850,5725C5850,5672 5821,5643 5765,5638C5727,5635 5725,5633 5722,5598L5719,5560L5774,5560C5823,5560 5830,5558 5830,5540C5830,5522 5838,5520 5933,5518L6035,5515L6003,5498C5975,5482 5942,5480 5754,5480L5536,5480L5508,5507L5480,5534L5480,5422L5480,5310L5381,5310C5325,5310 5278,5314 5275,5320C5271,5326 5300,5330 5354,5330L5440,5330L5440,5420C5440,5493 5437,5510 5425,5510C5415,5510 5410,5520 5410,5543C5410,5592 5358,5640 5304,5640C5221,5640 5205,5589 5278,5556C5301,5545 5320,5531 5320,5523C5320,5512 5256,5510 4977,5510C4646,5510 4632,5509 4615,5490C4601,5474 4584,5470 4535,5470C4472,5470 4450,5459 4450,5428C4450,5402 4482,5390 4553,5390C4616,5390 4617,5390 4612,5365L4608,5340L4790,5340L4790,5313C4790,5295 4774,5270 4740,5234L4690,5181L4690,4903L4690,4624L4637,4572C4608,4543 4582,4520 4579,4520C4576,4520 4573,4528 4573,4538C4574,4672 4569,4740 4558,4737C4549,4736 4544,4752 4542,4786C4538,4851 4513,4879 4472,4864C4448,4856 4445,4849 4442,4800C4440,4770 4436,4742 4432,4738C4428,4734 4426,4659 4428,4571L4431,4410L4878,4410L4909,4375L4940,4339L4940,4190L4940,4040L5553,4040C6135,4040 6168,4041 6183,4058C6197,4073 6200,4098 6200,4176L6200,4276L6243,4318C6275,4350 6290,4358 6308,4354C6328,4348 6330,4342 6330,4269L6330,4190L6384,4190L6351,4156C6322,4126 6319,4118 6322,4074C6325,4029 6327,4025 6353,4022C6379,4019 6380,4021 6380,4061C6380,4099 6386,4110 6426,4151L6472,4197L6470,4388L6469,4579L6503,4617C6535,4651 6540,4653 6571,4644L6605,4634L6608,4557C6611,4488 6613,4480 6630,4480C6645,4480 6650,4473 6650,4450C6650,4426 6659,4414 6693,4389C6719,4370 6737,4349 6740,4332C6744,4310 6751,4305 6774,4305C6810,4305 6830,4332 6814,4358C6807,4368 6790,4375 6774,4375C6758,4375 6728,4385 6708,4398C6678,4417 6670,4428 6670,4451C6670,4473 6675,4480 6690,4480C6709,4480 6710,4487 6710,4643C6710,4859 6719,4850 6519,4850L6374,4850L6342,4883L6310,4916L6310,5200L6429,5200L6432,5078C6435,4969 6437,4955 6452,4958C6461,4959 6471,4956 6475,4950C6485,4933 6529,4939 6539,4959C6553,4985 6530,5015 6501,5007C6481,5002 6480,5005 6480,5100L6480,5199L6508,5202C6535,5205 6535,5206 6538,5288L6541,5370L6510,5370L6480,5370L6480,5546L6553,5618C6594,5659 6634,5690 6645,5690C6657,5690 6698,5657 6745,5610L6825,5530L7815,5530L9150,6865L9150,7807L9081,7873C9043,7910 9003,7940 8993,7940C8977,7940 8974,7946 8978,7970L8982,8000L8896,8000L8810,8000L8810,7920L8810,7839L8893,7842C8971,7845 8975,7846 8974,7868C8973,7902 8989,7895 9052,7833L9110,7776L9110,7330L9110,6885L8452,6227L7795,5570L7320,5570L6845,5570L6765,5650C6689,5727 6684,5730 6640,5730C6596,5730 6591,5727 6512,5647L6430,5565L6430,5467L6430,5370L6370,5370L6310,5370L6310,5498C6310,5625 6310,5626 6282,5653L6254,5680L6082,5680L5910,5680L5910,5716C5910,5746 5918,5759 5955,5794C5999,5836 6000,5839 6000,5896C6000,5954 5999,5957 5950,6005L5900,6054L5900,7856L5955,7910C6014,7968 6025,8000 5987,8000C5973,8000 5942,7978 5902,7937Z" style="fill:rgb(226,238,255);fill-rule:nonzero;"/>
                                <path d="M9990,7382L9990,6764L10055,6700L10120,6636L10120,5610L10120,4584L10160,4545L10200,4506L10200,4415L10200,4325L10082,4207L9965,4090L9805,4090L9645,4090L9520,3965L9395,3840L8694,3840C8006,3840 7993,3840 7975,3860C7957,3880 7944,3880 7446,3880L6935,3880L6852,3797C6773,3718 6770,3713 6770,3669C6770,3640 6764,3618 6755,3610C6721,3582 6748,3522 6789,3535C6817,3544 6828,3589 6806,3605C6795,3613 6790,3632 6790,3661C6790,3703 6794,3710 6868,3783L6945,3860L7451,3860C7944,3860 7957,3859 7975,3840C7993,3820 8006,3820 8699,3820L9405,3820L9655,4070L9965,4070L10210,4315L10210,4526L10175,4560L10140,4594L10140,6636L10075,6700L10010,6764L10010,7382C10010,7787 10007,8000 10000,8000C9993,8000 9990,7787 9990,7382Z" style="fill:rgb(226,238,255);fill-rule:nonzero;"/>
                                <path d="M10072,7400L10070,6794L10135,6730L10200,6666L10200,5645L10200,4624L10235,4590L10270,4556L10270,4425L10270,4295L10127,4152L9985,4010L9830,4010L9675,4010L9532,3867L9390,3725L9390,3639C9390,3562 9388,3551 9366,3531C9345,3512 9334,3509 9264,3512L9185,3515L9182,3605C9180,3670 9175,3699 9163,3712C9148,3729 9109,3730 8531,3730L7915,3730L7810,3625L7705,3520L7590,3520L7475,3520L7370,3625L7265,3730L7212,3730C7174,3730 7158,3734 7154,3745C7150,3754 7135,3760 7119,3760C7097,3760 7089,3754 7084,3735C7073,3690 7121,3661 7150,3695C7158,3704 7180,3710 7209,3710C7255,3710 7257,3708 7360,3605L7465,3500L7705,3500L7915,3710L8535,3708L9155,3705L9158,3615C9162,3497 9168,3490 9269,3490C9337,3490 9347,3493 9372,3517C9398,3542 9400,3549 9400,3624L9400,3705L9695,4000L9995,4000L10290,4295L10290,4566L10250,4605L10210,4644L10210,6686L10145,6750L10080,6814L10077,7410L10075,8005L10072,7400Z" style="fill:rgb(226,238,255);fill-rule:nonzero;"/>
                                <path d="M6802,5158C6784,5140 6787,5100 6808,5093C6817,5090 6837,5076 6853,5062L6880,5036L6880,4750C6880,4466 6880,4463 6903,4443C6924,4424 6941,4422 7240,4416L7555,4410L7825,4680L8795,4680L8970,4505C9137,4338 9143,4330 9131,4307C9115,4277 9119,4251 9142,4236C9181,4212 9221,4280 9186,4310C9177,4317 9170,4328 9170,4334C9170,4340 9088,4427 8987,4528L8805,4710L8310,4710L7815,4710L7676,4571L7536,4431L7241,4437C6961,4442 6944,4444 6923,4463C6900,4483 6900,4486 6900,4770L6900,5057L6876,5079C6860,5094 6854,5108 6858,5122C6861,5136 6857,5148 6845,5156C6822,5173 6817,5173 6802,5158Z" style="fill:rgb(226,238,255);fill-rule:nonzero;"/>
                                <path d="M8315,4882L7745,4880L7605,4740C7477,4612 7462,4600 7429,4600C7404,4600 7387,4607 7370,4625C7350,4647 7338,4650 7280,4650C7219,4650 7211,4647 7185,4620C7159,4593 7150,4590 7095,4590C7046,4590 7029,4586 7016,4571C7006,4560 6984,4550 6967,4548C6906,4542 6905,4475 6966,4475C6989,4475 6996,4480 6998,4500C7000,4514 7011,4535 7023,4548C7040,4566 7054,4570 7105,4570C7160,4570 7169,4573 7195,4600C7221,4627 7230,4630 7284,4630C7328,4630 7349,4625 7364,4611C7377,4600 7405,4591 7437,4588L7488,4583L7765,4860L8875,4860L9148,4587L9420,4315L9420,4270C9420,4229 9415,4221 9363,4168C9317,4122 9299,4110 9274,4110C9257,4110 9237,4117 9230,4125C9204,4156 9160,4136 9160,4093C9160,4060 9195,4044 9225,4064C9239,4073 9264,4080 9282,4080C9310,4080 9327,4091 9383,4148C9449,4215 9450,4216 9450,4270L9450,4325L9168,4605L8885,4885L8315,4882Z" style="fill:rgb(226,238,255);fill-rule:nonzero;"/>
                                <path d="M6787,4853C6776,4843 6779,4792 6790,4785C6796,4781 6800,4716 6800,4621L6800,4464L6840,4425C6872,4394 6880,4379 6880,4349C6880,4318 6888,4305 6934,4261L6989,4210L7058,4210C7118,4210 7129,4207 7150,4185L7173,4160L7595,4160L7905,4470L8255,4470L8480,4245L8705,4020L9315,4020L9500,4205L9500,4276C9500,4368 9512,4380 9602,4380C9675,4380 9696,4366 9702,4316C9706,4280 9733,4261 9757,4276C9797,4301 9778,4367 9735,4356C9720,4352 9706,4358 9690,4375C9669,4397 9658,4400 9595,4400C9533,4400 9521,4397 9502,4377C9484,4358 9480,4342 9480,4284L9480,4215L9392,4127L9305,4040L9005,4040L8705,4040L8480,4265L8255,4490L8080,4490L7905,4490L7750,4335L7595,4180L7384,4180L7173,4180L7150,4205C7130,4227 7118,4230 7060,4230L6994,4230L6942,4283C6902,4323 6890,4343 6890,4366C6890,4387 6880,4406 6855,4430L6820,4464L6820,4620C6820,4764 6821,4776 6840,4788C6862,4802 6866,4830 6848,4848C6835,4861 6798,4864 6787,4853Z" style="fill:rgb(226,238,255);fill-rule:nonzero;"/>
                                <path d="M7640,4685L7495,4540L7440,4540C7389,4540 7381,4543 7350,4575C7301,4626 7260,4624 7203,4568C7170,4535 7157,4529 7148,4538C7129,4557 7092,4552 7080,4529C7066,4504 7072,4485 7100,4470C7118,4460 7128,4466 7184,4519C7259,4591 7289,4598 7335,4550C7362,4522 7368,4520 7440,4520L7515,4520L7795,4800L8835,4800L9084,4551C9316,4319 9332,4301 9317,4285C9296,4265 9296,4260 9316,4232C9335,4205 9352,4204 9374,4229C9392,4249 9389,4290 9369,4290C9364,4290 9360,4296 9360,4303C9360,4309 9244,4431 9102,4573L8845,4830L8315,4830L7785,4830L7640,4685Z" style="fill:rgb(226,238,255);fill-rule:nonzero;"/>
                                <path d="M7715,4450L7565,4300L7400,4300L7234,4300L7185,4350C7158,4378 7130,4400 7123,4400C7105,4400 7082,4361 7087,4339C7094,4315 7135,4303 7156,4320C7168,4331 7176,4328 7203,4302L7236,4270L7565,4270L7865,4570L8566,4570L8565,4544C8565,4511 8593,4491 8617,4506C8645,4523 8645,4561 8618,4582C8597,4598 8566,4600 8230,4600L7865,4600L7715,4450Z" style="fill:rgb(226,238,255);fill-rule:nonzero;"/>
                                <path d="M7740,4385L7585,4230L7394,4230L7204,4230L7175,4260C7150,4286 7139,4290 7095,4290C7054,4290 7039,4295 7022,4313C7010,4326 7000,4346 7000,4358C7000,4373 6992,4382 6975,4386C6946,4393 6920,4376 6920,4349C6920,4328 6956,4299 6974,4306C6981,4309 6997,4299 7010,4285C7029,4265 7043,4260 7083,4260C7124,4260 7138,4255 7167,4230L7201,4200L7584,4200L7906,4520L8496,4520L8528,4487C8546,4469 8558,4451 8554,4448C8543,4436 8561,4401 8581,4395C8603,4388 8640,4413 8640,4435C8640,4451 8607,4480 8589,4480C8580,4480 8561,4494 8545,4510L8516,4540L8206,4540L7895,4540L7740,4385Z" style="fill:rgb(226,238,255);fill-rule:nonzero;"/>
                                <path d="M10070,4396C10064,4388 10060,4372 10062,4361C10064,4347 10040,4316 9980,4255L9895,4170L9756,4170L9617,4170L9485,4040L9354,3910L8884,3910L8415,3910L8260,4065L8105,4220L7975,4220L7845,4220L7715,4090L7584,3959L7241,3959C6989,3959 6894,3963 6883,3971C6875,3978 6863,3998 6855,4017C6845,4041 6835,4050 6817,4050C6781,4050 6764,4026 6779,3994C6788,3972 6796,3969 6820,3972C6841,3975 6855,3971 6867,3958C6882,3941 6907,3940 7234,3940L7585,3940L7845,4200L8095,4200L8250,4045L8405,3890L9365,3890L9625,4150L9905,4150L9995,4240C10053,4298 10093,4330 10109,4332C10129,4334 10136,4341 10138,4364C10143,4406 10097,4428 10070,4396Z" style="fill:rgb(226,238,255);fill-rule:nonzero;"/>
                                <path d="M4132,4327L4080,4274L4080,4035L4080,3795L3993,3708L3905,3620L3814,3620C3736,3620 3721,3617 3705,3600C3689,3582 3674,3580 3548,3580L3409,3580L3184,3358L2960,3137L2960,2816L2960,2495L2590,2125L2220,1755L2220,1670L2220,1585L2060,1425L1900,1265L1900,1110L1900,955L2055,800L2210,645L2210,559C2210,483 2208,471 2187,452C2170,435 2151,430 2114,430L2065,430L1873,622L1680,815L1680,1544L1653,1572L1626,1600L813,1600C97,1600 0,1598 0,1585C0,1572 96,1570 808,1570C1579,1570 1618,1569 1633,1552C1648,1535 1650,1494 1650,1169L1650,805L1853,602L2055,400L2116,400C2171,400 2179,403 2208,433C2239,465 2240,468 2240,561L2240,655L2085,810L1930,965L1930,1265L2250,1585L2250,1755L2990,2495L2990,3125L3425,3560L3566,3560C3694,3560 3709,3562 3725,3580C3740,3597 3756,3600 3829,3600L3915,3600L4100,3785L4100,4256L4196,4350L4506,4350C4795,4350 4818,4349 4833,4332C4847,4316 4850,4289 4850,4162C4850,4069 4854,4001 4862,3985L4873,3960L5495,3960C6104,3960 6117,3960 6135,3940C6152,3922 6166,3920 6304,3920L6456,3920L6508,3973C6557,4022 6560,4029 6560,4076C6560,4122 6563,4129 6608,4173L6656,4220L6896,4220L6925,4190C6951,4163 6960,4160 7015,4160C7064,4160 7081,4156 7095,4140C7108,4125 7126,4120 7160,4120C7213,4120 7240,4099 7240,4059C7240,4030 7257,4010 7281,4010C7325,4010 7331,4082 7287,4096C7275,4100 7252,4113 7237,4126C7217,4143 7196,4150 7166,4150C7136,4150 7118,4156 7105,4170C7091,4186 7074,4190 7025,4190C6970,4190 6961,4193 6935,4220L6906,4250L6775,4250L6644,4250L6587,4192C6533,4138 6530,4132 6530,4085C6530,4041 6526,4032 6488,3993L6446,3950L6299,3950C6165,3950 6152,3952 6135,3970C6117,3990 6106,3990 5508,3990C5173,3990 4895,3992 4890,3995C4884,3999 4880,4071 4880,4164L4880,4326L4852,4353L4824,4380L4504,4380L4184,4380L4132,4327Z" style="fill:rgb(226,238,255);fill-rule:nonzero;"/>
                                <path d="M7842,4328C7835,4321 7830,4309 7830,4300C7830,4292 7766,4221 7687,4142L7545,4000L7228,4000L6910,4000L6905,4028C6894,4079 6886,4085 6825,4088C6749,4092 6730,4076 6730,4006C6730,3956 6728,3952 6670,3895L6610,3836L6610,3600L6610,3365L6728,3247C6833,3142 6849,3130 6881,3130C6908,3130 6924,3122 6949,3096C6985,3059 6993,3057 7180,3044L7255,3039L7773,2522L8290,2005L8290,1595L8290,1184L8330,1145L8370,1106L8370,800L8370,495L8515,350L8660,205L8660,132C8660,86 8656,61 8650,65C8645,68 8640,101 8640,138L8640,205L8500,345L8360,485L8360,1093L8320,1136L8280,1180L8280,1995L7762,2513L7245,3030L7173,3030C7134,3030 7098,3035 7095,3040C7092,3046 7059,3050 7023,3050C6962,3050 6955,3052 6919,3085C6897,3104 6870,3120 6857,3120C6842,3120 6797,3158 6712,3243L6590,3365L6590,3846L6650,3905C6707,3962 6710,3967 6710,4014C6710,4055 6715,4069 6737,4092C6761,4117 6770,4120 6830,4120C6885,4120 6900,4116 6916,4099C6926,4087 6934,4068 6932,4056C6928,4028 6952,4007 6982,4012C7024,4018 7014,4090 6971,4090C6961,4090 6943,4101 6930,4115C6909,4137 6899,4140 6830,4140C6757,4140 6753,4139 6722,4107C6694,4078 6690,4067 6690,4019C6690,3965 6689,3963 6630,3905L6570,3846L6570,3601L6570,3357L6697,3228C6795,3129 6830,3100 6850,3100C6867,3100 6888,3087 6910,3065C6942,3032 6947,3030 7011,3030C7048,3030 7082,3026 7085,3020C7088,3015 7126,3010 7168,3010L7245,3010L7758,2497L8270,1985L8270,1574L8270,1164L8305,1130L8340,1096L8340,790L8340,485L8480,345L8620,205L8620,135C8620,68 8622,62 8653,32C8675,11 8696,0 8715,0L8744,0L8707,38C8671,75 8670,78 8670,151L8670,226L8525,370L8380,513L8380,1126L8345,1160L8310,1194L8310,2002L7788,2529L7267,3055L7191,3058C7149,3060 7111,3065 7106,3070C7100,3076 7071,3080 7040,3080C6989,3080 6981,3083 6950,3115C6926,3140 6907,3150 6885,3150C6860,3150 6837,3168 6742,3263L6630,3375L6630,3826L6690,3885C6748,3942 6750,3946 6750,3996C6750,4056 6770,4080 6819,4080C6866,4080 6890,4064 6890,4032C6890,4016 6895,3999 6902,3992C6911,3983 6999,3980 7235,3980L7555,3980L7695,4120C7808,4233 7838,4258 7856,4254C7880,4248 7910,4272 7910,4299C7910,4320 7891,4340 7870,4340C7861,4340 7849,4335 7842,4328Z" style="fill:rgb(226,238,255);fill-rule:nonzero;"/>
                                <path d="M4247,4172L4140,4065L4140,3920L4140,3775L4037,3672L3935,3570L3854,3570C3778,3570 3772,3568 3745,3540L3716,3510L3576,3510L3435,3510L3232,3307L3030,3105L3030,2785L3030,2465L2660,2095L2290,1725L2290,1645L2290,1565L2130,1405L1970,1245L1970,1125L1970,1005L2125,850L2280,695L2280,570L2280,444L2232,397L2184,350L2105,350L2025,350L1818,557L1610,765L1610,1120C1610,1426 1608,1479 1594,1498L1579,1520L789,1520C270,1520 0,1517 0,1510C0,1503 266,1500 778,1500C1370,1500 1559,1497 1568,1488C1577,1479 1580,1383 1580,1115L1580,755L1798,537L2015,320L2194,320L2310,434L2310,695L2154,851L1998,1008L1999,1121L2001,1235L2160,1395L2320,1555L2320,1715L2690,2085L3060,2456L3060,3095L3445,3480L3726,3480L3755,3510C3782,3538 3788,3540 3865,3540L3945,3540L4170,3765L4170,4055L4375,4260L4557,4260C4657,4260 4745,4257 4754,4254C4768,4249 4770,4227 4770,4111L4770,3974L4823,3922L4876,3870L5485,3870C5995,3869 6099,3867 6120,3855C6139,3844 6187,3841 6315,3840L6485,3840L6563,3918C6639,3994 6640,3996 6640,4046C6640,4091 6644,4100 6678,4133L6716,4170L6806,4170C6893,4170 6897,4169 6925,4140C6950,4114 6961,4110 7007,4110C7051,4110 7061,4106 7072,4088C7079,4075 7083,4059 7081,4052C7074,4016 7140,3994 7158,4026C7173,4053 7160,4081 7129,4087C7114,4090 7091,4103 7079,4116C7062,4135 7046,4140 7010,4140C6973,4140 6959,4145 6940,4165C6918,4189 6911,4190 6805,4190L6694,4190L6652,4147C6614,4108 6610,4100 6610,4054C6610,4006 6608,4002 6542,3937L6474,3869L6299,3875C6203,3878 5846,3883 5505,3885L4885,3890L4843,3932L4800,3974L4800,4111C4800,4230 4798,4249 4782,4263C4766,4278 4735,4280 4559,4280L4355,4280L4247,4172Z" style="fill:rgb(226,238,255);fill-rule:nonzero;"/>
                                <path d="M7870,4109C7863,4098 7861,4083 7863,4076C7866,4069 7836,4031 7796,3991L7725,3920L7315,3920L6905,3920L6797,3812L6690,3705L6690,3560L6690,3415L6788,3317C6847,3258 6893,3220 6906,3220C6917,3220 6946,3200 6970,3175C7012,3132 7017,3130 7071,3130C7103,3130 7132,3126 7135,3120C7138,3115 7176,3110 7218,3110L7295,3110L7833,2572L8370,2035L8370,1629L8370,1224L8405,1190L8440,1156L8440,845L8440,535L8563,412L8685,290L8806,290C8886,290 8930,286 8938,278C8946,270 8950,223 8950,133C8950,51 8954,0 8960,0C8966,0 8970,51 8970,133C8970,260 8969,268 8947,288C8926,308 8913,310 8810,310L8695,310L8578,427L8460,545L8460,1156L8425,1190L8390,1224L8390,2035L7842,2583L7295,3130L7217,3130C7172,3130 7140,3134 7140,3140C7140,3146 7114,3150 7081,3150C7026,3150 7020,3152 6982,3190C6959,3213 6933,3230 6920,3230C6905,3230 6866,3261 6804,3322L6710,3414L6710,3695L6915,3900L7726,3900L7800,3975C7853,4028 7880,4049 7893,4046C7911,4042 7950,4071 7950,4089C7950,4105 7919,4130 7900,4130C7889,4130 7876,4121 7870,4109Z" style="fill:rgb(226,238,255);fill-rule:nonzero;"/>
                                <path d="M6728,3879C6716,3873 6710,3857 6710,3835C6710,3810 6702,3795 6679,3776L6648,3750L6649,3567L6651,3385L6758,3278C6847,3187 6870,3170 6895,3170C6917,3170 6936,3160 6960,3135C6991,3103 6999,3100 7051,3100C7083,3100 7112,3096 7115,3090C7118,3085 7154,3080 7193,3080L7265,3080L7798,2547L8330,2015L8330,1604L8330,1194L8365,1160L8400,1126L8400,820L8400,515L8528,388L8655,261L8785,258L8915,255L8918,128C8919,54 8925,0 8930,0C8943,0 8943,236 8930,261C8920,278 8908,280 8792,280L8665,280L8542,403L8420,525L8420,1136L8385,1170L8350,1204L8350,2025L7817,2558L7285,3090L7209,3090C7153,3090 7129,3094 7120,3105C7112,3115 7090,3120 7056,3120C7010,3120 7000,3124 6970,3155C6946,3180 6927,3190 6905,3190C6880,3190 6857,3207 6767,3298L6660,3405L6660,3736L6693,3768C6711,3786 6735,3800 6747,3800C6772,3800 6793,3823 6788,3846C6783,3872 6748,3891 6728,3879Z" style="fill:rgb(226,238,255);fill-rule:nonzero;"/>
                                <path d="M6895,3790L6845,3739L6837,3627C6833,3565 6827,3473 6824,3421L6819,3327L6861,3284C6890,3254 6913,3240 6930,3240C6946,3240 6967,3228 6985,3210C7011,3183 7020,3180 7074,3180C7108,3179 7146,3173 7160,3165C7174,3157 7210,3151 7240,3150L7295,3150L7848,2597L8400,2045L8400,1639L8400,1234L8440,1195L8480,1156L8480,855L8480,555L8593,442L8705,330L8826,330C8939,330 8948,329 8968,307C8988,286 8990,273 8990,154C8990,23 8996,0 9029,0C9041,0 9040,3 9027,18C9013,33 9010,59 9010,163C9010,283 9009,290 8984,319L8958,350L8831,350L8705,350L8597,458L8490,565L8490,1176L8455,1210L8420,1244L8420,2055L7863,2612L7305,3169L7235,3175C7019,3192 7035,3189 6999,3226C6975,3250 6957,3260 6935,3260C6913,3260 6895,3270 6872,3293C6841,3325 6840,3328 6840,3417C6840,3468 6845,3512 6850,3515C6856,3518 6860,3566 6860,3623L6860,3726L6908,3773L6957,3821L7226,3820L7494,3820L7527,3788C7549,3767 7558,3750 7555,3739C7551,3728 7558,3712 7570,3700C7586,3684 7594,3682 7611,3690C7638,3705 7644,3724 7630,3749C7623,3763 7609,3770 7592,3770C7573,3770 7553,3782 7530,3805L7496,3840L7220,3840L6944,3840L6895,3790Z" style="fill:rgb(226,238,255);fill-rule:nonzero;"/>
                                <path d="M7020,3785C7007,3771 6987,3760 6975,3760C6948,3760 6930,3742 6930,3713C6930,3688 6960,3667 6984,3676C7001,3683 7017,3727 7006,3737C7003,3741 7010,3754 7022,3767C7043,3790 7047,3790 7255,3790C7448,3790 7468,3788 7483,3772C7493,3762 7500,3741 7500,3725C7500,3707 7510,3685 7527,3668C7552,3642 7559,3640 7635,3640L7716,3640L7854,3780L8546,3780C9203,3780 9238,3779 9253,3762C9276,3736 9275,3674 9250,3643C9232,3620 9231,3614 9244,3596C9260,3571 9286,3564 9305,3580C9324,3596 9324,3639 9305,3646C9295,3650 9290,3666 9290,3698C9290,3734 9284,3750 9263,3772L9236,3800L8540,3800L7844,3800L7770,3725L7696,3650L7635,3650C7581,3650 7571,3653 7547,3678C7530,3696 7520,3717 7520,3736C7520,3755 7511,3775 7497,3788C7475,3809 7466,3810 7259,3810L7043,3810L7020,3785Z" style="fill:rgb(226,238,255);fill-rule:nonzero;"/>
                                <path d="M6908,3636C6895,3627 6890,3609 6890,3578C6890,3550 6884,3528 6875,3520C6864,3511 6860,3486 6860,3421C6860,3342 6862,3331 6883,3312C6899,3297 6919,3290 6947,3290C6983,3290 6993,3285 7022,3250L7055,3211L7185,3204L7315,3198L7883,2631L8450,2065L8450,1659L8450,1254L8480,1225L8510,1196L8510,886L8510,575L8612,473L8715,370L8966,370L8998,337L9030,304L9030,179C9030,55 9030,54 9058,27L9086,0L9884,0C10413,0 10679,3 10675,10C10671,17 10395,20 9881,20L9093,20L9072,43C9052,64 9050,77 9050,191L9050,316L9012,353L8974,390L8849,390L8725,390L8627,488L8530,585L8530,1196L8500,1225L8470,1254L8470,2065L7898,2637L7325,3209L7198,3216L7071,3223L7034,3261C7004,3292 6989,3300 6960,3300C6900,3300 6880,3331 6880,3421C6881,3470 6886,3501 6895,3514C6903,3525 6910,3553 6910,3577C6910,3609 6915,3622 6929,3630C6940,3635 7007,3640 7078,3640C7220,3640 7235,3634 7242,3576C7246,3540 7273,3521 7298,3536C7332,3558 7322,3607 7283,3613C7271,3615 7252,3624 7242,3633C7226,3647 7201,3650 7074,3650C6966,3649 6920,3646 6908,3636Z" style="fill:rgb(226,238,255);fill-rule:nonzero;"/>
                                <path d="M6958,3601C6940,3586 6938,3579 6946,3559C6955,3539 6953,3532 6928,3512C6903,3491 6900,3482 6900,3431C6900,3384 6904,3370 6923,3352C6936,3339 6959,3330 6976,3330C6997,3330 7016,3320 7035,3300C7060,3274 7071,3270 7120,3270C7164,3270 7181,3266 7195,3250C7210,3233 7226,3230 7289,3230L7365,3230L7785,2810L8205,2390L8396,2390L8443,2342L8490,2294L8490,1784L8490,1274L8525,1240L8560,1206L8560,901L8560,595L8647,508L8735,420L8996,420L9038,377C9076,338 9080,330 9080,284C9080,236 9082,232 9148,167L9216,100L9566,100L9714,250L10186,250L10250,185L10314,120L10663,120C10884,120 11018,116 11031,110C11046,102 11050,88 11050,50C11050,22 11055,0 11060,0C11066,0 11070,24 11070,54C11070,142 11082,140 10668,140L10314,140L10250,205L10186,270L9950,270L9715,270L9635,190L9555,110L9395,110L9234,110L9167,178C9104,241 9100,248 9100,291C9100,331 9095,340 9052,383L9004,430L8879,430L8755,430L8665,520C8616,569 8578,612 8581,614C8584,617 8624,581 8670,535L8755,450L9006,450L9045,410L9084,370L9606,370L9640,335L9674,300L10196,300L10265,230L10334,160L10696,160C11114,160 11087,167 11093,60L11096,-5L11098,66C11100,128 11097,139 11077,158C11054,180 11049,180 10699,180L10344,180L10275,250L10206,320L9940,320L9674,320L9640,355L9606,390L9345,390L9084,390L9045,430L9006,470L8880,470L8755,470L8677,548L8600,625L8600,1247L8575,1270L8550,1293L8550,2316L8487,2378L8424,2440L8330,2440L8235,2440L7810,2865L7385,3290L7299,3290C7234,3290 7209,3294 7200,3305C7192,3315 7169,3320 7132,3320C7083,3320 7072,3324 7043,3352C7017,3377 7013,3387 7021,3402C7035,3428 7015,3460 6984,3460C6967,3460 6956,3452 6948,3434C6937,3410 6938,3405 6959,3391C6972,3382 7001,3358 7025,3338C7064,3303 7072,3300 7127,3300C7169,3300 7191,3295 7200,3285C7209,3274 7234,3270 7294,3270L7375,3270L7800,2845L8225,2420L8414,2420L8472,2363L8530,2306L8530,1800L8530,1293L8555,1270C8569,1257 8580,1238 8580,1228C8580,1214 8571,1219 8545,1249L8510,1287L8510,2306L8462,2353L8414,2400L8320,2400L8225,2400L7800,2825L7375,3250L7294,3250C7226,3250 7210,3253 7195,3270C7181,3286 7164,3290 7120,3290C7071,3290 7060,3294 7035,3320C7017,3339 6996,3350 6980,3350C6941,3350 6920,3379 6920,3431C6920,3467 6925,3481 6948,3502C6963,3516 6985,3531 6997,3534C7023,3542 7033,3566 7020,3590C7006,3617 6983,3621 6958,3601Z" style="fill:rgb(226,238,255);fill-rule:nonzero;"/>
                                <path d="M7108,3609C7098,3604 7090,3588 7090,3575C7090,3562 7079,3543 7065,3532C7044,3515 7040,3504 7040,3457C7040,3412 7045,3396 7066,3371C7089,3344 7098,3340 7144,3340C7184,3340 7201,3335 7215,3320C7230,3303 7246,3300 7314,3300L7395,3300L7820,2875L8245,2450L8436,2450L8503,2382L8570,2314L8570,1870L8570,1425L8720,1275L8870,1125L8870,1045L8870,965L8948,887C9019,817 9029,810 9066,810C9100,810 9112,804 9153,762C9191,723 9200,708 9200,679C9200,652 9208,636 9238,607C9274,571 9279,570 9346,570L9416,570L9465,520L9514,470L9686,470L9750,405L9814,340L10236,340L10305,270L10374,200L11087,200L11108,177C11127,157 11130,142 11130,77C11130,32 11134,0 11140,0C11146,0 11150,34 11150,83C11150,163 11149,168 11120,193L11090,220L10737,220L10384,220L10315,290L10246,360L10030,360L9814,360L9755,420L9696,480L9615,480L9534,480L9480,535L9426,590L9350,590C9277,590 9273,591 9242,623C9218,647 9210,665 9210,691C9210,720 9201,735 9157,778C9111,823 9099,830 9064,830C9028,830 9018,837 8952,903L8880,975L8880,1135L8735,1280L8590,1425L8590,2316L8513,2393L8437,2470L8341,2470L8245,2470L7820,2895L7395,3321L7323,3319C7264,3317 7248,3320 7225,3338C7205,3354 7183,3360 7150,3360C7085,3360 7060,3387 7060,3458C7060,3501 7064,3511 7083,3522C7095,3529 7113,3533 7123,3531C7166,3525 7189,3589 7151,3610C7128,3622 7129,3622 7108,3609Z" style="fill:rgb(226,238,255);fill-rule:nonzero;"/>
                                <path d="M7102,3448C7084,3430 7088,3392 7109,3380C7135,3366 7136,3367 7160,3393L7182,3415L7209,3383L7236,3350L7555,3350L7640,3265L7725,3180L8467,3180L8490,3205C8521,3238 8540,3237 8540,3202C8540,3180 8590,3125 8830,2885L9120,2595L9120,2470L9120,2345L9465,2000L9810,1655L9810,1565L9810,1474L9988,1297L10166,1120L10336,1120L10444,1230L11065,1230L11345,950L11625,670L11735,670L11858,547L11980,425L11980,325L11980,224L12055,150C12122,84 12130,71 12130,38C12130,17 12135,0 12140,0C12146,0 12150,19 12150,42C12150,82 12145,90 12074,161L11997,238L11999,331L12001,423L11868,557L11735,690L11685,690L11635,690L11355,970L11075,1250L10755,1250L10434,1250L10380,1195L10326,1140L10250,1140L10175,1140L10001,1314L9827,1488L9829,1572L9831,1655L9485,2000L9140,2345L9140,2604L8850,2895C8615,3130 8560,3191 8560,3212C8560,3227 8565,3242 8570,3245C8591,3258 8581,3300 8554,3312C8531,3323 8525,3322 8510,3302C8499,3289 8494,3271 8497,3260C8501,3246 8494,3230 8480,3215L8457,3190L8096,3190L7735,3190L7645,3280L7555,3370L7402,3370L7248,3370L7197,3415C7144,3461 7123,3469 7102,3448Z" style="fill:rgb(226,238,255);fill-rule:nonzero;"/>
                                <path d="M6395,3340C6385,3329 6367,3320 6354,3320C6331,3320 6300,3296 6300,3279C6300,3252 6322,3230 6350,3230C6382,3230 6406,3260 6396,3287C6384,3317 6419,3340 6474,3340L6525,3340L6665,3200C6784,3081 6809,3060 6835,3060C6857,3060 6876,3050 6900,3025C6932,2992 6938,2990 6996,2990C7031,2990 7062,2986 7065,2980C7068,2975 7106,2970 7148,2970L7225,2970L7723,2472L8220,1975L8220,1486C8219,1130 8222,994 8231,984C8257,953 8310,974 8310,1015C8310,1044 8291,1060 8258,1060L8230,1060L8230,1995L7732,2493L7235,2990L7153,2990C7108,2990 7068,2995 7065,3000C7062,3006 7031,3010 6997,3010C6938,3010 6934,3012 6907,3045C6886,3072 6872,3080 6847,3080C6819,3080 6797,3098 6675,3220L6535,3360L6474,3360C6426,3360 6409,3356 6395,3340Z" style="fill:rgb(226,238,255);fill-rule:nonzero;"/>
                                <path d="M5850,3310C5827,3287 5825,3271 5844,3245C5852,3234 5869,3227 5888,3228C5912,3228 5925,3221 5944,3195C5966,3167 5970,3151 5970,3099L5970,3036L6060,2944L6150,2853L6150,2759L6150,2665L6430,2385L6710,2105L6710,1995L6710,1884L6755,1840L6800,1796L6803,895L6805,-5L6808,905L6810,1816L6770,1855L6730,1894L6730,2115L6445,2400L6160,2685L6160,2865L6070,2955L5980,3045L5980,3115C5980,3180 5978,3189 5952,3213C5930,3234 5925,3247 5928,3269C5931,3290 5926,3302 5909,3314C5879,3335 5874,3334 5850,3310Z" style="fill:rgb(226,238,255);fill-rule:nonzero;"/>
                                <path d="M6005,3300C5990,3283 5989,3276 5998,3255C6004,3241 6014,3230 6020,3230C6025,3230 6030,3208 6030,3182C6030,3138 6034,3131 6083,3082C6131,3035 6140,3030 6181,3030C6256,3030 6260,3020 6260,2834L6260,2675L6525,2410L6790,2145L6790,2030L6790,1914L6835,1870L6880,1826L6883,910L6885,-5L6888,920L6890,1846L6850,1885L6810,1924L6810,2145L6545,2410L6280,2675L6280,2996L6252,3023C6231,3043 6214,3050 6184,3050C6150,3050 6138,3057 6097,3098C6058,3137 6050,3152 6050,3182C6050,3209 6056,3222 6070,3230C6093,3242 6097,3289 6078,3308C6060,3326 6025,3322 6005,3300Z" style="fill:rgb(226,238,255);fill-rule:nonzero;"/>
                                <path d="M6167,3302C6132,3263 6152,3220 6206,3220C6223,3220 6243,3213 6250,3205C6258,3195 6280,3190 6315,3190C6353,3190 6375,3184 6394,3169C6419,3149 6420,3145 6420,3041L6420,2934L6460,2895L6500,2856L6500,2745L6500,2635L6633,2502L6765,2370L6996,2370L7058,2307L7120,2244L7120,2139L7120,2033L7220,1935L7320,1836L7320,918C7320,313 7323,0 7330,0C7337,0 7340,313 7340,918L7340,1835L7240,1935L7140,2035L7140,2252L7073,2321L7007,2390L6886,2390L6765,2390L6642,2513L6520,2635L6520,2866L6480,2905L6440,2944L6440,3044C6440,3139 6439,3145 6413,3172C6390,3196 6379,3200 6330,3200C6265,3200 6237,3220 6247,3258C6253,3284 6226,3320 6200,3320C6191,3320 6176,3312 6167,3302Z" style="fill:rgb(226,238,255);fill-rule:nonzero;"/>
                                <path d="M6472,3298C6442,3268 6470,3212 6509,3223C6522,3226 6537,3218 6554,3201C6575,3179 6579,3164 6582,3105L6585,3035L6635,3032C6696,3028 6730,3001 6730,2956C6730,2937 6740,2916 6757,2898C6783,2871 6786,2870 6895,2870C7024,2870 7040,2862 7040,2794C7040,2763 7047,2748 7068,2727C7094,2702 7102,2700 7191,2700L7285,2700L7618,2367L7950,2035L7950,1745L7950,1455L7840,1345L7730,1235L7730,675L7730,116L7787,58C7819,26 7851,0 7859,0C7868,0 7847,28 7812,63L7750,126L7750,1225L7970,1445L7970,2035L7627,2378L7285,2720L7189,2720C7078,2720 7060,2730 7060,2795C7060,2824 7053,2841 7033,2862C7007,2889 7003,2890 6900,2890C6802,2890 6792,2892 6772,2913C6759,2926 6750,2949 6750,2966C6750,3012 6714,3040 6657,3040C6632,3040 6608,3045 6604,3052C6600,3058 6598,3089 6599,3120C6601,3170 6598,3181 6573,3210C6558,3229 6547,3252 6548,3262C6555,3302 6501,3327 6472,3298Z" style="fill:rgb(226,238,255);fill-rule:nonzero;"/>
                                <path d="M6162,3158C6145,3141 6147,3095 6164,3080C6172,3074 6190,3070 6204,3072C6241,3077 6310,3007 6310,2965C6310,2941 6322,2922 6365,2880L6420,2826L6420,2720L6420,2615L6640,2395L6860,2175L6860,2060L6860,1944L6903,1902C6934,1872 6954,1860 6976,1860C6999,1860 7020,1846 7073,1792L7140,1724L7140,862C7140,294 7143,0 7150,0C7157,0 7160,295 7160,865L7160,1730L7085,1805C7022,1868 7005,1880 6977,1880C6953,1880 6935,1889 6912,1913L6880,1946L6880,2175L6660,2395L6440,2615L6440,2826L6385,2880C6342,2922 6330,2941 6330,2965C6330,2988 6319,3007 6285,3040C6250,3075 6242,3088 6246,3107C6258,3152 6194,3190 6162,3158Z" style="fill:rgb(226,238,255);fill-rule:nonzero;"/>
                                <path d="M6478,3159C6443,3139 6457,3102 6520,3040L6580,2981L6580,2823L6580,2665L6693,2552L6805,2440L7195,2440L7273,2362L7350,2285L7350,2225L7350,2165L7540,1975L7730,1785L7730,1670L7730,1555L7620,1445L7510,1335L7510,668C7510,229 7513,0 7520,0C7527,0 7530,229 7530,668L7530,1335L7750,1555L7750,1785L7560,1975L7370,2165L7370,2285L7283,2372L7195,2460L7000,2460L6805,2460L6703,2562L6600,2665L6600,2984L6558,3027C6519,3067 6517,3070 6533,3088C6556,3113 6554,3136 6528,3154C6502,3173 6501,3173 6478,3159Z" style="fill:rgb(226,238,255);fill-rule:nonzero;"/>
                                <path d="M5860,3140C5844,3124 5842,3115 5850,3100C5855,3090 5865,3078 5870,3075C5876,3072 5880,3059 5880,3047C5880,3018 6017,2880 6046,2880C6057,2880 6076,2870 6088,2857C6109,2834 6110,2827 6110,2564L6110,2294L6143,2262L6176,2230L6546,2230L6608,2167L6670,2104L6670,1992L6670,1879L6715,1831L6760,1783L6760,891C6760,304 6763,0 6770,0C6777,0 6780,304 6780,891L6780,1782L6735,1834L6690,1887L6690,2106L6617,2178L6545,2250L6359,2250C6107,2250 6130,2218 6130,2571C6130,2846 6130,2847 6107,2868C6094,2880 6073,2890 6061,2890C6033,2890 5901,3015 5896,3045C5894,3056 5901,3073 5911,3083C5934,3105 5935,3124 5914,3144C5894,3165 5884,3164 5860,3140Z" style="fill:rgb(226,238,255);fill-rule:nonzero;"/>
                                <path d="M6320,3140C6295,3115 6295,3105 6322,3078C6339,3061 6343,3047 6341,3001L6339,2945L6399,2885L6460,2826L6460,2725L6460,2625L6604,2481L6748,2338L6859,2339L6970,2341L7030,2284L7090,2227L7090,2111L7090,1995L7185,1900L7280,1805L7280,903C7280,308 7283,0 7290,0C7297,0 7300,309 7300,908L7300,1815L7201,1914L7101,2013L7101,2123L7102,2233L7044,2291L6986,2350L6870,2350L6755,2350L6617,2488L6480,2625L6480,2826L6420,2885C6361,2944 6360,2945 6360,3001C6360,3044 6365,3061 6380,3075C6405,3098 6406,3122 6382,3143C6358,3165 6344,3164 6320,3140Z" style="fill:rgb(226,238,255);fill-rule:nonzero;"/>
                                <path d="M6618,3136C6603,3101 6632,3066 6671,3074C6691,3078 6704,3072 6726,3049C6750,3024 6761,3020 6805,3020C6850,3020 6860,3016 6890,2985C6922,2952 6928,2950 6985,2950C7019,2950 7050,2947 7053,2943C7057,2940 7090,2938 7127,2939L7193,2942L7687,2448L8180,1955L8180,1730L8180,1505L8015,1340L7850,1175L7850,675L7850,175L7937,88C7985,39 8031,0 8040,0C8048,0 8013,42 7962,93L7870,185L7870,1165L8190,1485L8190,1975L7702,2463L7215,2950L7138,2950C7096,2950 7058,2955 7055,2960C7052,2966 7021,2970 6986,2970C6928,2970 6922,2972 6890,3005C6861,3035 6850,3040 6810,3040C6757,3040 6724,3067 6705,3123C6697,3149 6689,3156 6663,3158C6636,3161 6628,3157 6618,3136Z" style="fill:rgb(226,238,255);fill-rule:nonzero;"/>
                                <path d="M6172,2994C6145,2975 6144,2939 6170,2915C6187,2899 6190,2884 6190,2796L6190,2695L6475,2410L6760,2124L6760,2009L6760,1894L6800,1855L6840,1816L6840,908C6840,309 6843,0 6850,0C6857,0 6860,311 6860,913L6860,1826L6815,1870L6770,1914L6770,2135L6485,2420L6200,2705L6200,2801C6200,2893 6201,2898 6225,2914C6257,2935 6258,2973 6228,2994C6216,3003 6203,3010 6200,3010C6197,3010 6184,3003 6172,2994Z" style="fill:rgb(226,238,255);fill-rule:nonzero;"/>
                                <path d="M6484,3002C6463,2988 6461,2961 6481,2937C6491,2923 6500,2907 6500,2902C6500,2897 6507,2887 6515,2880C6527,2870 6530,2844 6530,2766L6530,2665L6658,2537L6785,2410L7166,2410L7238,2337C7310,2265 7310,2264 7310,2210L7310,2155L7445,2020L7580,1885L7580,1700L7580,1514L7525,1460L7470,1406L7470,703C7470,241 7473,0 7480,0C7487,0 7490,241 7490,703L7490,1406L7600,1514L7600,1885L7465,2020L7330,2155L7330,2265L7247,2348L7165,2430L6975,2430L6785,2430L6668,2547L6550,2665L6550,2769C6550,2850 6546,2877 6534,2891C6520,2907 6520,2910 6539,2929C6563,2953 6564,2963 6550,2991C6539,3010 6505,3016 6484,3002Z" style="fill:rgb(226,238,255);fill-rule:nonzero;"/>
                                <path d="M6790,2990C6766,2966 6766,2961 6784,2934C6798,2915 6806,2914 6907,2918C6999,2922 7018,2920 7029,2906C7039,2894 7061,2890 7119,2890L7195,2890L7668,2417L8140,1945L8140,1735L8140,1525L7975,1360L7810,1195L7810,675L7810,155L7888,77C7930,35 7972,0 7980,0C7988,0 7958,37 7912,83L7830,165L7830,1184L8160,1516L8160,1955L7682,2433L7205,2910L7124,2910C7080,2910 7040,2914 7034,2920C7029,2925 6989,2930 6945,2932C6870,2935 6865,2936 6868,2957C6870,2970 6862,2984 6848,2994C6819,3014 6814,3014 6790,2990Z" style="fill:rgb(226,238,255);fill-rule:nonzero;"/>
                                <path d="M6636,2984C6609,2958 6618,2937 6675,2887L6730,2839L6730,2731L6730,2623L6784,2571L6839,2520L7225,2520L7327,2418C7427,2318 7430,2314 7430,2270L7430,2225L7619,2036L7809,1846L7809,1685L7809,1524L7695,1410L7580,1295L7580,669L7580,43L7603,22C7638,-11 7659,-5 7627,28L7600,56L7600,1295L7820,1515L7820,1865L7635,2050C7451,2234 7450,2235 7450,2279C7450,2322 7446,2327 7343,2431L7236,2540L7040,2540L6844,2540L6797,2588L6750,2636L6750,2736C6750,2834 6749,2837 6720,2865C6690,2893 6681,2920 6700,2920C6714,2920 6712,2974 6698,2988C6681,3005 6654,3003 6636,2984Z" style="fill:rgb(226,238,255);fill-rule:nonzero;"/>
                                <path d="M7102,2844C7075,2825 7074,2799 7100,2775C7117,2760 7124,2759 7145,2768C7159,2774 7170,2784 7170,2790C7170,2795 7185,2800 7202,2800C7232,2800 7275,2760 7667,2368L8100,1935L8100,1735L8100,1535L7935,1370L7770,1205L7770,670L7770,134L7838,67C7875,30 7912,0 7920,0C7928,0 7902,33 7862,73L7790,145L7790,1195L8120,1525L8120,1730L8119,1935L7682,2378C7283,2781 7242,2820 7213,2820C7193,2820 7172,2828 7160,2840C7136,2864 7131,2864 7102,2844Z" style="fill:rgb(226,238,255);fill-rule:nonzero;"/>
                                <path d="M6638,2839C6613,2825 6614,2774 6640,2760C6656,2751 6660,2739 6660,2692L6660,2634L6733,2562L6805,2490L7195,2490L7293,2392C7383,2301 7390,2292 7390,2255C7390,2216 7397,2208 7580,2025L7770,1835L7770,1690L7770,1545L7660,1435L7550,1325L7550,675C7550,19 7551,0 7584,0C7590,0 7589,5 7582,12C7573,21 7570,182 7570,675L7570,1325L7790,1545L7790,1834L7595,2031L7399,2227L7401,2269C7404,2309 7401,2314 7310,2405L7215,2500L7020,2500L6825,2500L6747,2578C6674,2652 6670,2658 6670,2701C6670,2734 6676,2752 6690,2765C6715,2788 6716,2812 6692,2833C6671,2852 6662,2853 6638,2839Z" style="fill:rgb(226,238,255);fill-rule:nonzero;"/>
                                <path d="M6794,2825C6779,2802 6779,2798 6794,2775C6804,2760 6810,2729 6810,2692C6810,2638 6813,2632 6848,2597L6886,2560L7225,2560L7343,2442C7453,2331 7460,2322 7460,2285C7460,2246 7467,2238 7650,2055L7840,1865L7840,1685L7840,1505L7730,1395L7620,1285L7620,675L7620,64L7655,30C7674,12 7692,-1 7695,1C7698,4 7686,19 7670,35L7640,64L7640,1275L7860,1495L7860,1865L7665,2060C7477,2248 7470,2256 7470,2295C7470,2332 7463,2341 7353,2452L7235,2570L7065,2570L6894,2570L6862,2603C6834,2632 6830,2642 6830,2693C6830,2738 6834,2751 6849,2760C6878,2775 6885,2808 6864,2831C6840,2857 6814,2855 6794,2825Z" style="fill:rgb(226,238,255);fill-rule:nonzero;"/>
                                <path d="M6940,2829C6927,2806 6940,2760 6960,2760C6966,2760 6970,2735 6970,2702C6970,2654 6974,2640 6993,2622C7014,2602 7027,2600 7136,2600L7255,2600L7378,2477C7498,2357 7500,2354 7500,2310L7500,2265L7685,2080L7870,1895L7870,1687L7870,1478L7765,1375L7660,1273L7660,673L7660,74L7700,35C7722,14 7742,-1 7745,1C7747,4 7734,22 7715,40L7680,74L7680,1265L7890,1475L7890,1894L7699,2086L7508,2278L7511,2319C7514,2360 7512,2362 7390,2485L7265,2610L7149,2610C7041,2610 7032,2612 7012,2633C6982,2664 6982,2741 7010,2777C7028,2800 7029,2806 7017,2824C6997,2854 6954,2857 6940,2829Z" style="fill:rgb(226,238,255);fill-rule:nonzero;"/>
                                <path d="M6317,2822C6293,2796 6296,2773 6325,2754C6347,2740 6350,2730 6350,2681L6350,2625L6585,2390L6820,2155L6820,2045L6820,1934L6865,1890L6910,1846L6913,920L6915,-5L6918,925L6920,1856L6880,1895L6840,1934L6840,2165L6605,2400L6370,2635L6370,2688C6370,2720 6376,2751 6386,2765C6401,2788 6401,2792 6386,2815C6367,2845 6340,2847 6317,2822Z" style="fill:rgb(226,238,255);fill-rule:nonzero;"/>
                                <path d="M7222,2263C7209,2239 7225,2210 7250,2210C7266,2210 7270,2203 7270,2177C7270,2149 7287,2128 7410,2005L7550,1865L7550,1705L7550,1544L7495,1490L7440,1436L7440,718C7440,246 7443,0 7450,0C7457,0 7460,246 7460,718L7460,1436L7570,1544L7570,1873L7431,2014L7291,2155L7288,2215C7285,2272 7284,2275 7258,2278C7240,2280 7228,2275 7222,2263Z" style="fill:rgb(226,238,255);fill-rule:nonzero;"/>
                                <path d="M6914,2236C6903,2209 6915,2185 6940,2182C6954,2180 6984,2160 7008,2137C7047,2098 7050,2093 7050,2040L7050,1985L7150,1885L7250,1785L7250,893C7250,304 7253,0 7260,0C7267,0 7270,306 7270,898L7270,1795L7170,1895L7070,1995L7070,2050C7070,2103 7068,2108 7026,2149C7000,2174 6980,2204 6978,2219C6976,2239 6969,2246 6947,2248C6930,2250 6918,2246 6914,2236Z" style="fill:rgb(226,238,255);fill-rule:nonzero;"/>
                                <path d="M6518,2179C6484,2160 6503,2110 6544,2110C6555,2110 6584,2091 6607,2068L6650,2026L6650,1940L6650,1854L6690,1815L6730,1776L6733,886L6735,-5L6738,890L6740,1786L6700,1825L6660,1864L6660,2036L6615,2080C6589,2106 6572,2131 6573,2143C6576,2169 6541,2192 6518,2179Z" style="fill:rgb(226,238,255);fill-rule:nonzero;"/>
                                <path d="M6326,2164C6317,2156 6310,2143 6310,2136C6310,2119 6331,2100 6349,2100C6357,2100 6384,2081 6407,2058C6450,2016 6450,2015 6450,1945L6450,1875L6530,1795L6610,1715L6610,858C6610,293 6613,0 6620,0C6627,0 6630,294 6630,863L6630,1725L6550,1805L6470,1885L6470,1955C6470,2025 6470,2026 6426,2069C6394,2100 6384,2117 6388,2132C6391,2146 6386,2158 6375,2166C6351,2184 6345,2183 6326,2164Z" style="fill:rgb(226,238,255);fill-rule:nonzero;"/>
                                <path d="M7181,2142C7162,2107 7215,2068 7236,2101C7240,2108 7296,2059 7376,1979L7510,1845L7510,1701L7510,1557L7455,1502L7400,1447L7400,723C7400,248 7403,0 7410,0C7417,0 7420,247 7420,722L7420,1444L7471,1496L7521,1547L7521,1863L7378,2010C7234,2158 7201,2180 7181,2142Z" style="fill:rgb(226,238,255);fill-rule:nonzero;"/>
                                <path d="M6914,2106C6906,2074 6916,2060 6944,2060C6973,2060 7010,2021 7010,1989C7010,1971 7038,1937 7110,1865L7210,1765L7210,883C7210,301 7213,0 7220,0C7227,0 7230,301 7230,883L7230,1765L7130,1865C7046,1948 7030,1970 7030,1996C7030,2016 7021,2035 7005,2050C6991,2063 6981,2079 6983,2084C6991,2105 6969,2130 6945,2130C6927,2130 6919,2123 6914,2106Z" style="fill:rgb(226,238,255);fill-rule:nonzero;"/>
                                <path d="M6510,2045C6491,2022 6507,1990 6539,1990C6584,1990 6610,1953 6610,1889C6610,1838 6613,1831 6650,1795L6690,1756L6692,876L6695,-5L6705,1765L6668,1806C6635,1842 6630,1854 6630,1897C6630,1939 6625,1951 6600,1975C6583,1991 6572,2010 6575,2018C6588,2052 6534,2074 6510,2045Z" style="fill:rgb(226,238,255);fill-rule:nonzero;"/>
                                <path d="M7222,2048C7215,2041 7210,2028 7210,2018C7210,2000 7243,1976 7254,1987C7257,1991 7281,1974 7305,1950L7350,1906L7350,953C7350,324 7353,0 7360,0C7367,0 7370,324 7370,953L7370,1906L7325,1950C7294,1981 7280,2002 7280,2021C7280,2056 7246,2072 7222,2048Z" style="fill:rgb(226,238,255);fill-rule:nonzero;"/>
                                <path d="M6919,2004C6903,1985 6917,1958 6948,1950C6960,1947 7016,1898 7075,1841L7180,1737L7180,869C7180,296 7183,0 7190,0C7197,0 7200,298 7200,873L7200,1745L7091,1854C7025,1920 6984,1968 6987,1977C7000,2011 6944,2034 6919,2004Z" style="fill:rgb(226,238,255);fill-rule:nonzero;"/>
                                <path d="M6510,1931C6502,1915 6507,1903 6539,1863C6560,1837 6594,1799 6614,1781L6650,1746L6650,873C6650,298 6653,0 6660,0C6667,0 6670,297 6670,872L6670,1744L6609,1806C6551,1864 6548,1870 6564,1885C6582,1903 6583,1910 6574,1934C6565,1956 6523,1954 6510,1931Z" style="fill:rgb(226,238,255);fill-rule:nonzero;"/>
                                <path d="M6961,1782C6948,1758 6965,1730 6993,1730C7007,1730 7033,1712 7058,1687L7100,1644L7100,822C7100,281 7103,0 7110,0C7117,0 7120,283 7120,828L7120,1656L7075,1700C7050,1724 7030,1751 7030,1760C7030,1798 6978,1814 6961,1782Z" style="fill:rgb(226,238,255);fill-rule:nonzero;"/>
                                <path d="M6974,1678C6942,1628 6940,1595 6940,798C6940,276 6943,0 6950,0C6956,0 6961,281 6962,807L6965,1615L6989,1615C7020,1615 7039,1644 7024,1668C7010,1690 6984,1695 6974,1678Z" style="fill:rgb(226,238,255);fill-rule:nonzero;"/>
                                <path d="M7006,1564C6986,1545 6986,1535 7005,1516C7018,1503 7020,1405 7020,751C7020,257 7023,0 7030,0C7037,0 7040,256 7040,749C7040,1402 7042,1499 7055,1510C7076,1527 7074,1557 7051,1570C7026,1583 7024,1583 7006,1564Z" style="fill:rgb(226,238,255);fill-rule:nonzero;"/>
                            </g>
                        </g>
                    </g>
                </g>
            </g>
        </g>
    </g>
    <g transform="matrix(1,0,0,1,-4,13)">
        <g transform="matrix(12,0,0,12,12.1439,232.061)">
            <path d="M0.215,0.01C0.166,0.01 0.126,-0.005 0.095,-0.036C0.064,-0.067 0.049,-0.107 0.049,-0.156L0.049,-0.544C0.049,-0.593 0.064,-0.633 0.095,-0.664C0.126,-0.695 0.166,-0.71 0.215,-0.71C0.264,-0.71 0.304,-0.695 0.335,-0.664C0.366,-0.633 0.381,-0.593 0.381,-0.544L0.381,-0.462L0.277,-0.462L0.277,-0.544C0.277,-0.564 0.271,-0.58 0.26,-0.592C0.249,-0.604 0.234,-0.61 0.216,-0.61C0.198,-0.61 0.183,-0.604 0.172,-0.592C0.161,-0.58 0.155,-0.564 0.155,-0.544L0.155,-0.156C0.155,-0.136 0.161,-0.12 0.172,-0.108C0.183,-0.096 0.198,-0.09 0.216,-0.09C0.234,-0.09 0.249,-0.096 0.26,-0.108C0.271,-0.12 0.277,-0.136 0.277,-0.156L0.277,-0.256L0.381,-0.256L0.381,-0.156C0.381,-0.107 0.366,-0.067 0.335,-0.036C0.304,-0.005 0.264,0.01 0.215,0.01Z" style="fill:rgb(227,238,255);fill-rule:nonzero;"/>
        </g>
        <g transform="matrix(12,0,0,12,17.1839,232.061)">
            <path d="M0.398,-0.7L0.282,0L0.14,0L0.024,-0.7L0.132,-0.7L0.212,-0.15L0.292,-0.7L0.398,-0.7Z" style="fill:rgb(227,238,255);fill-rule:nonzero;"/>
        </g>
    </g>
    <g transform="matrix(1.10117,0,0,2.63011,-0.972671,-582.26)">
        <path d="M52.5,253.363C52.5,252.934 51.668,252.586 50.643,252.586L5.611,252.586C4.586,252.586 3.754,252.934 3.754,253.363L3.754,283.251C3.754,283.68 4.586,284.028 5.611,284.028L50.643,284.028C51.668,284.028 52.5,283.68 52.5,283.251L52.5,253.363Z" style="fill:rgb(39,44,51);"/>
    </g>
    <path d="M21.089,129.091L21.089,123.418L38.82,123.418" style="fill:none;stroke:rgb(227,238,255);stroke-width:0.5px;"/>
    <path d="M9.578,135.954L11.078,137.079L9.578,138.204L9.578,135.954Z" style="fill:rgb(227,238,255);"/>
    <path d="M32.509,178.068L6.648,178.068L6.412,137.079L9.878,137.079" style="fill:none;stroke:rgb(227,238,255);stroke-width:0.5px;"/>
    <g transform="matrix(1,0,0,-1,0,274.509)">
        <path d="M21.089,129.091L21.089,123.418L38.82,123.418" style="fill:none;stroke:rgb(227,238,255);stroke-width:0.5px;"/>
    </g>
    <g transform="matrix(1.10117,0,0,0.590132,-0.972671,112.152)">
        <path d="M52.5,255.034C52.5,253.683 51.912,252.586 51.188,252.586L5.066,252.586C4.342,252.586 3.754,253.683 3.754,255.034L3.754,281.58C3.754,282.931 4.342,284.028 5.066,284.028L51.188,284.028C51.912,284.028 52.5,282.931 52.5,281.58L52.5,255.034Z" style="fill:rgb(39,44,51);"/>
    </g>
    <g transform="matrix(1,0,0,1,0.0742454,6.4553)">
        <g transform="matrix(12,0,0,12,12.5443,134.123)">
            <path d="M0.205,0.01C0.172,0.01 0.142,0.003 0.116,-0.012C0.09,-0.027 0.07,-0.047 0.056,-0.073C0.041,-0.099 0.034,-0.129 0.034,-0.162L0.034,-0.187L0.136,-0.198L0.136,-0.172C0.136,-0.147 0.142,-0.127 0.154,-0.112C0.166,-0.097 0.183,-0.09 0.204,-0.09C0.225,-0.09 0.241,-0.096 0.254,-0.108C0.266,-0.12 0.272,-0.136 0.272,-0.157C0.272,-0.18 0.266,-0.201 0.253,-0.222C0.24,-0.243 0.214,-0.271 0.175,-0.308C0.123,-0.357 0.088,-0.398 0.069,-0.431C0.05,-0.464 0.04,-0.499 0.04,-0.538C0.04,-0.591 0.054,-0.632 0.083,-0.664C0.112,-0.695 0.151,-0.71 0.201,-0.71C0.251,-0.71 0.29,-0.694 0.319,-0.663C0.348,-0.632 0.362,-0.59 0.362,-0.537L0.362,-0.519L0.26,-0.508L0.26,-0.528C0.26,-0.555 0.255,-0.575 0.245,-0.589C0.235,-0.603 0.221,-0.61 0.202,-0.61C0.183,-0.61 0.169,-0.604 0.159,-0.593C0.149,-0.582 0.144,-0.565 0.144,-0.543C0.144,-0.521 0.151,-0.5 0.164,-0.48C0.177,-0.459 0.203,-0.43 0.241,-0.392C0.293,-0.34 0.329,-0.298 0.348,-0.267C0.367,-0.235 0.376,-0.2 0.376,-0.162C0.376,-0.129 0.369,-0.099 0.355,-0.073C0.34,-0.047 0.32,-0.027 0.294,-0.012C0.268,0.003 0.238,0.01 0.205,0.01Z" style="fill:rgb(227,238,255);fill-rule:nonzero;"/>
        </g>
        <g transform="matrix(12,0,0,12,17.4403,134.123)">
            <path d="M0.058,-0.7L0.359,-0.7L0.359,-0.6L0.164,-0.6L0.164,-0.405L0.319,-0.405L0.319,-0.305L0.164,-0.305L0.164,-0.1L0.359,-0.1L0.359,0L0.058,0L0.058,-0.7Z" style="fill:rgb(227,238,255);fill-rule:nonzero;"/>
        </g>
        <g transform="matrix(12,0,0,12,22.1203,134.123)">
            <path d="M0.058,-0.7L0.175,-0.7L0.31,-0.23L0.31,-0.7L0.414,-0.7L0.414,0L0.302,0L0.162,-0.448L0.162,0L0.058,0L0.058,-0.7Z" style="fill:rgb(227,238,255);fill-rule:nonzero;"/>
        </g>
        <g transform="matrix(12,0,0,12,27.7843,134.123)">
            <path d="M0.058,-0.7L0.224,-0.7C0.275,-0.7 0.315,-0.685 0.345,-0.655C0.375,-0.624 0.39,-0.584 0.39,-0.533L0.39,-0.167C0.39,-0.116 0.375,-0.076 0.345,-0.046C0.315,-0.015 0.275,0 0.224,0L0.058,0L0.058,-0.7ZM0.219,-0.1C0.24,-0.1 0.256,-0.106 0.267,-0.117C0.278,-0.128 0.284,-0.144 0.284,-0.165L0.284,-0.535C0.284,-0.556 0.278,-0.572 0.267,-0.583C0.256,-0.594 0.24,-0.6 0.219,-0.6L0.164,-0.6L0.164,-0.1L0.219,-0.1Z" style="fill:rgb(227,238,255);fill-rule:nonzero;"/>
        </g>
    </g>
    <g transform="matrix(1,0,0,1,-1.42592,-29.9159)">
        <g transform="matrix(12,0,0,12,13.4319,122.306)">
            <path d="M0.215,0.01C0.166,0.01 0.126,-0.005 0.095,-0.036C0.064,-0.067 0.049,-0.107 0.049,-0.156L0.049,-0.544C0.049,-0.593 0.064,-0.633 0.095,-0.664C0.126,-0.695 0.166,-0.71 0.215,-0.71C0.264,-0.71 0.304,-0.695 0.335,-0.664C0.366,-0.633 0.381,-0.593 0.381,-0.544L0.381,-0.462L0.277,-0.462L0.277,-0.544C0.277,-0.564 0.271,-0.58 0.26,-0.592C0.249,-0.604 0.234,-0.61 0.216,-0.61C0.198,-0.61 0.183,-0.604 0.172,-0.592C0.161,-0.58 0.155,-0.564 0.155,-0.544L0.155,-0.156C0.155,-0.136 0.161,-0.12 0.172,-0.108C0.183,-0.096 0.198,-0.09 0.216,-0.09C0.234,-0.09 0.249,-0.096 0.26,-0.108C0.271,-0.12 0.277,-0.136 0.277,-0.156L0.277,-0.256L0.381,-0.256L0.381,-0.156C0.381,-0.107 0.366,-0.067 0.335,-0.036C0.304,-0.005 0.264,0.01 0.215,0.01Z" style="fill:rgb(227,238,255);fill-rule:nonzero;"/>
        </g>
        <g transform="matrix(12,0,0,12,18.4719,122.306)">
            <path d="M0.219,0.01C0.17,0.01 0.131,-0.005 0.1,-0.036C0.069,-0.066 0.054,-0.105 0.054,-0.154L0.054,-0.7L0.16,-0.7L0.16,-0.154C0.16,-0.134 0.166,-0.118 0.177,-0.107C0.188,-0.096 0.202,-0.09 0.219,-0.09C0.236,-0.09 0.251,-0.096 0.262,-0.107C0.273,-0.118 0.278,-0.134 0.278,-0.154L0.278,-0.7L0.382,-0.7L0.382,-0.154C0.382,-0.105 0.367,-0.066 0.337,-0.036C0.307,-0.005 0.268,0.01 0.219,0.01Z" style="fill:rgb(227,238,255);fill-rule:nonzero;"/>
        </g>
        <g transform="matrix(12,0,0,12,23.7039,122.306)">
            <path d="M0.296,0L0.219,-0.289L0.164,-0.289L0.164,0L0.058,0L0.058,-0.7L0.224,-0.7C0.275,-0.7 0.315,-0.685 0.345,-0.655C0.375,-0.624 0.39,-0.584 0.39,-0.533L0.39,-0.456C0.39,-0.424 0.384,-0.396 0.371,-0.371C0.358,-0.346 0.34,-0.327 0.317,-0.313L0.406,0L0.296,0ZM0.164,-0.389L0.219,-0.389C0.24,-0.389 0.256,-0.395 0.267,-0.406C0.278,-0.417 0.284,-0.433 0.284,-0.454L0.284,-0.535C0.284,-0.556 0.278,-0.572 0.267,-0.583C0.256,-0.594 0.24,-0.6 0.219,-0.6L0.164,-0.6L0.164,-0.389Z" style="fill:rgb(227,238,255);fill-rule:nonzero;"/>
        </g>
        <g transform="matrix(12,0,0,12,28.9239,122.306)">
            <path d="M0.296,0L0.219,-0.289L0.164,-0.289L0.164,0L0.058,0L0.058,-0.7L0.224,-0.7C0.275,-0.7 0.315,-0.685 0.345,-0.655C0.375,-0.624 0.39,-0.584 0.39,-0.533L0.39,-0.456C0.39,-0.424 0.384,-0.396 0.371,-0.371C0.358,-0.346 0.34,-0.327 0.317,-0.313L0.406,0L0.296,0ZM0.164,-0.389L0.219,-0.389C0.24,-0.389 0.256,-0.395 0.267,-0.406C0.278,-0.417 0.284,-0.433 0.284,-0.454L0.284,-0.535C0.284,-0.556 0.278,-0.572 0.267,-0.583C0.256,-0.594 0.24,-0.6 0.219,-0.6L0.164,-0.6L0.164,-0.389Z" style="fill:rgb(227,238,255);fill-rule:nonzero;"/>
        </g>
        <g transform="matrix(12,0,0,12,34.1439,122.306)">
            <path d="M0.058,-0.7L0.359,-0.7L0.359,-0.6L0.164,-0.6L0.164,-0.405L0.319,-0.405L0.319,-0.305L0.164,-0.305L0.164,-0.1L0.359,-0.1L0.359,0L0.058,0L0.058,-0.7Z" style="fill:rgb(227,238,255);fill-rule:nonzero;"/>
        </g>
        <g transform="matrix(12,0,0,12,38.8239,122.306)">
            <path d="M0.058,-0.7L0.175,-0.7L0.31,-0.23L0.31,-0.7L0.414,-0.7L0.414,0L0.302,0L0.162,-0.448L0.162,0L0.058,0L0.058,-0.7Z" style="fill:rgb(227,238,255);fill-rule:nonzero;"/>
        </g>
        <g transform="matrix(12,0,0,12,44.4879,122.306)">
            <path d="M0.024,-0.7L0.362,-0.7L0.362,-0.6L0.246,-0.6L0.246,0L0.14,0L0.14,-0.6L0.024,-0.6L0.024,-0.7Z" style="fill:rgb(227,238,255);fill-rule:nonzero;"/>
        </g>
    </g>
    <g transform="matrix(1,0,0,1,-7.85028,163.132)">
        <g transform="matrix(8,0,0,8,13.4068,106.356)">
            <path d="M0.205,0.01C0.172,0.01 0.142,0.003 0.116,-0.012C0.09,-0.027 0.07,-0.047 0.056,-0.073C0.041,-0.099 0.034,-0.129 0.034,-0.162L0.034,-0.187L0.136,-0.198L0.136,-0.172C0.136,-0.147 0.142,-0.127 0.154,-0.112C0.166,-0.097 0.183,-0.09 0.204,-0.09C0.225,-0.09 0.241,-0.096 0.254,-0.108C0.266,-0.12 0.272,-0.136 0.272,-0.157C0.272,-0.18 0.266,-0.201 0.253,-0.222C0.24,-0.243 0.214,-0.271 0.175,-0.308C0.123,-0.357 0.088,-0.398 0.069,-0.431C0.05,-0.464 0.04,-0.499 0.04,-0.538C0.04,-0.591 0.054,-0.632 0.083,-0.664C0.112,-0.695 0.151,-0.71 0.201,-0.71C0.251,-0.71 0.29,-0.694 0.319,-0.663C0.348,-0.632 0.362,-0.59 0.362,-0.537L0.362,-0.519L0.26,-0.508L0.26,-0.528C0.26,-0.555 0.255,-0.575 0.245,-0.589C0.235,-0.603 0.221,-0.61 0.202,-0.61C0.183,-0.61 0.169,-0.604 0.159,-0.593C0.149,-0.582 0.144,-0.565 0.144,-0.543C0.144,-0.521 0.151,-0.5 0.164,-0.48C0.177,-0.459 0.203,-0.43 0.241,-0.392C0.293,-0.34 0.329,-0.298 0.348,-0.267C0.367,-0.235 0.376,-0.2 0.376,-0.162C0.376,-0.129 0.369,-0.099 0.355,-0.073C0.34,-0.047 0.32,-0.027 0.294,-0.012C0.268,0.003 0.238,0.01 0.205,0.01Z" style="fill:rgb(227,238,255);fill-rule:nonzero;"/>
        </g>
        <g transform="matrix(8,0,0,8,16.6708,106.356)">
            <path d="M0.058,-0.7L0.359,-0.7L0.359,-0.6L0.164,-0.6L0.164,-0.405L0.319,-0.405L0.319,-0.305L0.164,-0.305L0.164,-0.1L0.359,-0.1L0.359,0L0.058,0L0.058,-0.7Z" style="fill:rgb(227,238,255);fill-rule:nonzero;"/>
        </g>
        <g transform="matrix(8,0,0,8,19.7908,106.356)">
            <path d="M0.058,-0.7L0.175,-0.7L0.31,-0.23L0.31,-0.7L0.414,-0.7L0.414,0L0.302,0L0.162,-0.448L0.162,0L0.058,0L0.058,-0.7Z" style="fill:rgb(227,238,255);fill-rule:nonzero;"/>
        </g>
        <g transform="matrix(8,0,0,8,23.5668,106.356)">
            <path d="M0.058,-0.7L0.224,-0.7C0.275,-0.7 0.315,-0.685 0.345,-0.655C0.375,-0.624 0.39,-0.584 0.39,-0.533L0.39,-0.167C0.39,-0.116 0.375,-0.076 0.345,-0.046C0.315,-0.015 0.275,0 0.224,0L0.058,0L0.058,-0.7ZM0.219,-0.1C0.24,-0.1 0.256,-0.106 0.267,-0.117C0.278,-0.128 0.284,-0.144 0.284,-0.165L0.284,-0.535C0.284,-0.556 0.278,-0.572 0.267,-0.583C0.256,-0.594 0.24,-0.6 0.219,-0.6L0.164,-0.6L0.164,-0.1L0.219,-0.1Z" style="fill:rgb(227,238,255);fill-rule:nonzero;"/>
        </g>
        <g transform="matrix(8,0,0,8,28.6708,106.356)">
            <path d="M0.058,-0.7L0.224,-0.7C0.275,-0.7 0.315,-0.685 0.345,-0.655C0.375,-0.624 0.39,-0.584 0.39,-0.533L0.39,-0.451C0.39,-0.4 0.375,-0.36 0.345,-0.33C0.315,-0.299 0.275,-0.284 0.224,-0.284L0.164,-0.284L0.164,0L0.058,0L0.058,-0.7ZM0.219,-0.384C0.24,-0.384 0.256,-0.39 0.267,-0.401C0.278,-0.412 0.284,-0.428 0.284,-0.449L0.284,-0.535C0.284,-0.556 0.278,-0.572 0.267,-0.583C0.256,-0.594 0.24,-0.6 0.219,-0.6L0.164,-0.6L0.164,-0.384L0.219,-0.384Z" style="fill:rgb(227,238,255);fill-rule:nonzero;"/>
        </g>
        <g transform="matrix(8,0,0,8,32.0388,106.356)">
            <path d="M0.215,0.01C0.166,0.01 0.126,-0.005 0.095,-0.036C0.064,-0.067 0.049,-0.107 0.049,-0.156L0.049,-0.544C0.049,-0.593 0.064,-0.633 0.095,-0.664C0.126,-0.695 0.166,-0.71 0.215,-0.71C0.264,-0.71 0.304,-0.695 0.335,-0.664C0.366,-0.633 0.381,-0.593 0.381,-0.544L0.381,-0.462L0.277,-0.462L0.277,-0.544C0.277,-0.564 0.271,-0.58 0.26,-0.592C0.249,-0.604 0.234,-0.61 0.216,-0.61C0.198,-0.61 0.183,-0.604 0.172,-0.592C0.161,-0.58 0.155,-0.564 0.155,-0.544L0.155,-0.156C0.155,-0.136 0.161,-0.12 0.172,-0.108C0.183,-0.096 0.198,-0.09 0.216,-0.09C0.234,-0.09 0.249,-0.096 0.26,-0.108C0.271,-0.12 0.277,-0.136 0.277,-0.156L0.277,-0.256L0.381,-0.256L0.381,-0.156C0.381,-0.107 0.366,-0.067 0.335,-0.036C0.304,-0.005 0.264,0.01 0.215,0.01Z" style="fill:rgb(227,238,255);fill-rule:nonzero;"/>
        </g>
        <g transform="matrix(8,0,0,8,36.9988,106.356)">
            <path d="M0.219,0.01C0.168,0.01 0.127,-0.005 0.096,-0.037C0.065,-0.068 0.049,-0.108 0.049,-0.159L0.049,-0.541C0.049,-0.592 0.065,-0.632 0.096,-0.664C0.127,-0.695 0.168,-0.71 0.219,-0.71C0.27,-0.71 0.311,-0.695 0.342,-0.664C0.373,-0.632 0.389,-0.592 0.389,-0.541L0.389,-0.159C0.389,-0.108 0.373,-0.068 0.342,-0.037C0.311,-0.005 0.27,0.01 0.219,0.01ZM0.219,-0.09C0.239,-0.09 0.255,-0.096 0.266,-0.108C0.277,-0.12 0.283,-0.137 0.283,-0.159L0.283,-0.541C0.283,-0.563 0.277,-0.58 0.266,-0.592C0.255,-0.604 0.239,-0.61 0.219,-0.61C0.199,-0.61 0.183,-0.604 0.172,-0.592C0.161,-0.58 0.155,-0.563 0.155,-0.541L0.155,-0.159C0.155,-0.137 0.161,-0.12 0.172,-0.108C0.183,-0.096 0.199,-0.09 0.219,-0.09Z" style="fill:rgb(227,238,255);fill-rule:nonzero;"/>
        </g>
        <g transform="matrix(8,0,0,8,40.5028,106.356)">
            <path d="M0.058,-0.7L0.175,-0.7L0.31,-0.23L0.31,-0.7L0.414,-0.7L0.414,0L0.302,0L0.162,-0.448L0.162,0L0.058,0L0.058,-0.7Z" style="fill:rgb(227,238,255);fill-rule:nonzero;"/>
        </g>
        <g transform="matrix(8,0,0,8,13.4068,114.356)">
            <path d="M0.058,-0.7L0.224,-0.7C0.275,-0.7 0.315,-0.685 0.345,-0.655C0.375,-0.624 0.39,-0.584 0.39,-0.533L0.39,-0.451C0.39,-0.4 0.375,-0.36 0.345,-0.33C0.315,-0.299 0.275,-0.284 0.224,-0.284L0.164,-0.284L0.164,0L0.058,0L0.058,-0.7ZM0.219,-0.384C0.24,-0.384 0.256,-0.39 0.267,-0.401C0.278,-0.412 0.284,-0.428 0.284,-0.449L0.284,-0.535C0.284,-0.556 0.278,-0.572 0.267,-0.583C0.256,-0.594 0.24,-0.6 0.219,-0.6L0.164,-0.6L0.164,-0.384L0.219,-0.384Z" style="fill:rgb(227,238,255);fill-rule:nonzero;"/>
        </g>
        <g transform="matrix(8,0,0,8,16.4708,114.356)">
            <path d="M0.267,-0.155L0.153,-0.155L0.13,0L0.024,0L0.14,-0.7L0.282,-0.7L0.398,0L0.29,0L0.267,-0.155ZM0.253,-0.257L0.21,-0.55L0.167,-0.257L0.253,-0.257Z" style="fill:rgb(227,238,255);fill-rule:nonzero;"/>
        </g>
        <g transform="matrix(8,0,0,8,19.5108,114.356)">
            <path d="M0.024,-0.7L0.362,-0.7L0.362,-0.6L0.246,-0.6L0.246,0L0.14,0L0.14,-0.6L0.024,-0.6L0.024,-0.7Z" style="fill:rgb(227,238,255);fill-rule:nonzero;"/>
        </g>
        <g transform="matrix(8,0,0,8,22.5988,114.356)">
            <path d="M0.215,0.01C0.166,0.01 0.126,-0.005 0.095,-0.036C0.064,-0.067 0.049,-0.107 0.049,-0.156L0.049,-0.544C0.049,-0.593 0.064,-0.633 0.095,-0.664C0.126,-0.695 0.166,-0.71 0.215,-0.71C0.264,-0.71 0.304,-0.695 0.335,-0.664C0.366,-0.633 0.381,-0.593 0.381,-0.544L0.381,-0.462L0.277,-0.462L0.277,-0.544C0.277,-0.564 0.271,-0.58 0.26,-0.592C0.249,-0.604 0.234,-0.61 0.216,-0.61C0.198,-0.61 0.183,-0.604 0.172,-0.592C0.161,-0.58 0.155,-0.564 0.155,-0.544L0.155,-0.156C0.155,-0.136 0.161,-0.12 0.172,-0.108C0.183,-0.096 0.198,-0.09 0.216,-0.09C0.234,-0.09 0.249,-0.096 0.26,-0.108C0.271,-0.12 0.277,-0.136 0.277,-0.156L0.277,-0.256L0.381,-0.256L0.381,-0.156C0.381,-0.107 0.366,-0.067 0.335,-0.036C0.304,-0.005 0.264,0.01 0.215,0.01Z" style="fill:rgb(227,238,255);fill-rule:nonzero;"/>
        </g>
        <g transform="matrix(8,0,0,8,25.9588,114.356)">
            <path d="M0.058,0L0.058,-0.7L0.164,-0.7L0.164,-0.405L0.29,-0.405L0.29,-0.7L0.396,-0.7L0.396,0L0.29,0L0.29,-0.305L0.164,-0.305L0.164,0L0.058,0Z" style="fill:rgb(227,238,255);fill-rule:nonzero;"/>
        </g>
        <g transform="matrix(8,0,0,8,31.1908,114.356)">
            <path d="M0.058,-0.7L0.164,-0.7L0.164,-0.1L0.353,-0.1L0.353,0L0.058,0L0.058,-0.7Z" style="fill:rgb(227,238,255);fill-rule:nonzero;"/>
        </g>
        <g transform="matrix(8,0,0,8,34.2068,114.356)">
            <path d="M0.219,0.01C0.168,0.01 0.127,-0.005 0.096,-0.037C0.065,-0.068 0.049,-0.108 0.049,-0.159L0.049,-0.541C0.049,-0.592 0.065,-0.632 0.096,-0.664C0.127,-0.695 0.168,-0.71 0.219,-0.71C0.27,-0.71 0.311,-0.695 0.342,-0.664C0.373,-0.632 0.389,-0.592 0.389,-0.541L0.389,-0.159C0.389,-0.108 0.373,-0.068 0.342,-0.037C0.311,-0.005 0.27,0.01 0.219,0.01ZM0.219,-0.09C0.239,-0.09 0.255,-0.096 0.266,-0.108C0.277,-0.12 0.283,-0.137 0.283,-0.159L0.283,-0.541C0.283,-0.563 0.277,-0.58 0.266,-0.592C0.255,-0.604 0.239,-0.61 0.219,-0.61C0.199,-0.61 0.183,-0.604 0.172,-0.592C0.161,-0.58 0.155,-0.563 0.155,-0.541L0.155,-0.159C0.155,-0.137 0.161,-0.12 0.172,-0.108C0.183,-0.096 0.199,-0.09 0.219,-0.09Z" style="fill:rgb(227,238,255);fill-rule:nonzero;"/>
        </g>
        <g transform="matrix(8,0,0,8,37.7028,114.356)">
            <path d="M0.267,-0.155L0.153,-0.155L0.13,0L0.024,0L0.14,-0.7L0.282,-0.7L0.398,0L0.29,0L0.267,-0.155ZM0.253,-0.257L0.21,-0.55L0.167,-0.257L0.253,-0.257Z" style="fill:rgb(227,238,255);fill-rule:nonzero;"/>
        </g>
        <g transform="matrix(8,0,0,8,41.0788,114.356)">
            <path d="M0.058,-0.7L0.224,-0.7C0.275,-0.7 0.315,-0.685 0.345,-0.655C0.375,-0.624 0.39,-0.584 0.39,-0.533L0.39,-0.167C0.39,-0.116 0.375,-0.076 0.345,-0.046C0.315,-0.015 0.275,0 0.224,0L0.058,0L0.058,-0.7ZM0.219,-0.1C0.24,-0.1 0.256,-0.106 0.267,-0.117C0.278,-0.128 0.284,-0.144 0.284,-0.165L0.284,-0.535C0.284,-0.556 0.278,-0.572 0.267,-0.583C0.256,-0.594 0.24,-0.6 0.219,-0.6L0.164,-0.6L0.164,-0.1L0.219,-0.1Z" style="fill:rgb(227,238,255);fill-rule:nonzero;"/>
        </g>
    </g>
    <g transform="matrix(1.01164,0,0,0.302034,-0.661511,-28.9059)">
        <path d="M56.831,312.354C56.831,310.365 56.349,308.751 55.756,308.751L4.855,308.751C4.261,308.751 3.779,310.365 3.779,312.354L3.779,347.077C3.779,349.066 4.261,350.68 4.855,350.68L55.756,350.68C56.349,350.68 56.831,349.066 56.831,347.077L56.831,312.354Z" style="fill:rgb(227,238,255);"/>
    </g>
    <g transform="matrix(1,0,0,1,-5.07966,15.119)">
        <g transform="matrix(10,0,0,10,13.2602,59.3778)">
            <rect x="0.058" y="-0.7" width="0.106" height="0.7" style="fill:rgb(62,71,84);fill-rule:nonzero;"/>
        </g>
        <g transform="matrix(10,0,0,10,15.4802,59.3778)">
            <path d="M0.058,-0.7L0.175,-0.7L0.31,-0.23L0.31,-0.7L0.414,-0.7L0.414,0L0.302,0L0.162,-0.448L0.162,0L0.058,0L0.058,-0.7Z" style="fill:rgb(62,71,84);fill-rule:nonzero;"/>
        </g>
    </g>
    <g transform="matrix(1,0,0,1,16.2498,15.019)">
        <g transform="matrix(10,0,0,10,13.2602,59.3778)">
            <path d="M0.219,0.01C0.168,0.01 0.127,-0.005 0.096,-0.037C0.065,-0.068 0.049,-0.108 0.049,-0.159L0.049,-0.541C0.049,-0.592 0.065,-0.632 0.096,-0.664C0.127,-0.695 0.168,-0.71 0.219,-0.71C0.27,-0.71 0.311,-0.695 0.342,-0.664C0.373,-0.632 0.389,-0.592 0.389,-0.541L0.389,-0.159C0.389,-0.108 0.373,-0.068 0.342,-0.037C0.311,-0.005 0.27,0.01 0.219,0.01ZM0.219,-0.09C0.239,-0.09 0.255,-0.096 0.266,-0.108C0.277,-0.12 0.283,-0.137 0.283,-0.159L0.283,-0.541C0.283,-0.563 0.277,-0.58 0.266,-0.592C0.255,-0.604 0.239,-0.61 0.219,-0.61C0.199,-0.61 0.183,-0.604 0.172,-0.592C0.161,-0.58 0.155,-0.563 0.155,-0.541L0.155,-0.159C0.155,-0.137 0.161,-0.12 0.172,-0.108C0.183,-0.096 0.199,-0.09 0.219,-0.09Z" style="fill:rgb(62,71,84);fill-rule:nonzero;"/>
        </g>
        <g transform="matrix(10,0,0,10,17.6402,59.3778)">
            <path d="M0.219,0.01C0.17,0.01 0.131,-0.005 0.1,-0.036C0.069,-0.066 0.054,-0.105 0.054,-0.154L0.054,-0.7L0.16,-0.7L0.16,-0.154C0.16,-0.134 0.166,-0.118 0.177,-0.107C0.188,-0.096 0.202,-0.09 0.219,-0.09C0.236,-0.09 0.251,-0.096 0.262,-0.107C0.273,-0.118 0.278,-0.134 0.278,-0.154L0.278,-0.7L0.382,-0.7L0.382,-0.154C0.382,-0.105 0.367,-0.066 0.337,-0.036C0.307,-0.005 0.268,0.01 0.219,0.01Z" style="fill:rgb(62,71,84);fill-rule:nonzero;"/>
        </g>
        <g transform="matrix(10,0,0,10,22.0002,59.3778)">
            <path d="M0.024,-0.7L0.362,-0.7L0.362,-0.6L0.246,-0.6L0.246,0L0.14,0L0.14,-0.6L0.024,-0.6L0.024,-0.7Z" style="fill:rgb(62,71,84);fill-rule:nonzero;"/>
        </g>
    </g>
    <g transform="matrix(1,0,0,1.39763,0,-139.439)">
        <path d="M56.831,310.728C56.831,309.637 55.593,308.751 54.067,308.751L6.543,308.751C5.017,308.751 3.779,309.637 3.779,310.728L3.779,348.703C3.779,349.794 5.017,350.68 6.543,350.68L54.067,350.68C55.593,350.68 56.831,349.794 56.831,348.703L56.831,310.728Z" style="fill:rgb(227,238,255);"/>
    </g>
    <g transform="matrix(1,0,0,1,-5.45766,4.35047)">
        <g transform="matrix(12,0,0,12,39.7899,343.973)">
            <path d="M0.024,-0.7L0.362,-0.7L0.362,-0.6L0.246,-0.6L0.246,0L0.14,0L0.14,-0.6L0.024,-0.6L0.024,-0.7Z" style="fill:rgb(62,71,84);fill-rule:nonzero;"/>
        </g>
        <g transform="matrix(12,0,0,12,44.4219,343.973)">
            <path d="M0.296,0L0.219,-0.289L0.164,-0.289L0.164,0L0.058,0L0.058,-0.7L0.224,-0.7C0.275,-0.7 0.315,-0.685 0.345,-0.655C0.375,-0.624 0.39,-0.584 0.39,-0.533L0.39,-0.456C0.39,-0.424 0.384,-0.396 0.371,-0.371C0.358,-0.346 0.34,-0.327 0.317,-0.313L0.406,0L0.296,0ZM0.164,-0.389L0.219,-0.389C0.24,-0.389 0.256,-0.395 0.267,-0.406C0.278,-0.417 0.284,-0.433 0.284,-0.454L0.284,-0.535C0.284,-0.556 0.278,-0.572 0.267,-0.583C0.256,-0.594 0.24,-0.6 0.219,-0.6L0.164,-0.6L0.164,-0.389Z" style="fill:rgb(62,71,84);fill-rule:nonzero;"/>
        </g>
        <g transform="matrix(12,0,0,12,49.6419,343.973)">
            <rect x="0.058" y="-0.7" width="0.106" height="0.7" style="fill:rgb(62,71,84);fill-rule:nonzero;"/>
        </g>
        <g transform="matrix(12,0,0,12,52.3059,343.973)">
            <path d="M0.283,-0.482L0.283,-0.541C0.283,-0.563 0.277,-0.58 0.266,-0.592C0.255,-0.604 0.239,-0.61 0.219,-0.61C0.199,-0.61 0.183,-0.604 0.172,-0.592C0.161,-0.58 0.155,-0.563 0.155,-0.541L0.155,-0.159C0.155,-0.137 0.161,-0.12 0.172,-0.108C0.183,-0.096 0.199,-0.09 0.219,-0.09C0.239,-0.09 0.255,-0.096 0.266,-0.108C0.277,-0.12 0.283,-0.137 0.283,-0.159L0.283,-0.283L0.219,-0.283L0.219,-0.383L0.389,-0.383L0.389,-0.159C0.389,-0.108 0.373,-0.068 0.342,-0.037C0.311,-0.005 0.27,0.01 0.219,0.01C0.168,0.01 0.127,-0.005 0.096,-0.037C0.065,-0.068 0.049,-0.108 0.049,-0.159L0.049,-0.541C0.049,-0.592 0.065,-0.632 0.096,-0.664C0.127,-0.695 0.168,-0.71 0.219,-0.71C0.27,-0.71 0.311,-0.695 0.342,-0.664C0.373,-0.632 0.389,-0.592 0.389,-0.541L0.389,-0.482L0.283,-0.482Z" style="fill:rgb(62,71,84);fill-rule:nonzero;"/>
        </g>
    </g>
    <g transform="matrix(1,0,0,1,1.67385,-7.27167)">
        <g transform="matrix(12,0,0,12,20.6161,312.328)">
            <path d="M0.219,0.01C0.168,0.01 0.127,-0.005 0.096,-0.037C0.065,-0.068 0.049,-0.108 0.049,-0.159L0.049,-0.541C0.049,-0.592 0.065,-0.632 0.096,-0.664C0.127,-0.695 0.168,-0.71 0.219,-0.71C0.27,-0.71 0.311,-0.695 0.342,-0.664C0.373,-0.632 0.389,-0.592 0.389,-0.541L0.389,-0.159C0.389,-0.108 0.373,-0.068 0.342,-0.037C0.311,-0.005 0.27,0.01 0.219,0.01ZM0.219,-0.09C0.239,-0.09 0.255,-0.096 0.266,-0.108C0.277,-0.12 0.283,-0.137 0.283,-0.159L0.283,-0.541C0.283,-0.563 0.277,-0.58 0.266,-0.592C0.255,-0.604 0.239,-0.61 0.219,-0.61C0.199,-0.61 0.183,-0.604 0.172,-0.592C0.161,-0.58 0.155,-0.563 0.155,-0.541L0.155,-0.159C0.155,-0.137 0.161,-0.12 0.172,-0.108C0.183,-0.096 0.199,-0.09 0.219,-0.09Z" style="fill:rgb(62,71,84);fill-rule:nonzero;"/>
        </g>
        <g transform="matrix(12,0,0,12,25.8721,312.328)">
            <path d="M0.219,0.01C0.17,0.01 0.131,-0.005 0.1,-0.036C0.069,-0.066 0.054,-0.105 0.054,-0.154L0.054,-0.7L0.16,-0.7L0.16,-0.154C0.16,-0.134 0.166,-0.118 0.177,-0.107C0.188,-0.096 0.202,-0.09 0.219,-0.09C0.236,-0.09 0.251,-0.096 0.262,-0.107C0.273,-0.118 0.278,-0.134 0.278,-0.154L0.278,-0.7L0.382,-0.7L0.382,-0.154C0.382,-0.105 0.367,-0.066 0.337,-0.036C0.307,-0.005 0.268,0.01 0.219,0.01Z" style="fill:rgb(62,71,84);fill-rule:nonzero;"/>
        </g>
        <g transform="matrix(12,0,0,12,31.1041,312.328)">
            <path d="M0.024,-0.7L0.362,-0.7L0.362,-0.6L0.246,-0.6L0.246,0L0.14,0L0.14,-0.6L0.024,-0.6L0.024,-0.7Z" style="fill:rgb(62,71,84);fill-rule:nonzero;"/>
        </g>
    </g>
    <g transform="matrix(1,0,0,1,-2.2268,2.25111)">
        <g transform="matrix(12,0,0,12,14.832,346.073)">
            <path d="M0.215,0.01C0.166,0.01 0.126,-0.005 0.095,-0.036C0.064,-0.067 0.049,-0.107 0.049,-0.156L0.049,-0.544C0.049,-0.593 0.064,-0.633 0.095,-0.664C0.126,-0.695 0.166,-0.71 0.215,-0.71C0.264,-0.71 0.304,-0.695 0.335,-0.664C0.366,-0.633 0.381,-0.593 0.381,-0.544L0.381,-0.462L0.277,-0.462L0.277,-0.544C0.277,-0.564 0.271,-0.58 0.26,-0.592C0.249,-0.604 0.234,-0.61 0.216,-0.61C0.198,-0.61 0.183,-0.604 0.172,-0.592C0.161,-0.58 0.155,-0.564 0.155,-0.544L0.155,-0.156C0.155,-0.136 0.161,-0.12 0.172,-0.108C0.183,-0.096 0.198,-0.09 0.216,-0.09C0.234,-0.09 0.249,-0.096 0.26,-0.108C0.271,-0.12 0.277,-0.136 0.277,-0.156L0.277,-0.256L0.381,-0.256L0.381,-0.156C0.381,-0.107 0.366,-0.067 0.335,-0.036C0.304,-0.005 0.264,0.01 0.215,0.01Z" style="fill:rgb(62,71,84);fill-rule:nonzero;"/>
        </g>
        <g transform="matrix(12,0,0,12,19.872,346.073)">
            <path d="M0.398,-0.7L0.282,0L0.14,0L0.024,-0.7L0.132,-0.7L0.212,-0.15L0.292,-0.7L0.398,-0.7Z" style="fill:rgb(62,71,84);fill-rule:nonzero;"/>
        </g>
    </g>
    <g transform="matrix(0.173316,0,0,0.173577,10.972,352.846)">
        <g id="Layer1">
            <g id="Layer-1" serif:id="Layer 1">
                <g id="path849" transform="matrix(0.264583,0,0,0.264583,-130.714,-190.714)">
                    <path d="M717.038,858.57L856.29,858.57C892.609,858.57 919.184,874.072 936.014,905.076C938.849,911.631 940.266,918.363 940.266,925.273L940.266,928.727C940.266,957.605 920.778,978.688 881.802,991.975C873.475,994.279 864.971,995.43 856.29,995.43L718.101,995.43C699.144,995.43 685.68,1003.93 677.707,1020.94L677.707,1063.2L896.684,1063.2L896.684,1054.69C899.164,1043.88 905.896,1038.48 916.881,1038.48L920.07,1038.48C932.825,1040.61 939.203,1044.86 939.203,1051.24L939.203,1084.99C939.203,1091.72 932.825,1095.97 920.07,1097.74L654.321,1097.74C640.857,1095.97 634.125,1090.66 634.125,1081.8L634.125,1019.88C634.125,1003.05 647.235,986.749 673.455,970.981C687.629,964.249 702.156,960.883 717.038,960.883L855.227,960.883C873.652,960.883 886.762,952.999 894.558,937.231C895.975,934.928 896.684,931.828 896.684,927.93L896.684,926.07C896.684,911.365 886.762,901.001 866.92,894.977C864.085,893.737 860.188,893.117 855.227,893.117L718.101,893.117C693.652,893.117 679.125,906.139 674.518,932.182C669.026,937.674 663.003,940.42 656.447,940.42L653.258,940.42C640.503,938.472 634.125,934.308 634.125,927.93L634.125,917.832C634.125,900.824 647.235,884.436 673.455,868.668C687.629,861.936 702.156,858.57 717.038,858.57Z" style="fill:rgb(222,239,255);fill-rule:nonzero;"/>
                </g>
                <g id="flowRoot825" transform="matrix(0.264583,0,0,0.264583,-152.059,-73.5843)">
                    <path id="path852" d="M680.858,680.21C684.716,680.21 688.712,684.206 692.846,692.198L730.464,750.485L731.291,750.899L731.704,750.899C732.255,750.623 744.932,730.953 769.735,691.888C774.145,684.102 778.003,680.21 781.31,680.21L782.55,680.21C787.924,680.21 790.818,682.69 791.232,687.651C760.985,736.223 743.072,764.196 737.491,771.568C735.287,772.67 733.358,773.221 731.704,773.221L730.877,773.221C726.192,773.221 722.334,769.777 719.302,762.887C718.269,762.129 702.422,737.395 671.763,688.684C671.487,688.271 671.35,687.72 671.35,687.031C671.35,682.828 674.519,680.554 680.858,680.21Z" style="fill:rgb(222,239,255);fill-rule:nonzero;"/>
                    <path id="path854" d="M865.228,680.21L867.295,680.21C888.584,680.21 905.671,688.167 918.554,704.083C923.239,711.248 925.582,717.104 925.582,721.652L924.755,721.962L909.46,721.962C909.115,721.962 908.289,719.791 906.98,715.451C898.161,700.638 884.519,693.231 866.054,693.231C848.554,693.231 835.188,700.328 825.956,714.521C824.44,719.206 823.476,721.686 823.062,721.962L807.767,721.962C807.216,721.962 806.94,721.652 806.94,721.032C806.94,714.348 811.487,706.184 820.582,696.538C833.397,685.653 848.279,680.21 865.228,680.21ZM807.354,729.816L822.649,729.816C823.062,729.816 824.027,732.537 825.543,737.98C834.361,752.793 848.003,760.2 866.468,760.2C883.968,760.2 897.334,753.103 906.566,738.91C907.669,736.017 908.633,732.985 909.46,729.816L925.169,729.816L925.995,730.126C925.995,738.187 921.31,747.109 911.94,756.893C899.125,767.779 884.243,773.221 867.295,773.221L865.228,773.221C843.938,773.221 826.852,765.264 813.968,749.348C809.421,742.597 806.94,736.189 806.527,730.126L807.354,729.816Z" style="fill:rgb(222,239,255);fill-rule:nonzero;"/>
                    <path id="path856" d="M949.145,680.21L950.385,680.21C955.621,680.968 958.239,683.034 958.239,686.41L958.239,743.561C958.239,751.002 961.822,755.997 968.987,758.546C971.537,759.166 973.879,759.476 976.015,759.476L1004.12,759.476C1013.43,759.476 1019.21,755.584 1021.49,747.798C1021.76,746.903 1021.9,746.007 1021.9,745.111L1021.9,735.397C1022.87,731.263 1025.48,729.196 1029.76,729.196L1031,729.196C1036.23,729.885 1038.85,731.952 1038.85,735.397L1038.85,747.798C1038.85,757.099 1032.24,764.816 1019.01,770.948C1014.25,772.464 1009.71,773.221 1005.37,773.221L974.775,773.221C960.858,773.221 950.385,767.469 943.358,755.963C941.98,752.587 941.291,749.865 941.291,747.798L941.291,686.41C942.255,682.277 944.873,680.21 949.145,680.21Z" style="fill:rgb(222,239,255);fill-rule:nonzero;"/>
                    <path id="path858" d="M1061.17,680.21L1099.2,680.21C1099.76,680.279 1100.03,680.485 1100.03,680.83L1100.03,693.335C1100.03,693.748 1099.76,693.955 1099.2,693.955L1061.17,693.955C1056.49,692.852 1054.14,690.992 1054.14,688.374L1054.14,685.79C1055.59,682.07 1057.93,680.21 1061.17,680.21ZM1114.09,680.21L1115.33,680.21C1120.56,680.968 1123.18,683.034 1123.18,686.41L1123.18,767.021C1122.22,771.155 1119.6,773.221 1115.33,773.221L1114.09,773.221C1108.85,772.464 1106.23,770.397 1106.23,767.021L1106.23,686.41C1107.2,682.277 1109.81,680.21 1114.09,680.21ZM1130.21,680.21L1166.17,680.21C1170.86,681.312 1173.2,683.172 1173.2,685.79L1173.2,688.374C1171.75,692.095 1169.41,693.955 1166.17,693.955L1130.21,693.955C1129.66,693.955 1129.38,693.748 1129.38,693.335L1129.38,680.83C1129.45,680.416 1129.73,680.21 1130.21,680.21Z" style="fill:rgb(222,239,255);fill-rule:nonzero;"/>
                    <path id="path860" d="M1221.15,680.21L1300.11,680.21C1305.07,680.899 1307.55,682.552 1307.55,685.17L1307.55,698.295C1307.55,700.776 1305.07,702.429 1300.11,703.256L1298.87,703.256C1293.63,702.498 1291.02,700.397 1291.02,696.952L1291.02,693.645L1221.57,693.645C1214.4,693.645 1209.3,696.711 1206.27,702.843C1205.72,703.738 1205.44,704.944 1205.44,706.46L1205.44,707.183C1205.44,712.902 1209.3,716.932 1217.02,719.275C1218.12,719.757 1219.64,719.998 1221.57,719.998L1275.31,719.998C1289.43,719.998 1299.77,726.027 1306.31,738.084C1307.41,740.633 1307.96,743.251 1307.96,745.938L1307.96,747.282C1307.96,758.443 1300.38,766.642 1285.23,771.878C1281.99,772.774 1278.68,773.221 1275.31,773.221L1196.35,773.221C1191.39,772.533 1188.91,770.879 1188.91,768.261L1188.91,755.136C1188.91,752.656 1191.39,751.002 1196.35,750.175L1197.59,750.175C1202.83,750.933 1205.44,753.034 1205.44,756.479L1205.44,759.786L1274.89,759.786C1282.06,759.786 1287.16,756.721 1290.19,750.589C1290.74,749.693 1291.02,748.487 1291.02,746.971L1291.02,746.248C1291.02,740.53 1287.16,736.499 1279.44,734.157C1278.34,733.674 1276.82,733.433 1274.89,733.433L1221.15,733.433C1207.03,733.433 1196.69,727.405 1190.15,715.347C1189.05,712.798 1188.5,710.18 1188.5,707.493L1188.5,706.15C1188.5,694.988 1196.07,686.789 1211.23,681.553C1214.47,680.658 1217.78,680.21 1221.15,680.21Z" style="fill:rgb(222,239,255);fill-rule:nonzero;"/>
                </g>
                <g id="path863" transform="matrix(-0.880393,0,0,1.13586,0,0)">
                    <path d="M-178.964,31.82L-143.099,31.82C-139.945,32.277 -138.367,33.522 -138.367,35.556L-138.367,36.116C-138.948,38.607 -140.526,39.852 -143.099,39.852L-174.73,39.852C-186.56,39.852 -194.53,43.671 -198.64,51.309C-198.764,52.222 -199.013,52.679 -199.387,52.679L-209.349,52.679L-209.847,52.492C-207.813,46.141 -204.409,41.409 -199.636,38.296C-193.077,33.979 -186.187,31.82 -178.964,31.82L-178.964,31.82ZM-205.613,55.605L-162.526,55.605C-159.371,56.062 -157.794,57.307 -157.794,59.341L-157.794,59.964C-158.375,62.454 -159.952,63.7 -162.526,63.7L-205.613,63.7C-208.768,63.243 -210.345,61.998 -210.345,59.964L-210.345,59.341C-209.764,56.851 -208.187,55.605 -205.613,55.605ZM-209.349,66.626L-199.636,66.626C-199.387,66.668 -198.557,68.038 -197.145,70.736C-192.787,76.796 -185.315,79.826 -174.73,79.826L-143.099,79.826C-139.945,80.241 -138.367,81.487 -138.367,83.562L-138.367,84.123C-138.948,86.613 -140.526,87.859 -143.099,87.859L-178.964,87.859C-189.964,87.859 -199.096,83.542 -206.36,74.907C-208.685,70.839 -209.847,68.141 -209.847,66.813L-209.349,66.626Z" style="fill:rgb(222,239,255);fill-rule:nonzero;"/>
                </g>
            </g>
        </g>
    </g>
    <g transform="matrix(1,0,0,1,-23.9809,3)">
        <g transform="matrix(18,0,0,18,30.2209,31.222)">
            <path d="M0.54,-0.7L0.54,0L0.434,0L0.434,-0.48L0.335,0L0.261,0L0.162,-0.48L0.162,0L0.058,0L0.058,-0.7L0.208,-0.7L0.3,-0.253L0.388,-0.7L0.54,-0.7Z" style="fill:rgb(227,238,255);fill-rule:nonzero;"/>
        </g>
        <g transform="matrix(18,0,0,18,40.9849,31.222)">
            <rect x="0.058" y="-0.7" width="0.106" height="0.7" style="fill:rgb(227,238,255);fill-rule:nonzero;"/>
        </g>
        <g transform="matrix(18,0,0,18,44.9809,31.222)">
            <path d="M0.058,-0.7L0.224,-0.7C0.275,-0.7 0.315,-0.685 0.345,-0.655C0.375,-0.624 0.39,-0.584 0.39,-0.533L0.39,-0.167C0.39,-0.116 0.375,-0.076 0.345,-0.046C0.315,-0.015 0.275,0 0.224,0L0.058,0L0.058,-0.7ZM0.219,-0.1C0.24,-0.1 0.256,-0.106 0.267,-0.117C0.278,-0.128 0.284,-0.144 0.284,-0.165L0.284,-0.535C0.284,-0.556 0.278,-0.572 0.267,-0.583C0.256,-0.594 0.24,-0.6 0.219,-0.6L0.164,-0.6L0.164,-0.1L0.219,-0.1Z" style="fill:rgb(227,238,255);fill-rule:nonzero;"/>
        </g>
        <g transform="matrix(18,0,0,18,52.8649,31.222)">
            <rect x="0.058" y="-0.7" width="0.106" height="0.7" style="fill:rgb(227,238,255);fill-rule:nonzero;"/>
        </g>
        <g transform="matrix(18,0,0,18,56.8609,31.222)">
            <rect x="0.03" y="-0.402" width="0.24" height="0.104" style="fill:rgb(227,238,255);fill-rule:nonzero;"/>
        </g>
        <g transform="matrix(18,0,0,18,62.2609,31.222)">
            <path d="M0.058,-0.7L0.224,-0.7C0.275,-0.7 0.315,-0.685 0.345,-0.655C0.375,-0.624 0.39,-0.584 0.39,-0.533L0.39,-0.451C0.39,-0.4 0.375,-0.36 0.345,-0.33C0.315,-0.299 0.275,-0.284 0.224,-0.284L0.164,-0.284L0.164,0L0.058,0L0.058,-0.7ZM0.219,-0.384C0.24,-0.384 0.256,-0.39 0.267,-0.401C0.278,-0.412 0.284,-0.428 0.284,-0.449L0.284,-0.535C0.284,-0.556 0.278,-0.572 0.267,-0.583C0.256,-0.594 0.24,-0.6 0.219,-0.6L0.164,-0.6L0.164,-0.384L0.219,-0.384Z" style="fill:rgb(227,238,255);fill-rule:nonzero;"/>
        </g>
        <g transform="matrix(18,0,0,18,69.8389,31.222)">
            <path d="M0.215,0.01C0.166,0.01 0.126,-0.005 0.095,-0.036C0.064,-0.067 0.049,-0.107 0.049,-0.156L0.049,-0.544C0.049,-0.593 0.064,-0.633 0.095,-0.664C0.126,-0.695 0.166,-0.71 0.215,-0.71C0.264,-0.71 0.304,-0.695 0.335,-0.664C0.366,-0.633 0.381,-0.593 0.381,-0.544L0.381,-0.462L0.277,-0.462L0.277,-0.544C0.277,-0.564 0.271,-0.58 0.26,-0.592C0.249,-0.604 0.234,-0.61 0.216,-0.61C0.198,-0.61 0.183,-0.604 0.172,-0.592C0.161,-0.58 0.155,-0.564 0.155,-0.544L0.155,-0.156C0.155,-0.136 0.161,-0.12 0.172,-0.108C0.183,-0.096 0.198,-0.09 0.216,-0.09C0.234,-0.09 0.249,-0.096 0.26,-0.108C0.271,-0.12 0.277,-0.136 0.277,-0.156L0.277,-0.256L0.381,-0.256L0.381,-0.156C0.381,-0.107 0.366,-0.067 0.335,-0.036C0.304,-0.005 0.264,0.01 0.215,0.01Z" style="fill:rgb(227,238,255);fill-rule:nonzero;"/>
        </g>
    </g>
    <g transform="matrix(1,0,0,1,29.1736,-4.19131)">
        <g transform="matrix(12,0,0,12,6.18144,185.759)">
            <path d="M0.058,-0.7L0.175,-0.7L0.31,-0.23L0.31,-0.7L0.414,-0.7L0.414,0L0.302,0L0.162,-0.448L0.162,0L0.058,0L0.058,-0.7Z" style="fill:rgb(227,238,255);fill-rule:nonzero;"/>
        </g>
        <g transform="matrix(12,0,0,12,11.8454,185.759)">
            <path d="M0.058,-0.7L0.359,-0.7L0.359,-0.6L0.164,-0.6L0.164,-0.405L0.319,-0.405L0.319,-0.305L0.164,-0.305L0.164,-0.1L0.359,-0.1L0.359,0L0.058,0L0.058,-0.7Z" style="fill:rgb(227,238,255);fill-rule:nonzero;"/>
        </g>
        <g transform="matrix(12,0,0,12,16.5734,185.759)">
            <path d="M0.307,0L0.217,-0.244L0.132,0L0.022,0L0.161,-0.362L0.031,-0.7L0.145,-0.7L0.228,-0.476L0.306,-0.7L0.416,-0.7L0.284,-0.357L0.421,0L0.307,0Z" style="fill:rgb(227,238,255);fill-rule:nonzero;"/>
        </g>
        <g transform="matrix(12,0,0,12,21.8894,185.759)">
            <path d="M0.024,-0.7L0.362,-0.7L0.362,-0.6L0.246,-0.6L0.246,0L0.14,0L0.14,-0.6L0.024,-0.6L0.024,-0.7Z" style="fill:rgb(227,238,255);fill-rule:nonzero;"/>
        </g>
    </g>
    <g transform="matrix(1,0,0,1,-1.38398,3.42721)">
        <g transform="matrix(8,0,0,8,7.37598,39.324)">
            <path d="M0.058,-0.7L0.224,-0.7C0.275,-0.7 0.315,-0.685 0.345,-0.655C0.375,-0.624 0.39,-0.584 0.39,-0.533L0.39,-0.451C0.39,-0.4 0.375,-0.36 0.345,-0.33C0.315,-0.299 0.275,-0.284 0.224,-0.284L0.164,-0.284L0.164,0L0.058,0L0.058,-0.7ZM0.219,-0.384C0.24,-0.384 0.256,-0.39 0.267,-0.401C0.278,-0.412 0.284,-0.428 0.284,-0.449L0.284,-0.535C0.284,-0.556 0.278,-0.572 0.267,-0.583C0.256,-0.594 0.24,-0.6 0.219,-0.6L0.164,-0.6L0.164,-0.384L0.219,-0.384Z" style="fill:rgb(227,238,255);fill-rule:nonzero;"/>
        </g>
        <g transform="matrix(8,0,0,8,10.744,39.324)">
            <path d="M0.296,0L0.219,-0.289L0.164,-0.289L0.164,0L0.058,0L0.058,-0.7L0.224,-0.7C0.275,-0.7 0.315,-0.685 0.345,-0.655C0.375,-0.624 0.39,-0.584 0.39,-0.533L0.39,-0.456C0.39,-0.424 0.384,-0.396 0.371,-0.371C0.358,-0.346 0.34,-0.327 0.317,-0.313L0.406,0L0.296,0ZM0.164,-0.389L0.219,-0.389C0.24,-0.389 0.256,-0.395 0.267,-0.406C0.278,-0.417 0.284,-0.433 0.284,-0.454L0.284,-0.535C0.284,-0.556 0.278,-0.572 0.267,-0.583C0.256,-0.594 0.24,-0.6 0.219,-0.6L0.164,-0.6L0.164,-0.389Z" style="fill:rgb(227,238,255);fill-rule:nonzero;"/>
        </g>
        <g transform="matrix(8,0,0,8,14.224,39.324)">
            <path d="M0.219,0.01C0.168,0.01 0.127,-0.005 0.096,-0.037C0.065,-0.068 0.049,-0.108 0.049,-0.159L0.049,-0.541C0.049,-0.592 0.065,-0.632 0.096,-0.664C0.127,-0.695 0.168,-0.71 0.219,-0.71C0.27,-0.71 0.311,-0.695 0.342,-0.664C0.373,-0.632 0.389,-0.592 0.389,-0.541L0.389,-0.159C0.389,-0.108 0.373,-0.068 0.342,-0.037C0.311,-0.005 0.27,0.01 0.219,0.01ZM0.219,-0.09C0.239,-0.09 0.255,-0.096 0.266,-0.108C0.277,-0.12 0.283,-0.137 0.283,-0.159L0.283,-0.541C0.283,-0.563 0.277,-0.58 0.266,-0.592C0.255,-0.604 0.239,-0.61 0.219,-0.61C0.199,-0.61 0.183,-0.604 0.172,-0.592C0.161,-0.58 0.155,-0.563 0.155,-0.541L0.155,-0.159C0.155,-0.137 0.161,-0.12 0.172,-0.108C0.183,-0.096 0.199,-0.09 0.219,-0.09Z" style="fill:rgb(227,238,255);fill-rule:nonzero;"/>
        </g>
        <g transform="matrix(8,0,0,8,17.728,39.324)">
            <path d="M0.283,-0.482L0.283,-0.541C0.283,-0.563 0.277,-0.58 0.266,-0.592C0.255,-0.604 0.239,-0.61 0.219,-0.61C0.199,-0.61 0.183,-0.604 0.172,-0.592C0.161,-0.58 0.155,-0.563 0.155,-0.541L0.155,-0.159C0.155,-0.137 0.161,-0.12 0.172,-0.108C0.183,-0.096 0.199,-0.09 0.219,-0.09C0.239,-0.09 0.255,-0.096 0.266,-0.108C0.277,-0.12 0.283,-0.137 0.283,-0.159L0.283,-0.283L0.219,-0.283L0.219,-0.383L0.389,-0.383L0.389,-0.159C0.389,-0.108 0.373,-0.068 0.342,-0.037C0.311,-0.005 0.27,0.01 0.219,0.01C0.168,0.01 0.127,-0.005 0.096,-0.037C0.065,-0.068 0.049,-0.108 0.049,-0.159L0.049,-0.541C0.049,-0.592 0.065,-0.632 0.096,-0.664C0.127,-0.695 0.168,-0.71 0.219,-0.71C0.27,-0.71 0.311,-0.695 0.342,-0.664C0.373,-0.632 0.389,-0.592 0.389,-0.541L0.389,-0.482L0.283,-0.482Z" style="fill:rgb(227,238,255);fill-rule:nonzero;"/>
        </g>
        <g transform="matrix(8,0,0,8,21.2,39.324)">
            <path d="M0.296,0L0.219,-0.289L0.164,-0.289L0.164,0L0.058,0L0.058,-0.7L0.224,-0.7C0.275,-0.7 0.315,-0.685 0.345,-0.655C0.375,-0.624 0.39,-0.584 0.39,-0.533L0.39,-0.456C0.39,-0.424 0.384,-0.396 0.371,-0.371C0.358,-0.346 0.34,-0.327 0.317,-0.313L0.406,0L0.296,0ZM0.164,-0.389L0.219,-0.389C0.24,-0.389 0.256,-0.395 0.267,-0.406C0.278,-0.417 0.284,-0.433 0.284,-0.454L0.284,-0.535C0.284,-0.556 0.278,-0.572 0.267,-0.583C0.256,-0.594 0.24,-0.6 0.219,-0.6L0.164,-0.6L0.164,-0.389Z" style="fill:rgb(227,238,255);fill-rule:nonzero;"/>
        </g>
        <g transform="matrix(8,0,0,8,24.68,39.324)">
            <path d="M0.267,-0.155L0.153,-0.155L0.13,0L0.024,0L0.14,-0.7L0.282,-0.7L0.398,0L0.29,0L0.267,-0.155ZM0.253,-0.257L0.21,-0.55L0.167,-0.257L0.253,-0.257Z" style="fill:rgb(227,238,255);fill-rule:nonzero;"/>
        </g>
        <g transform="matrix(8,0,0,8,28.056,39.324)">
            <path d="M0.54,-0.7L0.54,0L0.434,0L0.434,-0.48L0.335,0L0.261,0L0.162,-0.48L0.162,0L0.058,0L0.058,-0.7L0.208,-0.7L0.3,-0.253L0.388,-0.7L0.54,-0.7Z" style="fill:rgb(227,238,255);fill-rule:nonzero;"/>
        </g>
        <g transform="matrix(8,0,0,8,34.44,39.324)">
            <path d="M0.215,0.01C0.166,0.01 0.126,-0.005 0.095,-0.036C0.064,-0.067 0.049,-0.107 0.049,-0.156L0.049,-0.544C0.049,-0.593 0.064,-0.633 0.095,-0.664C0.126,-0.695 0.166,-0.71 0.215,-0.71C0.264,-0.71 0.304,-0.695 0.335,-0.664C0.366,-0.633 0.381,-0.593 0.381,-0.544L0.381,-0.462L0.277,-0.462L0.277,-0.544C0.277,-0.564 0.271,-0.58 0.26,-0.592C0.249,-0.604 0.234,-0.61 0.216,-0.61C0.198,-0.61 0.183,-0.604 0.172,-0.592C0.161,-0.58 0.155,-0.564 0.155,-0.544L0.155,-0.156C0.155,-0.136 0.161,-0.12 0.172,-0.108C0.183,-0.096 0.198,-0.09 0.216,-0.09C0.234,-0.09 0.249,-0.096 0.26,-0.108C0.271,-0.12 0.277,-0.136 0.277,-0.156L0.277,-0.256L0.381,-0.256L0.381,-0.156C0.381,-0.107 0.366,-0.067 0.335,-0.036C0.304,-0.005 0.264,0.01 0.215,0.01Z" style="fill:rgb(227,238,255);fill-rule:nonzero;"/>
        </g>
        <g transform="matrix(8,0,0,8,37.8,39.324)">
            <path d="M0.058,0L0.058,-0.7L0.164,-0.7L0.164,-0.405L0.29,-0.405L0.29,-0.7L0.396,-0.7L0.396,0L0.29,0L0.29,-0.305L0.164,-0.305L0.164,0L0.058,0Z" style="fill:rgb(227,238,255);fill-rule:nonzero;"/>
        </g>
        <g transform="matrix(8,0,0,8,41.432,39.324)">
            <path d="M0.267,-0.155L0.153,-0.155L0.13,0L0.024,0L0.14,-0.7L0.282,-0.7L0.398,0L0.29,0L0.267,-0.155ZM0.253,-0.257L0.21,-0.55L0.167,-0.257L0.253,-0.257Z" style="fill:rgb(227,238,255);fill-rule:nonzero;"/>
        </g>
        <g transform="matrix(8,0,0,8,44.808,39.324)">
            <path d="M0.058,-0.7L0.175,-0.7L0.31,-0.23L0.31,-0.7L0.414,-0.7L0.414,0L0.302,0L0.162,-0.448L0.162,0L0.058,0L0.058,-0.7Z" style="fill:rgb(227,238,255);fill-rule:nonzero;"/>
        </g>
        <g transform="matrix(8,0,0,8,48.584,39.324)">
            <path d="M0.283,-0.482L0.283,-0.541C0.283,-0.563 0.277,-0.58 0.266,-0.592C0.255,-0.604 0.239,-0.61 0.219,-0.61C0.199,-0.61 0.183,-0.604 0.172,-0.592C0.161,-0.58 0.155,-0.563 0.155,-0.541L0.155,-0.159C0.155,-0.137 0.161,-0.12 0.172,-0.108C0.183,-0.096 0.199,-0.09 0.219,-0.09C0.239,-0.09 0.255,-0.096 0.266,-0.108C0.277,-0.12 0.283,-0.137 0.283,-0.159L0.283,-0.283L0.219,-0.283L0.219,-0.383L0.389,-0.383L0.389,-0.159C0.389,-0.108 0.373,-0.068 0.342,-0.037C0.311,-0.005 0.27,0.01 0.219,0.01C0.168,0.01 0.127,-0.005 0.096,-0.037C0.065,-0.068 0.049,-0.108 0.049,-0.159L0.049,-0.541C0.049,-0.592 0.065,-0.632 0.096,-0.664C0.127,-0.695 0.168,-0.71 0.219,-0.71C0.27,-0.71 0.311,-0.695 0.342,-0.664C0.373,-0.632 0.389,-0.592 0.389,-0.541L0.389,-0.482L0.283,-0.482Z" style="fill:rgb(227,238,255);fill-rule:nonzero;"/>
        </g>
        <g transform="matrix(8,0,0,8,52.056,39.324)">
            <path d="M0.058,-0.7L0.359,-0.7L0.359,-0.6L0.164,-0.6L0.164,-0.405L0.319,-0.405L0.319,-0.305L0.164,-0.305L0.164,-0.1L0.359,-0.1L0.359,0L0.058,0L0.058,-0.7Z" style="fill:rgb(227,238,255);fill-rule:nonzero;"/>
        </g>
    </g>
    <g transform="matrix(1,0,0,1,5.49088,-20.3872)">
        <g transform="matrix(7,0,0,7,11.3006,82.7088)">
            <path d="M0.54,-0.7L0.54,0L0.434,0L0.434,-0.48L0.335,0L0.261,0L0.162,-0.48L0.162,0L0.058,0L0.058,-0.7L0.208,-0.7L0.3,-0.253L0.388,-0.7L0.54,-0.7Z" style="fill:rgb(227,238,255);fill-rule:nonzero;"/>
        </g>
        <g transform="matrix(7,0,0,7,15.4866,82.7088)">
            <rect x="0.058" y="-0.7" width="0.106" height="0.7" style="fill:rgb(227,238,255);fill-rule:nonzero;"/>
        </g>
        <g transform="matrix(7,0,0,7,17.0406,82.7088)">
            <path d="M0.058,-0.7L0.224,-0.7C0.275,-0.7 0.315,-0.685 0.345,-0.655C0.375,-0.624 0.39,-0.584 0.39,-0.533L0.39,-0.167C0.39,-0.116 0.375,-0.076 0.345,-0.046C0.315,-0.015 0.275,0 0.224,0L0.058,0L0.058,-0.7ZM0.219,-0.1C0.24,-0.1 0.256,-0.106 0.267,-0.117C0.278,-0.128 0.284,-0.144 0.284,-0.165L0.284,-0.535C0.284,-0.556 0.278,-0.572 0.267,-0.583C0.256,-0.594 0.24,-0.6 0.219,-0.6L0.164,-0.6L0.164,-0.1L0.219,-0.1Z" style="fill:rgb(227,238,255);fill-rule:nonzero;"/>
        </g>
        <g transform="matrix(7,0,0,7,20.1066,82.7088)">
            <rect x="0.058" y="-0.7" width="0.106" height="0.7" style="fill:rgb(227,238,255);fill-rule:nonzero;"/>
        </g>
        <g transform="matrix(7,0,0,7,23.0606,82.7088)">
            <path d="M0.058,-0.7L0.224,-0.7C0.275,-0.7 0.315,-0.685 0.345,-0.655C0.375,-0.624 0.39,-0.584 0.39,-0.533L0.39,-0.451C0.39,-0.4 0.375,-0.36 0.345,-0.33C0.315,-0.299 0.275,-0.284 0.224,-0.284L0.164,-0.284L0.164,0L0.058,0L0.058,-0.7ZM0.219,-0.384C0.24,-0.384 0.256,-0.39 0.267,-0.401C0.278,-0.412 0.284,-0.428 0.284,-0.449L0.284,-0.535C0.284,-0.556 0.278,-0.572 0.267,-0.583C0.256,-0.594 0.24,-0.6 0.219,-0.6L0.164,-0.6L0.164,-0.384L0.219,-0.384Z" style="fill:rgb(227,238,255);fill-rule:nonzero;"/>
        </g>
        <g transform="matrix(7,0,0,7,26.0076,82.7088)">
            <path d="M0.219,0.01C0.168,0.01 0.127,-0.005 0.096,-0.037C0.065,-0.068 0.049,-0.108 0.049,-0.159L0.049,-0.541C0.049,-0.592 0.065,-0.632 0.096,-0.664C0.127,-0.695 0.168,-0.71 0.219,-0.71C0.27,-0.71 0.311,-0.695 0.342,-0.664C0.373,-0.632 0.389,-0.592 0.389,-0.541L0.389,-0.159C0.389,-0.108 0.373,-0.068 0.342,-0.037C0.311,-0.005 0.27,0.01 0.219,0.01ZM0.219,-0.09C0.239,-0.09 0.255,-0.096 0.266,-0.108C0.277,-0.12 0.283,-0.137 0.283,-0.159L0.283,-0.541C0.283,-0.563 0.277,-0.58 0.266,-0.592C0.255,-0.604 0.239,-0.61 0.219,-0.61C0.199,-0.61 0.183,-0.604 0.172,-0.592C0.161,-0.58 0.155,-0.563 0.155,-0.541L0.155,-0.159C0.155,-0.137 0.161,-0.12 0.172,-0.108C0.183,-0.096 0.199,-0.09 0.219,-0.09Z" style="fill:rgb(227,238,255);fill-rule:nonzero;"/>
        </g>
        <g transform="matrix(7,0,0,7,29.0736,82.7088)">
            <path d="M0.296,0L0.219,-0.289L0.164,-0.289L0.164,0L0.058,0L0.058,-0.7L0.224,-0.7C0.275,-0.7 0.315,-0.685 0.345,-0.655C0.375,-0.624 0.39,-0.584 0.39,-0.533L0.39,-0.456C0.39,-0.424 0.384,-0.396 0.371,-0.371C0.358,-0.346 0.34,-0.327 0.317,-0.313L0.406,0L0.296,0ZM0.164,-0.389L0.219,-0.389C0.24,-0.389 0.256,-0.395 0.267,-0.406C0.278,-0.417 0.284,-0.433 0.284,-0.454L0.284,-0.535C0.284,-0.556 0.278,-0.572 0.267,-0.583C0.256,-0.594 0.24,-0.6 0.219,-0.6L0.164,-0.6L0.164,-0.389Z" style="fill:rgb(227,238,255);fill-rule:nonzero;"/>
        </g>
        <g transform="matrix(7,0,0,7,32.1046,82.7088)">
            <path d="M0.024,-0.7L0.362,-0.7L0.362,-0.6L0.246,-0.6L0.246,0L0.14,0L0.14,-0.6L0.024,-0.6L0.024,-0.7Z" style="fill:rgb(227,238,255);fill-rule:nonzero;"/>
        </g>
        <g transform="matrix(7,0,0,7,34.7996,82.7088)">
            <path d="M0.205,0.01C0.172,0.01 0.142,0.003 0.116,-0.012C0.09,-0.027 0.07,-0.047 0.056,-0.073C0.041,-0.099 0.034,-0.129 0.034,-0.162L0.034,-0.187L0.136,-0.198L0.136,-0.172C0.136,-0.147 0.142,-0.127 0.154,-0.112C0.166,-0.097 0.183,-0.09 0.204,-0.09C0.225,-0.09 0.241,-0.096 0.254,-0.108C0.266,-0.12 0.272,-0.136 0.272,-0.157C0.272,-0.18 0.266,-0.201 0.253,-0.222C0.24,-0.243 0.214,-0.271 0.175,-0.308C0.123,-0.357 0.088,-0.398 0.069,-0.431C0.05,-0.464 0.04,-0.499 0.04,-0.538C0.04,-0.591 0.054,-0.632 0.083,-0.664C0.112,-0.695 0.151,-0.71 0.201,-0.71C0.251,-0.71 0.29,-0.694 0.319,-0.663C0.348,-0.632 0.362,-0.59 0.362,-0.537L0.362,-0.519L0.26,-0.508L0.26,-0.528C0.26,-0.555 0.255,-0.575 0.245,-0.589C0.235,-0.603 0.221,-0.61 0.202,-0.61C0.183,-0.61 0.169,-0.604 0.159,-0.593C0.149,-0.582 0.144,-0.565 0.144,-0.543C0.144,-0.521 0.151,-0.5 0.164,-0.48C0.177,-0.459 0.203,-0.43 0.241,-0.392C0.293,-0.34 0.329,-0.298 0.348,-0.267C0.367,-0.235 0.376,-0.2 0.376,-0.162C0.376,-0.129 0.369,-0.099 0.355,-0.073C0.34,-0.047 0.32,-0.027 0.294,-0.012C0.268,0.003 0.238,0.01 0.205,0.01Z" style="fill:rgb(227,238,255);fill-rule:nonzero;"/>
        </g>
    </g>
    <g transform="matrix(1,0,0,1,17.3981,-5.40005)">
        <g transform="matrix(12,0,0,12,13.2144,250.461)">
            <path d="M0.205,0.01C0.172,0.01 0.142,0.003 0.116,-0.012C0.09,-0.027 0.07,-0.047 0.056,-0.073C0.041,-0.099 0.034,-0.129 0.034,-0.162L0.034,-0.187L0.136,-0.198L0.136,-0.172C0.136,-0.147 0.142,-0.127 0.154,-0.112C0.166,-0.097 0.183,-0.09 0.204,-0.09C0.225,-0.09 0.241,-0.096 0.254,-0.108C0.266,-0.12 0.272,-0.136 0.272,-0.157C0.272,-0.18 0.266,-0.201 0.253,-0.222C0.24,-0.243 0.214,-0.271 0.175,-0.308C0.123,-0.357 0.088,-0.398 0.069,-0.431C0.05,-0.464 0.04,-0.499 0.04,-0.538C0.04,-0.591 0.054,-0.632 0.083,-0.664C0.112,-0.695 0.151,-0.71 0.201,-0.71C0.251,-0.71 0.29,-0.694 0.319,-0.663C0.348,-0.632 0.362,-0.59 0.362,-0.537L0.362,-0.519L0.26,-0.508L0.26,-0.528C0.26,-0.555 0.255,-0.575 0.245,-0.589C0.235,-0.603 0.221,-0.61 0.202,-0.61C0.183,-0.61 0.169,-0.604 0.159,-0.593C0.149,-0.582 0.144,-0.565 0.144,-0.543C0.144,-0.521 0.151,-0.5 0.164,-0.48C0.177,-0.459 0.203,-0.43 0.241,-0.392C0.293,-0.34 0.329,-0.298 0.348,-0.267C0.367,-0.235 0.376,-0.2 0.376,-0.162C0.376,-0.129 0.369,-0.099 0.355,-0.073C0.34,-0.047 0.32,-0.027 0.294,-0.012C0.268,0.003 0.238,0.01 0.205,0.01Z" style="fill:rgb(227,238,255);fill-rule:nonzero;"/>
        </g>
        <g transform="matrix(12,0,0,12,18.1104,250.461)">
            <path d="M0.058,-0.7L0.359,-0.7L0.359,-0.6L0.164,-0.6L0.164,-0.405L0.319,-0.405L0.319,-0.305L0.164,-0.305L0.164,-0.1L0.359,-0.1L0.359,0L0.058,0L0.058,-0.7Z" style="fill:rgb(227,238,255);fill-rule:nonzero;"/>
        </g>
        <g transform="matrix(12,0,0,12,22.7904,250.461)">
            <path d="M0.058,-0.7L0.164,-0.7L0.164,-0.1L0.353,-0.1L0.353,0L0.058,0L0.058,-0.7Z" style="fill:rgb(227,238,255);fill-rule:nonzero;"/>
        </g>
        <g transform="matrix(12,0,0,12,27.3144,250.461)">
            <path d="M0.058,-0.7L0.359,-0.7L0.359,-0.6L0.164,-0.6L0.164,-0.405L0.319,-0.405L0.319,-0.305L0.164,-0.305L0.164,-0.1L0.359,-0.1L0.359,0L0.058,0L0.058,-0.7Z" style="fill:rgb(227,238,255);fill-rule:nonzero;"/>
        </g>
        <g transform="matrix(12,0,0,12,31.9944,250.461)">
            <path d="M0.215,0.01C0.166,0.01 0.126,-0.005 0.095,-0.036C0.064,-0.067 0.049,-0.107 0.049,-0.156L0.049,-0.544C0.049,-0.593 0.064,-0.633 0.095,-0.664C0.126,-0.695 0.166,-0.71 0.215,-0.71C0.264,-0.71 0.304,-0.695 0.335,-0.664C0.366,-0.633 0.381,-0.593 0.381,-0.544L0.381,-0.462L0.277,-0.462L0.277,-0.544C0.277,-0.564 0.271,-0.58 0.26,-0.592C0.249,-0.604 0.234,-0.61 0.216,-0.61C0.198,-0.61 0.183,-0.604 0.172,-0.592C0.161,-0.58 0.155,-0.564 0.155,-0.544L0.155,-0.156C0.155,-0.136 0.161,-0.12 0.172,-0.108C0.183,-0.096 0.198,-0.09 0.216,-0.09C0.234,-0.09 0.249,-0.096 0.26,-0.108C0.271,-0.12 0.277,-0.136 0.277,-0.156L0.277,-0.256L0.381,-0.256L0.381,-0.156C0.381,-0.107 0.366,-0.067 0.335,-0.036C0.304,-0.005 0.264,0.01 0.215,0.01Z" style="fill:rgb(227,238,255);fill-rule:nonzero;"/>
        </g>
        <g transform="matrix(12,0,0,12,37.0824,250.461)">
            <path d="M0.024,-0.7L0.362,-0.7L0.362,-0.6L0.246,-0.6L0.246,0L0.14,0L0.14,-0.6L0.024,-0.6L0.024,-0.7Z" style="fill:rgb(227,238,255);fill-rule:nonzero;"/>
        </g>
    </g>
</svg>
