<?xml version="1.0" encoding="UTF-8" standalone="no"?>
<!DOCTYPE svg PUBLIC "-//W3C//DTD SVG 1.1//EN" "http://www.w3.org/Graphics/SVG/1.1/DTD/svg11.dtd">
<svg width="100%" height="100%" viewBox="0 0 45 380" version="1.1" xmlns="http://www.w3.org/2000/svg" xmlns:xlink="http://www.w3.org/1999/xlink" xml:space="preserve" xmlns:serif="http://www.serif.com/" style="fill-rule:evenodd;clip-rule:evenodd;stroke-linecap:round;stroke-linejoin:round;stroke-miterlimit:1.5;">
    <rect x="0" y="0" width="45" height="380" style="fill:rgb(62,71,84);"/>
    <g id="g4406" transform="matrix(0.0367477,0,0,-0.036803,-695.73,501.829)">
        <g opacity="0.03">
            <path id="path3464" d="M16730.1,22498.6L16554.3,22320L16554.3,19726.3L16554.3,17132.6L16710.2,16979.5C16840.6,16849.1 16866.1,16809.4 16866.1,16724.4C16866.1,16639.4 16840.6,16599.7 16724.4,16483.5C16599.7,16361.6 16582.7,16330.4 16582.7,16228.3C16582.7,16078.1 16500.5,15995.9 16341.7,15981.7C16234,15973.2 16228.3,15967.6 16219.8,15868.3L16211.3,15760.6L16367.2,15760.6C16506.1,15760.6 16526,15755 16526,15703.9C16526,15652.9 16548.7,15647.2 16818,15641.6L17107.1,15633.1L17016.4,15584.9C16937,15539.5 16843.5,15533.9 16310.6,15533.9L15692.6,15533.9L15613.2,15610.4L15533.9,15686.9L15533.9,15369.4L15533.9,15052L15253.2,15052C15094.5,15052 14961.3,15063.3 14952.8,15080.3C14941.4,15097.3 15023.6,15108.7 15176.7,15108.7L15420.5,15108.7L15420.5,15363.8C15420.5,15570.7 15412,15618.9 15378,15618.9C15349.6,15618.9 15335.4,15647.2 15335.4,15712.4C15335.4,15851.3 15188,15987.4 15035,15987.4C14799.7,15987.4 14754.3,15842.8 14961.3,15749.3C15026.5,15718.1 15080.3,15678.4 15080.3,15655.7C15080.3,15624.6 14898.9,15618.9 14108,15618.9C13169.8,15618.9 13130.1,15616.1 13081.9,15562.2C13042.2,15516.9 12994,15505.5 12855.1,15505.5C12676.5,15505.5 12614.2,15474.3 12614.2,15386.5C12614.2,15312.8 12704.9,15278.7 12906.1,15278.7C13084.7,15278.7 13087.6,15278.7 13073.4,15207.9L13062,15137L13578,15137L13578,15060.5C13578,15009.4 13532.6,14938.6 13436.2,14836.5L13294.5,14686.3L13294.5,13898.3L13294.5,13107.4L13144.3,12960C13062,12877.8 12988.3,12812.6 12979.8,12812.6C12971.3,12812.6 12962.8,12835.3 12962.8,12863.6C12965.7,13243.5 12951.5,13436.2 12920.3,13427.7C12894.8,13424.9 12880.6,13470.2 12875,13566.6C12863.6,13750.9 12792.8,13830.2 12676.5,13787.7C12608.5,13765 12600,13745.2 12591.5,13606.3C12585.8,13521.3 12574.5,13441.9 12563.1,13430.6C12551.8,13419.2 12546.1,13206.6 12551.8,12957.2L12560.3,12500.8L13827.4,12500.8L13915.3,12401.6L14003.1,12299.5L14003.1,11877.2L14003.1,11452L15740.8,11452C17390.6,11452 17484.1,11454.8 17526.6,11503C17566.3,11545.5 17574.8,11616.4 17574.8,11837.5L17574.8,12120.9L17696.7,12240C17787.4,12330.7 17829.9,12353.4 17880.9,12342C17937.6,12325 17943.3,12308 17943.3,12101.1L17943.3,11877.2L18096.4,11877.2L18002.8,11780.8C17920.6,11695.7 17912.1,11673.1 17920.6,11548.3C17929.1,11420.8 17934.8,11409.4 18008.5,11400.9C18082.2,11392.4 18085,11398.1 18085,11511.5C18085,11619.2 18102,11650.4 18215.4,11766.6L18345.8,11897L18340.2,12438.4L18337.3,12979.8L18433.7,13087.6C18524.4,13183.9 18538.6,13189.6 18626.5,13164.1L18722.8,13135.7L18731.3,12917.5C18739.8,12721.9 18745.5,12699.2 18793.7,12699.2C18836.2,12699.2 18850.4,12679.4 18850.4,12614.2C18850.4,12546.1 18875.9,12512.1 18972.3,12441.3C19046,12387.4 19097,12327.9 19105.5,12279.7C19116.9,12217.3 19136.7,12203.1 19201.9,12203.1C19303.9,12203.1 19360.6,12279.7 19315.3,12353.4C19295.4,12381.7 19247.2,12401.6 19201.9,12401.6C19156.5,12401.6 19071.5,12429.9 19014.8,12466.8C18929.8,12520.6 18907.1,12551.8 18907.1,12617C18907.1,12679.4 18921.3,12699.2 18963.8,12699.2C19017.6,12699.2 19020.5,12719.1 19020.5,13161.3C19020.5,13773.5 19046,13748 18479.1,13748L18068,13748L17977.3,13841.6L17886.6,13935.1L17886.6,14740.2L18223.9,14740.2L18232.4,14394.3C18240.9,14085.4 18246.6,14045.7 18289.1,14054.2C18314.6,14057 18343,14048.5 18354.3,14031.5C18382.7,13983.3 18507.4,14000.3 18535.7,14057C18575.4,14130.7 18510.2,14215.7 18428,14193.1C18371.3,14178.9 18368.5,14187.4 18368.5,14456.7L18368.5,14737.3L18447.9,14745.8C18524.4,14754.3 18524.4,14757.2 18532.9,14989.6L18541.4,15222L18453.5,15222L18368.5,15222L18368.5,15720.9L18575.4,15925C18691.7,16041.3 18805,16129.1 18836.2,16129.1C18870.2,16129.1 18986.5,16035.6 19119.7,15902.4L19346.5,15675.6L22152.8,15675.6L25937,19459.8L25937,22130.1L25741.4,22317.2C25633.7,22422 25520.3,22507.1 25492,22507.1C25446.6,22507.1 25438.1,22524.1 25449.4,22592.1L25460.8,22677.2L25217,22677.2L24973.2,22677.2L24973.2,22450.4L24973.2,22220.8L25208.5,22229.3C25429.6,22237.8 25440.9,22240.6 25438.1,22303C25435.3,22399.4 25480.6,22379.5 25659.2,22203.8L25823.6,22042.2L25823.6,20778L25823.6,19516.5L23958.4,17651.3L22096.1,15789L20749.6,15789L19403.2,15789L19176.4,16015.7C18960.9,16234 18946.8,16242.5 18822,16242.5C18697.3,16242.5 18683.2,16234 18459.2,16007.2L18226.8,15774.8L18226.8,15497L18226.8,15222L18056.7,15222L17886.6,15222L17886.6,15584.9C17886.6,15944.9 17886.6,15947.7 17807.2,16024.3L17727.9,16100.8L17240.3,16100.8L16752.8,16100.8L16752.8,16202.8C16752.8,16287.9 16775.4,16324.7 16880.3,16423.9C17005,16543 17007.9,16551.5 17007.9,16713.1C17007.9,16877.5 17005,16886 16866.1,17022L16724.4,17160.9L16724.4,22269L16880.3,22422C17047.6,22586.5 17078.7,22677.2 16971,22677.2C16931.3,22677.2 16843.5,22614.8 16730.1,22498.6Z" style="fill:rgb(227,238,255);fill-rule:nonzero;"/>
            <path id="path3550" d="M28318.1,20925.4L28318.1,19173.5L28502.4,18992.1L28686.6,18810.7L28686.6,15902.4L28686.6,12994L28800,12883.5L28913.4,12772.9L28913.4,12515L28913.4,12259.8L28578.9,11925.4L28247.2,11593.7L27793.7,11593.7L27340.2,11593.7L26985.8,11239.4L26631.5,10885L24644.4,10885C22694.2,10885 22657.3,10885 22606.3,10941.7C22555.3,10998.4 22518.4,10998.4 21106.8,10998.4L19658.3,10998.4L19423,10763.1C19199.1,10539.2 19190.6,10525 19190.6,10400.3C19190.6,10318.1 19173.5,10255.7 19148,10233.1C19051.7,10153.7 19128.2,9983.62 19244.4,10020.5C19323.8,10046 19355,10173.5 19292.6,10218.9C19261.4,10241.6 19247.2,10295.4 19247.2,10377.6C19247.2,10496.7 19258.6,10516.5 19468.3,10723.5L19686.6,10941.7L21120.9,10941.7C22518.4,10941.7 22555.3,10938.9 22606.3,10885C22657.3,10828.3 22694.2,10828.3 24658.6,10828.3L26659.8,10828.3L27368.5,11537L28247.2,11537L28941.7,12231.5L28941.7,12829.6L28842.5,12926L28743.3,13022.4L28743.3,18810.7L28559.1,18992.1L28374.8,19173.5L28374.8,20925.4C28374.8,22073.4 28366.3,22677.2 28346.5,22677.2C28326.6,22677.2 28318.1,22073.4 28318.1,20925.4Z" style="fill:rgb(227,238,255);fill-rule:nonzero;"/>
            <path id="path3554" d="M28550.6,20976.4L28544.9,19258.6L28729.1,19077.2L28913.4,18895.7L28913.4,16001.6L28913.4,13107.4L29012.6,13011L29111.8,12914.6L29111.8,12543.3L29111.8,12174.8L28706.5,11769.4L28303.9,11366.9L27864.6,11366.9L27425.2,11366.9L27019.8,10961.6L26617.3,10559.1L26617.3,10315.3C26617.3,10097 26611.7,10065.8 26549.3,10009.1C26489.8,9955.28 26458.6,9946.77 26260.2,9955.28L26036.2,9963.78L26027.7,10218.9C26022,10403.1 26007.9,10485.4 25973.9,10522.2C25931.3,10570.4 25820.8,10573.2 24182.4,10573.2L22436.2,10573.2L22138.6,10275.6L21840.9,9977.95L21515,9977.95L21189,9977.95L20891.3,10275.6L20593.7,10573.2L20443.5,10573.2C20335.7,10573.2 20290.4,10584.6 20279.1,10615.7C20267.7,10641.3 20225.2,10658.3 20179.8,10658.3C20117.5,10658.3 20094.8,10641.3 20080.6,10587.4C20049.4,10459.8 20185.5,10377.6 20267.7,10474C20290.4,10499.5 20352.8,10516.5 20435,10516.5C20565.4,10516.5 20571,10510.9 20863,10218.9L21160.6,9921.26L21840.9,9921.26L22436.2,10516.5L24193.7,10510.9L25951.2,10502.4L25959.7,10247.2C25971,9912.76 25988,9892.91 26274.3,9892.91C26467.1,9892.91 26495.4,9901.42 26566.3,9969.45C26640,10040.3 26645.7,10060.2 26645.7,10272.8L26645.7,10502.4L27481.9,11338.6L28332.3,11338.6L29168.5,12174.8L29168.5,12943L29055.1,13053.5L28941.7,13164.1L28941.7,18952.4L28757.5,19133.9L28573.2,19315.3L28564.7,21004.7L28559.1,22691.3L28550.6,20976.4Z" style="fill:rgb(227,238,255);fill-rule:nonzero;"/>
            <path id="path3720" d="M28204.7,16242.5C28150.9,16188.7 28111.2,16185.8 27484.7,16185.8L26821.4,16185.8L26401.9,15760.6C26016.4,15369.4 25976.7,15335.4 25880.3,15335.4C25815.1,15335.4 25764.1,15355.3 25730.1,15392.1C25679.1,15454.5 25611,15465.8 25582.7,15420.5C25571.3,15403.5 25401.3,15392.1 25163.2,15392.1L24760.6,15392.1L24193.7,14825.2L23626.8,14258.3L22677.2,14258.3L21724.7,14258.3L21469.6,14003.1C21234.3,13767.9 21206,13748 21101.1,13748C21004.7,13748 20970.7,13728.2 20848.8,13606.3C20726.9,13481.6 20695.7,13464.6 20590.9,13464.6C20511.5,13464.6 20460.5,13481.6 20423.6,13521.3C20381.1,13569.4 20335.7,13578 20123.2,13578C19876.5,13578 19839.7,13592.1 19825.5,13685.7C19817,13739.5 19754.6,13804.7 19712.1,13804.7C19663.9,13804.7 19587.4,13725.4 19587.4,13677.2C19587.4,13609.1 19675.3,13543.9 19746.1,13560.9C19780.2,13569.4 19819.8,13566.6 19828.3,13549.6C19836.9,13535.4 19958.7,13521.3 20094.8,13521.3C20307.4,13521.3 20352.8,13512.8 20395.3,13464.6C20432.1,13422 20483.2,13407.9 20576.7,13407.9C20698.6,13407.9 20721.3,13419.2 20863,13563.8C20999.1,13702.7 21030.2,13719.7 21132.3,13719.7C21237.2,13719.7 21265.5,13736.7 21486.6,13960.6L21727.6,14201.6L23660.8,14201.6L24230.6,14782.7L24797.5,15363.8L25154.6,15363.8C25446.6,15363.8 25511.8,15355.3 25511.8,15324.1C25511.8,15273.1 25588.3,15193.7 25639.4,15193.7C25659.2,15193.7 25698.9,15216.4 25727.2,15241.9C25758.4,15273.1 25809.4,15287.2 25877.5,15284.4C25973.9,15275.9 25999.4,15298.6 26404.7,15703.9L26829.9,16129.1L27498.9,16129.1C28068.7,16129.1 28173.5,16123.5 28187.7,16086.6C28207.6,16035.6 28320.9,16029.9 28369.1,16078.1C28420.2,16129.1 28408.8,16236.9 28349.3,16270.9C28275.6,16307.7 28269.9,16307.7 28204.7,16242.5Z" style="fill:rgb(227,238,255);fill-rule:nonzero;"/>
            <path id="path3754" d="M26943.3,15505.5C26934.8,15491.3 26872.4,15477.2 26807.2,15477.2C26699.5,15477.2 26674,15460.2 26486.9,15275.9L26285.7,15077.5L25894.5,15077.5C25540.2,15077.5 25500.5,15083.1 25443.8,15134.2C25387.1,15188 25344.6,15193.7 25069.6,15193.7L24760.6,15193.7L24236.2,14669.3L23711.8,14144.9L22748,14144.9L21784.3,14144.9L21515,13875.6C21276.9,13634.6 21234.3,13606.3 21146.5,13606.3C21064.3,13606.3 21021.7,13583.6 20919.7,13475.9L20792.1,13348.3L20469,13356.9C20168.5,13362.5 20143,13359.7 20106.1,13305.8C20072.1,13254.8 20075,13237.8 20120.3,13181.1C20179.8,13107.4 20281.9,13121.6 20310.2,13212.3C20327.2,13260.5 20355.6,13266.1 20576.7,13266.1L20823.3,13266.1L20962.2,13407.9C21078.4,13524.1 21118.1,13549.6 21203.2,13549.6C21291,13549.6 21333.5,13578 21557.5,13804.7L21812.6,14059.8L23740.2,14059.8L24817.3,15137L25075.3,15137C25313.4,15137 25336.1,15131.3 25398.4,15066.1C25463.6,14995.3 25472.1,14995.3 25891.7,14995.3L26322.5,14995.3L26532.3,15207.9C26759.1,15437.5 26866.8,15480 26929.1,15363.8C26974.5,15281.6 27093.5,15290.1 27133.2,15378C27155.9,15431.8 27155.9,15457.3 27127.6,15491.3C27087.9,15539.5 26968.8,15548 26943.3,15505.5Z" style="fill:rgb(227,238,255);fill-rule:nonzero;"/>
            <path id="path3790" d="M19281.3,14621.1C19230.2,14570.1 19238.7,14456.7 19298.3,14436.9C19323.8,14428.3 19380.5,14388.7 19425.8,14349L19502.4,14275.3L19502.4,13464.6C19502.4,12659.5 19502.4,12651 19567.6,12594.3C19627.1,12540.5 19675.3,12534.8 20522.8,12517.8L21415.7,12500.8L22181.1,13266.1L24930.7,13266.1L25426.8,12770.1C25900.2,12296.7 25917.2,12274 25883.2,12208.8C25837.8,12123.8 25849.1,12050.1 25914.3,12007.6C26024.9,11939.5 26138.3,12132.3 26039.1,12217.3C26013.5,12237.2 25993.7,12268.3 25993.7,12285.4C25993.7,12302.4 25761.3,12549 25475,12835.3L24959.1,13351.2L23555.9,13351.2L22152.8,13351.2L21758.7,12957.2L21361.9,12560.3L20525.7,12577.3C19732,12591.5 19683.8,12597.2 19624.3,12651C19559.1,12707.7 19559.1,12716.2 19559.1,13521.3L19559.1,14334.8L19491,14397.2C19445.7,14439.7 19428.7,14479.4 19440,14519.1C19448.5,14558.7 19437.2,14592.8 19403.2,14615.4C19338,14663.6 19323.8,14663.6 19281.3,14621.1Z" style="fill:rgb(227,238,255);fill-rule:nonzero;"/>
            <path id="path3828" d="M23570.1,13838.7L21954.3,13833.1L21557.5,13436.2C21194.6,13073.4 21152.1,13039.4 21058.6,13039.4C20987.7,13039.4 20939.5,13059.2 20891.3,13110.2C20834.6,13172.6 20800.6,13181.1 20636.2,13181.1C20463.3,13181.1 20440.6,13172.6 20366.9,13096.1C20293.2,13019.5 20267.7,13011 20111.8,13011C19972.9,13011 19924.7,12999.7 19887.9,12957.2C19859.5,12926 19797.2,12897.6 19749,12892C19576.1,12875 19573.2,12685 19746.1,12685C19811.3,12685 19831.2,12699.2 19836.9,12755.9C19842.5,12795.6 19873.7,12855.1 19907.7,12892C19955.9,12943 19995.6,12954.3 20140.2,12954.3C20296.1,12954.3 20321.6,12962.8 20395.3,13039.4C20469,13115.9 20494.5,13124.4 20647.6,13124.4C20772.3,13124.4 20831.8,13110.2 20874.3,13070.6C20911.2,13039.4 20990.6,13013.9 21081.3,13005.4L21225.8,12991.2L22011,13776.4L25157.5,13776.4L25931.3,13002.5L26702.4,12231.5L26702.4,12103.9C26702.4,11987.7 26688.2,11965 26540.8,11814.8C26410.4,11684.4 26359.4,11650.4 26288.5,11650.4C26240.3,11650.4 26183.6,11670.2 26163.8,11692.9C26090.1,11780.8 25965.4,11724.1 25965.4,11602.2C25965.4,11508.7 26064.6,11463.3 26149.6,11520C26189.3,11545.5 26260.2,11565.4 26311.2,11565.4C26390.6,11565.4 26438.7,11596.5 26597.5,11758.1C26784.6,11948 26787.4,11950.9 26787.4,12103.9L26787.4,12259.8L25988,13053.5L25185.8,13847.2L23570.1,13838.7Z" style="fill:rgb(227,238,255);fill-rule:nonzero;"/>
            <path id="path3836" d="M19238.7,13756.5C19207.6,13728.2 19216.1,13583.6 19247.2,13563.8C19264.3,13552.4 19275.6,13368.2 19275.6,13098.9L19275.6,12653.9L19389,12543.3C19479.7,12455.4 19502.4,12412.9 19502.4,12327.9C19502.4,12240 19525,12203.1 19655.4,12078.4L19811.3,11933.9L20006.9,11933.9C20177,11933.9 20208.2,11925.4 20267.7,11863L20332.9,11792.1L21529.1,11792.1L22407.9,12670.9L23400,12670.9L24037.8,12033.1L24675.6,11395.3L26404.7,11395.3L26929.1,11919.7L26929.1,12120.9C26929.1,12381.7 26963.2,12415.7 27218.3,12415.7C27425.2,12415.7 27484.7,12376.1 27501.7,12234.3C27513.1,12132.3 27589.6,12078.4 27657.6,12120.9C27771,12191.8 27717.2,12378.9 27595.3,12347.7C27552.8,12336.4 27513.1,12353.4 27467.7,12401.6C27408.2,12463.9 27377,12472.4 27198.4,12472.4C27022.7,12472.4 26988.7,12463.9 26934.8,12407.2C26883.8,12353.4 26872.4,12308 26872.4,12143.6L26872.4,11948L26623,11698.6L26376.4,11452L25526,11452L24675.6,11452L24037.8,12089.8L23400,12727.6L22903.9,12727.6L22407.9,12727.6L21968.5,12288.2L21529.1,11848.8L20931,11848.8L20332.9,11848.8L20267.7,11919.7C20211,11982 20177,11990.6 20012.6,11990.6L19825.5,11990.6L19678.1,12140.8C19564.7,12254.2 19530.7,12310.9 19530.7,12376.1C19530.7,12435.6 19502.4,12489.4 19431.5,12557.5L19332.3,12653.9L19332.3,13096.1C19332.3,13504.3 19335.1,13538.3 19389,13572.3C19451.3,13612 19462.7,13691.3 19411.7,13742.4C19374.8,13779.2 19269.9,13787.7 19238.7,13756.5Z" style="fill:rgb(227,238,255);fill-rule:nonzero;"/>
            <path id="path3840" d="M21656.7,13280.3L21245.7,12869.3L21089.8,12869.3C20945.2,12869.3 20922.5,12877.8 20834.6,12968.5C20695.7,13113.1 20579.5,13107.4 20418,12948.7C20324.4,12855.1 20287.6,12838.1 20262,12863.6C20208.2,12917.5 20103.3,12903.3 20069.3,12838.1C20029.6,12767.2 20046.6,12713.4 20126,12670.9C20177,12642.5 20205.4,12659.5 20364.1,12809.8C20576.7,13013.9 20661.7,13033.7 20792.1,12897.6C20868.7,12818.3 20885.7,12812.6 21089.8,12812.6L21302.4,12812.6L22096.1,13606.3L25044.1,13606.3L25749.9,12900.5C26407.6,12242.8 26452.9,12191.8 26410.4,12146.5C26350.9,12089.8 26350.9,12075.6 26407.6,11996.2C26461.4,11919.7 26509.6,11916.9 26572,11987.7C26623,12044.4 26614.5,12160.6 26557.8,12160.6C26543.6,12160.6 26532.3,12177.6 26532.3,12197.5C26532.3,12214.5 26203.5,12560.3 25800.9,12962.8L25072.4,13691.3L23570.1,13691.3L22067.7,13691.3L21656.7,13280.3Z" style="fill:rgb(227,238,255);fill-rule:nonzero;"/>
            <path id="path3860" d="M21869.3,12614.2L21444.1,12189L20976.4,12189L20505.8,12189L20366.9,12330.7C20290.4,12410.1 20211,12472.4 20191.2,12472.4C20140.2,12472.4 20075,12361.9 20089.1,12299.5C20109,12231.5 20225.2,12197.5 20284.7,12245.7C20318.7,12276.9 20341.4,12268.3 20418,12194.6L20511.5,12103.9L21444.1,12103.9L22294.5,12954.3L24281.6,12954.3L24278.7,12880.6C24278.7,12787.1 24358.1,12730.4 24426.1,12772.9C24505.5,12821.1 24505.5,12928.8 24429,12988.3C24369.4,13033.7 24281.6,13039.4 23329.1,13039.4L22294.5,13039.4L21869.3,12614.2Z" style="fill:rgb(227,238,255);fill-rule:nonzero;"/>
            <path id="path3872" d="M21940.2,12429.9L21500.8,11990.6L20959.4,11990.6L20420.8,11990.6L20338.6,12075.6C20267.7,12149.3 20236.5,12160.6 20111.8,12160.6C19995.6,12160.6 19953.1,12174.8 19904.9,12225.8C19870.9,12262.7 19842.5,12319.4 19842.5,12353.4C19842.5,12395.9 19819.8,12421.4 19771.7,12432.8C19689.4,12452.6 19615.7,12404.4 19615.7,12327.9C19615.7,12268.3 19717.8,12186.1 19768.8,12206C19788.7,12214.5 19834,12186.1 19870.9,12146.5C19924.7,12089.8 19964.4,12075.6 20077.8,12075.6C20194,12075.6 20233.7,12061.4 20315.9,11990.6L20412.3,11905.5L21498,11905.5L22410.7,12812.6L24083.2,12812.6L24173.9,12719.1C24224.9,12668 24258.9,12617 24247.6,12608.5C24216.4,12574.5 24267.4,12475.3 24324.1,12458.3C24386.5,12438.4 24491.3,12509.3 24491.3,12571.7C24491.3,12617 24397.8,12699.2 24346.8,12699.2C24321.3,12699.2 24267.4,12738.9 24222,12784.3L24139.8,12869.3L23261.1,12869.3L22379.5,12869.3L21940.2,12429.9Z" style="fill:rgb(227,238,255);fill-rule:nonzero;"/>
            <path id="path3884" d="M28544.9,12461.1C28527.9,12438.4 28516.5,12393.1 28522.2,12361.9C28527.9,12322.2 28459.8,12234.3 28289.8,12061.4L28048.8,11820.5L27654.8,11820.5L27260.8,11820.5L26886.6,11452L26515.3,11083.5L25183,11083.5L23853.5,11083.5L23414.2,11522.8L22974.8,11962.2L22606.3,11962.2L22237.8,11962.2L21869.3,11593.7L21498,11222.4L20525.7,11222.4C19811.3,11222.4 19542,11233.7 19510.9,11256.4C19488.2,11276.2 19454.2,11332.9 19431.5,11386.8C19403.2,11454.8 19374.8,11480.3 19323.8,11480.3C19221.7,11480.3 19173.5,11412.3 19216.1,11321.6C19241.6,11259.2 19264.3,11250.7 19332.3,11259.2C19391.8,11267.7 19431.5,11256.4 19465.5,11219.5C19508,11171.3 19578.9,11168.5 20505.8,11168.5L21500.8,11168.5L22237.8,11905.5L22946.5,11905.5L23385.8,11466.1L23825.2,11026.8L26546.5,11026.8L27283.5,11763.8L28077.2,11763.8L28332.3,12018.9C28496.7,12183.3 28610.1,12274 28655.4,12279.7C28712.1,12285.4 28732,12305.2 28737.6,12370.4C28751.8,12489.4 28621.4,12551.8 28544.9,12461.1Z" style="fill:rgb(227,238,255);fill-rule:nonzero;"/>
            <path id="path3890" d="M11712.8,12265.5L11565.4,12115.3L11565.4,11437.8L11565.4,10757.5L11318.7,10510.9L11069.3,10261.4L10811.3,10261.4C10590.2,10261.4 10547.7,10252.9 10502.4,10204.7C10457,10153.7 10414.5,10148 10057.3,10148L9663.31,10148L9025.51,9518.74L8390.55,8892.28L8390.55,7982.36L8390.55,7072.44L7341.73,6023.62L6292.91,4974.8L6292.91,4733.86L6292.91,4492.91L5839.37,4039.37L5385.83,3585.83L5385.83,3146.46L5385.83,2707.09L5825.2,2267.72L6264.57,1828.35L6264.57,1584.57C6264.57,1369.13 6258.9,1335.12 6199.37,1281.26C6151.18,1233.07 6097.32,1218.9 5992.44,1218.9L5853.54,1218.9L5309.29,1763.15L4762.2,2310.24L4762.2,4376.69L4685.67,4456.06L4609.13,4535.43L2304.57,4535.43C274.961,4535.43 0,4529.76 0,4492.91C0,4456.06 272.126,4450.39 2290.39,4450.39C4475.91,4450.39 4586.46,4447.56 4628.98,4399.37C4671.5,4351.18 4677.16,4234.96 4677.16,3313.7L4677.16,2281.89L5252.6,1706.46L5825.2,1133.86L5998.11,1133.86C6154.02,1133.86 6176.69,1142.36 6258.9,1227.4C6346.77,1318.11 6349.61,1326.61 6349.61,1590.24L6349.61,1856.69L5910.24,2296.06L5470.87,2735.43L5470.87,3585.83L6377.95,4492.91L6377.95,4974.8L8475.59,7072.44L8475.59,8858.27L9708.66,10091.3L10108.3,10091.3C10471.2,10091.3 10513.7,10097 10559.1,10148C10601.6,10196.2 10646.9,10204.7 10853.9,10204.7L11097.6,10204.7L11622,10729.1L11622,12064.3L11894.2,12330.7L12772.9,12330.7C13592.1,12330.7 13657.3,12327.9 13699.8,12279.7C13739.5,12234.3 13748,12157.8 13748,11797.8C13748,11534.2 13759.4,11341.4 13782,11296.1L13813.2,11225.2L15576.4,11225.2C17302.7,11225.2 17339.5,11225.2 17390.6,11168.5C17438.7,11117.5 17478.4,11111.8 17869.6,11111.8L18300.5,11111.8L18447.9,11262C18586.8,11400.9 18595.3,11420.8 18595.3,11554C18595.3,11684.4 18603.8,11704.3 18731.3,11829L18867.4,11962.2L19547.7,11962.2L19629.9,11877.2C19703.6,11800.6 19729.1,11792.1 19885,11792.1C20023.9,11792.1 20072.1,11780.8 20111.8,11735.4C20148.7,11692.9 20199.7,11678.7 20296.1,11678.7C20446.3,11678.7 20522.8,11619.2 20522.8,11505.8C20522.8,11423.6 20571,11366.9 20639.1,11366.9C20763.8,11366.9 20780.8,11571 20656.1,11610.7C20622,11622 20556.9,11658.9 20514.3,11695.7C20457.6,11743.9 20398.1,11763.8 20313.1,11763.8C20228,11763.8 20177,11780.8 20140.2,11820.5C20100.5,11865.8 20052.3,11877.2 19913.4,11877.2C19757.5,11877.2 19732,11885.7 19658.3,11962.2L19576.1,12047.2L19204.7,12047.2L18833.4,12047.2L18671.8,11882.8C18518.7,11729.8 18510.2,11712.8 18510.2,11579.5C18510.2,11454.8 18498.9,11429.3 18391.2,11318.7L18272.1,11196.9L17855.4,11196.9C17475.6,11196.9 17438.7,11202.5 17390.6,11253.5C17339.5,11310.2 17308.3,11310.2 15613.2,11310.2C14663.6,11310.2 13875.6,11315.9 13861.4,11324.4C13844.4,11335.7 13833.1,11539.8 13833.1,11803.5L13833.1,12262.7L13753.7,12339.2L13674.3,12415.7L12767.2,12415.7L11860.2,12415.7L11712.8,12265.5Z" style="fill:rgb(227,238,255);fill-rule:nonzero;"/>
            <path id="path3896" d="M22229.3,12268.3C22209.4,12248.5 22195.3,12214.5 22195.3,12189C22195.3,12166.3 22013.9,11965 21789.9,11741.1L21387.4,11338.6L20488.8,11338.6L19587.4,11338.6L19573.2,11418C19542,11562.5 19519.4,11579.5 19346.5,11588C19131,11599.4 19077.2,11554 19077.2,11355.6C19077.2,11213.9 19071.5,11202.5 18907.1,11040.9L18737,10873.7L18737,10204.7L18737,9538.58L19071.5,9204.09C19369.1,8906.46 19414.5,8872.44 19505.2,8872.44C19581.7,8872.44 19627.1,8849.76 19698,8776.06C19800,8671.18 19822.7,8665.51 20352.8,8628.66L20565.4,8614.49L22033.7,7148.98L23499.2,5683.47L23499.2,4521.26L23499.2,3356.22L23612.6,3245.67L23726,3135.12L23726,2267.72L23726,1403.15L24137,992.126L24548,581.102L24548,374.173C24548,243.78 24536.7,172.913 24519.7,184.252C24505.5,192.756 24491.3,286.299 24491.3,391.181L24491.3,581.102L24094.5,977.953L23697.6,1374.8L23697.6,3098.27L23584.3,3220.16L23470.9,3344.88L23470.9,5655.12L22002.5,7123.47L20537,8588.98L20332.9,8588.98C20222.4,8588.98 20120.3,8603.15 20111.8,8617.32C20103.3,8634.33 20009.8,8645.67 19907.7,8645.67C19734.8,8645.67 19715,8651.34 19612.9,8744.88C19550.6,8798.74 19474,8844.09 19437.2,8844.09C19394.6,8844.09 19267.1,8951.81 19026.1,9192.76L18680.3,9538.58L18680.3,10902L18850.4,11069.3C19012,11230.9 19020.5,11245 19020.5,11378.3C19020.5,11494.5 19034.6,11534.2 19097,11599.4C19165,11670.2 19190.6,11678.7 19360.6,11678.7C19516.5,11678.7 19559.1,11667.4 19604.4,11619.2C19632.8,11585.2 19655.4,11531.3 19649.8,11497.3C19638.4,11418 19706.5,11358.4 19791.5,11372.6C19910.6,11389.6 19882.2,11593.7 19760.3,11593.7C19732,11593.7 19680.9,11624.9 19644.1,11664.6C19584.6,11726.9 19556.2,11735.4 19360.6,11735.4C19153.7,11735.4 19142.4,11732.6 19054.5,11641.9C18975.1,11559.7 18963.8,11528.5 18963.8,11392.4C18963.8,11239.4 18960.9,11233.7 18793.7,11069.3L18623.6,10902L18623.6,10207.6L18623.6,9515.91L18983.6,9150.24C19261.4,8869.61 19360.6,8787.4 19417.3,8787.4C19465.5,8787.4 19525,8750.55 19587.4,8688.19C19678.1,8594.65 19692.3,8588.98 19873.7,8588.98C19978.6,8588.98 20075,8577.64 20083.5,8560.63C20092,8546.46 20199.7,8532.28 20318.7,8532.28L20537,8532.28L21991.2,7078.11L23442.5,5626.77L23442.5,4461.73L23442.5,3299.53L23541.7,3203.15L23640.9,3106.77L23640.9,2239.37L23640.9,1374.8L24037.8,977.953L24434.6,581.102L24434.6,382.677C24434.6,192.756 24440.3,175.748 24528.2,90.709C24590.6,31.181 24650.1,0 24703.9,0L24786.1,0L24681.3,107.717C24579.2,212.598 24576.4,221.102 24576.4,428.031L24576.4,640.63L24165.4,1048.82L23754.3,1454.17L23754.3,3191.81L23655.1,3288.19L23555.9,3384.57L23555.9,5674.96L22076.2,7168.82L20599.4,8659.84L20383.9,8668.35C20264.9,8674.02 20157.2,8688.19 20143,8702.36C20126,8719.37 20043.8,8730.71 19955.9,8730.71C19811.3,8730.71 19788.7,8739.21 19700.8,8829.92C19632.8,8900.79 19578.9,8929.13 19516.5,8929.13C19445.7,8929.13 19380.5,8980.16 19111.2,9249.45L18793.7,9566.93L18793.7,10845.4L18963.8,11012.6C19128.2,11174.2 19133.9,11185.5 19133.9,11327.2C19133.9,11497.3 19190.6,11565.4 19329.4,11565.4C19462.7,11565.4 19530.7,11520 19530.7,11429.3C19530.7,11383.9 19544.9,11335.7 19564.7,11315.9C19590.2,11290.4 19839.7,11281.9 20508.7,11281.9L21415.7,11281.9L21812.6,11678.7C22132.9,11999.1 22218,12069.9 22269,12058.6C22337,12041.6 22422,12109.6 22422,12186.1C22422,12245.7 22368.2,12302.4 22308.7,12302.4C22283.2,12302.4 22249.1,12288.2 22229.3,12268.3Z" style="fill:rgb(227,238,255);fill-rule:nonzero;"/>
            <path id="path3906" d="M12038.7,11826.1L11735.4,11522.8L11735.4,11111.8L11735.4,10700.8L11443.5,10408.8L11154.3,10119.7L10924.7,10119.7C10709.3,10119.7 10692.3,10114 10615.7,10034.6L10533.5,9949.61L10136.7,9949.61L9737.01,9949.61L9161.58,9374.17L8588.98,8801.58L8588.98,7894.49L8588.98,6987.4L7540.16,5938.58L6491.34,4889.76L6491.34,4662.99L6491.34,4436.22L6037.8,3982.68L5584.25,3529.13L5584.25,3188.98L5584.25,2848.82L6023.62,2409.45L6462.99,1970.08L6462.99,1615.75L6462.99,1258.58L6326.93,1125.35L6190.87,992.126L5966.93,992.126L5740.16,992.126L5153.39,1578.9L4563.78,2168.5L4563.78,3174.8C4563.78,4042.2 4558.11,4192.44 4518.43,4246.3L4475.91,4308.66L2236.53,4308.66C765.354,4308.66 0,4300.16 0,4280.32C0,4260.47 754.016,4251.97 2205.35,4251.97C3883.47,4251.97 4419.21,4243.47 4444.72,4217.95C4470.24,4192.44 4478.74,3920.32 4478.74,3160.63L4478.74,2140.16L5096.69,1522.2L5711.81,907.087L6219.21,907.087L6548.03,1230.24L6548.03,1970.08L6105.83,2412.28L5663.62,2857.32L5666.46,3177.64L5672.13,3500.79L6122.84,3954.33L6576.38,4407.87L6576.38,4861.42L7625.2,5910.24L8674.02,6961.89L8674.02,8773.23L9765.35,9864.57L10561.9,9864.57L10644.1,9949.61C10720.6,10029 10737.6,10034.6 10955.9,10034.6L11182.7,10034.6L11820.5,10672.4L11820.5,11494.5L12401.6,12075.6L12917.5,12075.6C13200.9,12075.6 13450.4,12067.1 13475.9,12058.6C13515.6,12044.4 13521.3,11982 13521.3,11653.2L13521.3,11264.9L13671.5,11117.5L13821.7,10970.1L15548,10970.1C16993.7,10967.2 17288.5,10961.6 17348,10927.6C17401.9,10896.4 17538,10887.9 17900.8,10885L18382.7,10885L18603.8,11106.1C18819.2,11321.6 18822,11327.2 18822,11469C18822,11596.5 18833.4,11622 18929.8,11715.6L19037.5,11820.5L19292.6,11820.5C19539.2,11820.5 19550.6,11817.6 19629.9,11735.4C19700.8,11661.7 19732,11650.4 19862.4,11650.4C19987.1,11650.4 20015.4,11639.1 20046.6,11588C20066.5,11551.2 20077.8,11505.8 20072.1,11486C20052.3,11383.9 20239.4,11321.6 20290.4,11412.3C20332.9,11488.8 20296.1,11568.2 20208.2,11585.2C20165.7,11593.7 20100.5,11630.6 20066.5,11667.4C20018.3,11721.3 19972.9,11735.4 19870.9,11735.4C19766,11735.4 19726.3,11749.6 19672.4,11806.3C19610.1,11874.3 19590.2,11877.2 19289.8,11877.2L18975.1,11877.2L18856.1,11755.3C18748.3,11644.7 18737,11622 18737,11491.7C18737,11355.6 18731.3,11344.3 18544.3,11160L18351.5,10967.2L17855.4,10984.3C17583.3,10992.8 16571.3,11006.9 15604.7,11012.6L13847.2,11026.8L13728.2,11145.8L13606.3,11264.9L13606.3,11653.2C13606.3,11990.6 13600.6,12044.4 13555.3,12084.1C13509.9,12126.6 13422,12132.3 12923.1,12132.3L12344.9,12132.3L12038.7,11826.1Z" style="fill:rgb(227,238,255);fill-rule:nonzero;"/>
            <path id="path3920" d="M22308.7,11647.6C22288.8,11616.4 22283.2,11573.9 22288.8,11554C22297.3,11534.2 22212.3,11426.5 22098.9,11313.1L21897.6,11111.8L20735.4,11111.8L19573.2,11111.8L19267.1,10805.7L18963.8,10502.4L18963.8,10091.3L18963.8,9680.32L19241.6,9402.52C19408.8,9235.28 19539.2,9127.56 19576.1,9127.56C19607.2,9127.56 19689.4,9070.87 19757.5,9000C19876.5,8878.11 19890.7,8872.44 20043.8,8872.44C20134.5,8872.44 20216.7,8861.1 20225.2,8844.09C20233.7,8829.92 20341.4,8815.75 20460.5,8815.75L20678.7,8815.75L22203.8,7290.71L23726,5768.5L23726,4617.64L23726,3469.61L23825.2,3373.23L23924.4,3276.85L23924.4,2395.28L23924.4,1516.54L24273.1,1167.87L24618.9,822.047L24961.9,822.047C25188.7,822.047 25313.4,810.709 25336.1,788.031C25358.7,765.354 25370.1,632.126 25370.1,377.008C25370.1,144.567 25381.4,0 25398.4,0C25415.4,0 25426.8,144.567 25426.8,377.008C25426.8,737.008 25423.9,759.685 25361.6,816.378C25302,873.071 25265.2,878.74 24973.2,878.74L24647.2,878.74L24315.6,1210.39L23981.1,1544.88L23981.1,3276.85L23881.9,3373.23L23782.7,3469.61L23782.7,5768.5L22229.3,7321.89L20678.7,8872.44L20457.6,8872.44C20330.1,8872.44 20239.4,8883.78 20239.4,8900.79C20239.4,8917.8 20165.7,8929.13 20072.1,8929.13C19916.2,8929.13 19899.2,8934.8 19791.5,9042.52C19726.3,9107.72 19652.6,9155.91 19615.7,9155.91C19573.2,9155.91 19462.7,9243.78 19286.9,9416.69L19020.5,9677.48L19020.5,10474L19601.6,11055.1L21900.5,11055.1L22110.2,11267.7C22260.5,11418 22337,11477.5 22373.9,11469C22424.9,11457.6 22535.4,11539.8 22535.4,11590.9C22535.4,11636.2 22447.6,11707.1 22393.7,11707.1C22362.5,11707.1 22325.7,11681.6 22308.7,11647.6Z" style="fill:rgb(227,238,255);fill-rule:nonzero;"/>
            <path id="path3952" d="M19071.5,10995.6C19037.5,10978.6 19020.5,10933.2 19020.5,10870.9C19020.5,10800 18997.8,10757.5 18932.6,10703.6L18844.7,10629.9L18847.6,10111.2L18853.2,9595.28L19156.5,9291.97C19408.8,9034.02 19474,8985.83 19544.9,8985.83C19607.2,8985.83 19661.1,8957.48 19729.1,8886.61C19817,8795.91 19839.7,8787.4 19987.1,8787.4C20077.8,8787.4 20160,8776.06 20168.5,8759.06C20177,8744.88 20279.1,8730.71 20389.6,8730.71L20593.7,8730.71L22104.6,7219.84L23612.6,5711.81L23612.6,4546.77L23612.6,3384.57L23711.8,3288.19L23811,3191.81L23811,2324.41L23811,1459.84L24173.9,1099.84L24533.9,739.843L24902.4,731.339L25270.9,722.835L25279.4,362.835C25282.2,153.071 25299.2,0 25313.4,0C25350.2,0 25350.2,668.976 25313.4,739.843C25285,788.031 25251,793.701 24922.2,793.701L24562.2,793.701L24213.5,1142.36L23867.7,1488.19L23867.7,3220.16L23768.5,3316.53L23669.3,3412.91L23669.3,5740.16L22158.4,7251.02L20650.4,8759.06L20435,8759.06C20276.2,8759.06 20208.2,8770.39 20182.7,8801.58C20160,8829.92 20097.6,8844.09 20001.3,8844.09C19870.9,8844.09 19842.5,8855.43 19757.5,8943.31C19689.4,9014.17 19635.6,9042.52 19573.2,9042.52C19502.4,9042.52 19437.2,9090.71 19182,9348.66L18878.7,9651.97L18878.7,10590.2L18972.3,10680.9C19023.3,10732 19091.3,10771.7 19125.4,10771.7C19196.2,10771.7 19255.7,10836.9 19241.6,10902C19227.4,10975.7 19128.2,11029.6 19071.5,10995.6Z" style="fill:rgb(227,238,255);fill-rule:nonzero;"/>
            <path id="path3958" d="M19544.9,10743.3L19403.2,10598.7L19380.5,10281.3C19369.1,10105.5 19352.1,9844.72 19343.6,9697.32L19329.4,9430.87L19448.5,9308.98C19530.7,9223.94 19595.9,9184.25 19644.1,9184.25C19689.4,9184.25 19749,9150.24 19800,9099.21C19873.7,9022.68 19899.2,9014.17 20052.3,9014.17C20148.7,9011.34 20256.4,8994.33 20296.1,8971.65C20335.7,8948.98 20437.8,8931.97 20522.8,8929.13L20678.7,8929.13L22246.3,7361.57L23811,5796.85L23811,4645.98L23811,3497.95L23924.4,3387.4L24037.8,3276.85L24037.8,2423.62L24037.8,1573.23L24358.1,1252.91L24675.6,935.433L25018.6,935.433C25338.9,935.433 25364.4,932.598 25421.1,870.236C25477.8,810.709 25483.5,773.858 25483.5,436.535C25483.5,65.197 25500.5,0 25594,0C25628,0 25625.2,8.504 25588.3,51.024C25548.7,93.543 25540.2,167.244 25540.2,462.047C25540.2,802.205 25537.3,822.047 25466.5,904.252L25392.8,992.126L25032.8,992.126L24675.6,992.126L24369.4,1298.27L24066.1,1601.58L24066.1,3333.54L23966.9,3429.92L23867.7,3526.3L23867.7,5825.2L22288.8,7404.09L20707.1,8982.99L20508.7,9000C19896.4,9048.19 19941.7,9039.68 19839.7,9144.57C19771.7,9212.6 19720.6,9240.94 19658.3,9240.94C19595.9,9240.94 19544.9,9269.29 19479.7,9334.49C19391.8,9425.2 19389,9433.7 19389,9685.98C19389,9830.55 19403.2,9955.28 19417.3,9963.78C19434.3,9972.28 19445.7,10108.3 19445.7,10269.9L19445.7,10561.9L19581.7,10695.1L19720.6,10831.2L20483.2,10828.3L21242.8,10828.3L21336.4,10737.6C21398.7,10678.1 21424.3,10629.9 21415.7,10598.7C21404.4,10567.6 21424.3,10522.2 21458.3,10488.2C21503.6,10442.8 21526.3,10437.2 21574.5,10459.8C21651,10502.4 21668,10556.2 21628.3,10627.1C21608.5,10666.8 21568.8,10686.6 21520.6,10686.6C21466.8,10686.6 21410.1,10720.6 21344.9,10785.8L21248.5,10885L20466.1,10885L19683.8,10885L19544.9,10743.3Z" style="fill:rgb(227,238,255);fill-rule:nonzero;"/>
            <path id="path3962" d="M19899.2,10729.1C19862.4,10689.4 19805.7,10658.3 19771.7,10658.3C19695.1,10658.3 19644.1,10607.2 19644.1,10525C19644.1,10454.2 19729.1,10394.6 19797.2,10420.2C19845.4,10440 19890.7,10564.7 19859.5,10593.1C19851,10604.4 19870.9,10641.3 19904.9,10678.1C19964.4,10743.3 19975.7,10743.3 20565.4,10743.3C21112.4,10743.3 21169.1,10737.6 21211.7,10692.3C21240,10663.9 21259.8,10604.4 21259.8,10559.1C21259.8,10508 21288.2,10445.7 21336.4,10397.5C21407.2,10323.8 21427.1,10318.1 21642.5,10318.1L21872.1,10318.1L22263.3,10715L24224.9,10715C26087.2,10715 26186.5,10712.1 26229,10663.9C26294.2,10590.2 26291.3,10414.5 26220.5,10326.6C26169.4,10261.4 26166.6,10244.4 26203.5,10193.4C26248.8,10122.5 26322.5,10102.7 26376.4,10148C26430.2,10193.4 26430.2,10315.3 26376.4,10335.1C26348,10346.5 26333.9,10391.8 26333.9,10482.5C26333.9,10584.6 26316.9,10629.9 26257.3,10692.3L26180.8,10771.7L24207.9,10771.7L22235,10771.7L22025.2,10559.1L21815.4,10346.5L21642.5,10346.5C21489.4,10346.5 21461.1,10355 21393.1,10425.8C21344.9,10476.9 21316.5,10536.4 21316.5,10590.2C21316.5,10644.1 21291,10700.8 21251.3,10737.6C21189,10797.2 21163.5,10800 20576.7,10800L19964.4,10800L19899.2,10729.1Z" style="fill:rgb(227,238,255);fill-rule:nonzero;"/>
            <path id="path3980" d="M19581.7,10306.8C19544.9,10281.3 19530.7,10230.2 19530.7,10142.4C19530.7,10063 19513.7,10000.6 19488.2,9977.95C19457,9952.44 19445.7,9881.58 19445.7,9697.32C19445.7,9473.39 19451.3,9442.2 19510.9,9388.35C19556.2,9345.83 19612.9,9325.98 19692.3,9325.98C19794.3,9325.98 19822.7,9311.81 19904.9,9212.6L19998.4,9102.05L20366.9,9082.2L20735.4,9065.2L22345.5,7457.95L23952.8,5853.54L23952.8,4702.68L23952.8,3554.65L24037.8,3472.44L24122.8,3390.24L24122.8,2511.5L24122.8,1629.92L24412,1340.79L24703.9,1048.82L25415.4,1048.82L25506.1,955.276L25596.9,861.732L25596.9,507.402C25596.9,155.906 25596.9,153.071 25676.2,76.535L25755.6,0L28017.6,0C29517.2,0 30271.2,8.504 30259.8,28.346C30248.5,48.189 29466.1,56.693 28009.1,56.693L25775.4,56.693L25715.9,121.89C25659.2,181.417 25653.5,218.268 25653.5,541.417L25653.5,895.748L25545.8,1000.63L25438.1,1105.51L25083.8,1105.51L24732.3,1105.51L24454.5,1383.31L24179.5,1658.27L24179.5,3390.24L24094.5,3472.44L24009.4,3554.65L24009.4,5853.54L22388,7474.96L20763.8,9096.38L20403.8,9116.22L20043.8,9136.06L19938.9,9243.78C19853.9,9331.65 19811.3,9354.33 19729.1,9354.33C19559.1,9354.33 19502.4,9442.2 19502.4,9697.32C19505.2,9836.22 19519.4,9924.09 19544.9,9960.94C19567.6,9992.13 19587.4,10071.5 19587.4,10139.5C19587.4,10230.2 19601.6,10267.1 19641.3,10289.8C19672.4,10303.9 19862.4,10318.1 20063.6,10318.1C20466.1,10318.1 20508.7,10301.1 20528.5,10136.7C20539.8,10034.6 20616.4,9980.79 20687.2,10023.3C20783.6,10085.7 20755.3,10224.6 20644.7,10241.6C20610.7,10247.2 20556.9,10272.8 20528.5,10298.3C20483.2,10338 20412.3,10346.5 20052.3,10346.5C19746.1,10343.6 19615.7,10335.1 19581.7,10306.8Z" style="fill:rgb(227,238,255);fill-rule:nonzero;"/>
            <path id="path4000" d="M19723.5,10207.6C19672.4,10165 19666.8,10145.2 19689.4,10088.5C19715,10031.8 19709.3,10012 19638.4,9955.28C19567.6,9895.75 19559.1,9870.24 19559.1,9725.67C19559.1,9592.44 19570.4,9552.76 19624.3,9501.73C19661.1,9464.88 19726.3,9439.37 19774.5,9439.37C19834,9439.37 19887.9,9411.02 19941.7,9354.33C20012.6,9280.63 20043.8,9269.29 20182.7,9269.29C20307.4,9269.29 20355.6,9257.95 20395.3,9212.6C20437.8,9164.41 20483.2,9155.91 20661.7,9155.91L20877.2,9155.91L22067.7,7965.35L23258.3,6774.8L23799.7,6774.8L23932.9,6638.74L24066.1,6502.68L24066.1,5057.01L24066.1,3611.34L24165.4,3514.96L24264.6,3418.58L24264.6,2554.02L24264.6,1686.61L24511.2,1440L24760.6,1190.55L25500.5,1190.55L25619.5,1068.66C25727.2,958.11 25738.6,935.433 25738.6,805.039C25738.6,668.976 25744.3,657.638 25931.3,473.386L26124.1,283.465L27116.2,283.465L27535.7,708.661L28873.7,708.661L29055.1,524.409L29236.5,340.157L30225.8,340.157C30852.3,340.157 31232.1,328.819 31269,311.811C31311.5,289.134 31322.8,249.449 31322.8,141.732C31322.8,62.362 31337,0 31351.2,0C31368.2,0 31379.5,68.031 31379.5,153.071C31379.5,402.52 31413.5,396.85 30240,396.85L29236.5,396.85L29055.1,581.102L28873.7,765.354L28204.7,765.354L27538.6,765.354L27311.8,538.583L27085,311.811L26631.5,311.811L26175.1,311.811L25985.2,504.567C25806.6,683.15 25795.3,702.992 25795.3,824.882C25795.3,938.268 25781.1,963.78 25659.2,1085.67L25523.2,1218.9L25168.8,1218.9L24817.3,1218.9L24562.2,1474.02C24423.3,1612.91 24315.6,1734.8 24324.1,1740.47C24332.6,1748.98 24446,1646.93 24576.4,1516.54L24817.3,1275.59L25528.8,1275.59L25639.4,1162.2L25749.9,1048.82L27229.6,1048.82L27326,949.606L27422.4,850.394L28902,850.394L29097.6,651.969L29293.2,453.543L30319.4,453.543C31504.3,453.543 31427.7,473.386 31444.7,170.079L31453.2,-14.173L31458.9,187.087C31464.6,362.835 31456.1,394.016 31399.4,447.874C31334.2,510.236 31320,510.236 30327.9,510.236L29321.6,510.236L29126,708.661L28930.4,907.087L28176.4,907.087L27422.4,907.087L27326,1006.3L27229.6,1105.51L26489.8,1105.51L25749.9,1105.51L25639.4,1218.9L25528.8,1332.28L25171.7,1332.28L24817.3,1332.28L24596.2,1553.39L24378,1771.65L24378,3534.8L24307.1,3600L24236.2,3665.2L24236.2,6565.04L24057.6,6740.79L23879.1,6916.53L23612.6,6916.53L23343.3,6916.53L22138.6,8121.26L20933.9,9325.98L20690.1,9325.98C20505.8,9325.98 20435,9337.32 20409.4,9368.5C20386.8,9396.85 20321.6,9411.02 20216.7,9411.02C20077.8,9411.02 20046.6,9422.36 19964.4,9501.73C19890.7,9572.6 19879.4,9600.94 19902,9643.47C19941.7,9717.17 19885,9807.87 19797.2,9807.87C19749,9807.87 19717.8,9785.2 19695.1,9734.17C19663.9,9666.14 19666.8,9651.97 19726.3,9612.28C19763.2,9586.77 19845.4,9518.74 19913.4,9462.05C20023.9,9362.84 20046.6,9354.33 20202.5,9354.33C20321.6,9354.33 20383.9,9340.16 20409.4,9311.81C20435,9280.63 20505.8,9269.29 20675.9,9269.29L20905.5,9269.29L22110.2,8064.57L23315,6859.84L23850.7,6859.84L24015.1,6698.27L24179.5,6536.69L24179.5,5102.36L24179.5,3665.2L24250.4,3600C24290.1,3563.15 24321.3,3509.29 24321.3,3480.95C24321.3,3441.26 24295.7,3455.43 24222,3540.47L24122.8,3648.19L24122.8,6536.69L23986.8,6669.92L23850.7,6803.15L23584.3,6803.15L23315,6803.15L22110.2,8007.87L20905.5,9212.6L20675.9,9212.6C20483.2,9212.6 20437.8,9221.1 20395.3,9269.29C20355.6,9314.65 20307.4,9325.98 20182.7,9325.98C20043.8,9325.98 20012.6,9337.32 19941.7,9411.02C19890.7,9464.88 19831.2,9496.06 19785.8,9496.06C19675.3,9496.06 19615.7,9578.27 19615.7,9725.67C19615.7,9827.72 19629.9,9867.4 19695.1,9926.93C19737.6,9966.61 19800,10009.1 19834,10017.6C19907.7,10040.3 19936.1,10108.3 19899.2,10176.4C19859.5,10252.9 19794.3,10264.3 19723.5,10207.6Z" style="fill:rgb(227,238,255);fill-rule:nonzero;"/>
            <path id="path4002" d="M20148.7,10230.2C20120.3,10216.1 20097.6,10170.7 20097.6,10133.9C20097.6,10097 20066.5,10043.1 20026.8,10012C19967.2,9963.78 19955.9,9932.6 19955.9,9799.37C19955.9,9671.81 19970.1,9626.46 20029.6,9555.59C20094.8,9479.06 20120.3,9467.72 20250.7,9467.72C20364.1,9467.72 20412.3,9453.54 20452,9411.02C20494.5,9362.84 20539.8,9354.33 20732.6,9354.33L20962.2,9354.33L22166.9,8149.61L23371.7,6944.88L23913.1,6944.88L24103,6752.13L24292.9,6559.37L24292.9,5300.79L24292.9,4039.37L24718.1,3614.17L25143.3,3188.98L25143.3,2962.2L25143.3,2735.43L25364.4,2514.33C25565.7,2315.91 25594,2296.06 25698.9,2296.06C25795.3,2296.06 25829.3,2279.05 25945.5,2160C26053.2,2049.45 26078.7,2006.93 26078.7,1924.72C26078.7,1848.19 26101.4,1802.84 26186.5,1720.63C26288.5,1618.58 26302.7,1615.75 26492.6,1615.75L26691,1615.75L26829.9,1474.02L26968.8,1332.28L27456.4,1332.28L27637.8,1148.03L27819.2,963.78L29015.4,963.78L29211,765.354L29406.6,566.929L31427.7,566.929L31487.2,501.732C31541.1,445.039 31549.6,402.52 31549.6,218.268C31549.6,90.709 31560.9,0 31578,0C31595,0 31606.3,96.378 31606.3,235.276C31606.3,462.047 31603.5,476.22 31521.3,547.087L31436.2,623.622L30435.6,623.622L29435,623.622L29239.4,822.047L29043.8,1020.47L28431.5,1020.47L27819.2,1020.47L27652,1190.55L27484.7,1360.63L27255.1,1360.63L27025.5,1360.63L26872.4,1516.54L26719.4,1672.44L26503.9,1672.44C26297,1672.44 26285.7,1675.28 26197.8,1765.98C26129.8,1834.02 26107.1,1885.04 26107.1,1958.74C26107.1,2040.94 26081.6,2083.47 25956.9,2205.35C25826.5,2332.91 25792.4,2352.76 25693.2,2352.76C25591.2,2352.76 25562.8,2372.6 25375.7,2559.68L25171.7,2763.78L25171.7,3217.32L24760.6,3628.35L24349.6,4039.37L24349.6,6565.04L24131.3,6783.31L23915.9,7001.57L23643.8,7001.57L23371.7,7001.57L22166.9,8206.3L20962.2,9413.86L20758.1,9408.19C20590.9,9402.52 20545.5,9411.02 20480.3,9462.05C20423.6,9507.4 20361.3,9524.41 20267.7,9524.41C20083.5,9524.41 20012.6,9600.94 20012.6,9802.2C20012.6,9924.09 20023.9,9952.44 20077.8,9983.62C20111.8,10003.5 20162.8,10014.8 20191.2,10009.1C20313.1,9992.13 20378.3,10173.5 20270.6,10233.1C20205.4,10267.1 20208.2,10267.1 20148.7,10230.2Z" style="fill:rgb(227,238,255);fill-rule:nonzero;"/>
            <path id="path4022" d="M20131.7,9773.86C20080.6,9722.84 20092,9615.12 20151.5,9581.1C20225.2,9541.42 20228,9544.25 20296.1,9617.95L20358.4,9680.32L20435,9589.61L20511.5,9496.06L21415.7,9496.06L21656.7,9255.12L21897.6,9014.17L24000.9,9014.17L24066.1,9085.04C24154,9178.58 24207.9,9175.75 24207.9,9076.53C24207.9,9014.17 24349.6,8858.27 25029.9,8177.95L25852,7355.91L25852,7001.57L25852,6647.24L26829.9,5669.29L27807.9,4691.34L27807.9,4436.22L27807.9,4178.27L28312.4,3676.53L28817,3174.8L29298.9,3174.8L29605,3486.61L31365.4,3486.61L32159.1,2692.91L32952.8,1899.21L33264.6,1899.21L33613.2,1550.55L33959.1,1204.72L33959.1,921.26L33959.1,634.961L34171.7,425.197C34361.6,238.11 34384.3,201.26 34384.3,107.717C34384.3,48.189 34398.4,0 34412.6,0C34429.6,0 34440.9,53.858 34440.9,119.055C34440.9,232.441 34426.8,255.118 34225.5,456.378L34007.2,674.646L34012.9,938.268L34018.6,1199.06L33641.6,1578.9L33264.6,1955.91L33122.8,1955.91L32981.1,1955.91L32187.4,2749.61L31393.7,3543.31L30486.6,3543.31L29576.7,3543.31L29423.6,3387.4L29270.6,3231.5L29055.1,3231.5L28842.5,3231.5L28349.3,3724.72L27856.1,4217.95L27861.7,4456.06L27867.4,4691.34L26886.6,5669.29L25908.7,6647.24L25908.7,7381.42L25086.6,8206.3C24420.5,8872.44 24264.6,9045.35 24264.6,9104.88C24264.6,9147.4 24278.7,9189.92 24292.9,9198.43C24352.4,9235.28 24324.1,9354.33 24247.6,9388.35C24182.4,9419.53 24165.4,9416.69 24122.8,9360C24091.7,9323.15 24077.5,9272.13 24086,9240.94C24097.3,9201.26 24077.5,9155.91 24037.8,9113.39L23972.6,9042.52L22949.3,9042.52L21926,9042.52L21670.9,9297.64L21415.7,9552.76L20982,9552.76L20545.5,9552.76L20400.9,9680.32C20250.7,9810.71 20191.2,9833.39 20131.7,9773.86Z" style="fill:rgb(227,238,255);fill-rule:nonzero;"/>
            <path id="path4032" d="M18127.6,9467.72C18099.2,9436.53 18048.2,9411.02 18011.3,9411.02C17946.1,9411.02 17858.3,9342.99 17858.3,9294.8C17858.3,9218.27 17920.6,9155.91 18000,9155.91C18090.7,9155.91 18158.7,9240.94 18130.4,9317.48C18096.4,9402.52 18195.6,9467.72 18351.5,9467.72L18496.1,9467.72L18892.9,9070.87C19230.2,8733.54 19301.1,8674.02 19374.8,8674.02C19437.2,8674.02 19491,8645.67 19559.1,8574.8C19649.8,8481.26 19666.8,8475.59 19831.2,8475.59C19930.4,8475.59 20018.3,8464.25 20026.8,8447.24C20035.3,8433.07 20143,8418.9 20262,8418.9L20480.3,8418.9L21892,7007.24L23300.8,5598.43L23300.8,4212.28C23298,3203.15 23306.5,2817.64 23332,2789.29C23405.7,2701.42 23555.9,2760.95 23555.9,2877.16C23555.9,2959.37 23502,3004.72 23408.5,3004.72L23329.1,3004.72L23329.1,5655.12L21917.5,7066.77L20508.7,8475.59L20276.2,8475.59C20148.7,8475.59 20035.3,8489.76 20026.8,8503.94C20018.3,8520.94 19930.4,8532.28 19834,8532.28C19666.8,8532.28 19655.4,8537.95 19578.9,8631.5C19519.4,8708.03 19479.7,8730.71 19408.8,8730.71C19329.4,8730.71 19267.1,8781.73 18921.3,9127.56L18524.4,9524.41L18351.5,9524.41C18215.4,9524.41 18167.2,9513.07 18127.6,9467.72Z" style="fill:rgb(227,238,255);fill-rule:nonzero;"/>
            <path id="path4034" d="M16582.7,9382.68C16517.5,9317.48 16511.8,9272.13 16565.7,9198.43C16588.3,9167.24 16636.5,9147.4 16690.4,9150.24C16758.4,9150.24 16795.3,9130.39 16849.1,9056.69C16911.5,8977.32 16922.8,8931.97 16922.8,8784.57L16922.8,8605.98L17178,8345.2L17433.1,8087.24L17433.1,7820.79L17433.1,7554.33L18226.8,6760.63L19020.5,5966.93L19020.5,5655.12L19020.5,5340.47L19148,5215.75L19275.6,5091.02L19284.1,2537.01L19289.8,-14.173L19298.3,2565.35L19303.9,5147.72L19190.6,5258.27L19077.2,5368.82L19077.2,5995.28L18269.3,6803.15L17461.4,7611.02L17461.4,8121.26L17206.3,8376.38L16951.2,8631.5L16951.2,8829.92C16951.2,9014.17 16945.5,9039.68 16871.8,9107.72C16809.4,9167.24 16795.3,9204.09 16803.8,9266.46C16812.3,9325.98 16798.1,9360 16749.9,9394.02C16664.9,9453.54 16650.7,9450.71 16582.7,9382.68Z" style="fill:rgb(227,238,255);fill-rule:nonzero;"/>
            <path id="path4036" d="M17022,9354.33C16979.5,9306.14 16976.7,9286.3 17002.2,9226.77C17019.2,9187.09 17047.6,9155.91 17064.6,9155.91C17078.7,9155.91 17092.9,9093.54 17092.9,9019.84C17092.9,8895.12 17104.3,8875.28 17243.2,8736.38C17379.2,8603.15 17404.7,8588.98 17520.9,8588.98C17733.5,8588.98 17744.9,8560.63 17744.9,8033.39L17744.9,7582.68L18496.1,6831.5L19247.2,6080.32L19247.2,5754.33L19247.2,5425.51L19374.8,5300.79L19502.4,5176.06L19510.9,2579.53L19516.5,-14.173L19525,2607.87L19530.7,5232.76L19417.3,5343.31L19303.9,5453.86L19303.9,6080.32L18552.8,6831.5L17801.6,7582.68L17801.6,8492.6L17722.2,8569.13C17662.7,8625.83 17614.5,8645.67 17529.4,8645.67C17433.1,8645.67 17399.1,8665.51 17282.8,8781.73C17172.3,8892.28 17149.6,8934.8 17149.6,9019.84C17149.6,9096.38 17166.6,9133.23 17206.3,9155.91C17271.5,9189.92 17282.8,9323.15 17229,9377.01C17178,9428.03 17078.7,9416.69 17022,9354.33Z" style="fill:rgb(227,238,255);fill-rule:nonzero;"/>
            <path id="path4038" d="M17481.3,9360C17382,9249.45 17438.7,9127.56 17591.8,9127.56C17640,9127.56 17696.7,9107.72 17716.5,9085.04C17739.2,9056.69 17801.6,9042.52 17900.8,9042.52C18008.5,9042.52 18070.9,9025.51 18124.7,8982.99C18195.6,8926.3 18198.4,8914.96 18198.4,8620.16L18198.4,8316.85L18311.8,8206.3L18425.2,8095.75L18425.2,7781.1L18425.2,7469.29L18802.2,7092.28L19176.4,6718.11L19831.2,6718.11L20006.9,6539.53L20182.7,6360.94L20182.7,6063.31L20182.7,5762.84L20466.1,5485.04L20749.6,5204.41L20749.6,2602.2C20749.6,887.244 20758.1,0 20778,0C20797.8,0 20806.3,887.244 20806.3,2602.2L20806.3,5201.57L20522.8,5485.04L20239.4,5768.5L20239.4,6383.62L20049.4,6579.21L19862.4,6774.8L19519.4,6774.8L19176.4,6774.8L18827.7,7123.47L18481.9,7469.29L18481.9,8124.09L18368.5,8234.65L18255.1,8345.2L18255.1,8628.66C18255.1,8897.95 18252.3,8914.96 18178.6,8991.5C18113.4,9059.53 18082.2,9070.87 17943.3,9070.87C17759.1,9070.87 17679.7,9127.56 17708,9235.28C17725,9308.98 17648.5,9411.02 17574.8,9411.02C17549.3,9411.02 17506.8,9388.35 17481.3,9360Z" style="fill:rgb(227,238,255);fill-rule:nonzero;"/>
            <path id="path4052" d="M18345.8,9348.66C18260.8,9263.62 18340.2,9104.88 18450.7,9136.06C18487.6,9144.57 18530.1,9121.89 18578.3,9073.7C18637.8,9011.34 18649.1,8968.82 18657.6,8801.58L18666.1,8603.15L18807.9,8594.65C18980.8,8583.31 19077.2,8506.77 19077.2,8379.21C19077.2,8325.35 19105.5,8265.83 19153.7,8214.8C19227.4,8138.27 19235.9,8135.43 19544.9,8135.43C19910.6,8135.43 19955.9,8112.76 19955.9,7920C19955.9,7832.13 19975.7,7789.61 20035.3,7730.08C20109,7659.21 20131.7,7653.54 20383.9,7653.54L20650.4,7653.54L21594.3,6709.61L22535.4,5768.5L22535.4,4946.46L22535.4,4124.41L22223.6,3812.6L21911.8,3500.79L21911.8,1913.39L21911.8,328.819L22073.4,164.409C22164.1,73.701 22254.8,0 22277.5,0C22303,0 22243.5,79.37 22144.3,178.583L21968.5,357.165L21968.5,3472.44L22592.1,4096.06L22592.1,5768.5L21619.8,6740.79L20650.4,7710.24L20378.3,7710.24C20063.6,7710.24 20012.6,7738.58 20012.6,7922.84C20012.6,8005.04 19992.8,8053.23 19936.1,8112.76C19862.4,8189.29 19851,8192.13 19559.1,8192.13C19281.3,8192.13 19252.9,8197.8 19196.2,8257.32C19159.4,8294.17 19133.9,8359.37 19133.9,8407.56C19133.9,8537.95 19031.8,8617.32 18870.2,8617.32C18799.4,8617.32 18731.3,8631.5 18720,8651.34C18708.7,8668.35 18703,8756.22 18705.8,8844.09C18711.5,8985.83 18703,9017.01 18632.1,9099.21C18589.6,9153.07 18558.4,9218.27 18561.3,9246.61C18581.1,9360 18428,9430.87 18345.8,9348.66Z" style="fill:rgb(227,238,255);fill-rule:nonzero;"/>
            <path id="path4068" d="M17467.1,8951.81C17418.9,8903.62 17424.6,8773.23 17472.8,8730.71C17495.4,8713.7 17546.5,8702.36 17586.1,8708.03C17691,8722.2 17886.6,8523.78 17886.6,8404.72C17886.6,8336.69 17920.6,8282.84 18042.5,8163.78L18198.4,8010.71L18198.4,7710.24L18198.4,7412.6L18822,6788.98L19445.7,6165.35L19445.7,5839.37L19445.7,5510.55L19567.6,5391.5C19655.4,5306.46 19712.1,5272.44 19774.5,5272.44C19839.7,5272.44 19899.2,5232.76 20049.4,5079.69L20239.4,4886.93L20239.4,2443.47C20239.4,833.386 20247.9,0 20267.7,0C20287.6,0 20296.1,836.22 20296.1,2451.97L20296.1,4903.94L20083.5,5116.53C19904.9,5295.12 19856.7,5329.13 19777.3,5329.13C19709.3,5329.13 19658.3,5354.65 19593.1,5422.68L19502.4,5516.22L19502.4,6165.35L18878.7,6788.98L18255.1,7412.6L18255.1,8010.71L18099.2,8163.78C17977.3,8282.84 17943.3,8336.69 17943.3,8404.72C17943.3,8469.92 17912.1,8523.78 17815.7,8617.32C17716.5,8716.53 17693.9,8753.39 17705.2,8807.24C17739.2,8934.8 17557.8,9042.52 17467.1,8951.81Z" style="fill:rgb(227,238,255);fill-rule:nonzero;"/>
            <path id="path4070" d="M18362.8,8954.65C18263.6,8897.95 18303.3,8793.07 18481.9,8617.32L18652,8450.08L18652,8002.2L18652,7554.33L18972.3,7234.02L19289.8,6916.53L20395.3,6916.53L20616.4,6695.43L20834.6,6477.16L20834.6,6307.09L20834.6,6137.01L21373.2,5598.43L21911.8,5059.84L21911.8,4733.86L21911.8,4407.87L21600,4096.06L21288.2,3784.25L21288.2,1893.54C21288.2,649.134 21296.7,0 21316.5,0C21336.4,0 21344.9,649.134 21344.9,1893.54L21344.9,3784.25L21968.5,4407.87L21968.5,5059.84L21429.9,5598.43L20891.3,6137.01L20891.3,6477.16L20644.7,6723.78L20395.3,6973.23L19842.5,6973.23L19289.8,6973.23L19000.6,7262.36L18708.7,7554.33L18708.7,8458.58L18589.6,8580.47C18479.1,8693.86 18473.4,8702.36 18518.7,8753.39C18583.9,8824.25 18578.3,8889.45 18504.6,8940.47C18430.9,8994.33 18428,8994.33 18362.8,8954.65Z" style="fill:rgb(227,238,255);fill-rule:nonzero;"/>
            <path id="path4082" d="M16611,8900.79C16565.7,8855.43 16560,8829.92 16582.7,8787.4C16596.8,8759.06 16625.2,8725.04 16639.4,8716.53C16656.4,8708.03 16667.7,8671.18 16667.7,8637.17C16667.7,8554.96 17056.1,8163.78 17138.3,8163.78C17169.4,8163.78 17223.3,8135.43 17257.3,8098.58C17316.8,8033.39 17319.7,8013.54 17319.7,7268.03L17319.7,6502.68L17413.2,6411.97L17506.8,6321.26L18555.6,6321.26L18731.3,6142.68L18907.1,5964.09L18907.1,5646.61L18907.1,5326.3L19034.6,5190.24L19162.2,5054.17L19162.2,2525.67C19162.2,861.732 19170.7,0 19190.6,0C19210.4,0 19218.9,861.732 19218.9,2525.67L19218.9,5051.34L19091.3,5198.74L18963.8,5348.98L18963.8,5969.76L18756.9,6173.86L18552.8,6377.95L18025.5,6377.95C17311.2,6377.95 17376.4,6287.24 17376.4,7287.87C17376.4,8067.4 17376.4,8070.24 17311.2,8129.76C17274.3,8163.78 17214.8,8192.13 17180.8,8192.13C17101.4,8192.13 16727.2,8546.46 16713.1,8631.5C16707.4,8662.68 16727.2,8710.87 16755.6,8739.21C16820.8,8801.58 16823.6,8855.43 16764.1,8912.13C16707.4,8971.65 16679.1,8968.82 16611,8900.79Z" style="fill:rgb(227,238,255);fill-rule:nonzero;"/>
            <path id="path4084" d="M17915,8900.79C17844.1,8829.92 17844.1,8801.58 17920.6,8725.04C17968.8,8676.85 17980.2,8637.17 17974.5,8506.77L17968.8,8348.03L18138.9,8177.95L18311.8,8010.71L18311.8,7724.41L18311.8,7440.94L18720,7032.76L19128.2,6627.4L19442.8,6630.24L19757.5,6635.91L19927.6,6474.33L20097.6,6312.76L20097.6,5983.94L20097.6,5655.12L20366.9,5385.83L20636.2,5116.53L20636.2,2559.68C20636.2,873.071 20644.7,0 20664.6,0C20684.4,0 20692.9,875.906 20692.9,2573.86L20692.9,5144.88L20412.3,5425.51L20128.8,5706.14L20128.8,6017.95L20131.7,6329.76L19967.2,6494.17L19802.8,6661.42L19474,6661.42L19148,6661.42L18756.9,7052.6L18368.5,7440.94L18368.5,8010.71L18198.4,8177.95C18031.2,8345.2 18028.3,8348.03 18028.3,8506.77C18028.3,8628.66 18042.5,8676.85 18085,8716.53C18155.9,8781.73 18158.7,8849.76 18090.7,8909.29C18022.7,8971.65 17983,8968.82 17915,8900.79Z" style="fill:rgb(227,238,255);fill-rule:nonzero;"/>
            <path id="path4086" d="M18759.7,8889.45C18717.2,8790.24 18799.4,8691.02 18909.9,8713.7C18966.6,8725.04 19003.5,8708.03 19065.8,8642.84C19133.9,8571.97 19165,8560.63 19289.8,8560.63C19417.3,8560.63 19445.7,8549.29 19530.7,8461.42C19621.4,8367.87 19638.4,8362.2 19800,8362.2C19896.4,8362.2 19984.3,8353.7 19992.8,8342.36C20004.1,8333.86 20097.6,8328.19 20202.5,8331.02L20389.6,8339.53L21789.9,6939.21L23187.4,5541.73L23187.4,4903.94L23187.4,4266.14L22719.7,3798.43L22252,3330.71L22252,1913.39L22252,496.063L22498.6,249.449C22634.6,110.551 22765,0 22790.6,0C22813.2,0 22714,119.055 22569.4,263.622L22308.7,524.409L22308.7,3302.36L23215.7,4209.45L23215.7,5598.43L21832.4,6981.73L20452,8362.2L20233.7,8362.2C20114.6,8362.2 20006.9,8376.38 19998.4,8390.55C19989.9,8407.56 19902,8418.9 19802.8,8418.9C19638.4,8418.9 19621.4,8424.57 19530.7,8518.11C19448.5,8603.15 19417.3,8617.32 19303.9,8617.32C19153.7,8617.32 19060.2,8693.86 19006.3,8852.6C18983.6,8926.3 18960.9,8946.14 18887.2,8951.81C18810.7,8960.32 18788,8948.98 18759.7,8889.45Z" style="fill:rgb(227,238,255);fill-rule:nonzero;"/>
            <path id="path4104" d="M17495.4,8486.93C17418.9,8433.07 17416.1,8331.02 17489.8,8262.99C17538,8217.64 17546.5,8175.12 17546.5,7925.67L17546.5,7639.37L18354.3,6831.5L19162.2,6020.79L19162.2,5694.8L19162.2,5368.82L19275.6,5258.27L19389,5147.72L19389,2573.86C19389,875.906 19397.5,0 19417.3,0C19437.2,0 19445.7,881.575 19445.7,2588.03L19445.7,5176.06L19318.1,5300.79L19190.6,5425.51L19190.6,6051.97L18382.7,6859.84L17574.8,7667.72L17574.8,7939.84C17574.8,8200.63 17577.6,8214.8 17645.7,8260.16C17736.4,8319.68 17739.2,8427.4 17654.2,8486.93C17620.2,8512.44 17583.3,8532.28 17574.8,8532.28C17566.3,8532.28 17529.4,8512.44 17495.4,8486.93Z" style="fill:rgb(227,238,255);fill-rule:nonzero;"/>
            <path id="path4106" d="M18379.8,8509.61C18320.3,8469.92 18314.6,8393.39 18371.3,8325.35C18399.7,8285.67 18425.2,8240.32 18425.2,8226.14C18425.2,8211.97 18445,8183.62 18467.7,8163.78C18501.7,8135.43 18510.2,8061.73 18510.2,7840.63L18510.2,7554.33L18873.1,7191.5L19233.1,6831.5L20313.1,6831.5L20517.2,6624.57C20721.3,6420.47 20721.3,6417.64 20721.3,6264.57L20721.3,6108.66L21103.9,5725.98L21486.6,5343.31L21486.6,4818.9L21486.6,4291.65L21330.7,4138.58L21174.8,3985.51L21174.8,1992.76C21174.8,683.15 21183.3,0 21203.2,0C21223,0 21231.5,683.15 21231.5,1992.76L21231.5,3985.51L21543.3,4291.65L21543.3,5343.31L21160.6,5725.98L20778,6108.66L20778,6420.47L20542.7,6655.75L20310.2,6888.19L19771.7,6888.19L19233.1,6888.19L18901.4,7219.84L18566.9,7554.33L18566.9,7849.13C18566.9,8078.74 18555.6,8155.28 18521.6,8194.96C18481.9,8240.32 18481.9,8248.82 18535.7,8302.68C18603.8,8370.71 18606.6,8399.06 18566.9,8478.42C18535.7,8532.28 18439.4,8549.29 18379.8,8509.61Z" style="fill:rgb(227,238,255);fill-rule:nonzero;"/>
            <path id="path4108" d="M19247.2,8475.59C19179.2,8407.56 19179.2,8393.39 19230.2,8316.85C19269.9,8262.99 19292.6,8260.16 19578.9,8271.5C19839.7,8282.84 19893.5,8277.17 19924.7,8237.48C19953.1,8203.47 20015.4,8192.13 20179.8,8192.13L20395.3,8192.13L21736.1,6851.34L23074,5513.39L23074,4918.11L23074,4322.84L22606.3,3855.12L22138.6,3387.4L22138.6,1913.39L22138.6,439.37L22359.7,218.268C22478.7,99.213 22597.8,0 22620.5,0C22643.2,0 22558.1,104.882 22427.7,235.276L22195.3,467.717L22195.3,3356.22L23130.7,4297.32L23130.7,5541.73L21775.7,6896.69L20423.6,8248.82L20194,8248.82C20069.3,8248.82 19955.9,8260.16 19938.9,8277.17C19924.7,8291.34 19811.3,8305.51 19686.6,8311.18C19474,8319.68 19459.8,8322.52 19468.3,8382.05C19474,8418.9 19451.3,8458.58 19411.7,8486.93C19329.4,8543.62 19315.3,8543.62 19247.2,8475.59Z" style="fill:rgb(227,238,255);fill-rule:nonzero;"/>
            <path id="path4124" d="M18810.7,8458.58C18734.2,8384.88 18759.7,8325.35 18921.3,8183.62L19077.2,8047.56L19077.2,7741.42L19077.2,7435.28L19230.2,7287.87L19386.1,7143.31L20480.3,7143.31L20769.4,6854.17C21052.9,6570.71 21061.4,6559.37 21061.4,6434.65L21061.4,6307.09L21597.2,5771.34L22135.7,5232.76L22135.7,4776.38L22135.7,4320L21812.6,3996.85L21486.6,3670.87L21486.6,1896.38L21486.6,121.89L21551.8,62.362C21651,-31.181 21710.6,-14.173 21619.8,79.37L21543.3,158.74L21543.3,3670.87L22166.9,4294.49L22166.9,5286.61L21642.5,5811.02C21120.9,6332.6 21118.1,6335.43 21118.1,6460.16C21118.1,6582.05 21106.8,6596.22 20814.8,6891.02L20511.5,7200L19955.9,7200L19400.3,7200L19267.1,7336.06L19133.9,7472.13L19133.9,7755.59C19133.9,8033.39 19131,8041.89 19048.8,8121.26C18963.8,8200.63 18938.3,8277.17 18992.1,8277.17C19031.8,8277.17 19026.1,8430.24 18986.5,8469.92C18938.3,8518.11 18861.7,8512.44 18810.7,8458.58Z" style="fill:rgb(227,238,255);fill-rule:nonzero;"/>
            <path id="path4134" d="M20131.7,8061.73C20055.1,8007.87 20052.3,7934.17 20126,7866.14C20174.2,7823.62 20194,7820.79 20253.5,7846.3C20293.2,7863.31 20324.4,7891.65 20324.4,7908.66C20324.4,7922.84 20366.9,7937.01 20415.1,7937.01C20500.2,7937.01 20622,7823.62 21733.2,6712.44L22960.6,5485.04L22960.6,4918.11L22960.6,4351.18L22492.9,3883.47L22025.2,3415.75L22025.2,1899.21L22025.2,379.843L22218,189.921C22322.8,85.039 22427.7,0 22450.4,0C22473.1,0 22399.4,93.543 22286,206.929L22081.9,411.024L22081.9,3387.4L23017.3,4322.84L23017.3,4903.94L23014.5,5485.04L21775.7,6740.79C20644.7,7883.15 20528.5,7993.7 20446.3,7993.7C20389.6,7993.7 20330.1,8016.38 20296.1,8050.39C20228,8118.43 20213.9,8118.43 20131.7,8061.73Z" style="fill:rgb(227,238,255);fill-rule:nonzero;"/>
            <path id="path4152" d="M18816.4,8047.56C18745.5,8007.87 18748.3,7863.31 18822,7823.62C18867.4,7798.11 18878.7,7764.09 18878.7,7630.87L18878.7,7466.46L19085.7,7262.36L19289.8,7058.27L20395.3,7058.27L20673.1,6780.47C20928.2,6522.52 20948,6497.01 20948,6392.13C20948,6281.57 20967.9,6258.9 21486.6,5740.16L22025.2,5201.57L22025.2,4790.55L22025.2,4379.53L21713.4,4067.72L21401.6,3755.91L21401.6,1913.39C21401.6,53.858 21404.4,0 21498,0C21515,0 21512.1,14.173 21492.3,34.016C21466.8,59.528 21458.3,515.906 21458.3,1913.39L21458.3,3755.91L22081.9,4379.53L22081.9,5198.74L21529.1,5757.16L20973.5,6312.76L20979.2,6431.81C20987.7,6545.2 20979.2,6559.37 20721.3,6817.32L20452,7086.61L19899.2,7086.61L19346.5,7086.61L19125.4,7307.72C18918.4,7517.48 18907.1,7534.49 18907.1,7656.38C18907.1,7749.92 18924.1,7800.94 18963.8,7837.8C19034.6,7902.99 19037.5,7971.02 18969.4,8030.55C18909.9,8084.41 18884.4,8087.24 18816.4,8047.56Z" style="fill:rgb(227,238,255);fill-rule:nonzero;"/>
            <path id="path4154" d="M19258.6,8007.87C19216.1,7942.68 19216.1,7931.34 19258.6,7866.14C19286.9,7823.62 19303.9,7735.75 19303.9,7630.87C19303.9,7477.8 19312.4,7460.79 19411.7,7361.57L19519.4,7256.69L20480.3,7256.69L20814.8,6922.2C21126.6,6607.56 21146.5,6582.05 21146.5,6477.16C21146.5,6366.61 21166.3,6343.94 21685,5825.2L22223.6,5286.61L22223.6,4776.38L22223.6,4266.14L21911.8,3954.33L21600,3642.52L21600,1913.39L21600,181.417L21699.2,85.039C21753.1,34.016 21804.1,-2.835 21812.6,2.835C21821.1,11.339 21787.1,53.858 21741.7,99.213L21656.7,181.417L21656.7,3614.17L22280.3,4237.8L22280.3,5286.61L21727.6,5839.37C21194.6,6372.28 21174.8,6394.96 21174.8,6505.51C21174.8,6610.39 21155,6635.91 20843.2,6950.55L20508.7,7285.04L20026.8,7285.04L19542,7285.04L19451.3,7378.58C19372,7460.79 19360.6,7489.13 19360.6,7633.7C19360.6,7761.26 19372,7798.11 19414.5,7823.62C19496.7,7866.14 19516.5,7959.69 19457,8024.88C19389,8098.58 19315.3,8092.91 19258.6,8007.87Z" style="fill:rgb(227,238,255);fill-rule:nonzero;"/>
            <path id="path4156" d="M19672.4,8019.21C19635.6,7954.02 19672.4,7823.62 19729.1,7823.62C19746.1,7823.62 19757.5,7752.76 19757.5,7659.21C19757.5,7523.15 19768.8,7483.47 19822.7,7432.44C19882.2,7375.75 19919.1,7370.08 20228,7370.08L20565.4,7370.08L20914,7021.42C21254.2,6681.26 21259.8,6672.76 21259.8,6548.03L21259.8,6420.47L21784.3,5896.06L22308.7,5371.65L22308.7,4782.05L22308.7,4189.61L22011,3897.64L21713.4,3608.5L21713.4,1907.72L21713.4,209.764L21826.8,99.213C21889.1,39.685 21945.8,-2.835 21954.3,2.835C21960,11.339 21923.2,62.362 21869.3,113.386L21770.1,209.764L21770.1,3585.83L22365.4,4181.1L22365.4,5368.82L21823.9,5913.07L21282.5,6457.32L21291,6573.54C21299.5,6689.76 21293.9,6695.43 20948,7044.09L20593.7,7398.43L20264.9,7398.43C19958.7,7398.43 19933.2,7404.09 19876.5,7463.62C19791.5,7551.5 19791.5,7769.76 19870.9,7871.81C19921.9,7937.01 19924.7,7954.02 19890.7,8005.04C19834,8090.08 19712.1,8098.58 19672.4,8019.21Z" style="fill:rgb(227,238,255);fill-rule:nonzero;"/>
            <path id="path4160" d="M17906.5,7999.37C17838.4,7925.67 17846.9,7860.47 17929.1,7806.61C17991.5,7766.93 18000,7738.58 18000,7599.69L18000,7440.94L18666.1,6774.8L19332.3,6108.66L19332.3,5796.85L19332.3,5482.2L19459.8,5357.48L19587.4,5232.76L19595.9,2607.87L19601.6,-14.173L19610.1,2622.05L19615.7,5261.1L19502.4,5371.65L19389,5482.2L19389,6137.01L18722.8,6803.15L18056.7,7469.29L18056.7,7619.53C18056.7,7710.24 18073.7,7798.11 18102,7837.8C18144.6,7902.99 18144.6,7914.33 18102,7979.53C18048.2,8064.57 17971.7,8070.24 17906.5,7999.37Z" style="fill:rgb(227,238,255);fill-rule:nonzero;"/>
            <path id="path4190" d="M19598.7,6338.27C19567.6,6261.73 19601.6,6193.7 19672.4,6185.2C19712.1,6179.53 19797.2,6122.84 19865.2,6057.64C19975.7,5947.09 19984.3,5932.91 19984.3,5782.68L19984.3,5626.77L20267.7,5343.31L20551.2,5059.84L20551.2,2531.34C20551.2,861.732 20559.7,0 20579.5,0C20599.4,0 20607.9,867.402 20607.9,2545.51L20607.9,5088.19L20324.4,5371.65L20040.9,5655.12L20040.9,5811.02C20040.9,5961.26 20035.3,5975.43 19916.2,6091.65C19842.5,6162.52 19785.8,6247.56 19780.2,6290.08C19774.5,6346.77 19754.6,6366.61 19692.3,6372.28C19644.1,6377.95 19610.1,6366.61 19598.7,6338.27Z" style="fill:rgb(227,238,255);fill-rule:nonzero;"/>
            <path id="path4200" d="M18476.2,6176.69C18379.8,6122.84 18433.7,5981.1 18549.9,5981.1C18581.1,5981.1 18663.3,5927.24 18728.5,5862.05L18850.4,5742.99L18850.4,5499.21L18850.4,5255.43L18963.8,5144.88L19077.2,5034.33L19085.7,2511.5L19091.3,-14.173L19099.8,2522.84L19105.5,5062.68L18992.1,5173.23L18878.7,5283.78L18878.7,5771.34L18751.2,5896.06C18677.5,5969.76 18629.3,6040.63 18632.1,6074.65C18640.6,6148.35 18541.4,6213.54 18476.2,6176.69Z" style="fill:rgb(227,238,255);fill-rule:nonzero;"/>
            <path id="path4210" d="M19598.7,5969.76C19576.1,5879.06 19604.4,5839.37 19683.8,5839.37C19766,5839.37 19870.9,5728.82 19870.9,5638.11C19870.9,5587.09 19950.2,5490.71 20154.3,5286.61L20437.8,5003.15L20437.8,2502.99C20437.8,853.228 20446.3,0 20466.1,0C20486,0 20494.5,853.228 20494.5,2502.99L20494.5,5003.15L20211,5286.61C19972.9,5521.89 19927.6,5584.25 19927.6,5657.95C19927.6,5714.65 19902,5768.5 19856.7,5811.02C19817,5847.87 19788.7,5893.23 19794.3,5907.4C19817,5966.93 19754.6,6037.8 19686.6,6037.8C19635.6,6037.8 19612.9,6017.95 19598.7,5969.76Z" style="fill:rgb(227,238,255);fill-rule:nonzero;"/>
            <path id="path4232" d="M18453.5,5796.85C18399.7,5731.65 18445,5640.94 18535.7,5640.94C18663.3,5640.94 18737,5536.06 18737,5354.65C18737,5210.08 18745.5,5190.24 18850.4,5088.19L18963.8,4977.64L18969.4,2483.15L18978,-14.173L19006.3,5003.15L18901.4,5119.37C18807.9,5221.42 18793.7,5255.43 18793.7,5377.32C18793.7,5496.38 18779.5,5530.39 18708.7,5598.43C18660.5,5643.78 18629.3,5697.64 18637.8,5720.32C18674.6,5816.69 18521.6,5879.06 18453.5,5796.85Z" style="fill:rgb(227,238,255);fill-rule:nonzero;"/>
            <path id="path4238" d="M19612.9,5680.63C19567.6,5626.77 19607.2,5550.24 19695.1,5527.56C19729.1,5519.06 19887.9,5380.16 20055.1,5218.58L20352.8,4923.78L20352.8,2463.31C20352.8,839.055 20361.3,0 20381.1,0C20400.9,0 20409.4,844.724 20409.4,2474.65L20409.4,4946.46L20100.5,5255.43C19913.4,5442.52 19797.2,5578.58 19805.7,5604.09C19842.5,5700.47 19683.8,5765.67 19612.9,5680.63Z" style="fill:rgb(227,238,255);fill-rule:nonzero;"/>
            <path id="path4248" d="M18453.5,5473.7C18430.9,5428.35 18445,5394.33 18535.7,5280.94C18595.3,5207.24 18691.7,5099.53 18748.3,5048.5L18850.4,4949.29L18850.4,2474.65C18850.4,844.724 18858.9,0 18878.7,0C18898.6,0 18907.1,841.89 18907.1,2471.81L18907.1,4943.62L18734.2,5119.37C18569.8,5283.78 18561.3,5300.79 18606.6,5343.31C18657.6,5394.33 18660.5,5414.17 18635,5482.2C18609.4,5544.57 18490.4,5538.9 18453.5,5473.7Z" style="fill:rgb(227,238,255);fill-rule:nonzero;"/>
            <path id="path4264" d="M19732,5051.34C19695.1,4983.31 19743.3,4903.94 19822.7,4903.94C19862.4,4903.94 19936.1,4852.91 20006.9,4782.05L20126,4660.16L20126,2330.08C20126,796.535 20134.5,0 20154.3,0C20174.2,0 20182.7,802.205 20182.7,2347.09L20182.7,4694.17L20055.1,4818.9C19984.3,4886.93 19927.6,4963.47 19927.6,4988.98C19927.6,5096.69 19780.2,5142.05 19732,5051.34Z" style="fill:rgb(227,238,255);fill-rule:nonzero;"/>
            <path id="path4266" d="M19768.8,4756.53C19678.1,4614.8 19672.4,4521.26 19672.4,2262.05C19672.4,782.362 19680.9,0 19700.8,0C19717.8,0 19732,796.535 19734.8,2287.56L19743.3,4577.95L19811.3,4577.95C19899.2,4577.95 19953.1,4660.16 19910.6,4728.19C19870.9,4790.55 19797.2,4804.72 19768.8,4756.53Z" style="fill:rgb(227,238,255);fill-rule:nonzero;"/>
            <path id="path4300" d="M19859.5,4433.39C19802.8,4379.53 19802.8,4351.18 19856.7,4297.32C19893.5,4260.47 19899.2,3982.68 19899.2,2128.82C19899.2,728.504 19907.7,0 19927.6,0C19947.4,0 19955.9,725.669 19955.9,2123.15C19955.9,3974.17 19961.6,4249.13 19998.4,4280.32C20058,4328.5 20052.3,4413.54 19987.1,4450.39C19916.2,4487.24 19910.6,4487.24 19859.5,4433.39Z" style="fill:rgb(227,238,255);fill-rule:nonzero;"/>
        </g>
    </g>
    <g transform="matrix(1,0,0,1,-3.44371,4.10334)">
        <g transform="matrix(8,0,0,8,4.4239,193.361)">
            <path d="M0.267,-0.155L0.153,-0.155L0.13,0L0.024,0L0.14,-0.7L0.282,-0.7L0.398,0L0.29,0L0.267,-0.155ZM0.253,-0.257L0.21,-0.55L0.167,-0.257L0.253,-0.257Z" style="fill:rgb(227,238,255);fill-rule:nonzero;"/>
        </g>
    </g>
    <g transform="matrix(1,0,0,1,-3.44371,14.1033)">
        <g transform="matrix(8,0,0,8,4.4239,193.361)">
            <path d="M0.321,-0.362C0.347,-0.35 0.367,-0.332 0.381,-0.309C0.394,-0.286 0.401,-0.257 0.401,-0.224L0.401,-0.167C0.401,-0.116 0.386,-0.076 0.356,-0.046C0.326,-0.015 0.286,0 0.235,0L0.058,0L0.058,-0.7L0.226,-0.7C0.277,-0.7 0.317,-0.685 0.347,-0.655C0.377,-0.624 0.392,-0.584 0.392,-0.533L0.392,-0.496C0.392,-0.433 0.368,-0.389 0.321,-0.362ZM0.164,-0.6L0.164,-0.41L0.211,-0.41C0.236,-0.41 0.255,-0.416 0.268,-0.429C0.28,-0.441 0.286,-0.46 0.286,-0.485L0.286,-0.535C0.286,-0.556 0.28,-0.572 0.269,-0.583C0.258,-0.594 0.242,-0.6 0.221,-0.6L0.164,-0.6ZM0.295,-0.235C0.295,-0.26 0.289,-0.279 0.277,-0.292C0.264,-0.304 0.245,-0.31 0.22,-0.31L0.164,-0.31L0.164,-0.1L0.23,-0.1C0.251,-0.1 0.267,-0.106 0.278,-0.117C0.289,-0.128 0.295,-0.144 0.295,-0.165L0.295,-0.235Z" style="fill:rgb(227,238,255);fill-rule:nonzero;"/>
        </g>
    </g>
    <g transform="matrix(1,0,0,1,-5.74206,1.06759)">
        <g transform="matrix(12,0,0,12,20.5321,119.108)">
            <path d="M0.219,0.01C0.168,0.01 0.127,-0.005 0.096,-0.037C0.065,-0.068 0.049,-0.108 0.049,-0.159L0.049,-0.541C0.049,-0.592 0.065,-0.632 0.096,-0.664C0.127,-0.695 0.168,-0.71 0.219,-0.71C0.27,-0.71 0.311,-0.695 0.342,-0.664C0.373,-0.632 0.389,-0.592 0.389,-0.541L0.389,-0.159C0.389,-0.108 0.373,-0.068 0.342,-0.037C0.311,-0.005 0.27,0.01 0.219,0.01ZM0.219,-0.09C0.239,-0.09 0.255,-0.096 0.266,-0.108C0.277,-0.12 0.283,-0.137 0.283,-0.159L0.283,-0.541C0.283,-0.563 0.277,-0.58 0.266,-0.592C0.255,-0.604 0.239,-0.61 0.219,-0.61C0.199,-0.61 0.183,-0.604 0.172,-0.592C0.161,-0.58 0.155,-0.563 0.155,-0.541L0.155,-0.159C0.155,-0.137 0.161,-0.12 0.172,-0.108C0.183,-0.096 0.199,-0.09 0.219,-0.09Z" style="fill:rgb(227,238,255);fill-rule:nonzero;"/>
        </g>
        <g transform="matrix(12,0,0,12,25.7881,119.108)">
            <path d="M0.219,0.01C0.17,0.01 0.131,-0.005 0.1,-0.036C0.069,-0.066 0.054,-0.105 0.054,-0.154L0.054,-0.7L0.16,-0.7L0.16,-0.154C0.16,-0.134 0.166,-0.118 0.177,-0.107C0.188,-0.096 0.202,-0.09 0.219,-0.09C0.236,-0.09 0.251,-0.096 0.262,-0.107C0.273,-0.118 0.278,-0.134 0.278,-0.154L0.278,-0.7L0.382,-0.7L0.382,-0.154C0.382,-0.105 0.367,-0.066 0.337,-0.036C0.307,-0.005 0.268,0.01 0.219,0.01Z" style="fill:rgb(227,238,255);fill-rule:nonzero;"/>
        </g>
        <g transform="matrix(12,0,0,12,31.0201,119.108)">
            <path d="M0.024,-0.7L0.362,-0.7L0.362,-0.6L0.246,-0.6L0.246,0L0.14,0L0.14,-0.6L0.024,-0.6L0.024,-0.7Z" style="fill:rgb(227,238,255);fill-rule:nonzero;"/>
        </g>
    </g>
    <g id="Layer1">
        <g transform="matrix(2e-06,0,0,0.81176,22.5012,11.2706)">
            <path d="M22.5,68.8C22.503,93.197 22.5,107.038 22.5,107.038" style="fill:rgb(227,238,255);stroke:rgb(227,238,255);stroke-width:3.48px;"/>
        </g>
        <g transform="matrix(1,0,0,0.763635,0,78.262)">
            <path d="M22.5,68.8C22.503,93.197 22.5,107.038 22.5,107.038" style="fill:rgb(227,238,255);stroke:rgb(227,238,255);stroke-width:2.25px;"/>
        </g>
        <g transform="matrix(1.72445,-0.0658326,0.0502028,1.31504,-24.998,-67.5959)">
            <path d="M9.727,203.286C10.004,203.402 9.984,203.974 9.659,204L9.109,203.977C8.809,203.929 8.781,203.284 9.126,203.256L9.676,203.278C9.693,203.281 9.71,203.284 9.727,203.286ZM11.928,203.376C12.198,203.489 12.191,204.063 11.86,204.089L11.31,204.067C11.01,204.018 10.982,203.373 11.327,203.345L11.877,203.368C11.894,203.371 11.911,203.373 11.928,203.376ZM14.128,203.466C14.398,203.578 14.392,204.152 14.061,204.179L13.511,204.157C13.211,204.108 13.16,203.465 13.528,203.435L14.078,203.457C14.095,203.46 14.112,203.463 14.128,203.466ZM16.329,203.555C16.604,203.67 16.6,204.241 16.262,204.269L15.712,204.246C15.411,204.197 15.361,203.554 15.729,203.525L16.279,203.547C16.296,203.55 16.313,203.553 16.329,203.555ZM18.53,203.645C18.807,203.761 18.788,204.332 18.463,204.358L17.913,204.336C17.612,204.287 17.562,203.644 17.93,203.614L18.48,203.637C18.497,203.639 18.514,203.642 18.53,203.645ZM20.731,203.734C21.006,203.849 21.002,204.421 20.664,204.448L20.114,204.425C19.813,204.377 19.763,203.733 20.131,203.704L20.681,203.726C20.698,203.729 20.714,203.732 20.731,203.734ZM22.932,203.824C23.209,203.94 23.19,204.511 22.865,204.537L22.315,204.515C22.015,204.466 21.987,203.821 22.332,203.793L22.882,203.816C22.899,203.819 22.915,203.821 22.932,203.824ZM25.133,203.914C25.408,204.028 25.404,204.6 25.066,204.627L24.515,204.605C24.212,204.555 24.148,203.914 24.533,203.883L25.083,203.905C25.1,203.908 25.116,203.911 25.133,203.914ZM27.334,204.003C27.604,204.116 27.598,204.69 27.267,204.717L26.716,204.694C26.412,204.645 26.349,204.004 26.733,203.973L27.284,203.995C27.301,203.998 27.317,204 27.334,204.003ZM29.535,204.093C29.812,204.208 29.793,204.78 29.468,204.806L28.917,204.784C28.617,204.735 28.567,204.092 28.934,204.062L29.485,204.085C29.501,204.087 29.518,204.09 29.535,204.093ZM31.736,204.182C32.01,204.297 32.006,204.869 31.668,204.896L31.118,204.873C30.818,204.825 30.768,204.181 31.135,204.152L31.686,204.174C31.702,204.177 31.719,204.18 31.736,204.182ZM33.937,204.272C34.211,204.387 34.207,204.958 33.869,204.985L33.319,204.963C33.019,204.914 32.969,204.271 33.336,204.241L33.887,204.264C33.903,204.267 33.92,204.269 33.937,204.272Z" style="fill:rgb(96,109,132);stroke:rgb(227,238,255);stroke-width:0.2px;stroke-linecap:butt;stroke-miterlimit:2;"/>
        </g>
        <g transform="matrix(1,0,0,0.627033,0,260.66)">
            <path d="M22.5,68.8C22.503,93.197 22.5,107.038 22.5,107.038" style="fill:rgb(227,238,255);stroke:rgb(227,238,255);stroke-width:2.4px;"/>
        </g>
        <g transform="matrix(1,0,0,1,-6.07862,-0.635335)">
            <g transform="matrix(11,0,0,11,9.70381,343.151)">
                <path d="M0.215,0.01C0.166,0.01 0.126,-0.005 0.095,-0.036C0.064,-0.067 0.049,-0.107 0.049,-0.156L0.049,-0.544C0.049,-0.593 0.064,-0.633 0.095,-0.664C0.126,-0.695 0.166,-0.71 0.215,-0.71C0.264,-0.71 0.304,-0.695 0.335,-0.664C0.366,-0.633 0.381,-0.593 0.381,-0.544L0.381,-0.462L0.277,-0.462L0.277,-0.544C0.277,-0.564 0.271,-0.58 0.26,-0.592C0.249,-0.604 0.234,-0.61 0.216,-0.61C0.198,-0.61 0.183,-0.604 0.172,-0.592C0.161,-0.58 0.155,-0.564 0.155,-0.544L0.155,-0.156C0.155,-0.136 0.161,-0.12 0.172,-0.108C0.183,-0.096 0.198,-0.09 0.216,-0.09C0.234,-0.09 0.249,-0.096 0.26,-0.108C0.271,-0.12 0.277,-0.136 0.277,-0.156L0.277,-0.256L0.381,-0.256L0.381,-0.156C0.381,-0.107 0.366,-0.067 0.335,-0.036C0.304,-0.005 0.264,0.01 0.215,0.01Z" style="fill:rgb(227,238,255);fill-rule:nonzero;"/>
            </g>
            <g transform="matrix(11,0,0,11,14.3238,343.151)">
                <path d="M0.058,0L0.058,-0.7L0.164,-0.7L0.164,-0.405L0.29,-0.405L0.29,-0.7L0.396,-0.7L0.396,0L0.29,0L0.29,-0.305L0.164,-0.305L0.164,0L0.058,0Z" style="fill:rgb(227,238,255);fill-rule:nonzero;"/>
            </g>
            <g transform="matrix(11,0,0,11,19.3178,343.151)">
                <path d="M0.267,-0.155L0.153,-0.155L0.13,0L0.024,0L0.14,-0.7L0.282,-0.7L0.398,0L0.29,0L0.267,-0.155ZM0.253,-0.257L0.21,-0.55L0.167,-0.257L0.253,-0.257Z" style="fill:rgb(227,238,255);fill-rule:nonzero;"/>
            </g>
            <g transform="matrix(11,0,0,11,23.9598,343.151)">
                <path d="M0.058,-0.7L0.175,-0.7L0.31,-0.23L0.31,-0.7L0.414,-0.7L0.414,0L0.302,0L0.162,-0.448L0.162,0L0.058,0L0.058,-0.7Z" style="fill:rgb(227,238,255);fill-rule:nonzero;"/>
            </g>
            <g transform="matrix(11,0,0,11,29.1518,343.151)">
                <path d="M0.058,-0.7L0.175,-0.7L0.31,-0.23L0.31,-0.7L0.414,-0.7L0.414,0L0.302,0L0.162,-0.448L0.162,0L0.058,0L0.058,-0.7Z" style="fill:rgb(227,238,255);fill-rule:nonzero;"/>
            </g>
            <g transform="matrix(11,0,0,11,34.3438,343.151)">
                <path d="M0.058,-0.7L0.359,-0.7L0.359,-0.6L0.164,-0.6L0.164,-0.405L0.319,-0.405L0.319,-0.305L0.164,-0.305L0.164,-0.1L0.359,-0.1L0.359,0L0.058,0L0.058,-0.7Z" style="fill:rgb(227,238,255);fill-rule:nonzero;"/>
            </g>
            <g transform="matrix(11,0,0,11,38.6338,343.151)">
                <path d="M0.058,-0.7L0.164,-0.7L0.164,-0.1L0.353,-0.1L0.353,0L0.058,0L0.058,-0.7Z" style="fill:rgb(227,238,255);fill-rule:nonzero;"/>
            </g>
            <g transform="matrix(11,0,0,11,42.7808,343.151)">
                <path d="M0.205,0.01C0.172,0.01 0.142,0.003 0.116,-0.012C0.09,-0.027 0.07,-0.047 0.056,-0.073C0.041,-0.099 0.034,-0.129 0.034,-0.162L0.034,-0.187L0.136,-0.198L0.136,-0.172C0.136,-0.147 0.142,-0.127 0.154,-0.112C0.166,-0.097 0.183,-0.09 0.204,-0.09C0.225,-0.09 0.241,-0.096 0.254,-0.108C0.266,-0.12 0.272,-0.136 0.272,-0.157C0.272,-0.18 0.266,-0.201 0.253,-0.222C0.24,-0.243 0.214,-0.271 0.175,-0.308C0.123,-0.357 0.088,-0.398 0.069,-0.431C0.05,-0.464 0.04,-0.499 0.04,-0.538C0.04,-0.591 0.054,-0.632 0.083,-0.664C0.112,-0.695 0.151,-0.71 0.201,-0.71C0.251,-0.71 0.29,-0.694 0.319,-0.663C0.348,-0.632 0.362,-0.59 0.362,-0.537L0.362,-0.519L0.26,-0.508L0.26,-0.528C0.26,-0.555 0.255,-0.575 0.245,-0.589C0.235,-0.603 0.221,-0.61 0.202,-0.61C0.183,-0.61 0.169,-0.604 0.159,-0.593C0.149,-0.582 0.144,-0.565 0.144,-0.543C0.144,-0.521 0.151,-0.5 0.164,-0.48C0.177,-0.459 0.203,-0.43 0.241,-0.392C0.293,-0.34 0.329,-0.298 0.348,-0.267C0.367,-0.235 0.376,-0.2 0.376,-0.162C0.376,-0.129 0.369,-0.099 0.355,-0.073C0.34,-0.047 0.32,-0.027 0.294,-0.012C0.268,0.003 0.238,0.01 0.205,0.01Z" style="fill:rgb(227,238,255);fill-rule:nonzero;"/>
            </g>
        </g>
        <g transform="matrix(1,0,0,1,-6.07862,-159.635)">
            <g transform="matrix(11,0,0,11,9.70381,343.151)">
                <path d="M0.215,0.01C0.166,0.01 0.126,-0.005 0.095,-0.036C0.064,-0.067 0.049,-0.107 0.049,-0.156L0.049,-0.544C0.049,-0.593 0.064,-0.633 0.095,-0.664C0.126,-0.695 0.166,-0.71 0.215,-0.71C0.264,-0.71 0.304,-0.695 0.335,-0.664C0.366,-0.633 0.381,-0.593 0.381,-0.544L0.381,-0.462L0.277,-0.462L0.277,-0.544C0.277,-0.564 0.271,-0.58 0.26,-0.592C0.249,-0.604 0.234,-0.61 0.216,-0.61C0.198,-0.61 0.183,-0.604 0.172,-0.592C0.161,-0.58 0.155,-0.564 0.155,-0.544L0.155,-0.156C0.155,-0.136 0.161,-0.12 0.172,-0.108C0.183,-0.096 0.198,-0.09 0.216,-0.09C0.234,-0.09 0.249,-0.096 0.26,-0.108C0.271,-0.12 0.277,-0.136 0.277,-0.156L0.277,-0.256L0.381,-0.256L0.381,-0.156C0.381,-0.107 0.366,-0.067 0.335,-0.036C0.304,-0.005 0.264,0.01 0.215,0.01Z" style="fill:rgb(227,238,255);fill-rule:nonzero;"/>
            </g>
            <g transform="matrix(11,0,0,11,14.3238,343.151)">
                <path d="M0.058,0L0.058,-0.7L0.164,-0.7L0.164,-0.405L0.29,-0.405L0.29,-0.7L0.396,-0.7L0.396,0L0.29,0L0.29,-0.305L0.164,-0.305L0.164,0L0.058,0Z" style="fill:rgb(227,238,255);fill-rule:nonzero;"/>
            </g>
            <g transform="matrix(11,0,0,11,19.3178,343.151)">
                <path d="M0.267,-0.155L0.153,-0.155L0.13,0L0.024,0L0.14,-0.7L0.282,-0.7L0.398,0L0.29,0L0.267,-0.155ZM0.253,-0.257L0.21,-0.55L0.167,-0.257L0.253,-0.257Z" style="fill:rgb(227,238,255);fill-rule:nonzero;"/>
            </g>
            <g transform="matrix(11,0,0,11,23.9598,343.151)">
                <path d="M0.058,-0.7L0.175,-0.7L0.31,-0.23L0.31,-0.7L0.414,-0.7L0.414,0L0.302,0L0.162,-0.448L0.162,0L0.058,0L0.058,-0.7Z" style="fill:rgb(227,238,255);fill-rule:nonzero;"/>
            </g>
            <g transform="matrix(11,0,0,11,29.1518,343.151)">
                <path d="M0.058,-0.7L0.175,-0.7L0.31,-0.23L0.31,-0.7L0.414,-0.7L0.414,0L0.302,0L0.162,-0.448L0.162,0L0.058,0L0.058,-0.7Z" style="fill:rgb(227,238,255);fill-rule:nonzero;"/>
            </g>
            <g transform="matrix(11,0,0,11,34.3438,343.151)">
                <path d="M0.058,-0.7L0.359,-0.7L0.359,-0.6L0.164,-0.6L0.164,-0.405L0.319,-0.405L0.319,-0.305L0.164,-0.305L0.164,-0.1L0.359,-0.1L0.359,0L0.058,0L0.058,-0.7Z" style="fill:rgb(227,238,255);fill-rule:nonzero;"/>
            </g>
            <g transform="matrix(11,0,0,11,38.6338,343.151)">
                <path d="M0.058,-0.7L0.164,-0.7L0.164,-0.1L0.353,-0.1L0.353,0L0.058,0L0.058,-0.7Z" style="fill:rgb(227,238,255);fill-rule:nonzero;"/>
            </g>
            <g transform="matrix(11,0,0,11,42.7808,343.151)">
                <path d="M0.205,0.01C0.172,0.01 0.142,0.003 0.116,-0.012C0.09,-0.027 0.07,-0.047 0.056,-0.073C0.041,-0.099 0.034,-0.129 0.034,-0.162L0.034,-0.187L0.136,-0.198L0.136,-0.172C0.136,-0.147 0.142,-0.127 0.154,-0.112C0.166,-0.097 0.183,-0.09 0.204,-0.09C0.225,-0.09 0.241,-0.096 0.254,-0.108C0.266,-0.12 0.272,-0.136 0.272,-0.157C0.272,-0.18 0.266,-0.201 0.253,-0.222C0.24,-0.243 0.214,-0.271 0.175,-0.308C0.123,-0.357 0.088,-0.398 0.069,-0.431C0.05,-0.464 0.04,-0.499 0.04,-0.538C0.04,-0.591 0.054,-0.632 0.083,-0.664C0.112,-0.695 0.151,-0.71 0.201,-0.71C0.251,-0.71 0.29,-0.694 0.319,-0.663C0.348,-0.632 0.362,-0.59 0.362,-0.537L0.362,-0.519L0.26,-0.508L0.26,-0.528C0.26,-0.555 0.255,-0.575 0.245,-0.589C0.235,-0.603 0.221,-0.61 0.202,-0.61C0.183,-0.61 0.169,-0.604 0.159,-0.593C0.149,-0.582 0.144,-0.565 0.144,-0.543C0.144,-0.521 0.151,-0.5 0.164,-0.48C0.177,-0.459 0.203,-0.43 0.241,-0.392C0.293,-0.34 0.329,-0.298 0.348,-0.267C0.367,-0.235 0.376,-0.2 0.376,-0.162C0.376,-0.129 0.369,-0.099 0.355,-0.073C0.34,-0.047 0.32,-0.027 0.294,-0.012C0.268,0.003 0.238,0.01 0.205,0.01Z" style="fill:rgb(227,238,255);fill-rule:nonzero;"/>
            </g>
        </g>
        <g transform="matrix(1,0,0,0.816178,0,174.647)">
            <path d="M22.5,68.8C22.503,93.197 22.5,107.038 22.5,107.038" style="fill:rgb(227,238,255);stroke:rgb(227,238,255);stroke-width:2.19px;"/>
        </g>
        <g transform="matrix(1,0,0,1,-2.35232,7)">
            <g transform="matrix(11,0,0,11,21.0353,49.328)">
                <rect x="0.058" y="-0.7" width="0.106" height="0.7" style="fill:rgb(227,238,255);fill-rule:nonzero;"/>
            </g>
            <g transform="matrix(11,0,0,11,23.4773,49.328)">
                <path d="M0.058,-0.7L0.175,-0.7L0.31,-0.23L0.31,-0.7L0.414,-0.7L0.414,0L0.302,0L0.162,-0.448L0.162,0L0.058,0L0.058,-0.7Z" style="fill:rgb(227,238,255);fill-rule:nonzero;"/>
            </g>
        </g>
        <g transform="matrix(1,0,0,1,-5.74206,161.068)">
            <g transform="matrix(12,0,0,12,20.5321,119.108)">
                <path d="M0.219,0.01C0.168,0.01 0.127,-0.005 0.096,-0.037C0.065,-0.068 0.049,-0.108 0.049,-0.159L0.049,-0.541C0.049,-0.592 0.065,-0.632 0.096,-0.664C0.127,-0.695 0.168,-0.71 0.219,-0.71C0.27,-0.71 0.311,-0.695 0.342,-0.664C0.373,-0.632 0.389,-0.592 0.389,-0.541L0.389,-0.159C0.389,-0.108 0.373,-0.068 0.342,-0.037C0.311,-0.005 0.27,0.01 0.219,0.01ZM0.219,-0.09C0.239,-0.09 0.255,-0.096 0.266,-0.108C0.277,-0.12 0.283,-0.137 0.283,-0.159L0.283,-0.541C0.283,-0.563 0.277,-0.58 0.266,-0.592C0.255,-0.604 0.239,-0.61 0.219,-0.61C0.199,-0.61 0.183,-0.604 0.172,-0.592C0.161,-0.58 0.155,-0.563 0.155,-0.541L0.155,-0.159C0.155,-0.137 0.161,-0.12 0.172,-0.108C0.183,-0.096 0.199,-0.09 0.219,-0.09Z" style="fill:rgb(227,238,255);fill-rule:nonzero;"/>
            </g>
            <g transform="matrix(12,0,0,12,25.7881,119.108)">
                <path d="M0.219,0.01C0.17,0.01 0.131,-0.005 0.1,-0.036C0.069,-0.066 0.054,-0.105 0.054,-0.154L0.054,-0.7L0.16,-0.7L0.16,-0.154C0.16,-0.134 0.166,-0.118 0.177,-0.107C0.188,-0.096 0.202,-0.09 0.219,-0.09C0.236,-0.09 0.251,-0.096 0.262,-0.107C0.273,-0.118 0.278,-0.134 0.278,-0.154L0.278,-0.7L0.382,-0.7L0.382,-0.154C0.382,-0.105 0.367,-0.066 0.337,-0.036C0.307,-0.005 0.268,0.01 0.219,0.01Z" style="fill:rgb(227,238,255);fill-rule:nonzero;"/>
            </g>
            <g transform="matrix(12,0,0,12,31.0201,119.108)">
                <path d="M0.024,-0.7L0.362,-0.7L0.362,-0.6L0.246,-0.6L0.246,0L0.14,0L0.14,-0.6L0.024,-0.6L0.024,-0.7Z" style="fill:rgb(227,238,255);fill-rule:nonzero;"/>
            </g>
        </g>
        <g transform="matrix(1,0,0,1,-2.35232,167)">
            <g transform="matrix(11,0,0,11,21.0353,49.328)">
                <rect x="0.058" y="-0.7" width="0.106" height="0.7" style="fill:rgb(227,238,255);fill-rule:nonzero;"/>
            </g>
            <g transform="matrix(11,0,0,11,23.4773,49.328)">
                <path d="M0.058,-0.7L0.175,-0.7L0.31,-0.23L0.31,-0.7L0.414,-0.7L0.414,0L0.302,0L0.162,-0.448L0.162,0L0.058,0L0.058,-0.7Z" style="fill:rgb(227,238,255);fill-rule:nonzero;"/>
            </g>
        </g>
    </g>
    <g transform="matrix(1,0,0,1,3.76296,8.3643)">
        <g transform="matrix(16,0,0,16,3.09704,19.5957)">
            <path d="M0.54,-0.7L0.54,0L0.434,0L0.434,-0.48L0.335,0L0.261,0L0.162,-0.48L0.162,0L0.058,0L0.058,-0.7L0.208,-0.7L0.3,-0.253L0.388,-0.7L0.54,-0.7Z" style="fill:rgb(227,238,255);fill-rule:nonzero;"/>
        </g>
        <g transform="matrix(16,0,0,16,12.665,19.5957)">
            <path d="M0.219,0.01C0.168,0.01 0.127,-0.005 0.096,-0.037C0.065,-0.068 0.049,-0.108 0.049,-0.159L0.049,-0.541C0.049,-0.592 0.065,-0.632 0.096,-0.664C0.127,-0.695 0.168,-0.71 0.219,-0.71C0.27,-0.71 0.311,-0.695 0.342,-0.664C0.373,-0.632 0.389,-0.592 0.389,-0.541L0.389,-0.159C0.389,-0.108 0.373,-0.068 0.342,-0.037C0.311,-0.005 0.27,0.01 0.219,0.01ZM0.219,-0.09C0.239,-0.09 0.255,-0.096 0.266,-0.108C0.277,-0.12 0.283,-0.137 0.283,-0.159L0.283,-0.541C0.283,-0.563 0.277,-0.58 0.266,-0.592C0.255,-0.604 0.239,-0.61 0.219,-0.61C0.199,-0.61 0.183,-0.604 0.172,-0.592C0.161,-0.58 0.155,-0.563 0.155,-0.541L0.155,-0.159C0.155,-0.137 0.161,-0.12 0.172,-0.108C0.183,-0.096 0.199,-0.09 0.219,-0.09Z" style="fill:rgb(227,238,255);fill-rule:nonzero;"/>
        </g>
        <g transform="matrix(16,0,0,16,19.673,19.5957)">
            <path d="M0.058,-0.7L0.175,-0.7L0.31,-0.23L0.31,-0.7L0.414,-0.7L0.414,0L0.302,0L0.162,-0.448L0.162,0L0.058,0L0.058,-0.7Z" style="fill:rgb(227,238,255);fill-rule:nonzero;"/>
        </g>
        <g transform="matrix(16,0,0,16,27.225,19.5957)">
            <path d="M0.219,0.01C0.168,0.01 0.127,-0.005 0.096,-0.037C0.065,-0.068 0.049,-0.108 0.049,-0.159L0.049,-0.541C0.049,-0.592 0.065,-0.632 0.096,-0.664C0.127,-0.695 0.168,-0.71 0.219,-0.71C0.27,-0.71 0.311,-0.695 0.342,-0.664C0.373,-0.632 0.389,-0.592 0.389,-0.541L0.389,-0.159C0.389,-0.108 0.373,-0.068 0.342,-0.037C0.311,-0.005 0.27,0.01 0.219,0.01ZM0.219,-0.09C0.239,-0.09 0.255,-0.096 0.266,-0.108C0.277,-0.12 0.283,-0.137 0.283,-0.159L0.283,-0.541C0.283,-0.563 0.277,-0.58 0.266,-0.592C0.255,-0.604 0.239,-0.61 0.219,-0.61C0.199,-0.61 0.183,-0.604 0.172,-0.592C0.161,-0.58 0.155,-0.563 0.155,-0.541L0.155,-0.159C0.155,-0.137 0.161,-0.12 0.172,-0.108C0.183,-0.096 0.199,-0.09 0.219,-0.09Z" style="fill:rgb(227,238,255);fill-rule:nonzero;"/>
        </g>
        <g transform="matrix(16,0,0,16,5.91304,33.5957)">
            <path d="M0.058,-0.7L0.224,-0.7C0.275,-0.7 0.315,-0.685 0.345,-0.655C0.375,-0.624 0.39,-0.584 0.39,-0.533L0.39,-0.451C0.39,-0.4 0.375,-0.36 0.345,-0.33C0.315,-0.299 0.275,-0.284 0.224,-0.284L0.164,-0.284L0.164,0L0.058,0L0.058,-0.7ZM0.219,-0.384C0.24,-0.384 0.256,-0.39 0.267,-0.401C0.278,-0.412 0.284,-0.428 0.284,-0.449L0.284,-0.535C0.284,-0.556 0.278,-0.572 0.267,-0.583C0.256,-0.594 0.24,-0.6 0.219,-0.6L0.164,-0.6L0.164,-0.384L0.219,-0.384Z" style="fill:rgb(227,238,255);fill-rule:nonzero;"/>
        </g>
        <g transform="matrix(16,0,0,16,12.649,33.5957)">
            <path d="M0.219,0.01C0.168,0.01 0.127,-0.005 0.096,-0.037C0.065,-0.068 0.049,-0.108 0.049,-0.159L0.049,-0.541C0.049,-0.592 0.065,-0.632 0.096,-0.664C0.127,-0.695 0.168,-0.71 0.219,-0.71C0.27,-0.71 0.311,-0.695 0.342,-0.664C0.373,-0.632 0.389,-0.592 0.389,-0.541L0.389,-0.159C0.389,-0.108 0.373,-0.068 0.342,-0.037C0.311,-0.005 0.27,0.01 0.219,0.01ZM0.219,-0.09C0.239,-0.09 0.255,-0.096 0.266,-0.108C0.277,-0.12 0.283,-0.137 0.283,-0.159L0.283,-0.541C0.283,-0.563 0.277,-0.58 0.266,-0.592C0.255,-0.604 0.239,-0.61 0.219,-0.61C0.199,-0.61 0.183,-0.604 0.172,-0.592C0.161,-0.58 0.155,-0.563 0.155,-0.541L0.155,-0.159C0.155,-0.137 0.161,-0.12 0.172,-0.108C0.183,-0.096 0.199,-0.09 0.219,-0.09Z" style="fill:rgb(227,238,255);fill-rule:nonzero;"/>
        </g>
        <g transform="matrix(16,0,0,16,19.657,33.5957)">
            <path d="M0.058,-0.7L0.164,-0.7L0.164,-0.1L0.353,-0.1L0.353,0L0.058,0L0.058,-0.7Z" style="fill:rgb(227,238,255);fill-rule:nonzero;"/>
        </g>
        <g transform="matrix(16,0,0,16,24.537,33.5957)">
            <path d="M0.41,-0.7L0.268,-0.293L0.268,0L0.162,0L0.162,-0.293L0.02,-0.7L0.133,-0.7L0.215,-0.433L0.299,-0.7L0.41,-0.7Z" style="fill:rgb(227,238,255);fill-rule:nonzero;"/>
        </g>
    </g>
    <g id="logo" transform="matrix(0.144652,0,0,0.144652,2.60594,351.513)">
        <g id="path1388" transform="matrix(0.264583,0,0,0.264583,-130.714,-218.367)">
            <path d="M717.038,858.57L856.29,858.57C892.609,858.57 919.184,874.072 936.014,905.076C938.849,911.631 940.266,918.363 940.266,925.273L940.266,928.727C940.266,957.605 920.778,978.688 881.802,991.975C873.475,994.279 864.971,995.43 856.29,995.43L718.101,995.43C699.144,995.43 685.68,1003.93 677.707,1020.94L677.707,1063.2L896.684,1063.2L896.684,1054.69C899.164,1043.88 905.896,1038.48 916.881,1038.48L920.07,1038.48C932.825,1040.61 939.203,1044.86 939.203,1051.24L939.203,1084.99C939.203,1091.72 932.825,1095.97 920.07,1097.74L654.321,1097.74C640.857,1095.97 634.125,1090.66 634.125,1081.8L634.125,1019.88C634.125,1003.05 647.235,986.749 673.455,970.981C687.629,964.249 702.156,960.883 717.038,960.883L855.227,960.883C873.652,960.883 886.762,952.999 894.558,937.231C895.975,934.928 896.684,931.828 896.684,927.93L896.684,926.07C896.684,911.365 886.762,901.001 866.92,894.977C864.085,893.737 860.188,893.117 855.227,893.117L718.101,893.117C693.652,893.117 679.125,906.139 674.518,932.182C669.026,937.674 663.003,940.42 656.447,940.42L653.258,940.42C640.503,938.472 634.125,934.308 634.125,927.93L634.125,917.832C634.125,900.824 647.235,884.436 673.455,868.668C687.629,861.936 702.156,858.57 717.038,858.57Z" style="fill:rgb(226,238,255);fill-rule:nonzero;"/>
        </g>
        <g id="path1391" transform="matrix(0.455057,0,0,0.50612,-115.92,-318.968)">
            <path d="M680.858,680.21C684.716,680.21 688.712,684.206 692.846,692.198L730.464,750.485L731.291,750.899L731.704,750.899C732.255,750.623 744.932,730.953 769.735,691.888C774.145,684.102 778.003,680.21 781.31,680.21L782.55,680.21C787.924,680.21 790.818,682.69 791.232,687.651C760.985,736.223 743.072,764.196 737.491,771.568C735.287,772.67 733.358,773.221 731.704,773.221L730.877,773.221C726.192,773.221 722.334,769.777 719.302,762.887C718.269,762.129 702.422,737.395 671.763,688.684C671.487,688.271 671.35,687.72 671.35,687.031C671.35,682.828 674.519,680.554 680.858,680.21Z" style="fill:rgb(226,238,255);fill-rule:nonzero;"/>
        </g>
        <g id="path1394" transform="matrix(-0.880393,0,0,1.13586,0,-27.6526)">
            <path d="M-178.964,31.82L-143.099,31.82C-139.945,32.277 -138.367,33.522 -138.367,35.556L-138.367,36.116C-138.948,38.607 -140.526,39.852 -143.099,39.852L-174.73,39.852C-186.56,39.852 -194.53,43.671 -198.64,51.309C-198.764,52.222 -199.013,52.679 -199.387,52.679L-209.349,52.679L-209.847,52.492C-207.813,46.141 -204.409,41.409 -199.636,38.296C-193.077,33.979 -186.187,31.82 -178.964,31.82L-178.964,31.82ZM-205.613,55.605L-162.526,55.605C-159.371,56.062 -157.794,57.307 -157.794,59.341L-157.794,59.964C-158.375,62.454 -159.952,63.7 -162.526,63.7L-205.613,63.7C-208.768,63.243 -210.345,61.998 -210.345,59.964L-210.345,59.341C-209.764,56.851 -208.187,55.605 -205.613,55.605ZM-209.349,66.626L-199.636,66.626C-199.387,66.668 -198.557,68.038 -197.145,70.736C-192.787,76.796 -185.315,79.826 -174.73,79.826L-143.099,79.826C-139.945,80.241 -138.367,81.487 -138.367,83.562L-138.367,84.123C-138.948,86.613 -140.526,87.859 -143.099,87.859L-178.964,87.859C-189.964,87.859 -199.096,83.542 -206.36,74.907C-208.685,70.839 -209.847,68.141 -209.847,66.813L-209.349,66.626Z" style="fill:rgb(226,238,255);fill-rule:nonzero;"/>
        </g>
    </g>
</svg>
