<?xml version="1.0" encoding="UTF-8" standalone="no"?>
<!DOCTYPE svg PUBLIC "-//W3C//DTD SVG 1.1//EN" "http://www.w3.org/Graphics/SVG/1.1/DTD/svg11.dtd">
<svg width="100%" height="100%" viewBox="0 0 195 380" version="1.1" xmlns="http://www.w3.org/2000/svg" xmlns:xlink="http://www.w3.org/1999/xlink" xml:space="preserve" xmlns:serif="http://www.serif.com/" style="fill-rule:evenodd;clip-rule:evenodd;stroke-linejoin:round;stroke-miterlimit:2;">
    <g id="background" transform="matrix(1.04167,0,0,1.04323,0,0)">
        <rect id="rect1413" x="0" y="-0.034" width="187.5" height="364.884" style="fill:rgb(62,71,83);"/>
        <g id="Logo" transform="matrix(0.166383,0,0,0.166383,77.137,338.223)">
            <g id="path988" transform="matrix(0.264583,0,0,0.264583,-130.714,-190.714)">
                <path d="M717.038,858.57L856.29,858.57C892.609,858.57 919.184,874.072 936.014,905.076C938.849,911.631 940.266,918.363 940.266,925.273L940.266,928.727C940.266,957.605 920.778,978.688 881.802,991.975C873.475,994.279 864.971,995.43 856.29,995.43L718.101,995.43C699.144,995.43 685.68,1003.93 677.707,1020.94L677.707,1063.2L896.684,1063.2L896.684,1054.69C899.164,1043.88 905.896,1038.48 916.881,1038.48L920.07,1038.48C932.825,1040.61 939.203,1044.86 939.203,1051.24L939.203,1084.99C939.203,1091.72 932.825,1095.97 920.07,1097.74L654.321,1097.74C640.857,1095.97 634.125,1090.66 634.125,1081.8L634.125,1019.88C634.125,1003.05 647.235,986.749 673.455,970.981C687.629,964.249 702.156,960.883 717.038,960.883L855.227,960.883C873.652,960.883 886.762,952.999 894.558,937.231C895.975,934.928 896.684,931.828 896.684,927.93L896.684,926.07C896.684,911.365 886.762,901.001 866.92,894.977C864.085,893.737 860.188,893.117 855.227,893.117L718.101,893.117C693.652,893.117 679.125,906.139 674.518,932.182C669.026,937.674 663.003,940.42 656.447,940.42L653.258,940.42C640.503,938.472 634.125,934.308 634.125,927.93L634.125,917.832C634.125,900.824 647.235,884.436 673.455,868.668C687.629,861.936 702.156,858.57 717.038,858.57Z" style="fill:rgb(226,238,255);fill-rule:nonzero;"/>
            </g>
            <g id="flowRoot825" transform="matrix(0.264583,0,0,0.264583,-152.059,-73.5843)">
                <path id="path991" d="M680.858,680.21C684.716,680.21 688.712,684.206 692.846,692.198L730.464,750.485L731.291,750.899L731.704,750.899C732.255,750.623 744.932,730.953 769.735,691.888C774.145,684.102 778.003,680.21 781.31,680.21L782.55,680.21C787.924,680.21 790.818,682.69 791.232,687.651C760.985,736.223 743.072,764.196 737.491,771.568C735.287,772.67 733.358,773.221 731.704,773.221L730.877,773.221C726.192,773.221 722.334,769.777 719.302,762.887C718.269,762.129 702.422,737.395 671.763,688.684C671.487,688.271 671.35,687.72 671.35,687.031C671.35,682.828 674.519,680.554 680.858,680.21Z" style="fill:rgb(226,238,255);fill-rule:nonzero;"/>
                <path id="path993" d="M865.228,680.21L867.295,680.21C888.584,680.21 905.67,688.167 918.554,704.083C923.239,711.248 925.582,717.104 925.582,721.652L924.755,721.962L909.46,721.962C909.115,721.962 908.289,719.791 906.98,715.451C898.161,700.638 884.519,693.231 866.054,693.231C848.554,693.231 835.188,700.328 825.956,714.521C824.44,719.206 823.476,721.686 823.062,721.962L807.767,721.962C807.216,721.962 806.94,721.652 806.94,721.032C806.94,714.348 811.487,706.184 820.582,696.538C833.397,685.653 848.279,680.21 865.228,680.21ZM807.354,729.816L822.649,729.816C823.062,729.816 824.027,732.537 825.543,737.98C834.361,752.793 848.003,760.2 866.468,760.2C883.968,760.2 897.334,753.103 906.566,738.91C907.669,736.017 908.633,732.985 909.46,729.816L925.169,729.816L925.995,730.126C925.995,738.187 921.31,747.109 911.94,756.893C899.125,767.779 884.243,773.221 867.295,773.221L865.228,773.221C843.938,773.221 826.852,765.264 813.968,749.348C809.421,742.596 806.94,736.189 806.527,730.126L807.354,729.816Z" style="fill:rgb(226,238,255);fill-rule:nonzero;"/>
                <path id="path995" d="M949.145,680.21L950.385,680.21C955.621,680.968 958.239,683.034 958.239,686.41L958.239,743.561C958.239,751.002 961.822,755.997 968.987,758.546C971.537,759.166 973.879,759.476 976.015,759.476L1004.12,759.476C1013.43,759.476 1019.21,755.584 1021.49,747.798C1021.76,746.903 1021.9,746.007 1021.9,745.111L1021.9,735.397C1022.87,731.263 1025.48,729.196 1029.76,729.196L1031,729.196C1036.23,729.885 1038.85,731.952 1038.85,735.397L1038.85,747.798C1038.85,757.099 1032.24,764.816 1019.01,770.948C1014.25,772.464 1009.71,773.221 1005.37,773.221L974.775,773.221C960.858,773.221 950.385,767.469 943.358,755.963C941.98,752.587 941.291,749.865 941.291,747.798L941.291,686.41C942.255,682.277 944.873,680.21 949.145,680.21Z" style="fill:rgb(226,238,255);fill-rule:nonzero;"/>
                <path id="path997" d="M1061.17,680.21L1099.2,680.21C1099.76,680.279 1100.03,680.485 1100.03,680.83L1100.03,693.335C1100.03,693.748 1099.76,693.955 1099.2,693.955L1061.17,693.955C1056.49,692.852 1054.14,690.992 1054.14,688.374L1054.14,685.79C1055.59,682.07 1057.93,680.21 1061.17,680.21ZM1114.09,680.21L1115.33,680.21C1120.56,680.968 1123.18,683.034 1123.18,686.41L1123.18,767.021C1122.22,771.155 1119.6,773.221 1115.33,773.221L1114.09,773.221C1108.85,772.464 1106.23,770.397 1106.23,767.021L1106.23,686.41C1107.2,682.277 1109.81,680.21 1114.09,680.21ZM1130.21,680.21L1166.17,680.21C1170.86,681.312 1173.2,683.172 1173.2,685.79L1173.2,688.374C1171.75,692.095 1169.41,693.955 1166.17,693.955L1130.21,693.955C1129.66,693.955 1129.38,693.748 1129.38,693.335L1129.38,680.83C1129.45,680.416 1129.73,680.21 1130.21,680.21Z" style="fill:rgb(226,238,255);fill-rule:nonzero;"/>
                <path id="path999" d="M1221.15,680.21L1300.11,680.21C1305.07,680.899 1307.55,682.552 1307.55,685.17L1307.55,698.295C1307.55,700.776 1305.07,702.429 1300.11,703.256L1298.87,703.256C1293.63,702.498 1291.02,700.397 1291.02,696.952L1291.02,693.645L1221.57,693.645C1214.4,693.645 1209.3,696.711 1206.27,702.843C1205.72,703.738 1205.44,704.944 1205.44,706.46L1205.44,707.183C1205.44,712.902 1209.3,716.932 1217.02,719.275C1218.12,719.757 1219.64,719.998 1221.57,719.998L1275.31,719.998C1289.43,719.998 1299.77,726.027 1306.31,738.084C1307.41,740.633 1307.96,743.251 1307.96,745.938L1307.96,747.282C1307.96,758.443 1300.38,766.642 1285.23,771.878C1281.99,772.774 1278.68,773.221 1275.31,773.221L1196.35,773.221C1191.39,772.533 1188.91,770.879 1188.91,768.261L1188.91,755.136C1188.91,752.656 1191.39,751.002 1196.35,750.175L1197.59,750.175C1202.83,750.933 1205.44,753.034 1205.44,756.479L1205.44,759.786L1274.89,759.786C1282.06,759.786 1287.16,756.721 1290.19,750.589C1290.74,749.693 1291.02,748.487 1291.02,746.971L1291.02,746.248C1291.02,740.53 1287.16,736.499 1279.44,734.157C1278.34,733.674 1276.82,733.433 1274.89,733.433L1221.15,733.433C1207.03,733.433 1196.69,727.405 1190.15,715.347C1189.05,712.798 1188.5,710.18 1188.5,707.493L1188.5,706.15C1188.5,694.988 1196.07,686.789 1211.23,681.553C1214.47,680.658 1217.78,680.21 1221.15,680.21Z" style="fill:rgb(226,238,255);fill-rule:nonzero;"/>
            </g>
            <g id="path1002" transform="matrix(-0.880393,0,0,1.13586,0,0)">
                <path d="M-178.964,31.82L-143.099,31.82C-139.945,32.277 -138.367,33.522 -138.367,35.556L-138.367,36.116C-138.948,38.607 -140.526,39.852 -143.099,39.852L-174.73,39.852C-186.56,39.852 -194.53,43.671 -198.64,51.309C-198.764,52.222 -199.013,52.679 -199.387,52.679L-209.349,52.679L-209.847,52.492C-207.813,46.141 -204.409,41.409 -199.636,38.296C-193.077,33.979 -186.187,31.82 -178.964,31.82L-178.964,31.82ZM-205.613,55.605L-162.526,55.605C-159.371,56.062 -157.794,57.307 -157.794,59.341L-157.794,59.964C-158.375,62.454 -159.952,63.7 -162.526,63.7L-205.613,63.7C-208.768,63.243 -210.345,61.998 -210.345,59.964L-210.345,59.341C-209.764,56.851 -208.187,55.605 -205.613,55.605ZM-209.349,66.626L-199.636,66.626C-199.387,66.668 -198.557,68.038 -197.145,70.736C-192.787,76.796 -185.315,79.826 -174.73,79.826L-143.099,79.826C-139.945,80.241 -138.367,81.487 -138.367,83.562L-138.367,84.123C-138.948,86.613 -140.526,87.859 -143.099,87.859L-178.964,87.859C-189.964,87.859 -199.096,83.542 -206.36,74.907C-208.685,70.839 -209.847,68.141 -209.847,66.813L-209.349,66.626Z" style="fill:rgb(226,238,255);fill-rule:nonzero;"/>
            </g>
        </g>
        <g id="g3914" transform="matrix(0.0352778,0,0,-0.0352778,-184.576,404.804)">
            <g opacity="0.02">
                <path id="path3266" d="M11769.4,15471.5C11749.6,15451.7 11735.4,15426.1 11735.4,15409.1C11735.4,15395 11701.4,15343.9 11658.9,15301.4C11590.9,15230.6 11565.4,15222 11395.3,15222C11123.1,15222 11111.8,15205 11111.8,14777C11111.8,14485 11103.3,14431.2 11060.8,14391.5C10987.1,14323.5 10819.8,14329.1 10757.5,14400C10709.3,14453.9 10669.6,14456.7 10150.9,14456.7L9592.44,14456.7L9411.02,14272.4C9235.27,14096.7 9223.94,14088.2 9090.71,14088.2C8974.49,14088.2 8954.65,14093.9 8982.99,14127.9C9002.84,14150.6 9042.52,14161.9 9070.87,14153.4C9192.76,14122.2 9266.46,14283.8 9158.74,14343.3C9082.2,14383 9022.68,14351.8 8988.66,14255.4L8960.32,14173.2L8427.4,14173.2L7894.49,14173.2L7426.77,13705.5L6959.06,13237.8L5896.06,13237.8L4833.07,13237.8L4611.97,13016.7C4436.22,12840.9 4393.7,12781.4 4393.7,12710.6C4393.7,12651 4365.35,12600 4308.66,12543.3L4223.62,12461.1L4223.62,12084.1L4223.62,11707.1L2177.01,11701.4L127.559,11692.9L127.559,10970.1L127.559,10247.2L291.968,10238.7C411.024,10233.1 453.543,10218.9 453.543,10190.6C453.543,10159.4 419.528,10148 325.984,10148C204.094,10148 85.039,10080 85.039,10009.1C85.039,9941.1 181.417,9892.91 314.646,9892.91C419.528,9892.91 453.543,9881.58 453.543,9850.39C453.543,9819.21 416.693,9807.87 303.307,9807.87C147.402,9807.87 85.039,9773.86 85.039,9688.82C85.039,9620.79 170.079,9581.1 323.15,9581.1C419.528,9581.1 453.543,9569.76 453.543,9538.58C453.543,9510.24 411.024,9496.06 294.803,9490.39C113.386,9481.89 45.354,9425.2 102.047,9334.49C124.724,9297.64 178.583,9280.63 294.803,9274.96C501.732,9263.62 496.063,9201.26 291.968,9189.92C127.559,9181.42 70.866,9133.23 96.378,9028.35C113.386,8965.98 130.394,8957.48 243.78,8957.48C402.52,8957.48 402.52,8892.28 243.78,8878.11C147.402,8869.61 138.898,8861.1 147.402,8795.91C158.74,8693.86 102.047,8685.35 56.693,8778.9C19.843,8855.43 17.008,8855.43 5.669,8795.91C-8.504,8696.69 45.354,8625.83 141.732,8622.99C221.102,8620.16 226.772,8628.66 226.772,8716.53C226.772,8804.41 235.276,8812.91 320.315,8821.42C394.016,8827.09 413.858,8844.09 419.528,8906.46C430.866,8994.33 365.669,9039.68 249.449,9025.51C195.591,9019.84 170.079,9031.18 170.079,9059.53C170.079,9087.87 206.929,9099.21 306.142,9099.21C462.047,9099.21 510.236,9133.23 510.236,9243.78C510.236,9331.65 467.717,9354.33 294.803,9354.33C204.094,9354.33 170.079,9365.67 170.079,9396.85C170.079,9425.2 215.433,9439.37 348.661,9445.04C510.236,9453.54 524.409,9459.21 532.913,9521.58C547.087,9617.95 470.551,9666.14 303.307,9666.14C102.047,9666.14 141.732,9734.17 357.165,9751.18C507.402,9765.35 524.409,9771.02 532.913,9833.39C547.087,9929.76 470.551,9977.95 303.307,9977.95C133.228,9977.95 130.394,10046 300.472,10057.3C496.063,10068.7 538.583,10088.5 538.583,10156.5C538.583,10255.7 484.724,10289.8 337.323,10289.8L201.26,10289.8L192.756,10397.5C187.087,10454.2 187.087,10760.3 192.756,11077.8L201.26,11650.4L2236.53,11650.4C4067.72,11650.4 4274.65,11656.1 4291.65,11695.7C4300.16,11721.3 4308.66,11897 4308.66,12086.9L4308.66,12432.8L4393.7,12515C4453.23,12571.7 4478.74,12622.7 4478.74,12685C4478.74,12755.9 4515.59,12809.8 4671.5,12962.8L4864.25,13152.8L6987.4,13152.8L7455.12,13620.5C7713.07,13878.4 7934.17,14088.2 7948.35,14088.2C7962.52,14088.2 7741.42,13858.6 7455.12,13578L6939.21,13067.7L5924.41,13067.7L4909.61,13067.7L4736.69,12892C4606.3,12755.9 4563.78,12693.5 4563.78,12631.2C4563.78,12580.2 4535.43,12515 4490.08,12469.6L4416.38,12393.1L4422.05,11882.8C4422.05,11602.2 4416.38,11338.6 4405.04,11296.1C4373.86,11174.2 4322.84,11233.7 4308.66,11406.6C4291.65,11593.7 4234.96,11656.1 4138.58,11593.7C4110.24,11576.7 4090.39,11505.8 4081.89,11395.3C4064.88,11185.5 4013.86,11157.2 4002.52,11352.8C3996.85,11429.3 3979.84,11508.7 3962.84,11528.5C3940.16,11556.9 3560.32,11565.4 2154.33,11565.4C1173.54,11565.4 354.331,11556.9 328.819,11548.3C266.457,11525.7 266.457,11349.9 328.819,11327.2C354.331,11318.7 493.228,11310.2 640.63,11310.2C799.37,11310.2 907.087,11298.9 907.087,11281.9C907.087,11264.9 796.535,11253.5 634.961,11253.5C323.15,11253.5 255.118,11228 255.118,11114.6C255.118,11009.8 286.299,10998.4 629.291,10998.4C841.89,10998.4 909.921,10989.9 901.417,10964.4C892.913,10938.9 790.866,10921.9 578.268,10913.4L269.291,10899.2L269.291,10800L269.291,10700.8L586.772,10692.3C765.354,10689.4 907.087,10672.4 907.087,10658.3C907.087,10618.6 810.709,10601.6 510.236,10593.1L240.945,10587.4L240.945,10488.2L240.945,10389L405.354,10380.5L566.929,10372L566.929,9629.29L566.929,8886.61L283.465,8603.15C113.386,8433.07 0,8297.01 0,8262.99C0,8223.31 87.874,8297.01 325.984,8532.28L651.968,8858.27L651.968,10428.7L476.22,10437.2C340.157,10442.8 297.638,10457 297.638,10488.2C297.638,10522.2 360,10533.5 620.787,10544.9C887.244,10556.2 949.606,10567.6 975.118,10610.1C997.795,10644.1 997.795,10672.4 975.118,10709.3C949.606,10749 892.913,10757.5 626.457,10766C221.102,10774.5 206.929,10828.3 609.449,10828.3C898.583,10828.3 907.087,10831.2 955.276,10902C989.291,10955.9 994.961,10987.1 972.283,11023.9C949.606,11060.8 884.409,11072.1 626.457,11077.8C391.181,11083.5 311.811,11094.8 320.315,11120.3C325.984,11143 433.701,11160 637.795,11168.5C887.244,11179.8 949.606,11191.2 975.118,11233.7C997.795,11267.7 997.795,11296.1 975.118,11332.9C949.606,11372.6 892.913,11381.1 640.63,11389.6C399.685,11395.3 340.157,11406.6 340.157,11437.8C340.157,11474.6 575.433,11480.3 2125.98,11480.3L3911.81,11480.3L3911.81,11364.1C3911.81,11216.7 3954.33,11140.2 4033.7,11140.2C4135.75,11140.2 4166.93,11194 4166.93,11372.6C4166.93,11463.3 4178.27,11537 4195.28,11537C4212.28,11537 4223.62,11469 4223.62,11383.9C4223.62,11256.4 4234.96,11219.5 4285.98,11185.5C4365.35,11128.8 4379.53,11128.8 4433.39,11185.5C4473.07,11222.4 4478.74,11318.7 4478.74,11789.3L4478.74,12347.7L4563.78,12429.9C4626.14,12492.3 4648.82,12537.6 4648.82,12614.2C4648.82,12699.2 4671.5,12738.9 4787.72,12852.3L4923.78,12988.3L5941.42,12985.5L6959.06,12982.7L7979.53,14003.1L9257.95,14003.1L9620.79,14371.7L10165,14371.7C10669.6,14371.7 10709.3,14368.8 10757.5,14315C10839.7,14224.3 11023.9,14238.4 11120.3,14337.6C11194,14414.2 11196.9,14425.5 11196.9,14760C11196.9,14995.3 11208.2,15111.5 11230.9,15125.7C11247.9,15137 11335.7,15142.7 11426.5,15139.8C11571,15134.2 11596.5,15142.7 11687.2,15219.2C11743.9,15270.2 11803.5,15301.4 11829,15292.9C11874.3,15273.1 11962.2,15346.8 11962.2,15403.5C11962.2,15451.7 11902.7,15505.5 11848.8,15505.5C11823.3,15505.5 11789.3,15491.3 11769.4,15471.5Z" style="fill:rgb(226,238,255);fill-rule:nonzero;"/>
                <path id="path3286" d="M11315.9,15046.3C11242.2,14972.6 11313.1,14828 11406.6,14862C11429.3,14870.6 11471.8,14847.9 11505.8,14813.9C11559.7,14757.2 11565.4,14717.5 11565.4,14368.8C11565.4,14108 11554,13974.8 11531.3,13952.1C11511.5,13932.3 11443.5,13918.1 11381.1,13918.1C11239.4,13918.1 11140.2,13830.2 11140.2,13705.5C11140.2,13654.5 11111.8,13592.1 11063.6,13543.9L10987.1,13464.6L10403.1,13464.6L9822.05,13464.6L9552.76,13195.3L9283.46,12926L8620.16,12926L7954.02,12926L7384.25,12359.1L6814.49,11792.1L6318.43,11792.1L5825.2,11792.1L5074.02,11040.9L4322.84,10289.8L3741.73,10289.8L3157.8,10289.8L2990.55,10119.7L2823.31,9949.61L2052.28,9949.61C1216.06,9949.61 1193.39,9943.94 1230.24,9793.7L1247.24,9722.84L1870.87,9717.17C2707.09,9705.83 2704.25,9657.64 1865.2,9637.8C1516.54,9629.29 1230.24,9617.95 1227.4,9615.12C1221.73,9612.28 1218.9,9388.35 1218.9,9119.06L1218.9,8631.5L793.701,8206.3L368.504,7781.1L368.504,6570.71L368.504,5357.48L184.252,5357.48C76.535,5357.48 0,5346.14 0,5329.13C0,5309.29 82.205,5300.79 221.102,5306.46L439.37,5314.96L447.874,6533.86L453.543,7752.76L1278.42,8577.64L1284.09,9059.53L1289.76,9538.58L1896.38,9547.09C2287.56,9549.92 2517.16,9564.09 2542.68,9583.94C2596.53,9632.13 2588.03,9745.51 2525.67,9779.53C2491.65,9796.53 2233.7,9807.87 1885.04,9807.87C1428.66,9807.87 1301.1,9816.38 1309.61,9844.72C1320.94,9870.24 1508.03,9881.58 2100.47,9887.24L2880,9892.91L3186.14,10204.7L4351.18,10204.7L5853.54,11707.1L6817.32,11707.1L7979.53,12869.3L9340.16,12869.3L9878.74,13407.9L11043.8,13407.9L11134.5,13501.4C11196.9,13563.8 11225.2,13623.3 11225.2,13680C11225.2,13796.2 11270.6,13833.1 11409.4,13833.1C11494.5,13833.1 11542.7,13850.1 11588,13898.3C11647.6,13960.6 11650.4,13991.8 11650.4,14371.7C11650.4,14774.2 11650.4,14779.8 11576.7,14856.4C11534.2,14898.9 11486,14964.1 11469,15000.9C11432.1,15077.5 11366.9,15097.3 11315.9,15046.3Z" style="fill:rgb(226,238,255);fill-rule:nonzero;"/>
                <path id="path3300" d="M10885,14601.3C10885,14578.6 10590.2,14570.1 9941.1,14570.1L8997.17,14570.1L8858.27,14428.3L8719.37,14286.6L8265.83,14286.6L7812.28,14286.6L7355.9,13833.1L6899.53,13379.5L5822.36,13379.5L4748.03,13379.5L4498.58,13130.1C4280.32,12911.8 4251.97,12869.3 4251.97,12781.4C4251.97,12707.7 4229.29,12659.5 4166.93,12600C4084.72,12523.5 4084.72,12512.1 4076.22,12206L4067.72,11891.3L3721.89,11882.8L3373.23,11874.3L3373.23,12231.5C3373.23,12614.2 3350.55,12699.2 3251.34,12699.2C3132.28,12699.2 3118.11,12653.9 3118.11,12237.2C3118.11,11936.7 3109.61,11846 3084.09,11854.5C3055.75,11863 3044.41,11976.4 3038.74,12262.7C3030.24,12682.2 3013.23,12738.9 2888.5,12707.7C2817.64,12687.9 2806.3,12636.9 2797.8,12208.8C2792.13,11783.6 2738.27,11701.4 2726.93,12095.4C2718.43,12387.4 2687.24,12446.9 2565.35,12393.1C2500.16,12361.9 2497.32,12344.9 2488.82,12103.9C2477.48,11780.8 2426.46,11766.6 2415.12,12081.3C2406.61,12339.2 2378.27,12393.1 2270.55,12381.7C2199.68,12373.2 2196.85,12367.6 2182.68,12106.8C2162.84,11738.3 2106.14,11726.9 2091.97,12086.9C2083.47,12378.9 2057.95,12432.8 1944.57,12404.4C1873.7,12387.4 1873.7,12378.9 1865.2,12112.4C1859.53,11925.4 1845.35,11834.6 1822.68,11826.1C1794.33,11817.6 1785.83,11880 1785.83,12072.8C1785.83,12302.4 1780.16,12330.7 1723.47,12370.4C1680.94,12401.6 1649.76,12404.4 1610.08,12384.6C1567.56,12361.9 1559.06,12322.2 1559.06,12103.9C1559.06,11868.7 1556.22,11848.8 1502.36,11848.8C1448.5,11848.8 1445.67,11868.7 1445.67,12118.1C1445.67,12384.6 1445.67,12387.4 1369.13,12404.4C1255.75,12432.8 1218.9,12359.1 1218.9,12098.3L1218.9,11877.2L617.953,11871.5L14.173,11863L14.173,10459.8L14.173,9056.69L19.843,10423L28.346,11792.1L660.472,11797.8L1289.76,11806.3L1298.27,12069.9C1303.94,12274 1315.28,12330.7 1346.46,12330.7C1377.64,12330.7 1388.98,12271.2 1394.65,12055.7L1403.15,11778L1601.58,11778L1615.75,12044.4C1624.25,12217.3 1641.26,12316.5 1663.94,12322.2C1689.45,12330.7 1700.79,12259.8 1706.46,12055.7L1714.96,11778L1913.39,11778L1921.89,12055.7C1927.56,12274 1938.9,12330.7 1970.08,12330.7C2004.09,12330.7 2012.6,12282.5 2012.6,12092.6C2012.6,11797.8 2023.94,11763.8 2128.82,11763.8C2239.37,11763.8 2267.72,11831.8 2267.72,12103.9C2267.72,12251.3 2279.05,12327.9 2296.06,12316.5C2313.07,12308 2324.41,12191.8 2324.41,12064.3C2324.41,11806.3 2352.76,11752.4 2471.81,11769.4C2534.17,11778 2537.01,11792.1 2551.18,12047.2C2562.52,12262.7 2573.86,12316.5 2607.87,12316.5C2641.89,12316.5 2653.23,12262.7 2664.57,12047.2C2678.74,11792.1 2681.58,11778 2743.94,11769.4C2877.16,11749.6 2891.34,11795 2891.34,12237.2C2891.34,12551.8 2899.84,12645.4 2928.19,12636.9C2950.87,12628.3 2965.04,12506.5 2976.38,12214.5L2990.55,11806.3L3188.98,11806.3L3197.48,12211.7C3203.15,12540.5 3211.65,12614.2 3245.67,12614.2C3279.68,12614.2 3288.19,12540.5 3293.86,12225.8L3302.36,11834.6L3696.38,11826.1C3960,11820.5 4101.73,11829 4127.24,11851.7C4155.59,11874.3 4166.93,11962.2 4166.93,12186.1C4166.93,12486.6 4166.93,12492.3 4251.97,12571.7C4314.33,12631.2 4337.01,12679.4 4337.01,12755.9C4337.01,12843.8 4365.35,12883.5 4572.28,13090.4L4804.72,13322.8L6930.71,13322.8L7837.8,14229.9L8776.06,14229.9L9025.51,14485L9935.43,14485C10678.1,14482.2 10851,14476.5 10896.4,14442.5C10972.9,14383 11060.8,14436.9 11049.4,14536.1C11043.8,14595.6 11023.9,14615.4 10964.4,14621.1C10919.1,14626.8 10885,14618.3 10885,14601.3Z" style="fill:rgb(226,238,255);fill-rule:nonzero;"/>
                <path id="path3332" d="M8132.6,13869.9L7976.69,13858.6L7497.64,13379.5L7015.75,12897.6L6443.15,12897.6C6017.95,12897.6 5864.88,12889.1 5847.87,12863.6C5836.53,12843.8 5819.53,12696.4 5811.02,12534.8C5802.52,12376.1 5785.51,12242.8 5768.5,12237.2C5751.5,12234.3 5734.49,12361.9 5725.98,12554.6C5714.65,12821.1 5703.31,12883.5 5663.62,12909C5626.77,12931.7 5598.43,12931.7 5564.41,12909C5521.89,12883.5 5510.55,12818.3 5499.21,12503.6C5490.71,12285.4 5473.7,12132.3 5456.69,12132.3C5439.69,12132.3 5422.68,12285.4 5414.17,12506.5C5405.67,12713.4 5388.66,12900.5 5377.32,12920.3C5357.48,12948.7 5227.09,12971.3 5210.08,12948.7C5207.24,12943 5198.74,12685 5190.24,12376.1C5178.9,11965 5164.72,11809.1 5139.21,11800.6C5110.87,11789.3 5102.36,11911.2 5096.69,12305.2C5088.19,12789.9 5085.35,12821.1 5028.66,12858C4980.47,12892 4963.46,12892 4920.94,12860.8C4872.76,12826.8 4869.92,12764.4 4864.25,12166.3C4864.25,11755.3 4850.08,11505.8 4833.07,11503C4816.06,11497.3 4799.06,11656.1 4790.55,11914C4776.38,12336.4 4762.2,12384.6 4662.99,12387.4C4575.12,12387.4 4563.78,12313.7 4563.78,11778L4563.78,11236.5L4484.41,11160L4405.04,11083.5L2848.82,11089.1C1635.59,11094.8 1292.6,11106.1 1281.26,11134.5C1272.76,11160 1527.87,11168.5 2488.82,11168.5C3160.63,11168.5 3730.39,11177 3753.07,11185.5C3815.43,11208.2 3857.95,11296.1 3838.11,11349.9C3823.94,11389.6 3668.03,11395.3 2434.96,11395.3L1048.82,11395.3L1048.82,10947.4L1048.82,10499.5L892.913,10346.5L737.008,10193.4L737.008,9507.4L737.008,8821.42L368.504,8455.75C138.898,8231.81 0,8073.07 0,8036.22C0,7996.53 116.22,8095.75 411.024,8390.55L822.047,8801.58L822.047,10165L977.953,10318.1L1136.69,10474L1131.02,10899.2L1128.19,11324.4L2434.96,11324.4C3282.52,11324.4 3744.57,11313.1 3750.24,11296.1C3753.07,11276.2 3327.87,11264.9 2525.67,11259.2C1675.28,11256.4 1284.09,11242.2 1255.75,11222.4C1210.39,11182.7 1207.56,11077.8 1252.91,11032.4C1278.42,11006.9 1675.28,10998.4 2862.99,10998.4L4439.06,10998.4L4620.47,11185.5L4620.47,11743.9C4620.47,12220.2 4626.14,12302.4 4662.99,12302.4C4699.84,12302.4 4705.51,12237.2 4705.51,11897C4705.51,11469 4716.85,11423.6 4835.9,11423.6C4960.63,11423.6 4966.3,11469 4954.96,12149.3C4949.29,12645.4 4954.96,12795.6 4983.31,12804.1C5008.82,12815.4 5017.32,12702 5017.32,12308C5017.32,11880 5025.83,11789.3 5062.68,11752.4C5116.53,11698.6 5133.54,11695.7 5195.9,11743.9C5249.76,11783.6 5263.94,11936.7 5269.61,12537.6C5272.44,12772.9 5283.78,12894.8 5300.79,12883.5C5317.8,12872.1 5329.13,12710.6 5329.13,12489.4C5329.13,12092.6 5343.31,12047.2 5462.36,12047.2C5561.57,12047.2 5584.25,12132.3 5584.25,12512.1C5584.25,12730.4 5595.59,12869.3 5612.6,12869.3C5629.61,12869.3 5640.94,12750.2 5640.94,12568.8C5640.94,12242.8 5666.46,12160.6 5762.84,12160.6C5876.22,12160.6 5896.06,12211.7 5896.06,12520.6L5896.06,12812.6L7044.09,12812.6L7525.98,13294.5C7993.7,13762.2 8010.71,13776.4 8124.09,13776.4C8206.3,13776.4 8248.82,13762.2 8260.16,13731C8271.5,13702.7 8302.68,13691.3 8353.7,13697C8421.73,13705.5 8433.07,13719.7 8433.07,13790.6C8433.07,13886.9 8421.73,13889.8 8132.6,13869.9Z" style="fill:rgb(226,238,255);fill-rule:nonzero;"/>
                <path id="path3334" d="M9481.89,13578L9170.08,13266.1L8574.8,13266.1L7979.53,13266.1L7384.25,12670.9L6788.98,12075.6L6222.05,12075.6L5655.12,12075.6L5074.02,11494.5L4492.91,10913.4L2862.99,10907.7L1233.07,10899.2L1224.57,10581.7L1216.06,10261.4L1122.52,10261.4C1062.99,10261.4 1009.13,10238.7 969.449,10196.2C909.921,10131 907.087,10108.3 907.087,9450.71L907.087,8773.23L481.89,8348.03L56.693,7922.84L56.693,7602.52C56.693,7404.09 45.354,7265.2 22.677,7228.35C-25.512,7151.81 17.008,7123.46 85.039,7185.83C136.063,7231.18 141.732,7273.7 141.732,7565.67L141.732,7894.49L992.126,8744.88L992.126,9425.2C992.126,10150.9 997.795,10176.4 1128.19,10176.4C1165.04,10176.4 1218.9,10190.6 1250.08,10204.7C1298.27,10233.1 1303.94,10267.1 1303.94,10544.9L1303.94,10856.7L4549.61,10856.7L5711.81,12018.9L6845.67,12018.9L8007.87,13181.1L9167.24,13181.1L9496.06,13507.1L9827.72,13833.1L10703.6,13833.1L10777.3,13756.5C10817,13711.2 10856.7,13651.7 10862.4,13620.5C10868,13578 10893.5,13563.8 10955.9,13563.8C11032.4,13563.8 11040.9,13572.3 11040.9,13648.8C11040.9,13719.7 11029.6,13736.7 10967.2,13742.4C10924.7,13748 10862.4,13782 10825.5,13821.7C10763.1,13889.8 10754.6,13889.8 10278.4,13889.8L9793.7,13889.8L9481.89,13578Z" style="fill:rgb(226,238,255);fill-rule:nonzero;"/>
                <path id="path3340" d="M10442.8,13733.9C10403.1,13705.5 10309.6,13694.2 10105.5,13691.3L9822.05,13691.3L9538.58,13407.9L9255.12,13124.4L8631.5,13124.4L8007.87,13124.4L7412.6,12529.1L6817.32,11933.9L6278.74,11933.9L5740.16,11933.9L5159.06,11352.8L4577.95,10771.7L3302.36,10766L2026.77,10757.5L2026.77,10658.3L2026.77,10559.1L3143.62,10544.9C4002.52,10533.5 4263.31,10522.2 4274.65,10496.7C4283.15,10468.3 4050.71,10459.8 3183.31,10459.8C1975.75,10459.8 1970.08,10459.8 1989.92,10303.9L1998.42,10218.9L2381.1,10210.4C2752.44,10201.9 2868.66,10176.4 2777.95,10119.7C2752.44,10102.7 2403.78,10091.3 1944.57,10094.2C1238.74,10094.2 1150.87,10088.5 1102.68,10046C1051.65,10000.6 1048.82,9949.61 1048.82,9342.99L1048.82,8688.19L623.622,8262.99L198.425,7837.8L198.425,6995.9L198.425,6151.18L99.213,6151.18C45.354,6151.18 0,6139.84 0,6122.84C0,6108.66 56.693,6094.49 124.724,6094.49C215.433,6094.49 255.118,6108.66 266.457,6142.68C277.795,6168.19 283.465,6550.87 283.465,6995.9L280.63,7806.61L1133.86,8659.84L1133.86,9314.65C1133.86,9827.72 1142.36,9977.95 1170.71,10003.5C1196.22,10023.3 1482.52,10037.5 2026.77,10040.3C2769.45,10048.8 2845.98,10054.5 2874.33,10099.8C2897.01,10133.9 2897.01,10162.2 2874.33,10199.1C2848.82,10238.7 2783.62,10250.1 2449.13,10261.4C2123.15,10272.8 2055.12,10284.1 2055.12,10318.1C2055.12,10355 2205.35,10363.5 3186.14,10374.8C4223.62,10389 4320,10391.8 4348.35,10440C4371.02,10474 4371.02,10502.4 4348.35,10539.2C4320,10584.6 4223.62,10587.4 3200.32,10601.6C2233.7,10612.9 2083.47,10621.4 2083.47,10658.3C2083.47,10695.1 2247.87,10700.8 3359.06,10709.3L4634.65,10715L5796.85,11877.2L6874.02,11877.2L8036.22,13039.4L9255.12,13039.4L9822.05,13606.3L10111.2,13606.3C10295.4,13606.3 10425.8,13592.1 10459.8,13572.3C10570.4,13501.4 10678.1,13637.5 10587.4,13731C10530.7,13787.7 10513.7,13787.7 10442.8,13733.9Z" style="fill:rgb(226,238,255);fill-rule:nonzero;"/>
                <path id="path3342" d="M11327.2,13714C11304.6,13680 11290.4,13643.1 11301.7,13626.1C11310.2,13612 11247.9,13532.6 11165.7,13447.6L11015.4,13294.5L10474,13294.5L9935.43,13294.5L9666.14,13025.2L9396.85,12755.9L9141.73,12755.9L8886.61,12755.9L7823.62,11692.9C6786.14,10655.4 6757.8,10629.9 6650.08,10629.9C6584.88,10629.9 6516.85,10649.8 6485.67,10678.1C6443.15,10715 6420.47,10720.6 6383.62,10698C6312.76,10652.6 6304.25,10525 6372.28,10505.2C6434.65,10485.4 6519.69,10510.9 6519.69,10547.7C6519.69,10561.9 6579.21,10573.2 6655.75,10573.2L6788.98,10573.2L8943.31,12727.6L9425.2,12727.6L9935.43,13237.8L11043.8,13237.8L11196.9,13393.7C11281.9,13478.7 11369.8,13549.6 11395.3,13549.6C11505.8,13549.6 11548.3,13697 11454.8,13748C11381.1,13787.7 11375.4,13784.9 11327.2,13714Z" style="fill:rgb(226,238,255);fill-rule:nonzero;"/>
                <path id="path3356" d="M11196.9,13337L11072.1,13209.4L10533.5,13209.4L9992.13,13209.4L9731.34,12948.7L9467.72,12685L9215.43,12676.5L8965.98,12665.2L7778.27,11477.5C7126.3,10825.5 6576.38,10289.8 6559.37,10289.8C6539.53,10289.8 6516.85,10309.6 6508.35,10335.1C6497.01,10363.5 6465.83,10374.8 6414.8,10369.1C6346.77,10360.6 6335.43,10346.5 6335.43,10275.6C6335.43,10204.7 6346.77,10190.6 6414.8,10182C6465.83,10176.4 6497.01,10187.7 6508.35,10216.1C6516.85,10241.6 6548.03,10261.4 6573.54,10261.4C6599.06,10261.4 7154.65,10797.2 7809.45,11452L9000,12642.5L9510.24,12642.5L10020.5,13152.8L11072.1,13152.8L11196.9,13280.3C11313.1,13399.4 11332.9,13407.9 11466.1,13407.9C11627.7,13407.9 11721.3,13339.8 11741.1,13209.4C11746.8,13152.8 11766.6,13138.6 11831.8,13138.6C11933.9,13138.6 11990.6,13212.3 11936.7,13277.5C11914,13303 11871.5,13322.8 11837.5,13322.8C11800.6,13322.8 11743.9,13354 11707.1,13393.7C11650.4,13453.2 11613.5,13464.6 11480.3,13464.6C11330.1,13464.6 11315.9,13458.9 11196.9,13337Z" style="fill:rgb(226,238,255);fill-rule:nonzero;"/>
                <path id="path3360" d="M11313.1,13274.6C11279.1,13246.3 11213.9,13195.3 11168.5,13161.3C11109,13110.2 11052.3,13096.1 10936.1,13096.1C10851,13096.1 10768.8,13081.9 10749,13062C10729.1,13042.2 10715,12948.7 10715,12838.1C10715,12665.2 10706.5,12639.7 10641.3,12588.7C10573.2,12534.8 10527.9,12529.1 10119.7,12529.1C9756.85,12529.1 9666.14,12520.6 9637.8,12486.6C9612.28,12455.4 9538.58,12444.1 9328.82,12444.1L9056.69,12444.1L7928.5,11315.9C6874.02,10261.4 6803.15,10184.9 6803.15,10091.3C6803.15,10000.6 6766.3,9955.27 6440.32,9629.29L6080.32,9269.29L4986.14,9269.29L3891.97,9269.29L3829.61,9337.32C3792.76,9377.01 3772.91,9419.53 3781.42,9436.53C3809.76,9481.89 3747.4,9581.1 3690.71,9581.1C3577.32,9581.1 3529.13,9436.53 3625.51,9385.51C3653.86,9368.5 3682.2,9362.84 3690.71,9368.5C3696.38,9377.01 3738.9,9342.99 3784.25,9297.64L3866.46,9212.6L6108.66,9212.6L6485.67,9589.61C6840,9943.94 6859.84,9969.45 6859.84,10077.2C6859.84,10187.7 6879.69,10210.4 7956.85,11287.6L9056.69,12387.4L9328.82,12387.4C9564.09,12387.4 9606.61,12395.9 9651.97,12444.1C9700.16,12495.1 9739.84,12500.8 10162.2,12500.8L10618.6,12500.8L10695.1,12580.2C10760.3,12648.2 10771.7,12685 10771.7,12829.6C10771.7,12923.1 10785.8,13013.9 10805.7,13033.7C10825.5,13053.5 10910.6,13067.7 10995.6,13067.7C11114.6,13067.7 11165.7,13081.9 11216.7,13130.1C11279.1,13189.6 11284.7,13189.6 11318.7,13141.4C11392.4,13039.4 11556.9,13152.8 11491.7,13260.5C11449.1,13328.5 11392.4,13334.2 11313.1,13274.6Z" style="fill:rgb(226,238,255);fill-rule:nonzero;"/>
                <path id="path3366" d="M12024.6,13062C11979.2,13016.7 11982,12968.5 12033.1,12926C12092.6,12875 12086.9,12690.7 12024.6,12634C11982,12594.3 11911.2,12585.8 11675.9,12585.8L11381.1,12585.8L11154.3,12359.1L10927.6,12132.3L10386.1,12132.3C9875.91,12132.3 9841.89,12129.4 9793.7,12075.6C9745.51,12021.7 9708.66,12016.1 9473.39,12021.7L9206.93,12027.4L8203.46,11023.9C7219.84,10040.3 7200,10017.6 7200,9907.09C7200,9796.53 7180.16,9773.86 6230.55,8824.25C5320.63,7914.33 5252.6,7851.97 5159.06,7851.97C5074.02,7851.97 5031.5,7826.46 4878.43,7670.55C4750.87,7540.16 4685.67,7494.8 4645.98,7503.31C4575.12,7523.15 4507.09,7463.62 4507.09,7384.25C4507.09,7296.38 4575.12,7245.35 4662.99,7268.03C4728.19,7285.04 4748.03,7327.56 4733.86,7423.94C4731.02,7446.61 4810.39,7545.83 4906.77,7642.2C5068.35,7806.61 5096.69,7823.62 5201.57,7823.62C5312.13,7823.62 5331.97,7840.63 6287.24,8795.91C7236.85,9745.51 7256.69,9768.19 7256.69,9878.74C7256.69,9989.29 7276.53,10012 8257.32,10992.8L9255.12,11990.6L9527.24,11990.6C9737.01,11990.6 9810.71,12001.9 9836.22,12033.1C9864.57,12067.1 9963.78,12075.6 10400.3,12075.6L10927.6,12075.6L11381.1,12529.1L11678.7,12529.1C11970.7,12529.1 11982,12532 12055.7,12608.5C12109.6,12665.2 12132.3,12719.1 12132.3,12792.8C12132.3,12849.4 12143.6,12897.6 12157.8,12897.6C12194.6,12897.6 12223,12994 12200.3,13050.7C12180.5,13104.6 12072.8,13110.2 12024.6,13062Z" style="fill:rgb(226,238,255);fill-rule:nonzero;"/>
                <path id="path3370" d="M11216.7,12960C11188.3,12928.8 11168.5,12860.8 11168.5,12795.6C11168.5,12696.4 11148.7,12665.2 10989.9,12506.5L10811.3,12330.7L10284.1,12330.7C9850.39,12330.7 9751.18,12322.2 9722.83,12288.2C9697.32,12257 9623.62,12245.7 9413.86,12245.7L9141.73,12245.7L8070.24,11174.2C7069.61,10173.5 7001.57,10099.8 7001.57,10006.3C7001.57,9915.59 6961.89,9867.4 6567.87,9473.39L6137.01,9042.52L5876.22,9042.52L5618.27,9042.52L5218.58,8651.34L4818.9,8260.16L4818.9,8101.42C4818.9,7928.5 4767.87,7851.97 4645.98,7851.97C4558.11,7851.97 4507.09,7803.78 4507.09,7724.41C4507.09,7647.87 4558.11,7596.85 4637.48,7596.85C4719.69,7596.85 4773.54,7664.88 4750.87,7747.09C4739.53,7795.28 4753.7,7832.13 4804.72,7880.32C4861.42,7934.17 4875.59,7973.86 4875.59,8090.08L4875.59,8234.65L5626.77,8985.83L6165.35,8985.83L6599.06,9419.53C7010.08,9830.55 7029.92,9856.06 7029.92,9963.78C7029.92,10074.3 7052.6,10097 8101.42,11145.8L9170.08,12217.3L9442.2,12217.3C9651.97,12217.3 9725.67,12228.7 9751.18,12259.8C9779.53,12293.9 9881.58,12302.4 10329.4,12302.4L10873.7,12302.4L11035.3,12466.8C11182.7,12617 11196.9,12639.7 11196.9,12758.7C11196.9,12829.6 11211,12900.5 11230.9,12920.3C11250.7,12940.2 11344.3,12954.3 11452,12954.3C11656.1,12954.3 11755.3,12897.6 11718.4,12801.3C11678.7,12699.2 11831.8,12625.5 11905.5,12713.4C11953.7,12772.9 11914,12869.3 11837.5,12869.3C11803.5,12869.3 11743.9,12900.5 11707.1,12940.2C11650.4,13002.5 11616.4,13011 11452,13011C11304.6,13011 11250.7,12999.7 11216.7,12960Z" style="fill:rgb(226,238,255);fill-rule:nonzero;"/>
                <path id="path3374" d="M10442.8,12829.6C10428.7,12792.8 10366.3,12784.3 10080,12784.3L9734.17,12784.3L9623.62,12670.9L9513.07,12557.5L9255.12,12557.5L9000,12557.5L7843.46,11400.9C6706.77,10264.3 6689.76,10244.4 6689.76,10133.9C6689.76,10031.8 6672.76,10000.6 6539.53,9870.24L6389.29,9722.84L5779.84,9722.84L5167.56,9722.84L5105.2,9654.8C5068.35,9615.12 5005.98,9581.1 4966.3,9575.43C4813.23,9555.59 4821.73,9382.68 4977.64,9382.68C5028.66,9382.68 5048.5,9402.52 5062.68,9462.05C5074.02,9504.57 5113.7,9572.6 5153.39,9617.95L5227.09,9694.49L6451.65,9694.49L6584.88,9830.55C6698.27,9946.77 6718.11,9983.62 6718.11,10077.2C6718.11,10187.7 6740.79,10213.2 7888.82,11361.3L9056.69,12529.1L9569.76,12529.1L9790.87,12755.9L10097,12755.9C10366.3,12755.9 10408.8,12750.2 10459.8,12699.2C10539.2,12619.8 10638.4,12668 10624.3,12778.6C10618.6,12838.1 10598.7,12858 10536.4,12863.6C10485.4,12869.3 10454.2,12858 10442.8,12829.6Z" style="fill:rgb(226,238,255);fill-rule:nonzero;"/>
                <path id="path3376" d="M10885,12826.8C10853.9,12789.9 10853.9,12770.1 10879.4,12733.2C10950.2,12636.9 10947.4,12608.5 10868,12526.3L10788.7,12444.1L10244.4,12444.1C9796.53,12444.1 9694.49,12435.6 9666.14,12401.6C9640.63,12370.4 9566.93,12359.1 9371.34,12359.1L9113.39,12359.1L7999.37,11245C6905.2,10150.9 6888.19,10131 6888.19,10020.5C6888.19,9912.76 6868.35,9887.24 6511.18,9530.08L6137.01,9155.91L5867.72,9155.91L5598.43,9155.91L5159.06,8716.53C4779.21,8333.86 4711.18,8280 4623.31,8271.5C4529.76,8262.99 4521.26,8254.49 4512.76,8172.28C4504.25,8095.75 4515.59,8073.07 4575.12,8044.72C4637.48,8019.21 4657.32,8022.05 4708.35,8067.4C4745.2,8098.58 4759.37,8141.1 4750.87,8177.95C4739.53,8223.31 4824.57,8325.35 5167.56,8668.35L5598.43,9099.21L6137.01,9099.21L6542.36,9504.57C6925.04,9887.24 6944.88,9912.76 6944.88,10020.5C6944.88,10131 6964.72,10153.7 8030.55,11219.5L9113.39,12302.4L9362.84,12302.4C9572.6,12302.4 9626.46,12310.9 9685.98,12359.1C9754.02,12410.1 9802.2,12415.7 10286.9,12415.7L10817,12415.7L10907.7,12509.3C10958.7,12560.3 10998.4,12611.3 10998.4,12625.5C10998.4,12636.9 11018.3,12665.2 11043.8,12690.7C11066.5,12716.2 11083.5,12761.6 11077.8,12795.6C11066.5,12872.1 10938.9,12892 10885,12826.8Z" style="fill:rgb(226,238,255);fill-rule:nonzero;"/>
                <path id="path3378" d="M11313.1,12818.3C11296.1,12787.1 11290.4,12755.9 11301.7,12747.4C11310.2,12736.1 11219.5,12619.8 11097.6,12486.6L10879.4,12245.7L10332.3,12245.7C9824.88,12245.7 9785.2,12242.8 9737.01,12189C9691.65,12140.8 9649.13,12132.3 9428.03,12132.3L9170.08,12132.3L8141.1,11103.3C7134.8,10094.2 7114.96,10074.3 7114.96,9963.78C7114.96,9853.23 7095.12,9830.55 6624.57,9360L6137.01,8872.44L5966.93,8872.44L5796.85,8872.44L5445.35,8520.94C5249.76,8325.35 5082.52,8172.28 5068.35,8180.79C5057.01,8189.29 5020.16,8180.79 4988.98,8163.78C4906.77,8118.43 4912.44,7971.02 4997.48,7939.84C5091.02,7902.99 5173.23,7965.35 5173.23,8075.9C5173.23,8149.61 5224.25,8214.8 5499.21,8489.76L5825.2,8815.75L6165.35,8815.75L7171.65,9822.05L7171.65,10077.2L9170.08,12075.6L9442.2,12075.6C9677.48,12075.6 9720,12084.1 9765.35,12132.3C9813.54,12186.1 9853.23,12189 10343.6,12189L10870.9,12189L11111.8,12429.9C11264.9,12583 11375.4,12670.9 11420.8,12676.5C11483.1,12682.2 11494.5,12699.2 11494.5,12770.1C11494.5,12840.9 11483.1,12858 11418,12863.6C11366.9,12869.3 11332.9,12855.1 11313.1,12818.3Z" style="fill:rgb(226,238,255);fill-rule:nonzero;"/>
                <path id="path3382" d="M7999.37,12778.6C7979.53,12758.7 7965.35,12730.4 7965.35,12713.4C7965.35,12699.2 7662.05,12381.7 7290.71,12010.4L6618.9,11338.6L6321.26,11338.6L6023.62,11338.6L5343.31,10658.3L4662.99,9977.95L4025.2,9977.95L3387.4,9977.95L2848.82,9439.37L2310.24,8900.79L2125.98,8900.79L1941.73,8900.79L1536.38,8495.43L1133.86,8092.91L1133.86,6803.15L1133.86,5513.39L856.063,5235.59L581.102,4960.63L289.134,4960.63C51.024,4960.63 0,4952.13 0,4918.11C0,4884.09 51.024,4875.59 291.968,4875.59L581.102,4875.59L1218.9,5513.39L1218.9,8064.57L1610.08,8452.91L1998.42,8838.43L2330.08,8838.43L2860.16,9365.67L3387.4,9892.91L4691.34,9892.91L6080.32,11281.9L6675.59,11281.9L7341.73,11948C7812.28,12418.6 8022.05,12608.5 8053.23,12600C8078.74,12591.5 8121.26,12605.7 8146.77,12628.3C8200.63,12682.2 8200.63,12687.9 8163.78,12758.7C8129.76,12818.3 8050.39,12829.6 7999.37,12778.6Z" style="fill:rgb(226,238,255);fill-rule:nonzero;"/>
                <path id="path3396" d="M7871.81,12384.6C7820.79,12353.4 7806.61,12231.5 7851.97,12203.1C7868.98,12194.6 7880.32,12132.3 7880.32,12067.1C7880.32,11950.9 7868.98,11936.7 7361.57,11429.3L6845.67,10913.4L6377.95,10913.4L5910.24,10913.4L5343.31,10346.5L4776.38,9779.53L4124.41,9779.53L3469.61,9779.53L3279.68,9586.77L3089.76,9394.02L3089.76,9138.9C3089.76,8977.32 3101.1,8872.44 3123.78,8849.76C3149.29,8824.25 3373.23,8815.75 3960,8815.75C4728.19,8815.75 4762.2,8812.91 4762.2,8761.89C4762.2,8733.54 4742.36,8699.53 4716.85,8691.02C4691.34,8682.52 4076.22,8674.02 3347.72,8674.02C1947.4,8674.02 1955.9,8674.02 1955.9,8543.62C1955.9,8399.06 2006.93,8390.55 3013.23,8390.55C3883.47,8390.55 3942.99,8387.72 3934.49,8342.36C3925.98,8294.17 3846.61,8291.34 2792.13,8282.84L1658.27,8277.17L1510.87,8129.76L1360.63,7982.36L1360.63,7724.41C1360.63,7562.84 1371.97,7455.12 1394.65,7432.44C1420.16,7406.93 1700.79,7398.43 2483.15,7398.43C3186.14,7398.43 3546.14,7389.92 3557.48,7370.08C3568.82,7353.07 3560.32,7321.89 3543.31,7299.21C3512.13,7262.36 3342.05,7256.69 2454.8,7256.69C1340.79,7256.69 1332.28,7256.69 1332.28,7126.3C1332.28,6976.06 1354.96,6973.23 2712.76,6973.23C3551.81,6973.23 3971.34,6964.72 3982.68,6944.88C3994.02,6927.87 3985.51,6896.69 3968.5,6874.02C3940.16,6840 3736.06,6831.5 2687.24,6831.5C1791.5,6831.5 1428.66,6822.99 1400.32,6800.32C1340.79,6752.13 1352.13,6641.57 1422.99,6593.39C1479.68,6553.7 1663.94,6548.03 2880,6548.03C3645.35,6548.03 4277.48,6539.53 4288.82,6531.02C4297.32,6522.52 4297.32,6497.01 4288.82,6474.33C4277.48,6440.32 4045.04,6434.65 2845.98,6434.65L1417.32,6434.65L1371.97,6363.78C1329.45,6298.58 1329.45,6287.24 1371.97,6222.05L1417.32,6151.18L4705.51,6151.18L4705.51,6080.32L4705.51,6009.45L3067.09,6009.45C1454.17,6009.45 1425.83,6009.45 1374.8,5952.76C1332.28,5907.4 1326.61,5879.06 1349.29,5816.69L1374.8,5740.16L3033.07,5725.98L4691.34,5711.81L4699.84,5649.45L4708.35,5584.25L3064.25,5584.25C1607.24,5584.25 1417.32,5578.58 1377.64,5538.9C1326.61,5490.71 1320.94,5419.84 1360.63,5357.48C1383.31,5320.63 1612.91,5312.13 3038.74,5300.79C4668.66,5286.61 4691.34,5286.61 4691.34,5229.92C4691.34,5173.23 4668.66,5173.23 3052.91,5164.72L1414.49,5159.06L1383.31,5088.19C1360.63,5034.33 1360.63,5000.32 1383.31,4946.46L1414.49,4875.59L3052.91,4869.92C4668.66,4861.42 4691.34,4861.42 4691.34,4804.72C4691.34,4748.03 4668.66,4748.03 2347.09,4739.53C813.543,4736.69 0,4722.52 0,4705.51C0,4685.67 816.378,4677.16 2366.93,4677.16C4677.16,4677.16 4733.86,4677.16 4762.2,4731.02C4801.89,4810.39 4799.06,4838.74 4733.86,4903.94C4677.16,4960.63 4640.32,4960.63 3061.42,4960.63C1465.51,4960.63 1445.67,4960.63 1445.67,5017.32C1445.67,5074.02 1465.51,5074.02 3055.75,5074.02C4464.57,5074.02 4671.5,5079.69 4728.19,5119.37C4799.06,5167.56 4810.39,5278.11 4750.87,5326.3C4722.52,5348.98 4266.14,5357.48 3109.61,5357.48C2225.2,5357.48 1485.35,5365.98 1459.84,5374.49C1437.16,5382.99 1417.32,5417.01 1417.32,5445.35C1417.32,5496.38 1465.51,5499.21 3041.58,5499.21C4481.57,5499.21 4671.5,5504.88 4728.19,5544.57C4816.06,5604.09 4801.89,5725.98 4705.51,5774.17C4651.65,5802.52 4260.47,5811.02 3027.4,5811.02C1437.16,5811.02 1417.32,5811.02 1417.32,5867.72C1417.32,5924.41 1437.16,5924.41 3058.58,5924.41C4515.59,5924.41 4705.51,5930.08 4745.2,5969.76C4801.89,6023.62 4804.72,6134.17 4753.7,6176.69C4725.35,6199.37 4229.29,6210.71 3072.76,6213.54L1431.5,6222.05L1422.99,6284.41L1414.49,6346.77L2862.99,6355.28C4422.05,6363.78 4362.52,6358.11 4365.35,6508.35C4365.35,6633.07 4371.02,6633.07 2871.5,6633.07L1445.67,6633.07L1445.67,6774.8L2715.59,6774.8C3665.2,6774.8 3994.02,6783.31 4019.53,6808.82C4064.88,6854.17 4062.05,6987.4 4016.69,7027.09C3988.35,7046.93 3585.83,7061.1 2704.25,7063.94C1454.17,7072.44 1431.5,7072.44 1431.5,7129.13C1431.5,7185.83 1454.17,7185.83 2508.66,7200L3582.99,7214.17L3619.84,7285.04C3648.19,7341.73 3648.19,7367.24 3617.01,7412.6C3580.16,7466.46 3546.14,7469.29 2511.5,7477.8L1445.67,7483.46L1445.67,7982.36L1661.1,8192.13L2806.3,8197.8L3951.5,8206.3L3996.85,8282.84C4028.03,8342.36 4030.87,8373.54 4008.19,8410.39C3979.84,8458.58 3897.64,8461.42 3016.06,8469.92C2043.78,8475.59 1967.24,8484.09 2046.61,8580.47C2069.29,8608.82 2361.26,8617.32 3415.75,8617.32C4674.33,8617.32 4756.53,8620.16 4799.06,8668.35C4861.42,8736.38 4858.58,8795.91 4796.22,8852.6C4750.87,8895.12 4640.32,8900.79 3951.5,8906.46L3160.63,8914.96L3152.13,9124.72L3143.62,9337.32L3322.2,9515.91L3497.95,9694.49L4804.72,9694.49L5938.58,10828.3L6874.02,10828.3L7965.35,11919.7L7965.35,12052.9C7965.35,12126.6 7979.53,12194.6 7993.7,12203.1C8010.71,12211.7 8022.05,12251.3 8022.05,12288.2C8022.05,12370.4 7942.68,12421.4 7871.81,12384.6Z" style="fill:rgb(226,238,255);fill-rule:nonzero;"/>
                <path id="path3398" d="M11712.8,12265.5L11565.4,12115.3L11565.4,11437.8L11565.4,10757.5L11318.7,10510.9L11069.3,10261.4L10811.3,10261.4C10590.2,10261.4 10547.7,10252.9 10502.4,10204.7C10457,10153.7 10414.5,10148 10057.3,10148L9663.31,10148L9025.51,9518.74L8390.55,8892.28L8390.55,7982.36L8390.55,7072.44L7341.73,6023.62L6292.91,4974.8L6292.91,4733.86L6292.91,4492.91L5839.37,4039.37L5385.83,3585.83L5385.83,3146.46L5385.83,2707.09L5825.2,2267.72L6264.57,1828.35L6264.57,1584.57C6264.57,1369.13 6258.9,1335.12 6199.37,1281.26C6151.18,1233.07 6097.32,1218.9 5992.44,1218.9L5853.54,1218.9L5309.29,1763.15L4762.2,2310.24L4762.2,4376.69L4685.67,4456.06L4609.13,4535.43L2304.57,4535.43C274.961,4535.43 0,4529.76 0,4492.91C0,4456.06 272.126,4450.39 2290.39,4450.39C4475.9,4450.39 4586.46,4447.56 4628.98,4399.37C4671.5,4351.18 4677.16,4234.96 4677.16,3313.7L4677.16,2281.89L5252.6,1706.46L5825.2,1133.86L5998.11,1133.86C6154.02,1133.86 6176.69,1142.36 6258.9,1227.4C6346.77,1318.11 6349.61,1326.61 6349.61,1590.24L6349.61,1856.69L5910.24,2296.06L5470.87,2735.43L5470.87,3585.83L6377.95,4492.91L6377.95,4974.8L8475.59,7072.44L8475.59,8858.27L9708.66,10091.3L10108.3,10091.3C10471.2,10091.3 10513.7,10097 10559.1,10148C10601.6,10196.2 10646.9,10204.7 10853.9,10204.7L11097.6,10204.7L11622,10729.1L11622,12064.3L11894.2,12330.7L12772.9,12330.7C13592.1,12330.7 13657.3,12327.9 13699.8,12279.7C13739.5,12234.3 13748,12157.8 13748,11797.8C13748,11534.2 13759.4,11341.4 13782,11296.1L13813.2,11225.2L15576.4,11225.2C17302.7,11225.2 17339.5,11225.2 17390.6,11168.5C17438.7,11117.5 17478.4,11111.8 17869.6,11111.8L18300.5,11111.8L18447.9,11262C18586.8,11400.9 18595.3,11420.8 18595.3,11554C18595.3,11684.4 18603.8,11704.3 18731.3,11829L18867.4,11962.2L19547.7,11962.2L19629.9,11877.2C19703.6,11800.6 19729.1,11792.1 19885,11792.1C20023.9,11792.1 20072.1,11780.8 20111.8,11735.4C20148.7,11692.9 20199.7,11678.7 20296.1,11678.7C20446.3,11678.7 20522.8,11619.2 20522.8,11505.8C20522.8,11423.6 20571,11366.9 20639.1,11366.9C20763.8,11366.9 20780.8,11571 20656.1,11610.7C20622,11622 20556.9,11658.9 20514.3,11695.7C20457.6,11743.9 20398.1,11763.8 20313.1,11763.8C20228,11763.8 20177,11780.8 20140.2,11820.5C20100.5,11865.8 20052.3,11877.2 19913.4,11877.2C19757.5,11877.2 19732,11885.7 19658.3,11962.2L19576.1,12047.2L19204.7,12047.2L18833.4,12047.2L18671.8,11882.8C18518.7,11729.8 18510.2,11712.8 18510.2,11579.5C18510.2,11454.8 18498.9,11429.3 18391.2,11318.7L18272.1,11196.9L17855.4,11196.9C17475.6,11196.9 17438.7,11202.5 17390.6,11253.5C17339.5,11310.2 17308.3,11310.2 15613.2,11310.2C14663.6,11310.2 13875.6,11315.9 13861.4,11324.4C13844.4,11335.7 13833.1,11539.8 13833.1,11803.5L13833.1,12262.7L13753.7,12339.2L13674.3,12415.7L12767.2,12415.7L11860.2,12415.7L11712.8,12265.5Z" style="fill:rgb(226,238,255);fill-rule:nonzero;"/>
                <path id="path3414" d="M12038.7,11826.1L11735.4,11522.8L11735.4,11111.8L11735.4,10700.8L11443.5,10408.8L11154.3,10119.7L10924.7,10119.7C10709.3,10119.7 10692.3,10114 10615.7,10034.6L10533.5,9949.61L10136.7,9949.61L9737.01,9949.61L9161.58,9374.17L8588.98,8801.58L8588.98,7894.49L8588.98,6987.4L7540.16,5938.58L6491.34,4889.76L6491.34,4662.99L6491.34,4436.22L6037.8,3982.68L5584.25,3529.13L5584.25,3188.98L5584.25,2848.82L6023.62,2409.45L6462.99,1970.08L6462.99,1615.75L6462.99,1258.58L6326.93,1125.35L6190.87,992.126L5966.93,992.126L5740.16,992.126L5153.39,1578.9L4563.78,2168.5L4563.78,3174.8C4563.78,4042.2 4558.11,4192.44 4518.43,4246.3L4475.9,4308.66L2236.53,4308.66C765.354,4308.66 0,4300.16 0,4280.32C0,4260.47 754.016,4251.97 2205.35,4251.97C3883.47,4251.97 4419.21,4243.47 4444.72,4217.95C4470.24,4192.44 4478.74,3920.32 4478.74,3160.63L4478.74,2140.16L5096.69,1522.2L5711.81,907.087L6219.21,907.087L6548.03,1230.24L6548.03,1970.08L6105.83,2412.28L5663.62,2857.32L5666.46,3177.64L5672.13,3500.79L6122.84,3954.33L6576.38,4407.87L6576.38,4861.42L7625.2,5910.24L8674.02,6961.89L8674.02,8773.23L9765.35,9864.57L10561.9,9864.57L10644.1,9949.61C10720.6,10029 10737.6,10034.6 10955.9,10034.6L11182.7,10034.6L11820.5,10672.4L11820.5,11494.5L12401.6,12075.6L12917.5,12075.6C13200.9,12075.6 13450.4,12067.1 13475.9,12058.6C13515.6,12044.4 13521.3,11982 13521.3,11653.2L13521.3,11264.9L13671.5,11117.5L13821.7,10970.1L15548,10970.1C16993.7,10967.2 17288.5,10961.6 17348,10927.6C17401.9,10896.4 17538,10887.9 17900.8,10885L18382.7,10885L18603.8,11106.1C18819.2,11321.6 18822,11327.2 18822,11469C18822,11596.5 18833.4,11622 18929.8,11715.6L19037.5,11820.5L19292.6,11820.5C19539.2,11820.5 19550.6,11817.6 19629.9,11735.4C19700.8,11661.7 19732,11650.4 19862.4,11650.4C19987.1,11650.4 20015.4,11639.1 20046.6,11588C20066.5,11551.2 20077.8,11505.8 20072.1,11486C20052.3,11383.9 20239.4,11321.6 20290.4,11412.3C20332.9,11488.8 20296.1,11568.2 20208.2,11585.2C20165.7,11593.7 20100.5,11630.6 20066.5,11667.4C20018.3,11721.3 19972.9,11735.4 19870.9,11735.4C19766,11735.4 19726.3,11749.6 19672.4,11806.3C19610.1,11874.3 19590.2,11877.2 19289.8,11877.2L18975.1,11877.2L18856.1,11755.3C18748.3,11644.7 18737,11622 18737,11491.7C18737,11355.6 18731.3,11344.3 18544.3,11160L18351.5,10967.2L17855.4,10984.3C17583.3,10992.8 16571.3,11006.9 15604.7,11012.6L13847.2,11026.8L13728.2,11145.8L13606.3,11264.9L13606.3,11653.2C13606.3,11990.6 13600.6,12044.4 13555.3,12084.1C13509.9,12126.6 13422,12132.3 12923.1,12132.3L12344.9,12132.3L12038.7,11826.1Z" style="fill:rgb(226,238,255);fill-rule:nonzero;"/>
                <path id="path3418" d="M10454.2,11962.2C10420.2,11908.3 10386.1,11905.5 9836.22,11905.5L9255.12,11905.5L8282.84,10933.2C7378.58,10029 7313.39,9958.11 7313.39,9864.57C7313.39,9771.02 7248.19,9697.32 6312.76,8764.72C5331.97,7783.94 5312.13,7766.93 5201.57,7766.93C5102.36,7766.93 5068.35,7749.92 4952.13,7630.87C4838.74,7514.65 4818.9,7480.63 4818.9,7381.42C4818.9,7157.48 4594.96,7092.28 4427.72,7265.2L4337.01,7358.74L4337.01,7684.72C4337.01,7976.69 4342.68,8019.21 4393.7,8064.57C4464.57,8129.76 4464.57,8197.8 4396.53,8260.16C4280.32,8365.04 4130.08,8197.8 4234.96,8081.57C4271.81,8041.89 4280.32,7965.35 4280.32,7693.23L4280.32,7353.07L4388.03,7248.19C4484.41,7154.65 4512.76,7143.31 4637.48,7143.31C4818.9,7143.31 4875.59,7197.16 4875.59,7372.91C4875.59,7483.46 4889.76,7514.65 4983.31,7605.35C5074.02,7693.23 5110.87,7710.24 5215.75,7710.24L5343.31,7710.24L6355.28,8722.2C7353.07,9720 7370.08,9739.84 7370.08,9850.39C7370.08,9960.94 7387.09,9980.79 8314.02,10907.7L9255.12,11848.8L9830.55,11848.8C10306.8,11848.8 10414.5,11840.3 10448.5,11806.3C10510.9,11746.8 10621.4,11752.4 10658.3,11817.6C10698,11894.2 10695.1,11922.5 10641.3,11973.5C10581.7,12035.9 10496.7,12030.2 10454.2,11962.2Z" style="fill:rgb(226,238,255);fill-rule:nonzero;"/>
                <path id="path3420" d="M10757.5,11863L10595.9,11707.1L9898.58,11707.1L9198.43,11707.1L8311.18,10819.8C7446.61,9955.27 7426.77,9932.6 7426.77,9822.05C7426.77,9711.5 7406.93,9688.82 6397.8,8679.68C5833.7,8115.59 5351.81,7653.54 5326.3,7653.54C5303.62,7653.54 5252.6,7619.53 5212.91,7579.84C5176.06,7540.16 5125.04,7514.65 5096.69,7520.32C5071.18,7528.82 5022.99,7514.65 4991.81,7491.97C4886.93,7421.1 4932.28,7285.04 5059.84,7285.04C5139.21,7285.04 5187.4,7338.9 5187.4,7426.77C5187.4,7514.65 5263.94,7596.85 5346.14,7596.85C5380.16,7596.85 5788.35,7985.2 6428.98,8625.83C7435.28,9632.13 7455.12,9654.8 7455.12,9765.35C7455.12,9875.91 7474.96,9898.58 8342.36,10766L9226.77,11650.4L10612.9,11650.4L10723.5,11758.1C10819.8,11851.7 10834,11857.3 10859.5,11814.8C10899.2,11741.1 11043.8,11749.6 11083.5,11823.3C11123.1,11897 11052.3,12018.9 10970.1,12018.9C10941.7,12018.9 10845.4,11948 10757.5,11863Z" style="fill:rgb(226,238,255);fill-rule:nonzero;"/>
                <path id="path3422" d="M11267.7,11950.9C11245,11914 11230.9,11863 11242.2,11837.5C11276.2,11749.6 11199.7,11707.1 11015.4,11707.1C10802.8,11707.1 10715,11639.1 10715,11477.5C10715,11409.4 10695.1,11355.6 10649.8,11315.9C10587.4,11256.4 10559.1,11253.5 10003.5,11253.5L9425.2,11253.5L7999.37,9827.72L6576.38,8404.72L6576.38,8268.66C6576.38,8194.96 6562.2,8135.43 6548.03,8135.43C6531.02,8135.43 6502.68,8104.25 6485.67,8064.57C6460.16,8005.04 6462.99,7985.2 6505.51,7937.01C6573.54,7860.47 6650.08,7866.14 6703.94,7948.35C6740.79,8002.2 6743.62,8030.55 6718.11,8075.9C6701.1,8109.92 6675.59,8135.43 6661.42,8135.43C6644.41,8135.43 6633.07,8194.96 6633.07,8271.5L6633.07,8404.72L9425.2,11196.9L10612.9,11196.9L10692.3,11273.4C10754.6,11332.9 10771.7,11375.4 10771.7,11466.1C10771.7,11528.5 10785.8,11596.5 10805.7,11616.4C10825.5,11636.2 10916.2,11650.4 11012.6,11650.4C11151.5,11650.4 11199.7,11661.7 11239.4,11707.1C11267.7,11738.3 11327.2,11763.8 11369.8,11763.8C11491.7,11763.8 11548.3,11891.3 11463.3,11973.5C11400.9,12038.7 11318.7,12030.2 11267.7,11950.9Z" style="fill:rgb(226,238,255);fill-rule:nonzero;"/>
                <path id="path3432" d="M10448.5,11522.8C10414.5,11488.8 10312.4,11480.3 9887.24,11480.3L9368.5,11480.3L8679.68,10791.5C8090.08,10201.9 7979.53,10102.7 7920,10114C7795.28,10136.7 7713.07,9986.46 7800.94,9898.58C7880.32,9819.21 8022.05,9878.74 8022.05,9989.29C8024.88,10029 8268.66,10298.3 8696.69,10737.6L9368.5,11423.6L9887.24,11423.6C10386.1,11423.6 10411.7,11420.8 10457,11361.3C10556.2,11239.4 10734.8,11366.9 10658.3,11508.7C10621.4,11576.7 10510.9,11585.2 10448.5,11522.8Z" style="fill:rgb(226,238,255);fill-rule:nonzero;"/>
                <path id="path3434" d="M10856.7,11505.8C10836.9,11474.6 10831.2,11426.5 10842.5,11400.9C10868,11335.7 10666.8,11140.2 10573.2,11140.2C10522.2,11140.2 10454.2,11092 10346.5,10984.3L10193.4,10828.3L9751.18,10828.3L9311.81,10828.3L8509.61,10026.1L7710.24,9226.77L7710.24,8883.78L7710.24,8540.79L7469.29,8294.17L7228.35,8050.39L7228.35,7630.87L7228.35,7211.34L7035.59,7021.42C6896.69,6885.35 6822.99,6831.5 6769.13,6831.5C6675.59,6831.5 6621.73,6766.3 6644.41,6675.59C6664.25,6593.39 6783.31,6550.87 6845.67,6604.72C6868.35,6624.57 6888.19,6681.26 6888.19,6729.45C6888.19,6803.15 6925.04,6854.17 7086.61,7015.75L7285.04,7211.34L7285.04,8036.22L7766.93,8518.11L7766.93,9198.43L9340.16,10771.7L10193.4,10771.7L10346.5,10927.6C10448.5,11032.4 10522.2,11083.5 10570.4,11083.5C10610.1,11083.5 10686.6,11128.8 10760.3,11196.9C10834,11264.9 10910.6,11310.2 10953.1,11310.2C11077.8,11310.2 11140.2,11477.5 11043.8,11542.7C10984.3,11585.2 10887.9,11565.4 10856.7,11505.8Z" style="fill:rgb(226,238,255);fill-rule:nonzero;"/>
                <path id="path3436" d="M11247.9,11494.5C11222.4,11440.6 11222.4,11415.1 11247.9,11389.6C11273.4,11364.1 11270.6,11344.3 11233.7,11304.6C11199.7,11267.7 11145.8,11253.5 11029.6,11253.5L10870.9,11253.5L10601.6,10984.3L10332.3,10715L9850.39,10715L9368.5,10715L8594.65,9941.1L7823.62,9170.08L7823.62,8829.92L7823.62,8489.76L7582.68,8248.82L7341.73,8007.87L7341.73,7511.81L7341.73,7015.75L7092.28,6766.3C6910.87,6587.72 6825.83,6519.69 6771.97,6519.69C6686.93,6519.69 6633.07,6471.5 6633.07,6392.13C6633.07,6315.59 6684.09,6264.57 6760.63,6264.57C6840,6264.57 6888.19,6318.43 6888.19,6406.3C6888.19,6460.16 6950.55,6542.36 7129.13,6718.11L7370.08,6959.06L7370.08,7951.18L7880.32,8461.42L7880.32,9141.73L9396.85,10658.3L10360.6,10658.3L10899.2,11196.9L11058,11196.9C11177,11196.9 11228,11211 11264.9,11250.7C11290.4,11279.1 11349.9,11310.2 11395.3,11318.7C11554,11352.8 11528.5,11565.4 11364.1,11565.4C11301.7,11565.4 11273.4,11548.3 11247.9,11494.5Z" style="fill:rgb(226,238,255);fill-rule:nonzero;"/>
                <path id="path3448" d="M9986.46,11086.3C9943.94,11032.4 9904.25,11026.8 9651.97,11026.8L9368.5,11026.8L8481.26,10139.5L7596.85,9255.12L7596.85,8914.96L7596.85,8574.8L7171.65,8149.61L6746.46,7724.41L6746.46,7440.94C6746.46,7188.66 6740.79,7151.81 6689.76,7120.63C6582.05,7055.43 6633.07,6888.19 6760.63,6888.19C6888.19,6888.19 6933.54,7038.43 6831.5,7129.13C6783.31,7174.49 6774.8,7217.01 6774.8,7435.28L6774.8,7693.23L7653.54,8577.64L7653.54,9226.77L9402.52,10975.7L9674.65,10978.6C9904.25,10984.3 9949.61,10975.7 9975.12,10936.1C10020.5,10865.2 10136.7,10873.7 10187.7,10947.4C10278.4,11075 10088.5,11205.4 9986.46,11086.3Z" style="fill:rgb(226,238,255);fill-rule:nonzero;"/>
                <path id="path3450" d="M10899.2,11094.8C10870.9,11066.5 10859.5,11021.1 10868,10987.1C10879.4,10941.7 10845.4,10887.9 10723.5,10766L10561.9,10601.6L9992.13,10601.6L9425.2,10601.6L8679.68,9856.06L7937.01,9113.39L7937.01,8773.23L7937.01,8433.07L7681.89,8177.95L7426.77,7922.84L7426.77,7341.73L7426.77,6760.63L6808.82,6142.68L6193.7,5527.56L5794.02,5527.56L5397.16,5527.56L5306.46,5434.02C5229.92,5354.65 5215.75,5320.63 5215.75,5198.74C5215.75,5076.85 5227.09,5042.84 5300.79,4974.8C5348.98,4929.45 5382.99,4878.43 5377.32,4861.42C5354.65,4804.72 5417.01,4733.86 5485.04,4733.86C5584.25,4733.86 5632.44,4835.9 5567.24,4906.77C5538.9,4937.95 5496.38,4957.8 5468.03,4954.96C5439.69,4949.29 5385.83,4977.64 5346.14,5014.49C5244.09,5110.87 5241.26,5317.8 5337.64,5408.5C5400,5468.03 5431.18,5470.87 5813.86,5470.87L6222.05,5470.87L7455.12,6703.94L7455.12,7894.49L7965.35,8404.72L7965.35,9085.04L9425.2,10544.9L10561.9,10544.9L10729.1,10715C10853.9,10839.7 10919.1,10885 10972.9,10885C11055.1,10885 11140.2,10950.2 11140.2,11012.6C11140.2,11069.3 11060.8,11140.2 10998.4,11140.2C10970.1,11140.2 10924.7,11120.3 10899.2,11094.8Z" style="fill:rgb(226,238,255);fill-rule:nonzero;"/>
                <path id="path3452" d="M11310.2,11097.6C11290.4,11075 11281.9,11023.9 11287.6,10984.3C11298.9,10936.1 11281.9,10896.4 11236.5,10853.9C11182.7,10805.7 11168.5,10760.3 11168.5,10658.3C11168.5,10556.2 11154.3,10510.9 11103.3,10465.5C11038.1,10406 11018.3,10403.1 10286.9,10403.1L9538.58,10403.1L8835.59,9700.16L8135.43,9000L8135.43,8659.84L8135.43,8319.68L7894.49,8078.74L7653.54,7837.8L7653.54,7228.35L7653.54,6618.9L6859.84,5825.2L6066.14,5031.5L6066.14,4889.76C6066.14,4776.38 6054.8,4739.53 6006.61,4711.18C5938.58,4668.66 5944.25,4569.45 6015.12,4524.09C6120,4458.9 6233.39,4626.14 6137.01,4705.51C6111.5,4728.19 6094.49,4787.72 6094.49,4872.76L6094.49,5003.15L7710.24,6618.9L7710.24,7837.8L8192.13,8319.68L8192.13,9000L9538.58,10346.5L11066.5,10346.5L11145.8,10423C11213.9,10488.2 11225.2,10522.2 11225.2,10644.1C11225.2,10808.5 11279.1,10885 11398.1,10885C11528.5,10885 11582.4,11006.9 11491.7,11094.8C11435,11151.5 11355.6,11151.5 11310.2,11097.6Z" style="fill:rgb(226,238,255);fill-rule:nonzero;"/>
                <path id="path3456" d="M12557.5,10989.9C12557.5,10887.9 12418.6,10771.7 12299.5,10771.7C12189,10771.7 12075.6,10678.1 12075.6,10584.6C12072.8,10556.2 12055.7,10499.5 12033.1,10459.8C12007.6,10417.3 11993.4,10306.8 11990.6,10176.4L11990.6,9963.78L11741.1,9714.33L11494.5,9467.72L11310.2,9467.72L11123.1,9467.72L10919.1,9260.79L10715,9056.69L10715,8858.27L10715,8659.84L10119.7,8064.57L9524.41,7469.29L9524.41,7029.92L9524.41,6590.55L8914.96,5981.1L8302.68,5368.82L8305.51,3982.68L8305.51,2596.53L8115.59,2403.78C7979.53,2264.88 7902.99,2211.02 7851.97,2211.02C7798.11,2211.02 7715.9,2148.66 7545.83,1975.75L7313.39,1743.31L7313.39,1559.06L7313.39,1374.8L6950.55,1011.97L6590.55,651.968L6168.19,651.968L5745.83,651.968L5417.01,325.984L5088.19,0L7698.9,0L8087.24,391.181L8475.59,785.197L8475.59,2057.95L8787.4,2364.09L8787.4,5144.88L10034.6,6392.13L10034.6,7270.87L11225.2,8461.42L11225.2,8662.68C11225.2,8931.97 11276.2,8985.83 11539.8,8985.83L11721.3,8985.83L12500.8,9765.35L12500.8,9980.79C12500.8,10184.9 12503.6,10196.2 12594.3,10284.1L12687.9,10374.8L14558.7,10374.8L14726,10204.7L14893.2,10034.6L15562.2,10034.6L15562.2,10488.2L16526,10488.2L16526,10289.8C16526,10125.4 16534.5,10088.5 16579.8,10063C16613.9,10046 16911.5,10034.6 17345.2,10034.6L18056.7,10034.6L18056.7,10686.6L17640,10686.6C17271.5,10686.6 17209.1,10692.3 17126.9,10743.3C17039.1,10797.2 16985.2,10800 15355.3,10800L13674.3,10800L13549.6,10927.6L13424.9,11055.1L12991.2,11055.1L12557.5,11055.1L12557.5,10989.9ZM8206.3,1062.99C8350.87,921.26 8257.32,680.315 8058.9,680.315C7934.17,680.315 7823.62,785.197 7823.62,907.087C7823.62,1023.31 7934.17,1133.86 8050.39,1133.86C8104.25,1133.86 8163.78,1108.35 8206.3,1062.99Z" style="fill:rgb(226,238,255);fill-rule:nonzero;"/>
                <path id="path3472" d="M10870.9,10686.6C10842.5,10655.4 10828.3,10607.2 10836.9,10573.2C10851,10516.5 10842.5,10516.5 10165,10516.5L9481.89,10516.5L8750.55,9785.2L8022.05,9056.69L8022.05,8716.53L8022.05,8376.38L7781.1,8135.43L7540.16,7894.49L7540.16,7313.39L7540.16,6732.28L6822.99,6015.12L6108.66,5300.79L5845.04,5300.79C5703.31,5300.79 5584.25,5312.13 5584.25,5326.3C5584.25,5371.65 5470.87,5391.5 5425.51,5354.65C5402.84,5334.8 5385.83,5286.61 5391.5,5246.93C5397.16,5190.24 5417.01,5170.39 5479.37,5164.72C5530.39,5159.06 5561.57,5170.39 5572.91,5198.74C5587.09,5235.59 5640.94,5244.09 5864.88,5244.09L6137.01,5244.09L7596.85,6703.94L7596.85,7866.14L8078.74,8348.03L8078.74,9028.35L8795.91,9742.68L9510.24,10457L10247.2,10462.7C10652.6,10462.7 11006.9,10476.9 11032.4,10491C11103.3,10527.9 11100.5,10675.3 11029.6,10715C10953.1,10754.6 10930.4,10751.8 10870.9,10686.6Z" style="fill:rgb(226,238,255);fill-rule:nonzero;"/>
                <path id="path3490" d="M11712.8,10255.7C11692.9,10235.9 11678.7,10196.2 11678.7,10165C11678.7,10133.9 11644.7,10071.5 11602.2,10029C11525.7,9949.61 11525.7,9949.61 11145.8,9949.61L10763.1,9949.61L10641.3,9836.22L10516.5,9722.84L10184.9,9722.84L9850.39,9722.84L9348.66,9221.1L8844.09,8716.53L8844.09,7809.45L8844.09,6902.36L7795.28,5853.54L6746.46,4804.72L6746.46,4549.61L6746.46,4294.49L6315.59,3863.62C5887.56,3432.76 5884.72,3429.92 5893.23,3313.7C5898.9,3225.83 5884.72,3180.47 5839.37,3132.28C5768.5,3058.58 5771.34,2984.88 5847.87,2936.69C5949.92,2871.5 6063.31,3038.74 5966.93,3118.11C5941.42,3140.79 5924.41,3200.32 5924.41,3285.35L5924.41,3415.75L6803.15,4294.49L6803.15,4776.38L8900.79,6874.02L8900.79,8716.53L9878.74,9694.49L10561.9,9694.49L10754.6,9892.91L11554,9892.91L11636.2,9977.95C11678.7,10023.3 11726.9,10054.5 11741.1,10046C11755.3,10037.5 11797.8,10037.5 11834.6,10046C11916.9,10065.8 11956.5,10184.9 11905.5,10247.2C11863,10298.3 11760.9,10303.9 11712.8,10255.7Z" style="fill:rgb(226,238,255);fill-rule:nonzero;"/>
                <path id="path3518" d="M10862.4,9810.71C10842.5,9799.37 10817,9751.18 10802.8,9705.83L10783,9623.62L10357.8,9615.12L9935.43,9609.45L9462.05,9133.23L8985.83,8659.84L8985.83,7766.93L8985.83,6874.02L7922.84,5811.02L6859.84,4748.03L6859.84,4521.26L6859.84,4294.49L6548.03,3982.68C6278.74,3716.22 6236.22,3659.53 6236.22,3580.16C6236.22,3517.8 6219.21,3478.11 6176.69,3458.27C6094.49,3412.91 6111.5,3276.85 6202.2,3265.51C6326.93,3245.67 6400.63,3381.73 6307.09,3458.27C6216.38,3534.8 6261.73,3611.34 6590.55,3940.16L6916.53,4266.14L6916.53,4719.69L9042.52,6845.67L9042.52,8659.84L9504.57,9119.06L9963.78,9578.27L10423,9583.94C10675.3,9583.94 10896.4,9578.27 10910.6,9566.93C10970.1,9532.91 11055.1,9609.45 11055.1,9694.49C11055.1,9805.04 10950.2,9867.4 10862.4,9810.71Z" style="fill:rgb(226,238,255);fill-rule:nonzero;"/>
                <path id="path3528" d="M11321.6,9765.35C11310.2,9742.68 11290.4,9722.84 11276.2,9722.84C11259.2,9722.84 11191.2,9671.81 11123.1,9609.45L10998.4,9496.06L10482.5,9496.06L9963.78,9496.06L9515.91,9048.19L9070.87,8603.15L9070.87,7710.24L9070.87,6817.32L8016.38,5762.84L6964.72,4711.18L6970.39,4478.74L6976.06,4246.3L6692.6,3957.16L6406.3,3668.03L6406.3,3412.91L6406.3,3157.8L6301.42,3055.75C6241.89,2999.05 6162.52,2948.03 6125.67,2942.36C6034.96,2931.02 5983.94,2851.65 6026.46,2786.46C6091.65,2684.41 6236.22,2724.09 6236.22,2843.15C6236.22,2874.33 6287.24,2953.7 6349.61,3021.73L6462.99,3146.46L6462.99,3670.87L7001.57,4209.45L7001.57,4691.34L9127.56,6817.32L9127.56,8603.15L9992.13,9467.72L11043.8,9467.72L11140.2,9566.93C11253.5,9683.15 11270.6,9685.98 11335.7,9603.78C11372.6,9558.43 11403.8,9549.92 11460.5,9564.09C11548.3,9583.94 11590.9,9700.16 11537,9765.35C11491.7,9822.05 11341.4,9819.21 11321.6,9765.35Z" style="fill:rgb(226,238,255);fill-rule:nonzero;"/>
                <path id="path3536" d="M12359.1,9496.06C12327.9,9464.88 12302.4,9428.03 12302.4,9411.02C12302.4,9396.85 12327.9,9357.17 12359.1,9325.98C12404.4,9280.63 12415.7,9232.44 12415.7,9070.87L12415.7,8872.44L11494.5,7951.18L10573.2,7032.76L10573.2,6556.53L10573.2,6077.48L10360.6,5867.72L10148,5657.95L10148,4294.49L10148,2933.86L9788.03,2573.86C9552.76,2341.42 9399.68,2211.02 9354.33,2205.35C9297.64,2199.68 9283.46,2179.84 9283.46,2111.81C9283.46,2035.28 9291.97,2026.77 9368.5,2026.77C9439.37,2026.77 9456.38,2038.11 9462.05,2100.47C9467.72,2148.66 9592.44,2293.23 9850.39,2551.18L10233.1,2933.86L10233.1,5629.61L10658.3,6049.13L10658.3,7015.75L12500.8,8858.27L12500.8,9073.7C12500.8,9232.44 12512.1,9300.47 12543.3,9325.98C12600,9374.17 12597.2,9447.87 12534.8,9504.57C12466.8,9566.93 12427.1,9564.09 12359.1,9496.06Z" style="fill:rgb(226,238,255);fill-rule:nonzero;"/>
                <path id="path3550" d="M9986.46,9325.98C9958.11,9294.8 9924.09,9269.29 9907.09,9269.29C9890.08,9269.29 9714.33,9107.72 9515.91,8906.46L9155.91,8546.46L9155.91,7639.37L9155.91,6732.28L8121.26,5697.64L7086.61,4662.99L7086.61,4422.05L7086.61,4178.27L6874.02,3968.5L6661.42,3758.74L6661.42,3554.65C6661.42,3407.24 6650.08,3342.05 6618.9,3316.53C6562.2,3271.18 6573.54,3177.64 6641.57,3135.12C6743.62,3069.92 6857.01,3237.16 6760.63,3316.53C6729.45,3342.05 6718.11,3404.41 6718.11,3540.47L6718.11,3730.39L7114.96,4121.57L7114.96,4606.3L8163.78,5663.62L9212.6,6718.11L9212.6,8546.46L9544.25,8878.11C9728.5,9062.36 9892.91,9212.6 9909.92,9212.6C9926.93,9212.6 9963.78,9187.09 9992.13,9155.91C10054.5,9087.87 10099.8,9085.04 10159.4,9144.57C10221.7,9204.09 10216.1,9317.48 10150.9,9354.33C10071.5,9394.02 10040.3,9391.18 9986.46,9325.98Z" style="fill:rgb(226,238,255);fill-rule:nonzero;"/>
                <path id="path3552" d="M10445.7,9337.32C10417.3,9308.98 10406,9263.62 10414.5,9229.61C10423,9192.76 10406,9147.4 10369.1,9107.72C10315.3,9051.02 10281.3,9042.52 10065.8,9042.52L9822.05,9042.52L9544.25,8764.72L9269.29,8489.76L9269.29,7596.85L9269.29,6703.94L8220.47,5655.12L7171.65,4606.3L7171.65,4365.35L7171.65,4121.57L7041.26,3996.85C6970.39,3925.98 6899.53,3843.78 6885.35,3812.6C6871.18,3781.42 6842.84,3733.23 6825.83,3707.72C6754.96,3611.34 6896.69,3495.12 6987.4,3571.65C7044.09,3617.01 7041.26,3682.2 6981.73,3747.4C6936.38,3798.43 6942.05,3806.93 7080.94,3948.66L7228.35,4098.9L7228.35,4577.95L9325.98,6675.59L9325.98,8492.6L9592.44,8753.39L9856.06,9014.17L10097,9014.17C10301.1,9014.17 10346.5,9022.68 10389,9070.87C10417.3,9102.05 10474,9127.56 10513.7,9127.56C10649.8,9127.56 10709.3,9223.94 10641.3,9323.15C10590.2,9394.02 10510.9,9399.68 10445.7,9337.32Z" style="fill:rgb(226,238,255);fill-rule:nonzero;"/>
                <path id="path3570" d="M12024.6,9178.58C11976.4,9130.39 11982,9028.35 12033.1,8985.83C12149.3,8889.45 12106.8,8832.76 11239.4,7965.35L10403.1,7129.13L10403.1,6652.91L10403.1,6179.53L10204.7,5992.44L10006.3,5805.35L10006.3,4977.64L10006.3,4152.76L9510.24,3656.69L9014.17,3160.63L9014.17,2040.94L9014.17,921.26L8787.4,694.488L8560.63,467.717L8560.63,235.276C8560.63,45.354 8569.13,0 8603.15,0C8637.17,0 8645.67,42.52 8645.67,221.102L8645.67,439.37L9099.21,892.913L9099.21,3132.28L10063,4096.06L10063,5742.99L10488.2,6162.52L10488.2,7100.79L11310.2,7922.84C12075.6,8688.19 12132.3,8750.55 12132.3,8844.09C12132.3,8912.13 12149.3,8954.65 12189,8980.16C12296.7,9045.35 12245.7,9212.6 12118.1,9212.6C12084.1,9212.6 12044.4,9198.43 12024.6,9178.58Z" style="fill:rgb(226,238,255);fill-rule:nonzero;"/>
                <path id="path3572" d="M11735.4,8931.97C11721.3,8900.79 11712.8,8858.27 11721.3,8838.43C11729.8,8815.75 11704.3,8767.56 11664.6,8730.71C11624.9,8693.86 11593.7,8631.5 11593.7,8591.81C11593.7,8532.28 11452,8376.38 10927.6,7851.97L10261.4,7185.83L10261.4,6718.11L10261.4,6247.56L10048.8,6037.8L9836.22,5828.03L9836.22,5031.5L9836.22,4237.8L9632.13,4033.7C9464.88,3863.62 9411.02,3826.77 9337.32,3826.77C9215.43,3826.77 9099.21,3923.15 9099.21,4025.2C9099.21,4118.74 9036.85,4178.27 8960.32,4152.76C8844.09,4115.9 8863.94,3940.16 8982.99,3940.16C9011.34,3940.16 9068.03,3900.47 9113.39,3855.12C9184.25,3781.42 9215.43,3770.08 9340.16,3770.08C9481.89,3770.08 9487.56,3772.91 9702.99,3991.18L9921.26,4209.45L9921.26,5799.69L10346.5,6219.21L10346.5,7185.83L10998.4,7837.8C11440.6,8280 11650.4,8509.61 11650.4,8549.29C11650.4,8645.67 11752.4,8753.39 11826.1,8739.21C11868.7,8730.71 11911.2,8747.72 11945.2,8784.57C11990.6,8835.59 11993.4,8855.43 11967.9,8914.96C11925.4,9005.67 11780.8,9014.17 11735.4,8931.97Z" style="fill:rgb(226,238,255);fill-rule:nonzero;"/>
                <path id="path3580" d="M10448.5,8897.95C10391.8,8852.6 10332.3,8844.09 10088.5,8844.09L9793.7,8844.09L9589.61,8640L9382.68,8435.91L9382.68,7540.16L9382.68,6647.24L8333.86,5598.43L7285.04,4549.61L7285.04,4096.06L7285.04,3639.68L7191.5,3548.98C7134.8,3492.28 7069.61,3458.27 7021.42,3458.27C6908.03,3458.27 6862.68,3316.53 6956.22,3254.17C7032.76,3200.32 7157.48,3285.35 7129.13,3370.39C7120.63,3401.58 7154.65,3458.27 7228.35,3529.13L7341.73,3639.68L7341.73,4521.26L9439.37,6618.9L9439.37,8435.91L9796.53,8787.4L10094.2,8787.4C10357.8,8787.4 10400.3,8781.73 10445.7,8730.71C10513.7,8654.17 10590.2,8659.84 10644.1,8742.05C10734.8,8880.94 10578.9,9002.84 10448.5,8897.95Z" style="fill:rgb(226,238,255);fill-rule:nonzero;"/>
                <path id="path3596" d="M11344.3,8895.12C11296.1,8846.93 11301.7,8744.88 11352.8,8702.36C11452,8620.16 11400.9,8552.13 10757.5,7908.66L10119.7,7270.87L10119.7,6803.15L10119.7,6335.43L9722.83,5938.58L9325.98,5541.73L9325.98,4838.74C9325.98,4328.5 9317.48,4121.57 9291.97,4081.89C9226.77,3977.01 9360,3863.62 9453.54,3940.16C9507.4,3985.51 9507.4,4050.71 9453.54,4110.24C9419.53,4147.09 9411.02,4280.32 9411.02,4833.07L9408.19,5507.72L9805.04,5907.4L10204.7,6307.09L10204.7,7242.52L10842.5,7880.32C11352.8,8387.72 11480.3,8532.28 11480.3,8591.81C11480.3,8634.33 11500.2,8682.52 11522.8,8702.36C11613.5,8776.06 11556.9,8929.13 11437.8,8929.13C11403.8,8929.13 11364.1,8914.96 11344.3,8895.12Z" style="fill:rgb(226,238,255);fill-rule:nonzero;"/>
                <path id="path3640" d="M1678.11,8073.07C1618.58,8013.54 1641.26,7962.52 1780.16,7837.8L1913.39,7713.07L2749.61,7710.24L3582.99,7710.24L4271.81,7024.25L4960.63,6338.27L4960.63,4365.35L4960.63,2395.28L5402.84,1955.9C5646.61,1714.96 5856.38,1488.19 5870.55,1451.34C5884.72,1417.32 5915.9,1380.47 5938.58,1371.97C5992.44,1349.29 6066.14,1408.82 6066.14,1471.18C6066.14,1496.69 5850.71,1734.8 5584.25,1998.42L5102.36,2480.32L5102.36,6392.13L4373.86,7120.63L3642.52,7851.97L2817.64,7851.97C1998.42,7851.97 1992.76,7851.97 1936.06,7917.16C1904.88,7951.18 1862.36,8007.87 1845.35,8044.72C1808.5,8112.76 1731.97,8126.93 1678.11,8073.07Z" style="fill:rgb(226,238,255);fill-rule:nonzero;"/>
                <path id="path3646" d="M12659.5,8033.39C12602.8,7976.69 12602.8,7897.32 12656.7,7851.97C12693.5,7820.79 12699.2,7534.49 12699.2,5589.92L12699.2,3361.89L12860.8,3197.48L13022.4,3033.07L13424.9,3033.07L13572.3,2882.84C13694.2,2758.11 13719.7,2715.59 13719.7,2633.39C13719.7,2426.46 13821.7,2437.8 11860.2,2437.8L10102.7,2437.8L9997.8,2330.08L9892.91,2222.36L9892.91,1111.18C9892.91,141.732 9898.58,0 9935.43,0C9972.28,0 9977.95,141.732 9977.95,1099.84L9977.95,2199.68L10165,2381.1L11919.7,2381.1L13671.5,2378.27L13739.5,2440.63C13790.6,2488.82 13804.7,2534.17 13804.7,2636.22C13804.7,2758.11 13793.4,2775.12 13626.1,2942.36L13447.6,3118.11L13249.1,3118.11L13050.7,3118.11L12917.5,3254.17L12784.3,3390.24L12784.3,5604.09C12784.3,7443.78 12789.9,7820.79 12823.9,7832.13C12880.6,7854.8 12897.6,7954.02 12849.4,8019.21C12801.3,8090.08 12719.1,8095.75 12659.5,8033.39Z" style="fill:rgb(226,238,255);fill-rule:nonzero;"/>
                <path id="path3728" d="M10561.9,5864.88C10476.9,5742.99 10618.6,5601.26 10740.5,5686.3C10811.3,5737.32 10817,5816.69 10754.6,5879.06C10692.3,5941.42 10612.9,5935.75 10561.9,5864.88Z" style="fill:rgb(226,238,255);fill-rule:nonzero;"/>
                <path id="path3786" d="M10607.2,4575.12C10530.7,4524.09 10527.9,4447.56 10595.9,4385.2C10666.8,4320 10732,4325.67 10783,4396.53C10828.3,4461.73 10817,4529.76 10749,4586.46C10692.3,4628.98 10683.8,4628.98 10607.2,4575.12Z" style="fill:rgb(226,238,255);fill-rule:nonzero;"/>
                <path id="path3806" d="M9603.78,4572.28C9547.09,4558.11 9515.91,4478.74 9541.42,4413.54C9581.1,4302.99 9751.18,4345.51 9751.18,4464.57C9751.18,4538.27 9680.32,4589.29 9603.78,4572.28Z" style="fill:rgb(226,238,255);fill-rule:nonzero;"/>
                <path id="path3816" d="M0,4081.89C0,4064.88 714.331,4050.71 2046.61,4047.87C3971.34,4039.37 4096.06,4036.54 4104.57,3991.18C4113.07,3942.99 4050.71,3940.16 3092.6,3940.16C2505.83,3940.16 2043.78,3928.82 2001.26,3911.81C1916.22,3880.63 1882.2,3772.91 1924.72,3687.87C1955.9,3631.18 1975.75,3628.35 3027.4,3622.68C3954.33,3614.17 4096.06,3608.5 4096.06,3571.65C4096.06,3534.8 3957.16,3526.3 3067.09,3514.96C2089.13,3500.79 2035.28,3497.95 1995.59,3446.93C1941.73,3370.39 1944.57,3305.2 2006.93,3251.34C2052.28,3208.82 2179.84,3203.15 3078.43,3197.48L4096.06,3188.98L4104.57,3126.61L4113.07,3061.42L3081.26,3061.42C2080.63,3061.42 2049.45,3058.58 1998.42,3004.72C1955.9,2959.37 1950.24,2931.02 1972.91,2868.66L1998.42,2792.13L3047.24,2777.95C4016.69,2763.78 4096.06,2760.95 4104.57,2715.59C4113.07,2667.4 4050.71,2664.57 3126.61,2664.57C2063.62,2664.57 2004.09,2656.06 1989.92,2522.84C1975.75,2364.09 1953.07,2366.93 3067.09,2352.76C4016.69,2338.58 4096.06,2335.75 4104.57,2290.39C4113.07,2242.2 4050.71,2239.37 3120.95,2239.37C2432.13,2239.37 2106.14,2228.03 2057.95,2205.35C1964.41,2162.84 1938.9,2083.47 1995.59,1998.42L2040.94,1927.56L4113.07,1927.56L4104.57,1865.2L4096.06,1800L3064.25,1791.5C2358.43,1788.66 2018.27,1774.49 1992.76,1754.65C1947.4,1714.96 1944.57,1610.08 1989.92,1564.72C2015.43,1539.21 2290.39,1530.71 3044.41,1530.71C3608.5,1530.71 4084.72,1519.37 4107.4,1505.2C4130.08,1491.02 4138.58,1459.84 4130.08,1434.33C4113.07,1394.65 3999.68,1388.98 3089.76,1388.98C2437.8,1388.98 2046.61,1377.64 2009.76,1360.63C1975.75,1340.79 1955.9,1301.1 1955.9,1252.91C1955.9,1085.67 1916.22,1091.34 3075.59,1082.84C4064.88,1077.16 4141.42,1071.5 4132.91,1026.14C4124.41,980.787 4039.37,977.953 3092.6,969.449C2386.77,966.614 2046.61,952.441 2021.1,932.598C1964.41,881.575 1972.91,717.165 2038.11,680.315C2074.96,663.307 2653.23,651.968 3719.06,651.968C5105.2,651.968 5354.65,657.638 5402.84,694.488C5445.35,725.669 5555.9,734.173 5896.06,737.008L6338.27,737.008L6542.36,943.937L6746.46,1148.03L6752.13,1984.25C6760.63,2797.8 6763.46,2820.47 6817.32,2820.47C6871.18,2820.47 6874.02,2797.8 6882.52,2423.62C6891.02,1998.42 6913.7,1927.56 7044.09,1927.56C7160.32,1927.56 7174.49,1984.25 7180.16,2485.98L7185.83,2962.2L7256.69,2962.2C7327.56,2962.2 7327.56,2956.53 7336.06,2721.26C7344.57,2383.94 7355.9,2352.76 7449.45,2352.76C7579.84,2352.76 7596.85,2395.28 7596.85,2724.09C7596.85,3033.07 7616.69,3098.27 7696.06,3033.07C7721.57,3010.39 7738.58,2928.19 7744.25,2800.63C7749.92,2656.06 7764.09,2593.7 7795.28,2579.53C8027.72,2463.31 8092.91,2466.14 8092.91,2593.7C8092.91,2661.73 8078.74,2681.58 8024.88,2687.24C7988.03,2692.91 7945.51,2684.41 7928.5,2667.4C7851.97,2590.87 7823.62,2636.22 7823.62,2828.98C7823.62,3044.41 7778.27,3118.11 7650.71,3118.11C7528.82,3118.11 7511.81,3072.76 7511.81,2741.1C7511.81,2463.31 7506.14,2434.96 7463.62,2443.47C7421.1,2451.97 7412.6,2491.65 7404.09,2721.26C7401.26,2865.83 7381.42,3004.72 7364.41,3024.57C7324.72,3072.76 7188.66,3072.76 7146.14,3024.57C7129.13,3001.89 7112.13,2800.63 7109.29,2505.83C7100.79,2049.45 7097.95,2026.77 7044.09,2026.77C6990.24,2026.77 6987.4,2049.45 6978.9,2423.62C6973.23,2741.1 6961.89,2828.98 6925.04,2868.66C6865.51,2933.86 6769.13,2933.86 6709.61,2868.66C6667.09,2823.31 6661.42,2718.43 6661.42,1984.25L6661.42,1150.87L6499.84,986.457L6338.27,822.047L5879.06,822.047C5507.72,822.047 5414.17,813.543 5385.83,779.528C5354.65,742.677 5133.54,737.008 3713.39,737.008C2228.03,737.008 2074.96,742.677 2057.95,782.362C2012.6,901.417 2052.28,907.087 3135.12,907.087C4147.09,907.087 4164.09,907.087 4195.28,966.614C4220.79,1011.97 4217.95,1040.32 4181.1,1094.17L4138.58,1162.2L3092.6,1162.2C2162.84,1162.2 2043.78,1167.87 2029.61,1207.56C2021.1,1233.07 2018.27,1264.25 2029.61,1278.42C2038.11,1292.6 2483.15,1303.94 3064.25,1303.94C3713.39,1303.94 4104.57,1315.28 4141.42,1332.28C4203.78,1366.3 4215.12,1508.03 4158.43,1556.22C4132.91,1576.06 3792.76,1590.24 3086.93,1593.07C2077.8,1601.58 2055.12,1601.58 2055.12,1658.27C2055.12,1714.96 2077.8,1714.96 3086.93,1723.47C3792.76,1726.3 4132.91,1740.47 4158.43,1760.32C4212.28,1805.67 4203.78,1910.55 4144.25,1964.41C4096.06,2006.93 3979.84,2012.6 3064.25,2012.6L2038.11,2012.6L2046.61,2077.8L2055.12,2140.16L3098.27,2154.33C4212.28,2168.5 4206.61,2168.5 4189.61,2310.24C4172.6,2426.46 4090.39,2437.8 3058.58,2437.8C2298.9,2437.8 2072.13,2446.3 2063.62,2474.65C2023.94,2576.69 2049.45,2579.53 3101.1,2579.53C4181.1,2579.53 4195.28,2582.36 4195.28,2707.09C4195.28,2831.81 4178.27,2834.65 3129.45,2834.65C2579.53,2834.65 2111.81,2843.15 2086.3,2851.65C2060.79,2860.16 2040.94,2894.17 2040.94,2922.52C2040.94,2973.54 2077.8,2976.38 3055.75,2976.38C4152.76,2976.38 4195.28,2982.05 4195.28,3129.45C4195.28,3259.84 4183.94,3259.84 3118.11,3259.84C2565.35,3259.84 2094.8,3271.18 2074.96,3285.35C2052.28,3299.53 2040.94,3333.54 2046.61,3361.89C2055.12,3412.91 2103.31,3415.75 3072.76,3424.25C3789.92,3427.09 4101.73,3441.26 4130.08,3463.94C4152.76,3480.95 4166.93,3534.8 4161.26,3582.99L4152.76,3670.87L3075.59,3685.04L1998.42,3699.21L1998.42,3840.95L3089.76,3855.12C3690.71,3863.62 4183.94,3874.96 4189.61,3877.8C4209.45,3897.64 4189.61,4047.87 4161.26,4076.22C4115.9,4121.57 0,4127.24 0,4081.89Z" style="fill:rgb(226,238,255);fill-rule:nonzero;"/>
                <path id="path3858" d="M8730.71,2128.82C8693.86,2057.95 8719.37,1992.76 8790.24,1970.08C8897.95,1936.06 8974.49,2069.29 8895.12,2148.66C8844.09,2199.68 8764.72,2188.35 8730.71,2128.82Z" style="fill:rgb(226,238,255);fill-rule:nonzero;"/>
            </g>
        </g>
        <rect id="rect1361" x="33.718" y="193.062" width="12.886" height="0.566" style="fill:rgb(226,238,255);"/>
        <rect id="rect1363" x="142.683" y="193.062" width="11.815" height="0.566" style="fill:rgb(226,238,255);"/>
        <g id="path1381" transform="matrix(0.365827,0,0,0.365827,5.55462,-71.2134)">
            <path d="M69.604,738.839L65.522,727.772L61.667,738.839L56.678,738.839L62.982,722.42L57.086,707.091L62.256,707.091L66.021,717.25L69.558,707.091L74.547,707.091L68.56,722.647L74.774,738.839L69.604,738.839Z" style="fill:rgb(226,238,255);fill-rule:nonzero;"/>
        </g>
        <g id="path1384" transform="matrix(0.391138,0,0,0.391138,-89.0663,-95.0292)">
            <path d="M640.191,721.264L633.751,739.723L633.751,753.012L628.943,753.012L628.943,739.723L622.503,721.264L627.628,721.264L631.347,733.373L635.157,721.264L640.191,721.264Z" style="fill:rgb(226,238,255);fill-rule:nonzero;"/>
        </g>
    </g>
    <g transform="matrix(1,0,0,1,-11.7341,4)">
        <g transform="matrix(30,0,0,30,61.7145,13.8573)">
            <path d="M0.19,-0.439L0.2,-0.439C0.242,-0.439 0.28,-0.427 0.315,-0.402C0.348,-0.427 0.386,-0.439 0.429,-0.439L0.438,-0.439C0.506,-0.439 0.556,-0.413 0.589,-0.359C0.594,-0.347 0.597,-0.336 0.597,-0.327L0.597,-0.244C0.597,-0.242 0.595,-0.241 0.593,-0.241L0.521,-0.241C0.518,-0.241 0.517,-0.242 0.517,-0.244L0.517,-0.327C0.503,-0.36 0.475,-0.376 0.433,-0.376C0.399,-0.376 0.374,-0.365 0.358,-0.341L0.358,-0.029C0.354,-0.01 0.341,0 0.321,0L0.315,0C0.291,-0.004 0.278,-0.013 0.278,-0.029L0.278,-0.327C0.264,-0.36 0.236,-0.376 0.194,-0.376C0.141,-0.371 0.114,-0.352 0.114,-0.321L0.114,-0.244C0.114,-0.242 0.113,-0.241 0.11,-0.241L0.038,-0.241C0.035,-0.241 0.034,-0.242 0.034,-0.244L0.034,-0.336C0.034,-0.367 0.06,-0.396 0.112,-0.424C0.14,-0.434 0.166,-0.439 0.19,-0.439ZM0.038,-0.207L0.11,-0.207C0.113,-0.206 0.114,-0.205 0.114,-0.204L0.114,-0.029C0.11,-0.01 0.097,0 0.077,0L0.071,0C0.047,-0.004 0.034,-0.013 0.034,-0.029L0.034,-0.204C0.035,-0.206 0.036,-0.207 0.038,-0.207ZM0.521,-0.207L0.593,-0.207C0.595,-0.206 0.597,-0.205 0.597,-0.204L0.597,-0.029C0.592,-0.01 0.58,0 0.56,0L0.554,0C0.529,-0.004 0.517,-0.013 0.517,-0.029L0.517,-0.204C0.517,-0.206 0.518,-0.207 0.521,-0.207Z" style="fill:rgb(226,238,255);fill-rule:nonzero;"/>
        </g>
        <g transform="matrix(30,0,0,30,80.7282,13.8573)">
            <path d="M0.312,-0.439L0.321,-0.439C0.422,-0.439 0.503,-0.402 0.563,-0.327C0.586,-0.293 0.597,-0.265 0.597,-0.244L0.593,-0.242L0.521,-0.242C0.519,-0.242 0.515,-0.252 0.509,-0.273C0.467,-0.343 0.403,-0.378 0.315,-0.378C0.233,-0.378 0.17,-0.344 0.126,-0.277C0.119,-0.255 0.114,-0.243 0.112,-0.242L0.04,-0.242C0.037,-0.242 0.036,-0.244 0.036,-0.247C0.036,-0.278 0.058,-0.317 0.101,-0.362C0.161,-0.414 0.231,-0.439 0.312,-0.439ZM0.319,-0.276L0.323,-0.276C0.357,-0.276 0.38,-0.261 0.392,-0.23L0.392,-0.219C0.385,-0.183 0.362,-0.165 0.323,-0.165L0.319,-0.165C0.285,-0.165 0.263,-0.181 0.251,-0.211L0.251,-0.222C0.258,-0.258 0.281,-0.276 0.319,-0.276ZM0.038,-0.205L0.11,-0.205C0.112,-0.205 0.117,-0.192 0.124,-0.167C0.166,-0.097 0.23,-0.062 0.317,-0.062C0.4,-0.062 0.463,-0.095 0.507,-0.162C0.512,-0.176 0.517,-0.19 0.521,-0.205L0.595,-0.205L0.599,-0.204C0.599,-0.166 0.576,-0.123 0.532,-0.077C0.472,-0.026 0.401,0 0.321,0L0.312,0C0.211,0 0.13,-0.038 0.069,-0.113C0.048,-0.145 0.036,-0.175 0.034,-0.204L0.038,-0.205Z" style="fill:rgb(226,238,255);fill-rule:nonzero;"/>
        </g>
        <g transform="matrix(30,0,0,30,99.8005,13.8573)">
            <path d="M0.069,-0.439L0.442,-0.439C0.509,-0.439 0.558,-0.411 0.589,-0.354C0.594,-0.342 0.597,-0.33 0.597,-0.317L0.597,-0.311C0.597,-0.258 0.561,-0.22 0.489,-0.195C0.474,-0.191 0.458,-0.189 0.442,-0.189L0.071,-0.189C0.047,-0.192 0.034,-0.202 0.034,-0.218L0.034,-0.223C0.039,-0.243 0.051,-0.252 0.071,-0.252L0.44,-0.252C0.474,-0.252 0.498,-0.267 0.513,-0.295C0.515,-0.3 0.517,-0.305 0.517,-0.313L0.517,-0.315C0.517,-0.342 0.498,-0.362 0.462,-0.373C0.457,-0.375 0.45,-0.376 0.44,-0.376L0.114,-0.376L0.114,-0.278C0.114,-0.276 0.113,-0.275 0.11,-0.275L0.038,-0.275C0.035,-0.275 0.034,-0.276 0.034,-0.278L0.034,-0.416C0.034,-0.428 0.046,-0.436 0.069,-0.439ZM0.517,-0.178L0.519,-0.178C0.568,-0.088 0.594,-0.039 0.597,-0.031C0.59,-0.01 0.578,0 0.56,0C0.533,0 0.515,-0.015 0.505,-0.045C0.472,-0.104 0.451,-0.138 0.442,-0.148C0.426,-0.158 0.414,-0.163 0.407,-0.163L0.407,-0.166L0.429,-0.166C0.448,-0.166 0.478,-0.17 0.517,-0.178ZM0.038,-0.166L0.11,-0.166C0.113,-0.165 0.114,-0.164 0.114,-0.163L0.114,-0.031C0.11,-0.011 0.097,-0.001 0.077,-0.001L0.071,-0.001C0.047,-0.005 0.034,-0.015 0.034,-0.031L0.034,-0.163C0.035,-0.165 0.036,-0.166 0.038,-0.166Z" style="fill:rgb(226,238,255);fill-rule:nonzero;"/>
        </g>
        <g transform="matrix(30,0,0,30,118.814,13.8573)">
            <path d="M0.071,-0.439L0.444,-0.439C0.511,-0.439 0.56,-0.411 0.591,-0.354C0.596,-0.342 0.599,-0.33 0.599,-0.317L0.599,-0.311C0.599,-0.257 0.563,-0.219 0.491,-0.194C0.476,-0.19 0.46,-0.188 0.444,-0.188L0.071,-0.188C0.047,-0.192 0.034,-0.201 0.034,-0.217L0.034,-0.222C0.039,-0.242 0.051,-0.251 0.071,-0.251L0.442,-0.251C0.476,-0.251 0.5,-0.266 0.515,-0.295C0.517,-0.299 0.519,-0.305 0.519,-0.312L0.519,-0.315C0.519,-0.342 0.5,-0.361 0.464,-0.373C0.459,-0.375 0.451,-0.376 0.442,-0.376L0.114,-0.376L0.114,-0.278C0.114,-0.276 0.113,-0.275 0.11,-0.275L0.04,-0.275C0.037,-0.275 0.036,-0.276 0.036,-0.278L0.036,-0.416C0.036,-0.428 0.048,-0.436 0.071,-0.439ZM0.04,-0.165L0.11,-0.165C0.113,-0.164 0.114,-0.163 0.114,-0.162L0.114,-0.023C0.114,-0.012 0.103,-0.004 0.079,0L0.073,0C0.049,-0.004 0.036,-0.013 0.036,-0.029L0.036,-0.162C0.036,-0.164 0.038,-0.165 0.04,-0.165Z" style="fill:rgb(226,238,255);fill-rule:nonzero;"/>
        </g>
        <g transform="matrix(30,0,0,30,137.886,13.8573)">
            <path d="M0.071,-0.439L0.077,-0.439C0.102,-0.436 0.114,-0.426 0.114,-0.41L0.114,-0.314C0.114,-0.283 0.136,-0.263 0.181,-0.254C0.182,-0.253 0.187,-0.253 0.196,-0.253L0.444,-0.253C0.499,-0.253 0.545,-0.229 0.581,-0.182C0.59,-0.166 0.595,-0.152 0.595,-0.14L0.595,-0.029C0.59,-0.01 0.578,0 0.558,0L0.552,0C0.527,-0.004 0.515,-0.013 0.515,-0.029L0.515,-0.126C0.515,-0.158 0.493,-0.178 0.448,-0.187C0.447,-0.188 0.442,-0.188 0.433,-0.188L0.185,-0.188C0.13,-0.188 0.084,-0.212 0.048,-0.259C0.039,-0.275 0.034,-0.289 0.034,-0.301L0.034,-0.41C0.039,-0.43 0.051,-0.439 0.071,-0.439ZM0.552,-0.439L0.558,-0.439C0.582,-0.436 0.595,-0.426 0.595,-0.41L0.595,-0.233L0.593,-0.233C0.562,-0.256 0.536,-0.27 0.515,-0.276L0.515,-0.41C0.519,-0.43 0.532,-0.439 0.552,-0.439ZM0.034,-0.208L0.036,-0.208C0.067,-0.185 0.093,-0.171 0.114,-0.165L0.114,-0.029C0.11,-0.01 0.097,0 0.077,0L0.071,0C0.047,-0.004 0.034,-0.013 0.034,-0.029L0.034,-0.208Z" style="fill:rgb(226,238,255);fill-rule:nonzero;"/>
        </g>
    </g>
</svg>
