<?xml version="1.0" encoding="UTF-8" standalone="no"?>
<!DOCTYPE svg PUBLIC "-//W3C//DTD SVG 1.1//EN" "http://www.w3.org/Graphics/SVG/1.1/DTD/svg11.dtd">
<svg width="100%" height="100%" viewBox="0 0 180 380" version="1.1" xmlns="http://www.w3.org/2000/svg" xmlns:xlink="http://www.w3.org/1999/xlink" xml:space="preserve" xmlns:serif="http://www.serif.com/" style="fill-rule:evenodd;clip-rule:evenodd;stroke-linejoin:round;stroke-miterlimit:2;">
    <g transform="matrix(1.44444,0,0,1,0,0)">
        <rect x="0" y="0" width="135" height="380" style="fill:rgb(62,71,83);"/>
    </g>
    <g id="Layer1">
    </g>
    <g transform="matrix(0.1,0,0,-0.1,-829.376,486.773)">
        <g opacity="0.03">
            <path d="M5902,7937L5840,7874L5840,6959L5840,6044L5895,5990C5941,5944 5950,5930 5950,5900C5950,5870 5941,5856 5900,5815C5856,5772 5850,5761 5850,5725C5850,5672 5821,5643 5765,5638C5727,5635 5725,5633 5722,5598L5719,5560L5774,5560C5823,5560 5830,5558 5830,5540C5830,5522 5838,5520 5933,5518L6035,5515L6003,5498C5975,5482 5942,5480 5754,5480L5536,5480L5508,5507L5480,5534L5480,5422L5480,5310L5381,5310C5325,5310 5278,5314 5275,5320C5271,5326 5300,5330 5354,5330L5440,5330L5440,5420C5440,5493 5437,5510 5425,5510C5415,5510 5410,5520 5410,5543C5410,5592 5358,5640 5304,5640C5221,5640 5205,5589 5278,5556C5301,5545 5320,5531 5320,5523C5320,5512 5256,5510 4977,5510C4646,5510 4632,5509 4615,5490C4601,5474 4584,5470 4535,5470C4472,5470 4450,5459 4450,5428C4450,5402 4482,5390 4553,5390C4616,5390 4617,5390 4612,5365L4608,5340L4790,5340L4790,5313C4790,5295 4774,5270 4740,5234L4690,5181L4690,4903L4690,4624L4637,4572C4608,4543 4582,4520 4579,4520C4576,4520 4573,4528 4573,4538C4574,4672 4569,4740 4558,4737C4549,4736 4544,4752 4542,4786C4538,4851 4513,4879 4472,4864C4448,4856 4445,4849 4442,4800C4440,4770 4436,4742 4432,4738C4428,4734 4426,4659 4428,4571L4431,4410L4878,4410L4909,4375L4940,4339L4940,4190L4940,4040L5553,4040C6135,4040 6168,4041 6183,4058C6197,4073 6200,4098 6200,4176L6200,4276L6243,4318C6275,4350 6290,4358 6308,4354C6328,4348 6330,4342 6330,4269L6330,4190L6384,4190L6351,4156C6322,4126 6319,4118 6322,4074C6325,4029 6327,4025 6353,4022C6379,4019 6380,4021 6380,4061C6380,4099 6386,4110 6426,4151L6472,4197L6470,4388L6469,4579L6503,4617C6535,4651 6540,4653 6571,4644L6605,4634L6608,4557C6611,4488 6613,4480 6630,4480C6645,4480 6650,4473 6650,4450C6650,4426 6659,4414 6693,4389C6719,4370 6737,4349 6740,4332C6744,4310 6751,4305 6774,4305C6810,4305 6830,4332 6814,4358C6807,4368 6790,4375 6774,4375C6758,4375 6728,4385 6708,4398C6678,4417 6670,4428 6670,4451C6670,4473 6675,4480 6690,4480C6709,4480 6710,4487 6710,4643C6710,4859 6719,4850 6519,4850L6374,4850L6342,4883L6310,4916L6310,5200L6429,5200L6432,5078C6435,4969 6437,4955 6452,4958C6461,4959 6471,4956 6475,4950C6485,4933 6529,4939 6539,4959C6553,4985 6530,5015 6501,5007C6481,5002 6480,5005 6480,5100L6480,5199L6508,5202C6535,5205 6535,5206 6538,5288L6541,5370L6510,5370L6480,5370L6480,5546L6553,5618C6594,5659 6634,5690 6645,5690C6657,5690 6698,5657 6745,5610L6825,5530L7815,5530L9150,6865L9150,7807L9081,7873C9043,7910 9003,7940 8993,7940C8977,7940 8974,7946 8978,7970L8982,8000L8896,8000L8810,8000L8810,7920L8810,7839L8893,7842C8971,7845 8975,7846 8974,7868C8973,7902 8989,7895 9052,7833L9110,7776L9110,7330L9110,6885L8452,6227L7795,5570L7320,5570L6845,5570L6765,5650C6689,5727 6684,5730 6640,5730C6596,5730 6591,5727 6512,5647L6430,5565L6430,5467L6430,5370L6370,5370L6310,5370L6310,5498C6310,5625 6310,5626 6282,5653L6254,5680L6082,5680L5910,5680L5910,5716C5910,5746 5918,5759 5955,5794C5999,5836 6000,5839 6000,5896C6000,5954 5999,5957 5950,6005L5900,6054L5900,7856L5955,7910C6014,7968 6025,8000 5987,8000C5973,8000 5942,7978 5902,7937Z" style="fill:rgb(226,238,255);fill-rule:nonzero;"/>
            <path d="M9912,7360L9910,6714L9975,6650L10040,6586L10040,6295L10040,6004L9982,5947L9924,5890L9715,5890L9505,5890L9305,5690L9105,5490L8910,5490L8714,5490L8505,5280L8296,5070L7965,5070L7635,5070L7545,4980L7455,4890L7389,4890C7344,4890 7319,4885 7311,4876C7304,4868 7288,4859 7275,4856C7223,4843 7222,4770 7274,4770C7306,4770 7322,4792 7318,4832L7315,4865L7391,4868L7466,4871L7645,5050L8305,5050L8735,5480L9125,5480L9515,5870L9936,5870L10060,5996L10060,6586L9990,6655L9920,6724L9917,7365L9915,8005L9912,7360Z" style="fill:rgb(226,238,255);fill-rule:nonzero;"/>
            <path d="M9952,7375L9950,6744L10020,6675L10090,6606L10090,5585L10090,4564L10125,4530C10159,4497 10160,4494 10160,4415L10160,4335L10057,4232L9955,4130L9795,4130L9635,4130L9505,4000L9375,3870L8840,3870L8304,3870L8240,3935C8184,3992 8171,4000 8138,4000C8118,4000 8098,4005 8095,4010C8092,4015 8081,4020 8072,4020C8062,4020 8047,4029 8037,4040C8013,4068 7982,4065 7968,4034C7957,4011 7958,4005 7979,3989C8001,3971 8003,3971 8031,3987C8055,4001 8064,4002 8080,3992C8091,3986 8115,3980 8133,3980C8160,3980 8177,3969 8230,3915L8294,3850L9375,3850L9635,4110L9955,4110L10180,4335L10180,4418C10180,4500 10180,4501 10140,4544L10100,4587L10100,6626L10030,6695L9960,6764L9957,7385L9955,8005L9952,7375Z" style="fill:rgb(226,238,255);fill-rule:nonzero;"/>
            <path d="M9990,7382L9990,6764L10055,6700L10120,6636L10120,5610L10120,4584L10160,4545L10200,4506L10200,4415L10200,4325L10082,4207L9965,4090L9805,4090L9645,4090L9520,3965L9395,3840L8694,3840C8006,3840 7993,3840 7975,3860C7957,3880 7944,3880 7446,3880L6935,3880L6852,3797C6773,3718 6770,3713 6770,3669C6770,3640 6764,3618 6755,3610C6721,3582 6748,3522 6789,3535C6817,3544 6828,3589 6806,3605C6795,3613 6790,3632 6790,3661C6790,3703 6794,3710 6868,3783L6945,3860L7451,3860C7944,3860 7957,3859 7975,3840C7993,3820 8006,3820 8699,3820L9405,3820L9655,4070L9965,4070L10210,4315L10210,4526L10175,4560L10140,4594L10140,6636L10075,6700L10010,6764L10010,7382C10010,7787 10007,8000 10000,8000C9993,8000 9990,7787 9990,7382Z" style="fill:rgb(226,238,255);fill-rule:nonzero;"/>
            <path d="M10020,7392L10020,6784L10085,6720L10150,6656L10150,5630L10150,4604L10190,4565L10230,4526L10230,4420L10230,4315L10101,4183L9973,4050L9814,4050L9655,4050L9497,3892L9340,3735L9340,3654C9340,3558 9327,3540 9262,3540C9209,3540 9200,3556 9200,3656C9200,3717 9197,3735 9183,3746C9168,3757 9040,3759 8520,3760L7875,3760L7780,3665C7689,3573 7684,3570 7640,3570C7599,3570 7591,3574 7533,3632C7485,3680 7473,3697 7480,3710C7486,3721 7484,3734 7474,3748C7455,3775 7438,3776 7416,3751C7394,3726 7403,3692 7434,3684C7447,3681 7486,3650 7521,3614C7584,3551 7585,3550 7640,3550L7695,3550L7885,3740L8525,3740C9010,3740 9169,3737 9178,3728C9185,3721 9190,3685 9190,3635C9190,3585 9195,3549 9202,3542C9209,3535 9239,3530 9270,3530C9350,3530 9360,3544 9360,3651L9360,3735L9655,4030L9975,4030L10250,4305L10250,4536L10210,4575L10170,4614L10170,6656L10105,6720L10040,6784L10040,7392C10040,7791 10037,8000 10030,8000C10023,8000 10020,7791 10020,7392Z" style="fill:rgb(226,238,255);fill-rule:nonzero;"/>
            <path d="M10072,7400L10070,6794L10135,6730L10200,6666L10200,5645L10200,4624L10235,4590L10270,4556L10270,4425L10270,4295L10127,4152L9985,4010L9830,4010L9675,4010L9532,3867L9390,3725L9390,3639C9390,3562 9388,3551 9366,3531C9345,3512 9334,3509 9264,3512L9185,3515L9182,3605C9180,3670 9175,3699 9163,3712C9148,3729 9109,3730 8531,3730L7915,3730L7810,3625L7705,3520L7590,3520L7475,3520L7370,3625L7265,3730L7212,3730C7174,3730 7158,3734 7154,3745C7150,3754 7135,3760 7119,3760C7097,3760 7089,3754 7084,3735C7073,3690 7121,3661 7150,3695C7158,3704 7180,3710 7209,3710C7255,3710 7257,3708 7360,3605L7465,3500L7705,3500L7915,3710L8535,3708L9155,3705L9158,3615C9162,3497 9168,3490 9269,3490C9337,3490 9347,3493 9372,3517C9398,3542 9400,3549 9400,3624L9400,3705L9695,4000L9995,4000L10290,4295L10290,4566L10250,4605L10210,4644L10210,6686L10145,6750L10080,6814L10077,7410L10075,8005L10072,7400Z" style="fill:rgb(226,238,255);fill-rule:nonzero;"/>
            <path d="M10100,7412L10100,6825L10215,6710L10329,6596L10332,6408C10334,6305 10332,6220 10328,6220C10323,6220 10320,6224 10320,6229C10320,6247 10279,6248 10257,6230L10235,6212L10232,5428L10230,4645L10270,4605L10310,4566L10310,4425L10310,4285L10157,4132L10005,3980L9850,3980L9695,3980L9557,3842L9420,3705L9420,3619C9420,3536 9419,3533 9387,3502C9354,3470 9354,3470 9249,3470L9145,3470L9035,3580L8925,3690L8475,3690L8026,3690L7972,3638C7928,3593 7914,3585 7882,3585C7846,3585 7845,3584 7845,3550C7845,3521 7849,3514 7868,3512C7895,3508 7920,3526 7920,3549C7920,3558 7944,3589 7973,3618L8026,3670L8924,3670L9030,3560L9136,3450L9360,3450L9440,3522L9440,3705L9695,3960L10015,3960L10320,4265L10320,4586L10285,4620L10250,4654L10250,6167L10275,6162C10289,6160 10307,6163 10315,6170C10347,6196 10340,6170 10306,6132L10270,6093L10270,5378L10270,4664L10305,4630L10340,4596L10340,4430L10340,4264L10178,4102L10015,3940L9865,3940L9715,3940L9587,3812L9460,3685L9460,3599L9460,3514L9417,3472L9374,3430L9239,3430L9105,3430L9000,3535L8895,3640L8490,3640L8084,3640L8046,3601C8025,3579 8002,3564 7995,3566C7977,3573 7948,3541 7952,3517C7960,3465 8022,3472 8028,3526C8030,3543 8047,3571 8068,3593L8104,3630L8885,3630L8995,3520L9105,3410L9384,3410L9470,3494L9470,3675L9725,3930L10035,3930L10360,4255L10360,4596L10325,4630L10290,4664L10290,6096L10350,6154L10350,6605L10235,6720L10120,6835L10120,7417C10120,7799 10117,8000 10110,8000C10103,8000 10100,7797 10100,7412Z" style="fill:rgb(226,238,255);fill-rule:nonzero;"/>
            <path d="M10142,7430L10140,6855L10260,6735L10380,6615L10380,6385L10380,6154L10340,6115L10300,6076L10300,5383L10300,4690L10335,4651L10370,4613L10370,4429L10370,4245L10202,4077L10035,3910L9885,3910L9735,3910L9612,3787L9490,3665L9490,3579L9490,3493L9440,3446L9391,3400L9243,3400L9095,3400L8985,3510L8875,3620L8536,3620L8197,3620L8109,3533C8060,3485 8011,3446 7999,3445C7959,3442 7948,3388 7983,3366C8007,3351 8034,3370 8038,3406C8040,3427 8065,3459 8123,3518L8205,3600L8875,3600L8980,3495L9085,3390L9406,3390L9459,3444L9511,3497L9509,3574L9507,3652L9755,3900L10055,3900L10390,4235L10390,4626L10355,4660L10320,4694L10320,6076L10400,6154L10400,6625L10275,6750L10150,6875L10147,7440L10145,8005L10142,7430Z" style="fill:rgb(226,238,255);fill-rule:nonzero;"/>
            <path d="M10498,7847L10650,7695L10650,6625L10650,5554L10597,5502C10549,5454 10541,5450 10498,5450L10451,5450L10448,5360L10445,5270L10505,5270C10562,5270 10568,5268 10603,5232L10640,5194L10640,4434C10640,3710 10639,3672 10622,3657C10607,3643 10582,3640 10494,3640L10385,3640L10283,3538L10181,3436L10124,3439L10067,3442L9984,3359L9900,3275L9900,3070L9900,2865L10017,2748L10135,2630L10321,2630L10374,2580L10427,2530L10716,2530L10783,2462L10850,2394L10850,2280L10850,2165L11012,2003L11175,1840L12305,1840L12552,1593L12800,1345L12800,1465L12567,1698L12335,1930L11770,1930L11205,1930L11072,2063L10940,2195L10940,2431L10847,2526L10754,2620L10604,2620L10454,2620L10410,2665L10366,2710L10275,2710L10185,2710L10087,2808L9990,2905L9990,3246L10043,3298C10096,3350 10096,3350 10161,3350L10225,3350L10425,3550L10636,3550L10730,3646L10730,5225L10660,5295L10590,5366L10740,5516L10740,7735L10607,7868L10475,8000L10410,8000L10345,8000L10498,7847Z" style="fill:rgb(226,238,255);fill-rule:nonzero;"/>
            <path d="M9232,5778C9226,5772 9220,5757 9220,5745C9220,5733 9185,5689 9127,5632L9035,5540L8865,5540L8695,5540L8485,5330L8275,5120L7941,5120L7607,5120L7516,5030L7424,4940L7344,4940L7264,4940L7220,4895C7182,4856 7170,4850 7136,4850C7101,4850 7089,4857 7048,4897C7011,4933 7003,4947 7010,4960C7025,4987 6999,5014 6967,5006C6922,4995 6934,4966 7013,4890C7082,4823 7087,4821 7135,4820C7182,4820 7189,4823 7230,4865L7274,4910L7435,4910L7615,5090L8285,5090L8707,5512L8876,5511L9045,5509L9140,5605C9203,5668 9242,5700 9257,5700C9269,5700 9286,5710 9294,5722C9307,5741 9308,5747 9296,5765C9280,5789 9250,5796 9232,5778Z" style="fill:rgb(226,238,255);fill-rule:nonzero;"/>
            <path d="M9950,5730C9931,5711 9917,5710 9696,5710L9462,5710L9314,5560C9178,5422 9164,5410 9130,5410C9107,5410 9089,5417 9077,5430C9059,5452 9035,5456 9025,5440C9021,5434 8961,5430 8877,5430L8735,5430L8535,5230L8335,5030L8000,5030L7664,5030L7574,4940C7491,4857 7481,4850 7444,4850C7410,4850 7398,4843 7355,4800C7312,4756 7301,4750 7264,4750C7236,4750 7218,4756 7205,4770C7190,4787 7174,4790 7099,4790C7012,4790 6999,4795 6994,4828C6991,4847 6969,4870 6954,4870C6937,4870 6910,4842 6910,4825C6910,4801 6941,4778 6966,4784C6978,4787 6992,4786 6995,4780C6998,4775 7041,4770 7089,4770C7164,4770 7180,4767 7195,4750C7208,4735 7226,4730 7259,4730C7302,4730 7310,4734 7360,4785C7408,4834 7419,4840 7455,4840C7492,4840 7502,4846 7580,4925L7665,5010L8347,5010L8548,5215L8748,5420L8874,5420C8977,5420 9000,5417 9000,5406C9000,5388 9027,5360 9045,5360C9052,5360 9066,5368 9076,5377C9087,5388 9105,5393 9129,5392C9163,5389 9172,5397 9315,5540L9465,5690L9701,5690C9902,5690 9939,5688 9944,5675C9951,5657 9991,5655 10008,5672C10026,5690 10022,5728 10001,5740C9975,5753 9973,5753 9950,5730Z" style="fill:rgb(226,238,255);fill-rule:nonzero;"/>
            <path d="M10368,5709C10347,5697 10344,5660 10362,5642C10369,5635 10386,5630 10401,5630C10433,5630 10470,5590 10470,5556C10470,5544 10452,5517 10430,5495L10390,5456L10390,5080L10390,4704L10425,4670L10460,4636L10460,4375L10460,4114L10405,4060L10350,4006L10350,3830L10350,3655L10262,3567L10175,3480L10105,3480L10035,3480L9933,3378L9830,3275L9830,3060L9830,2845L9958,2717L10085,2590L10276,2590L10348,2517L10420,2445L10420,2384C10420,2334 10424,2320 10443,2302C10463,2283 10478,2280 10556,2280L10645,2280L10885,2040L11125,1800L12296,1800L12545,1550C12682,1413 12796,1303 12799,1306C12802,1308 12690,1425 12550,1565L12295,1820L11715,1820L11135,1820L10895,2060L10655,2300L10564,2300C10482,2300 10471,2302 10452,2323C10434,2342 10430,2358 10430,2406L10430,2466L10362,2533L10294,2600L10200,2600L10105,2600L9977,2728L9850,2855L9850,3275L10035,3460L10175,3460L10370,3655L10370,4006L10480,4114L10480,4646L10445,4680L10410,4714L10410,5446L10445,5480C10490,5524 10494,5583 10455,5620C10439,5635 10432,5650 10435,5661C10439,5672 10433,5687 10421,5699C10397,5723 10392,5724 10368,5709Z" style="fill:rgb(226,238,255);fill-rule:nonzero;"/>
            <path d="M10367,5593C10353,5577 10351,5521 10350,5135L10349,4695L10385,4660L10420,4626L10420,4380L10420,4134L10365,4080L10310,4026L10310,3845L10310,3665L10232,3587L10155,3510L10079,3510L10004,3510L9897,3401L9790,3293L9790,3064L9790,2835L9937,2688L10085,2540L10276,2540L10323,2492L10370,2444L10370,2374C10370,2308 10372,2302 10403,2272C10436,2240 10437,2240 10536,2240L10636,2240L10870,2005L11103,1770L12275,1770L12535,1510C12678,1368 12797,1253 12799,1256C12802,1259 12685,1380 12540,1525L12275,1790L11690,1790L11105,1790L10870,2025L10635,2260L10539,2260C10448,2260 10443,2261 10417,2288C10393,2313 10390,2324 10390,2380L10390,2444L10333,2502L10276,2560L10180,2560L10085,2560L9947,2698L9810,2835L9810,3285L10015,3490L10155,3490L10330,3665L10330,4013L10440,4129L10440,4626L10405,4660L10370,4694L10370,5520L10393,5520C10422,5520 10440,5538 10440,5565C10440,5608 10396,5625 10367,5593Z" style="fill:rgb(226,238,255);fill-rule:nonzero;"/>
            <path d="M9505,5470C9502,5465 9480,5460 9457,5460C9419,5460 9410,5454 9344,5389L9273,5319L9135,5319C9010,5319 8996,5321 8976,5339C8956,5358 8941,5360 8844,5360L8735,5360L8550,5175L8365,4990L8025,4990L7685,4990L7590,4895C7506,4810 7491,4800 7460,4800C7431,4800 7416,4792 7380,4754L7335,4709L7221,4712C7115,4714 7106,4713 7093,4694C7081,4676 7082,4670 7098,4650C7119,4624 7155,4629 7165,4661C7171,4678 7181,4680 7259,4680L7346,4680L7395,4730C7436,4771 7450,4780 7480,4780C7511,4780 7526,4790 7605,4870L7695,4960L8375,4960L8755,5340L8846,5340C8930,5340 8938,5338 8960,5315C8983,5290 8986,5290 9134,5290L9286,5290L9360,5365C9440,5446 9478,5461 9500,5420C9516,5391 9558,5394 9572,5425C9580,5444 9580,5453 9570,5465C9556,5482 9514,5485 9505,5470Z" style="fill:rgb(226,238,255);fill-rule:nonzero;"/>
            <path d="M6802,5158C6784,5140 6787,5100 6808,5093C6817,5090 6837,5076 6853,5062L6880,5036L6880,4750C6880,4466 6880,4463 6903,4443C6924,4424 6941,4422 7240,4416L7555,4410L7825,4680L8795,4680L8970,4505C9137,4338 9143,4330 9131,4307C9115,4277 9119,4251 9142,4236C9181,4212 9221,4280 9186,4310C9177,4317 9170,4328 9170,4334C9170,4340 9088,4427 8987,4528L8805,4710L8310,4710L7815,4710L7676,4571L7536,4431L7241,4437C6961,4442 6944,4444 6923,4463C6900,4483 6900,4486 6900,4770L6900,5057L6876,5079C6860,5094 6854,5108 6858,5122C6861,5136 6857,5148 6845,5156C6822,5173 6817,5173 6802,5158Z" style="fill:rgb(226,238,255);fill-rule:nonzero;"/>
            <path d="M8816,5034C8795,5014 8796,5004 8820,4980C8837,4963 8844,4962 8861,4970C8872,4976 8883,4987 8886,4994C8889,5001 8902,5005 8919,5002C8939,4999 8991,4954 9106,4839L9265,4680L9745,4680L9845,4580C9939,4485 9947,4480 9986,4480C10011,4480 10033,4474 10040,4465C10055,4447 10082,4446 10098,4462C10116,4480 10112,4518 10091,4530C10070,4540 10040,4534 10040,4519C10040,4514 10021,4510 9997,4510C9957,4510 9950,4515 9855,4610L9755,4710L9510,4710L9265,4710L9105,4870C8965,5010 8941,5030 8913,5030C8896,5030 8878,5035 8875,5040C8866,5055 8833,5052 8816,5034Z" style="fill:rgb(226,238,255);fill-rule:nonzero;"/>
            <path d="M7585,4820C7502,4736 7460,4702 7449,4705C7427,4712 7398,4683 7402,4657C7409,4611 7470,4610 7478,4656C7480,4666 7534,4728 7598,4793L7715,4910L8905,4910L9105,4710L9305,4510L9382,4510C9449,4510 9461,4507 9470,4490C9482,4468 9510,4464 9528,4482C9544,4498 9543,4535 9525,4550C9510,4562 9470,4555 9470,4539C9470,4534 9438,4530 9398,4530L9326,4530L9120,4735L8914,4940L8309,4940L7705,4940L7585,4820Z" style="fill:rgb(226,238,255);fill-rule:nonzero;"/>
            <path d="M9448,4905C9440,4886 9440,4877 9450,4865C9482,4827 9544,4866 9520,4910C9504,4939 9462,4936 9448,4905Z" style="fill:rgb(226,238,255);fill-rule:nonzero;"/>
            <path d="M8315,4882L7745,4880L7605,4740C7477,4612 7462,4600 7429,4600C7404,4600 7387,4607 7370,4625C7350,4647 7338,4650 7280,4650C7219,4650 7211,4647 7185,4620C7159,4593 7150,4590 7095,4590C7046,4590 7029,4586 7016,4571C7006,4560 6984,4550 6967,4548C6906,4542 6905,4475 6966,4475C6989,4475 6996,4480 6998,4500C7000,4514 7011,4535 7023,4548C7040,4566 7054,4570 7105,4570C7160,4570 7169,4573 7195,4600C7221,4627 7230,4630 7284,4630C7328,4630 7349,4625 7364,4611C7377,4600 7405,4591 7437,4588L7488,4583L7765,4860L8875,4860L9148,4587L9420,4315L9420,4270C9420,4229 9415,4221 9363,4168C9317,4122 9299,4110 9274,4110C9257,4110 9237,4117 9230,4125C9204,4156 9160,4136 9160,4093C9160,4060 9195,4044 9225,4064C9239,4073 9264,4080 9282,4080C9310,4080 9327,4091 9383,4148C9449,4215 9450,4216 9450,4270L9450,4325L9168,4605L8885,4885L8315,4882Z" style="fill:rgb(226,238,255);fill-rule:nonzero;"/>
            <path d="M9934,4882C9912,4867 9910,4840 9930,4820C9947,4803 9954,4802 9971,4810C9998,4825 10004,4844 9990,4869C9979,4890 9954,4896 9934,4882Z" style="fill:rgb(226,238,255);fill-rule:nonzero;"/>
            <path d="M6787,4853C6776,4843 6779,4792 6790,4785C6796,4781 6800,4716 6800,4621L6800,4464L6840,4425C6872,4394 6880,4379 6880,4349C6880,4318 6888,4305 6934,4261L6989,4210L7058,4210C7118,4210 7129,4207 7150,4185L7173,4160L7595,4160L7905,4470L8255,4470L8480,4245L8705,4020L9315,4020L9500,4205L9500,4276C9500,4368 9512,4380 9602,4380C9675,4380 9696,4366 9702,4316C9706,4280 9733,4261 9757,4276C9797,4301 9778,4367 9735,4356C9720,4352 9706,4358 9690,4375C9669,4397 9658,4400 9595,4400C9533,4400 9521,4397 9502,4377C9484,4358 9480,4342 9480,4284L9480,4215L9392,4127L9305,4040L9005,4040L8705,4040L8480,4265L8255,4490L8080,4490L7905,4490L7750,4335L7595,4180L7384,4180L7173,4180L7150,4205C7130,4227 7118,4230 7060,4230L6994,4230L6942,4283C6902,4323 6890,4343 6890,4366C6890,4387 6880,4406 6855,4430L6820,4464L6820,4620C6820,4764 6821,4776 6840,4788C6862,4802 6866,4830 6848,4848C6835,4861 6798,4864 6787,4853Z" style="fill:rgb(226,238,255);fill-rule:nonzero;"/>
            <path d="M7640,4685L7495,4540L7440,4540C7389,4540 7381,4543 7350,4575C7301,4626 7260,4624 7203,4568C7170,4535 7157,4529 7148,4538C7129,4557 7092,4552 7080,4529C7066,4504 7072,4485 7100,4470C7118,4460 7128,4466 7184,4519C7259,4591 7289,4598 7335,4550C7362,4522 7368,4520 7440,4520L7515,4520L7795,4800L8835,4800L9084,4551C9316,4319 9332,4301 9317,4285C9296,4265 9296,4260 9316,4232C9335,4205 9352,4204 9374,4229C9392,4249 9389,4290 9369,4290C9364,4290 9360,4296 9360,4303C9360,4309 9244,4431 9102,4573L8845,4830L8315,4830L7785,4830L7640,4685Z" style="fill:rgb(226,238,255);fill-rule:nonzero;"/>
            <path d="M7650,4625L7515,4490L7426,4490C7338,4490 7336,4491 7310,4521C7290,4545 7279,4551 7263,4546C7223,4533 7222,4477 7261,4465C7272,4461 7288,4464 7296,4471C7307,4480 7314,4480 7322,4472C7330,4464 7371,4460 7430,4460L7525,4460L7805,4740L8815,4740L9028,4527C9225,4330 9240,4312 9240,4279C9240,4255 9233,4237 9217,4222C9195,4201 9185,4200 9004,4200C8804,4200 8790,4203 8790,4246C8790,4274 8767,4292 8738,4288C8695,4282 8706,4210 8750,4210C8760,4210 8773,4203 8780,4195C8790,4183 8828,4180 9003,4180L9214,4180L9242,4207C9265,4229 9270,4242 9270,4279L9270,4325L9052,4543L8835,4760L8310,4760L7785,4760L7650,4625Z" style="fill:rgb(226,238,255);fill-rule:nonzero;"/>
            <path d="M7690,4505L7545,4360L7432,4360C7344,4360 7318,4363 7314,4374C7300,4411 7240,4397 7240,4357C7240,4314 7284,4294 7310,4325C7320,4337 7348,4340 7444,4340L7565,4340L7855,4630L8627,4630L8648,4607C8668,4586 8670,4573 8670,4453C8670,4325 8669,4322 8645,4306C8632,4297 8614,4290 8606,4290C8583,4290 8567,4254 8580,4230C8602,4189 8671,4220 8654,4263C8651,4271 8660,4284 8674,4294C8700,4310 8700,4311 8700,4453L8700,4596L8672,4623L8644,4650L8239,4650L7835,4650L7690,4505Z" style="fill:rgb(226,238,255);fill-rule:nonzero;"/>
            <path d="M7715,4450L7565,4300L7400,4300L7234,4300L7185,4350C7158,4378 7130,4400 7123,4400C7105,4400 7082,4361 7087,4339C7094,4315 7135,4303 7156,4320C7168,4331 7176,4328 7203,4302L7236,4270L7565,4270L7865,4570L8566,4570L8565,4544C8565,4511 8593,4491 8617,4506C8645,4523 8645,4561 8618,4582C8597,4598 8566,4600 8230,4600L7865,4600L7715,4450Z" style="fill:rgb(226,238,255);fill-rule:nonzero;"/>
            <path d="M7740,4385L7585,4230L7394,4230L7204,4230L7175,4260C7150,4286 7139,4290 7095,4290C7054,4290 7039,4295 7022,4313C7010,4326 7000,4346 7000,4358C7000,4373 6992,4382 6975,4386C6946,4393 6920,4376 6920,4349C6920,4328 6956,4299 6974,4306C6981,4309 6997,4299 7010,4285C7029,4265 7043,4260 7083,4260C7124,4260 7138,4255 7167,4230L7201,4200L7584,4200L7906,4520L8496,4520L8528,4487C8546,4469 8558,4451 8554,4448C8543,4436 8561,4401 8581,4395C8603,4388 8640,4413 8640,4435C8640,4451 8607,4480 8589,4480C8580,4480 8561,4494 8545,4510L8516,4540L8206,4540L7895,4540L7740,4385Z" style="fill:rgb(226,238,255);fill-rule:nonzero;"/>
            <path d="M7942,4438C7913,4409 7940,4352 7978,4364C7990,4368 8004,4362 8020,4345C8042,4322 8050,4320 8139,4320L8235,4320L8410,4145L8585,3970L9325,3970L9455,4100L9585,4229L9717,4231C9859,4232 9894,4243 9888,4282C9880,4337 9817,4328 9812,4271L9809,4240L9687,4240L9565,4240L9440,4115L9315,3990L8955,3990L8595,3990L8420,4165L8245,4340L8149,4340C8062,4340 8052,4342 8032,4363C8020,4376 8010,4396 8010,4408C8010,4420 8001,4434 7991,4440C7966,4453 7957,4453 7942,4438Z" style="fill:rgb(226,238,255);fill-rule:nonzero;"/>
            <path d="M9967,4439C9958,4433 9950,4419 9950,4406C9950,4393 9943,4377 9935,4370C9925,4362 9920,4339 9920,4301C9920,4254 9916,4240 9897,4222C9875,4201 9864,4200 9729,4200L9585,4200L9460,4075L9335,3950L8886,3950L8436,3950L8265,4120C8108,4276 8091,4290 8058,4290C8038,4290 8017,4297 8010,4305C7985,4335 7940,4316 7940,4275C7940,4231 7990,4214 8012,4250C8020,4263 8036,4270 8055,4270C8081,4270 8110,4246 8250,4105L8415,3940L9349,3940L9472,4060L9595,4179L9736,4180L9876,4180L9908,4213C9936,4241 9940,4253 9940,4297C9940,4352 9949,4364 9989,4364C10016,4365 10036,4390 10027,4413C10018,4437 9987,4450 9967,4439Z" style="fill:rgb(226,238,255);fill-rule:nonzero;"/>
            <path d="M10070,4396C10064,4388 10060,4372 10062,4361C10064,4347 10040,4316 9980,4255L9895,4170L9756,4170L9617,4170L9485,4040L9354,3910L8884,3910L8415,3910L8260,4065L8105,4220L7975,4220L7845,4220L7715,4090L7584,3959L7241,3959C6989,3959 6894,3963 6883,3971C6875,3978 6863,3998 6855,4017C6845,4041 6835,4050 6817,4050C6781,4050 6764,4026 6779,3994C6788,3972 6796,3969 6820,3972C6841,3975 6855,3971 6867,3958C6882,3941 6907,3940 7234,3940L7585,3940L7845,4200L8095,4200L8250,4045L8405,3890L9365,3890L9625,4150L9905,4150L9995,4240C10053,4298 10093,4330 10109,4332C10129,4334 10136,4341 10138,4364C10143,4406 10097,4428 10070,4396Z" style="fill:rgb(226,238,255);fill-rule:nonzero;"/>
            <path d="M8502,4378C8485,4361 8487,4325 8505,4310C8517,4300 8526,4300 8545,4308C8574,4321 8578,4351 8554,4374C8535,4393 8518,4394 8502,4378Z" style="fill:rgb(226,238,255);fill-rule:nonzero;"/>
            <path d="M9540,4330C9525,4302 9544,4270 9575,4270C9589,4270 9604,4278 9610,4290C9625,4318 9606,4350 9575,4350C9561,4350 9546,4342 9540,4330Z" style="fill:rgb(226,238,255);fill-rule:nonzero;"/>
            <path d="M7842,4328C7835,4321 7830,4309 7830,4300C7830,4292 7766,4221 7687,4142L7545,4000L7228,4000L6910,4000L6905,4028C6894,4079 6886,4085 6825,4088C6749,4092 6730,4076 6730,4006C6730,3956 6728,3952 6670,3895L6610,3836L6610,3600L6610,3365L6728,3247C6833,3142 6849,3130 6881,3130C6908,3130 6924,3122 6949,3096C6985,3059 6993,3057 7180,3044L7255,3039L7773,2522L8290,2005L8290,1595L8290,1184L8330,1145L8370,1106L8370,800L8370,495L8515,350L8660,205L8660,132C8660,86 8656,61 8650,65C8645,68 8640,101 8640,138L8640,205L8500,345L8360,485L8360,1093L8320,1136L8280,1180L8280,1995L7762,2513L7245,3030L7173,3030C7134,3030 7098,3035 7095,3040C7092,3046 7059,3050 7023,3050C6962,3050 6955,3052 6919,3085C6897,3104 6870,3120 6857,3120C6842,3120 6797,3158 6712,3243L6590,3365L6590,3846L6650,3905C6707,3962 6710,3967 6710,4014C6710,4055 6715,4069 6737,4092C6761,4117 6770,4120 6830,4120C6885,4120 6900,4116 6916,4099C6926,4087 6934,4068 6932,4056C6928,4028 6952,4007 6982,4012C7024,4018 7014,4090 6971,4090C6961,4090 6943,4101 6930,4115C6909,4137 6899,4140 6830,4140C6757,4140 6753,4139 6722,4107C6694,4078 6690,4067 6690,4019C6690,3965 6689,3963 6630,3905L6570,3846L6570,3601L6570,3357L6697,3228C6795,3129 6830,3100 6850,3100C6867,3100 6888,3087 6910,3065C6942,3032 6947,3030 7011,3030C7048,3030 7082,3026 7085,3020C7088,3015 7126,3010 7168,3010L7245,3010L7758,2497L8270,1985L8270,1574L8270,1164L8305,1130L8340,1096L8340,790L8340,485L8480,345L8620,205L8620,135C8620,68 8622,62 8653,32C8675,11 8696,0 8715,0L8744,0L8707,38C8671,75 8670,78 8670,151L8670,226L8525,370L8380,513L8380,1126L8345,1160L8310,1194L8310,2002L7788,2529L7267,3055L7191,3058C7149,3060 7111,3065 7106,3070C7100,3076 7071,3080 7040,3080C6989,3080 6981,3083 6950,3115C6926,3140 6907,3150 6885,3150C6860,3150 6837,3168 6742,3263L6630,3375L6630,3826L6690,3885C6748,3942 6750,3946 6750,3996C6750,4056 6770,4080 6819,4080C6866,4080 6890,4064 6890,4032C6890,4016 6895,3999 6902,3992C6911,3983 6999,3980 7235,3980L7555,3980L7695,4120C7808,4233 7838,4258 7856,4254C7880,4248 7910,4272 7910,4299C7910,4320 7891,4340 7870,4340C7861,4340 7849,4335 7842,4328Z" style="fill:rgb(226,238,255);fill-rule:nonzero;"/>
            <path d="M8972,4318C8954,4300 8958,4262 8979,4250C9005,4236 9029,4247 9036,4276C9047,4318 9002,4348 8972,4318Z" style="fill:rgb(226,238,255);fill-rule:nonzero;"/>
            <path d="M7870,4109C7863,4098 7861,4083 7863,4076C7866,4069 7836,4031 7796,3991L7725,3920L7315,3920L6905,3920L6797,3812L6690,3705L6690,3560L6690,3415L6788,3317C6847,3258 6893,3220 6906,3220C6917,3220 6946,3200 6970,3175C7012,3132 7017,3130 7071,3130C7103,3130 7132,3126 7135,3120C7138,3115 7176,3110 7218,3110L7295,3110L7833,2572L8370,2035L8370,1629L8370,1224L8405,1190L8440,1156L8440,845L8440,535L8563,412L8685,290L8806,290C8886,290 8930,286 8938,278C8946,270 8950,223 8950,133C8950,51 8954,0 8960,0C8966,0 8970,51 8970,133C8970,260 8969,268 8947,288C8926,308 8913,310 8810,310L8695,310L8578,427L8460,545L8460,1156L8425,1190L8390,1224L8390,2035L7842,2583L7295,3130L7217,3130C7172,3130 7140,3134 7140,3140C7140,3146 7114,3150 7081,3150C7026,3150 7020,3152 6982,3190C6959,3213 6933,3230 6920,3230C6905,3230 6866,3261 6804,3322L6710,3414L6710,3695L6915,3900L7726,3900L7800,3975C7853,4028 7880,4049 7893,4046C7911,4042 7950,4071 7950,4089C7950,4105 7919,4130 7900,4130C7889,4130 7876,4121 7870,4109Z" style="fill:rgb(226,238,255);fill-rule:nonzero;"/>
            <path d="M10162,3968C10133,3939 10158,3885 10198,3892C10209,3894 10227,3886 10239,3876C10257,3859 10260,3846 10260,3766L10260,3674L10197,3612L10134,3550L10065,3550L9995,3550L9878,3433L9760,3315L9760,3065L9760,2815L9915,2660L10070,2505L10070,2455L10070,2405L10240,2235L10410,2065L10410,1884C10410,1721 10412,1701 10428,1687C10444,1672 10478,1670 10701,1670L10956,1670L10985,1640L11014,1610L12205,1610L12423,1392L12640,1175L12640,685L12640,194L12704,130C12755,80 12770,59 12773,31C12776,-2 12777,-1 12778,40C12780,83 12777,89 12720,145L12660,204L12660,1175L12432,1403L12205,1630L11614,1630L11024,1630L10995,1660L10967,1690L10701,1692L10435,1695L10432,1885L10430,2076L10260,2245C10090,2415 10090,2415 10090,2460C10090,2505 10089,2506 9935,2660L9780,2815L9780,3305L10005,3530L10136,3530L10208,3603L10280,3675L10280,3771C10280,3860 10278,3868 10255,3890C10241,3903 10230,3923 10230,3935C10230,3960 10212,3980 10190,3980C10181,3980 10169,3975 10162,3968Z" style="fill:rgb(226,238,255);fill-rule:nonzero;"/>
            <path d="M6728,3879C6716,3873 6710,3857 6710,3835C6710,3810 6702,3795 6679,3776L6648,3750L6649,3567L6651,3385L6758,3278C6847,3187 6870,3170 6895,3170C6917,3170 6936,3160 6960,3135C6991,3103 6999,3100 7051,3100C7083,3100 7112,3096 7115,3090C7118,3085 7154,3080 7193,3080L7265,3080L7798,2547L8330,2015L8330,1604L8330,1194L8365,1160L8400,1126L8400,820L8400,515L8528,388L8655,261L8785,258L8915,255L8918,128C8919,54 8925,0 8930,0C8943,0 8943,236 8930,261C8920,278 8908,280 8792,280L8665,280L8542,403L8420,525L8420,1136L8385,1170L8350,1204L8350,2025L7817,2558L7285,3090L7209,3090C7153,3090 7129,3094 7120,3105C7112,3115 7090,3120 7056,3120C7010,3120 7000,3124 6970,3155C6946,3180 6927,3190 6905,3190C6880,3190 6857,3207 6767,3298L6660,3405L6660,3736L6693,3768C6711,3786 6735,3800 6747,3800C6772,3800 6793,3823 6788,3846C6783,3872 6748,3891 6728,3879Z" style="fill:rgb(226,238,255);fill-rule:nonzero;"/>
            <path d="M10168,3859C10158,3854 10150,3839 10150,3826C10150,3814 10139,3793 10125,3780C10108,3764 10100,3746 10100,3721C10100,3667 10059,3630 10000,3630C9955,3630 9954,3629 9817,3492L9680,3355L9680,3064L9680,2774L9645,2740C9611,2707 9610,2704 9610,2630C9610,2555 9611,2553 9648,2517L9686,2480L9885,2480L10113,2252L10340,2025L10340,1834L10340,1644L10368,1617L10396,1590L10936,1590L10965,1560C10992,1532 10998,1530 11071,1530L11149,1530L11247,1425L11345,1320L12375,1320L12468,1227L12560,1135L12560,639L12560,143L12520,110C12486,82 12480,72 12480,39C12480,17 12485,0 12490,0C12496,0 12500,15 12500,33C12500,58 12509,75 12540,105L12580,144L12580,1135L12478,1237L12375,1340L11865,1340L11355,1340L11250,1445L11145,1550L11075,1550C11009,1550 11002,1552 10975,1580L10946,1610L10670,1610C10414,1610 10392,1611 10377,1628C10362,1644 10360,1674 10360,1836L10360,2025L10127,2258L9895,2490L9794,2490L9694,2490L9657,2528C9622,2564 9620,2569 9620,2631C9620,2694 9621,2697 9660,2735L9700,2774L9700,3345L9833,3478C9959,3604 9967,3610 10006,3610C10039,3610 10052,3616 10083,3648C10109,3675 10120,3695 10120,3716C10120,3755 10151,3784 10193,3784C10221,3785 10225,3789 10228,3815C10231,3834 10226,3848 10214,3857C10193,3872 10190,3872 10168,3859Z" style="fill:rgb(226,238,255);fill-rule:nonzero;"/>
            <path d="M9914,3846C9909,3833 9890,3830 9816,3830L9725,3830L9632,3737L9540,3645L9540,3550L9540,3454L9465,3380L9390,3306L9390,2925L9390,2545L9504,2431L9618,2317L9706,2319L9793,2321L9987,2128L10180,1935L10180,1845C10180,1754 10180,1754 10145,1720L10110,1686L10110,1585L10110,1484L10143,1452C10174,1422 10180,1420 10251,1420L10326,1420L10395,1350L10464,1280L11216,1280L11260,1235L11304,1190L11745,1190L11883,1052L12020,915L12020,580L12020,244L12095,170C12167,98 12170,94 12170,48C12170,21 12175,0 12180,0C12186,0 12190,21 12190,48C12190,94 12187,98 12115,170L12040,244L12040,915L11902,1058L11765,1201L11540,1200L11314,1200L11265,1250L11215,1300L10846,1300L10476,1299L10405,1370L10335,1440L10254,1440C10183,1440 10171,1443 10152,1463C10133,1483 10130,1498 10130,1579C10130,1672 10130,1673 10165,1711C10200,1750 10200,1751 10200,1843L10200,1935L10002,2133L9805,2330L9715,2330L9625,2330L9517,2438L9410,2545L9410,3296L9560,3444L9560,3635L9735,3810L9822,3810C9872,3810 9910,3806 9910,3800C9910,3781 9949,3769 9971,3780C9986,3789 9990,3799 9988,3823C9985,3851 9981,3855 9952,3858C9930,3860 9918,3856 9914,3846Z" style="fill:rgb(226,238,255);fill-rule:nonzero;"/>
            <path d="M6895,3790L6845,3739L6837,3627C6833,3565 6827,3473 6824,3421L6819,3327L6861,3284C6890,3254 6913,3240 6930,3240C6946,3240 6967,3228 6985,3210C7011,3183 7020,3180 7074,3180C7108,3179 7146,3173 7160,3165C7174,3157 7210,3151 7240,3150L7295,3150L7848,2597L8400,2045L8400,1639L8400,1234L8440,1195L8480,1156L8480,855L8480,555L8593,442L8705,330L8826,330C8939,330 8948,329 8968,307C8988,286 8990,273 8990,154C8990,23 8996,0 9029,0C9041,0 9040,3 9027,18C9013,33 9010,59 9010,163C9010,283 9009,290 8984,319L8958,350L8831,350L8705,350L8597,458L8490,565L8490,1176L8455,1210L8420,1244L8420,2055L7863,2612L7305,3169L7235,3175C7019,3192 7035,3189 6999,3226C6975,3250 6957,3260 6935,3260C6913,3260 6895,3270 6872,3293C6841,3325 6840,3328 6840,3417C6840,3468 6845,3512 6850,3515C6856,3518 6860,3566 6860,3623L6860,3726L6908,3773L6957,3821L7226,3820L7494,3820L7527,3788C7549,3767 7558,3750 7555,3739C7551,3728 7558,3712 7570,3700C7586,3684 7594,3682 7611,3690C7638,3705 7644,3724 7630,3749C7623,3763 7609,3770 7592,3770C7573,3770 7553,3782 7530,3805L7496,3840L7220,3840L6944,3840L6895,3790Z" style="fill:rgb(226,238,255);fill-rule:nonzero;"/>
            <path d="M7020,3785C7007,3771 6987,3760 6975,3760C6948,3760 6930,3742 6930,3713C6930,3688 6960,3667 6984,3676C7001,3683 7017,3727 7006,3737C7003,3741 7010,3754 7022,3767C7043,3790 7047,3790 7255,3790C7448,3790 7468,3788 7483,3772C7493,3762 7500,3741 7500,3725C7500,3707 7510,3685 7527,3668C7552,3642 7559,3640 7635,3640L7716,3640L7854,3780L8546,3780C9203,3780 9238,3779 9253,3762C9276,3736 9275,3674 9250,3643C9232,3620 9231,3614 9244,3596C9260,3571 9286,3564 9305,3580C9324,3596 9324,3639 9305,3646C9295,3650 9290,3666 9290,3698C9290,3734 9284,3750 9263,3772L9236,3800L8540,3800L7844,3800L7770,3725L7696,3650L7635,3650C7581,3650 7571,3653 7547,3678C7530,3696 7520,3717 7520,3736C7520,3755 7511,3775 7497,3788C7475,3809 7466,3810 7259,3810L7043,3810L7020,3785Z" style="fill:rgb(226,238,255);fill-rule:nonzero;"/>
            <path d="M9991,3758C9986,3745 9984,3731 9986,3725C9989,3720 9911,3636 9815,3540L9640,3365L9640,3079L9640,2794L9610,2765C9581,2737 9580,2734 9580,2635L9580,2534L9628,2487L9676,2440L9865,2440L10083,2222L10300,2005L10300,1844C10300,1713 10297,1680 10285,1670C10277,1663 10273,1654 10275,1649C10278,1645 10271,1636 10260,1630C10238,1618 10233,1581 10252,1562C10273,1541 10309,1548 10322,1575C10332,1597 10330,1604 10310,1625C10292,1645 10289,1653 10298,1662C10306,1670 10310,1726 10310,1844L10310,2015L10088,2237L9865,2460L9770,2460L9676,2460L9633,2502L9590,2544L9590,2630C9590,2715 9590,2716 9625,2750L9660,2784L9660,3355L9834,3529C9930,3624 10012,3700 10016,3697C10021,3695 10035,3696 10048,3701C10067,3708 10071,3716 10068,3742C10065,3771 10061,3775 10032,3778C10006,3781 9998,3777 9991,3758Z" style="fill:rgb(226,238,255);fill-rule:nonzero;"/>
            <path d="M10156,3734C10153,3725 10150,3708 10150,3696C10150,3683 10132,3656 10107,3632C10070,3595 10059,3590 10019,3590C9976,3590 9972,3588 9852,3467L9730,3345L9730,3054L9730,2764L9690,2725C9652,2688 9650,2683 9650,2625C9650,2574 9654,2560 9673,2542C9694,2522 9707,2520 9801,2520L9905,2520L10138,2287L10370,2055L10370,1859C10370,1668 10370,1663 10393,1642C10416,1621 10423,1620 10691,1620L10967,1620L10990,1595L11013,1570L12195,1570L12398,1367L12600,1165L12600,627C12600,188 12598,90 12587,90C12566,90 12530,46 12530,22C12530,1 12534,0 12615,0C12662,0 12700,2 12700,5C12700,32 12667,80 12646,86L12620,92L12620,1165L12407,1378L12195,1590L11604,1590L11013,1590L10990,1615L10967,1640L10690,1640C10489,1640 10411,1643 10402,1652C10393,1661 10390,1721 10390,1859L10390,2055L10153,2292L9915,2530L9814,2530C9722,2530 9712,2532 9692,2553C9675,2571 9670,2589 9670,2626C9670,2670 9674,2680 9705,2710L9740,2744L9740,3325L9863,3448C9983,3568 9986,3570 10031,3570C10072,3570 10080,3575 10125,3620C10155,3651 10183,3670 10197,3670C10226,3670 10245,3703 10230,3730C10217,3755 10165,3758 10156,3734Z" style="fill:rgb(226,238,255);fill-rule:nonzero;"/>
            <path d="M9692,3718C9677,3703 9676,3668 9691,3653C9698,3646 9703,3620 9703,3595C9703,3551 9699,3545 9636,3481L9570,3414L9570,3124L9570,2834L9530,2795L9490,2756L9490,2630L9490,2504L9558,2437L9626,2370L9835,2370L10033,2172L10230,1975L10230,1859L10230,1744L10195,1710C10161,1677 10160,1673 10160,1605C10160,1538 10162,1532 10193,1502C10222,1474 10233,1470 10281,1470L10336,1470L10410,1395L10484,1320L11256,1320L11290,1285L11324,1250L11985,1250L12118,1117L12250,985L12250,593L12250,202L12325,135C12390,76 12400,63 12400,34C12400,15 12405,0 12410,0C12416,0 12420,15 12420,33C12420,60 12408,78 12345,140L12270,214L12270,985L12127,1128L11985,1270L11654,1270L11324,1270L11290,1305L11256,1340L10875,1340L10494,1340L10420,1415L10346,1490L10291,1490C10245,1490 10231,1494 10208,1517C10183,1541 10180,1551 10180,1605C10180,1662 10183,1669 10215,1700L10250,1734L10250,1975L10042,2183L9835,2390L9730,2390L9624,2390L9567,2448L9510,2506L9510,2756L9590,2834L9590,3406L9655,3470C9717,3531 9720,3537 9720,3582C9720,3619 9725,3634 9746,3655C9770,3679 9771,3683 9757,3703C9740,3729 9710,3736 9692,3718Z" style="fill:rgb(226,238,255);fill-rule:nonzero;"/>
            <path d="M9796,3709C9781,3686 9785,3660 9807,3647C9835,3630 9817,3601 9715,3500L9610,3395L9610,3110L9610,2824L9575,2790L9540,2756L9540,2630L9540,2504L9593,2452L9646,2400L9855,2400L10058,2197L10260,1995L10260,1849L10260,1704L10225,1670C10196,1642 10190,1629 10190,1595C10190,1535 10220,1510 10290,1510C10344,1510 10344,1510 10426,1430L10508,1350L11266,1350L11300,1315L11334,1280L12085,1280L12203,1162L12320,1045L12320,635L12320,224L12380,165C12438,107 12440,104 12440,53C12440,24 12445,0 12450,0C12456,0 12460,24 12460,53C12460,104 12458,107 12400,165L12340,224L12340,1045L12212,1173L12085,1300L11714,1300L11344,1300L11310,1335L11276,1370L10895,1370L10515,1370L10435,1450L10355,1530L10295,1530C10261,1530 10229,1535 10222,1542C10215,1549 10210,1572 10210,1595C10210,1629 10216,1642 10245,1670L10280,1704L10280,1995L10067,2208L9855,2420L9755,2420L9654,2420L9602,2473L9550,2526L9550,2736L9630,2814L9630,3385L9735,3490C9803,3558 9840,3602 9840,3616C9840,3628 9847,3643 9855,3650C9876,3668 9874,3707 9851,3720C9823,3735 9813,3733 9796,3709Z" style="fill:rgb(226,238,255);fill-rule:nonzero;"/>
            <path d="M9066,3644C9035,3613 9053,3570 9097,3570C9118,3570 9140,3595 9140,3619C9140,3633 9111,3660 9095,3660C9088,3660 9074,3653 9066,3644Z" style="fill:rgb(226,238,255);fill-rule:nonzero;"/>
            <path d="M6908,3636C6895,3627 6890,3609 6890,3578C6890,3550 6884,3528 6875,3520C6864,3511 6860,3486 6860,3421C6860,3342 6862,3331 6883,3312C6899,3297 6919,3290 6947,3290C6983,3290 6993,3285 7022,3250L7055,3211L7185,3204L7315,3198L7883,2631L8450,2065L8450,1659L8450,1254L8480,1225L8510,1196L8510,886L8510,575L8612,473L8715,370L8966,370L8998,337L9030,304L9030,179C9030,55 9030,54 9058,27L9086,0L9884,0C10413,0 10679,3 10675,10C10671,17 10395,20 9881,20L9093,20L9072,43C9052,64 9050,77 9050,191L9050,316L9012,353L8974,390L8849,390L8725,390L8627,488L8530,585L8530,1196L8500,1225L8470,1254L8470,2065L7898,2637L7325,3209L7198,3216L7071,3223L7034,3261C7004,3292 6989,3300 6960,3300C6900,3300 6880,3331 6880,3421C6881,3470 6886,3501 6895,3514C6903,3525 6910,3553 6910,3577C6910,3609 6915,3622 6929,3630C6940,3635 7007,3640 7078,3640C7220,3640 7235,3634 7242,3576C7246,3540 7273,3521 7298,3536C7332,3558 7322,3607 7283,3613C7271,3615 7252,3624 7242,3633C7226,3647 7201,3650 7074,3650C6966,3649 6920,3646 6908,3636Z" style="fill:rgb(226,238,255);fill-rule:nonzero;"/>
            <path d="M6958,3601C6940,3586 6938,3579 6946,3559C6955,3539 6953,3532 6928,3512C6903,3491 6900,3482 6900,3431C6900,3384 6904,3370 6923,3352C6936,3339 6959,3330 6976,3330C6997,3330 7016,3320 7035,3300C7060,3274 7071,3270 7120,3270C7164,3270 7181,3266 7195,3250C7210,3233 7226,3230 7289,3230L7365,3230L7785,2810L8205,2390L8396,2390L8443,2342L8490,2294L8490,1784L8490,1274L8525,1240L8560,1206L8560,901L8560,595L8647,508L8735,420L8996,420L9038,377C9076,338 9080,330 9080,284C9080,236 9082,232 9148,167L9216,100L9566,100L9714,250L10186,250L10250,185L10314,120L10663,120C10884,120 11018,116 11031,110C11046,102 11050,88 11050,50C11050,22 11055,0 11060,0C11066,0 11070,24 11070,54C11070,142 11082,140 10668,140L10314,140L10250,205L10186,270L9950,270L9715,270L9635,190L9555,110L9395,110L9234,110L9167,178C9104,241 9100,248 9100,291C9100,331 9095,340 9052,383L9004,430L8879,430L8755,430L8665,520C8616,569 8578,612 8581,614C8584,617 8624,581 8670,535L8755,450L9006,450L9045,410L9084,370L9606,370L9640,335L9674,300L10196,300L10265,230L10334,160L10696,160C11114,160 11087,167 11093,60L11096,-5L11098,66C11100,128 11097,139 11077,158C11054,180 11049,180 10699,180L10344,180L10275,250L10206,320L9940,320L9674,320L9640,355L9606,390L9345,390L9084,390L9045,430L9006,470L8880,470L8755,470L8677,548L8600,625L8600,1247L8575,1270L8550,1293L8550,2316L8487,2378L8424,2440L8330,2440L8235,2440L7810,2865L7385,3290L7299,3290C7234,3290 7209,3294 7200,3305C7192,3315 7169,3320 7132,3320C7083,3320 7072,3324 7043,3352C7017,3377 7013,3387 7021,3402C7035,3428 7015,3460 6984,3460C6967,3460 6956,3452 6948,3434C6937,3410 6938,3405 6959,3391C6972,3382 7001,3358 7025,3338C7064,3303 7072,3300 7127,3300C7169,3300 7191,3295 7200,3285C7209,3274 7234,3270 7294,3270L7375,3270L7800,2845L8225,2420L8414,2420L8472,2363L8530,2306L8530,1800L8530,1293L8555,1270C8569,1257 8580,1238 8580,1228C8580,1214 8571,1219 8545,1249L8510,1287L8510,2306L8462,2353L8414,2400L8320,2400L8225,2400L7800,2825L7375,3250L7294,3250C7226,3250 7210,3253 7195,3270C7181,3286 7164,3290 7120,3290C7071,3290 7060,3294 7035,3320C7017,3339 6996,3350 6980,3350C6941,3350 6920,3379 6920,3431C6920,3467 6925,3481 6948,3502C6963,3516 6985,3531 6997,3534C7023,3542 7033,3566 7020,3590C7006,3617 6983,3621 6958,3601Z" style="fill:rgb(226,238,255);fill-rule:nonzero;"/>
            <path d="M7108,3609C7098,3604 7090,3588 7090,3575C7090,3562 7079,3543 7065,3532C7044,3515 7040,3504 7040,3457C7040,3412 7045,3396 7066,3371C7089,3344 7098,3340 7144,3340C7184,3340 7201,3335 7215,3320C7230,3303 7246,3300 7314,3300L7395,3300L7820,2875L8245,2450L8436,2450L8503,2382L8570,2314L8570,1870L8570,1425L8720,1275L8870,1125L8870,1045L8870,965L8948,887C9019,817 9029,810 9066,810C9100,810 9112,804 9153,762C9191,723 9200,708 9200,679C9200,652 9208,636 9238,607C9274,571 9279,570 9346,570L9416,570L9465,520L9514,470L9686,470L9750,405L9814,340L10236,340L10305,270L10374,200L11087,200L11108,177C11127,157 11130,142 11130,77C11130,32 11134,0 11140,0C11146,0 11150,34 11150,83C11150,163 11149,168 11120,193L11090,220L10737,220L10384,220L10315,290L10246,360L10030,360L9814,360L9755,420L9696,480L9615,480L9534,480L9480,535L9426,590L9350,590C9277,590 9273,591 9242,623C9218,647 9210,665 9210,691C9210,720 9201,735 9157,778C9111,823 9099,830 9064,830C9028,830 9018,837 8952,903L8880,975L8880,1135L8735,1280L8590,1425L8590,2316L8513,2393L8437,2470L8341,2470L8245,2470L7820,2895L7395,3321L7323,3319C7264,3317 7248,3320 7225,3338C7205,3354 7183,3360 7150,3360C7085,3360 7060,3387 7060,3458C7060,3501 7064,3511 7083,3522C7095,3529 7113,3533 7123,3531C7166,3525 7189,3589 7151,3610C7128,3622 7129,3622 7108,3609Z" style="fill:rgb(226,238,255);fill-rule:nonzero;"/>
            <path d="M8175,3440L8075,3340L8016,3340C7969,3340 7951,3345 7934,3361C7922,3373 7914,3388 7916,3395C7924,3416 7901,3450 7880,3450C7870,3450 7854,3440 7846,3428C7827,3402 7840,3373 7874,3364C7887,3361 7908,3347 7921,3334C7941,3313 7952,3310 8014,3310L8085,3310L8285,3510L8846,3510L8897,3458C8925,3429 8950,3394 8952,3381C8956,3349 8984,3331 9008,3346C9044,3369 9028,3437 8989,3427C8978,3424 8952,3443 8914,3481L8856,3540L8565,3540L8275,3540L8175,3440Z" style="fill:rgb(226,238,255);fill-rule:nonzero;"/>
            <path d="M8350,3385L8255,3290L8080,3290L7904,3290L7853,3343C7825,3371 7800,3404 7798,3414C7790,3460 7729,3459 7722,3413C7718,3387 7747,3358 7769,3365C7780,3368 7802,3353 7835,3320L7884,3270L8275,3270L8455,3450L8595,3450L8908,3137L9220,2825L9220,2635L9220,2445L9373,2292L9525,2140L9737,2140L9843,2033L9950,1925L9950,1819C9950,1736 9947,1710 9935,1700C9917,1685 9915,1649 9932,1632C9951,1613 9977,1618 9994,1642C10008,1662 10008,1667 9995,1687C9984,1703 9980,1739 9980,1822L9980,1935L9862,2053L9745,2170L9640,2170L9535,2170L9387,2318L9240,2465L9240,2845L8922,3163L8604,3480L8524,3480L8445,3480L8350,3385Z" style="fill:rgb(226,238,255);fill-rule:nonzero;"/>
            <path d="M7102,3448C7084,3430 7088,3392 7109,3380C7135,3366 7136,3367 7160,3393L7182,3415L7209,3383L7236,3350L7555,3350L7640,3265L7725,3180L8467,3180L8490,3205C8521,3238 8540,3237 8540,3202C8540,3180 8590,3125 8830,2885L9120,2595L9120,2470L9120,2345L9465,2000L9810,1655L9810,1565L9810,1474L9988,1297L10166,1120L10336,1120L10444,1230L11065,1230L11345,950L11625,670L11735,670L11858,547L11980,425L11980,325L11980,224L12055,150C12122,84 12130,71 12130,38C12130,17 12135,0 12140,0C12146,0 12150,19 12150,42C12150,82 12145,90 12074,161L11997,238L11999,331L12001,423L11868,557L11735,690L11685,690L11635,690L11355,970L11075,1250L10755,1250L10434,1250L10380,1195L10326,1140L10250,1140L10175,1140L10001,1314L9827,1488L9829,1572L9831,1655L9485,2000L9140,2345L9140,2604L8850,2895C8615,3130 8560,3191 8560,3212C8560,3227 8565,3242 8570,3245C8591,3258 8581,3300 8554,3312C8531,3323 8525,3322 8510,3302C8499,3289 8494,3271 8497,3260C8501,3246 8494,3230 8480,3215L8457,3190L8096,3190L7735,3190L7645,3280L7555,3370L7402,3370L7248,3370L7197,3415C7144,3461 7123,3469 7102,3448Z" style="fill:rgb(226,238,255);fill-rule:nonzero;"/>
            <path d="M7252,3451C7244,3446 7240,3430 7242,3414C7244,3391 7251,3384 7271,3382C7285,3380 7302,3386 7310,3394C7320,3407 7345,3410 7434,3410L7545,3410L7640,3315L7735,3220L8386,3220L8450,3285C8487,3322 8521,3348 8528,3345C8535,3342 8551,3345 8562,3351C8581,3361 8610,3335 8871,3074L9160,2785L9160,2610L9160,2435L9329,2266L9498,2097L9702,2101L9796,2009C9888,1918 9890,1915 9890,1869C9890,1840 9884,1818 9875,1810C9863,1800 9860,1771 9860,1671L9860,1545L10033,1372C10164,1241 10211,1200 10230,1200C10244,1200 10261,1191 10268,1180C10284,1154 10312,1154 10335,1180C10362,1209 10342,1250 10301,1250C10285,1250 10268,1246 10265,1240C10246,1209 10209,1236 10053,1392L9890,1555L9890,1671C9890,1762 9893,1790 9905,1800C9915,1808 9920,1830 9920,1864L9920,1915L9818,2017L9715,2120L9615,2120L9515,2120L9352,2283L9190,2445L9190,2795L8872,3113C8647,3338 8548,3430 8533,3430C8511,3430 8482,3394 8494,3382C8498,3379 8470,3345 8433,3308L8366,3240L8060,3240L7755,3240L7655,3340L7555,3440L7433,3440C7363,3440 7309,3444 7305,3450C7298,3462 7270,3463 7252,3451Z" style="fill:rgb(226,238,255);fill-rule:nonzero;"/>
            <path d="M6395,3340C6385,3329 6367,3320 6354,3320C6331,3320 6300,3296 6300,3279C6300,3252 6322,3230 6350,3230C6382,3230 6406,3260 6396,3287C6384,3317 6419,3340 6474,3340L6525,3340L6665,3200C6784,3081 6809,3060 6835,3060C6857,3060 6876,3050 6900,3025C6932,2992 6938,2990 6996,2990C7031,2990 7062,2986 7065,2980C7068,2975 7106,2970 7148,2970L7225,2970L7723,2472L8220,1975L8220,1486C8219,1130 8222,994 8231,984C8257,953 8310,974 8310,1015C8310,1044 8291,1060 8258,1060L8230,1060L8230,1995L7732,2493L7235,2990L7153,2990C7108,2990 7068,2995 7065,3000C7062,3006 7031,3010 6997,3010C6938,3010 6934,3012 6907,3045C6886,3072 6872,3080 6847,3080C6819,3080 6797,3098 6675,3220L6535,3360L6474,3360C6426,3360 6409,3356 6395,3340Z" style="fill:rgb(226,238,255);fill-rule:nonzero;"/>
            <path d="M10092,3308C10085,3301 10080,3289 10080,3280C10080,3271 10069,3253 10055,3240C10030,3217 10030,3214 10030,3061L10030,2904L10103,2832L10175,2760L10375,2760L10480,2865C10563,2948 10590,2970 10612,2970L10640,2970L10640,3120L10565,3120L10490,3120L10490,3046C10490,2996 10494,2970 10503,2967C10510,2964 10483,2930 10435,2881L10355,2800L10275,2800L10194,2800L10132,2863L10070,2926L10070,3061C10070,3180 10072,3199 10088,3213C10098,3223 10114,3230 10123,3230C10142,3230 10170,3256 10170,3275C10170,3310 10117,3333 10092,3308Z" style="fill:rgb(226,238,255);fill-rule:nonzero;"/>
            <path d="M8963,3294C8956,3291 8950,3275 8950,3259C8950,3236 8956,3227 8978,3218C8993,3212 9069,3143 9148,3066L9290,2925L9290,2705L9290,2485L9423,2352L9555,2220L9775,2220L9920,2075L10064,1931L10061,1883C10060,1857 10054,1830 10048,1823C10043,1817 10040,1799 10042,1783C10045,1758 10049,1755 10080,1755L10115,1755L10112,1855L10108,1955L9957,2108L9805,2260L9690,2260L9575,2260L9458,2377L9340,2495L9340,2935L9194,3080C9114,3160 9041,3241 9032,3260C9016,3294 8991,3306 8963,3294Z" style="fill:rgb(226,238,255);fill-rule:nonzero;"/>
            <path d="M9438,3105C9428,3083 9429,3076 9448,3058C9466,3039 9473,3038 9495,3048C9511,3056 9520,3068 9520,3083C9520,3133 9458,3149 9438,3105Z" style="fill:rgb(226,238,255);fill-rule:nonzero;"/>
            <path d="M8540,3060C8502,3022 8554,2966 8596,3000C8616,3018 8613,3057 8591,3070C8565,3083 8563,3083 8540,3060Z" style="fill:rgb(226,238,255);fill-rule:nonzero;"/>
            <path d="M7898,3053C7875,3047 7864,3004 7880,2985C7898,2964 7937,2966 7950,2990C7960,3009 7971,3010 8208,3010L8456,3010L8492,2973C8512,2952 8530,2924 8532,2910C8538,2861 8610,2876 8610,2926C8610,2951 8580,2973 8558,2965C8550,2962 8529,2975 8510,2995L8476,3030L8218,3030C8019,3030 7954,3033 7937,3043C7925,3051 7907,3055 7898,3053Z" style="fill:rgb(226,238,255);fill-rule:nonzero;"/>
            <path d="M7955,2960C7945,2948 7931,2941 7924,2944C7907,2951 7870,2922 7870,2901C7870,2878 7890,2860 7916,2860C7943,2860 7964,2884 7956,2906C7941,2946 7961,2950 8209,2950C8462,2950 8470,2949 8470,2900C8470,2882 8480,2866 8500,2852C8519,2837 8530,2821 8530,2805C8530,2775 8557,2759 8588,2771C8628,2786 8611,2850 8568,2850C8535,2850 8500,2880 8500,2909C8500,2925 8490,2946 8477,2958C8454,2979 8446,2980 8213,2980C7984,2980 7972,2979 7955,2960Z" style="fill:rgb(226,238,255);fill-rule:nonzero;"/>
            <path d="M9450,2895C9434,2875 9445,2833 9469,2825C9511,2812 9541,2850 9520,2890C9507,2914 9468,2917 9450,2895Z" style="fill:rgb(226,238,255);fill-rule:nonzero;"/>
            <path d="M8083,2879C8076,2872 8070,2857 8070,2845C8070,2804 8115,2785 8140,2815C8147,2823 8160,2830 8169,2830C8178,2830 8318,2697 8480,2535L8775,2240L9135,2240L9433,1942L9730,1644L9730,1550L9730,1455L9937,1248L10145,1040L10236,1040C10305,1040 10331,1036 10340,1025C10371,988 10434,1036 10411,1078C10401,1097 10393,1098 10279,1093L10158,1087L9964,1281L9770,1475L9770,1665L9457,1978L9145,2290L8967,2290L8790,2290L8495,2585C8275,2805 8194,2880 8176,2880C8163,2880 8140,2883 8124,2886C8107,2889 8090,2886 8083,2879Z" style="fill:rgb(226,238,255);fill-rule:nonzero;"/>
            <path d="M9725,2690C9700,2663 9702,2614 9728,2588C9754,2562 9803,2560 9830,2585C9856,2609 9857,2670 9832,2693C9806,2717 9747,2715 9725,2690Z" style="fill:rgb(226,238,255);fill-rule:nonzero;"/>
            <path d="M8888,2609C8854,2590 8872,2530 8911,2530C8932,2530 8960,2556 8960,2575C8960,2592 8933,2620 8917,2620C8910,2620 8897,2615 8888,2609Z" style="fill:rgb(226,238,255);fill-rule:nonzero;"/>
            <path d="M8946,2459C8927,2444 8920,2429 8920,2405C8920,2335 9007,2302 9049,2356C9077,2391 9075,2425 9045,2455C9015,2485 8981,2487 8946,2459Z" style="fill:rgb(226,238,255);fill-rule:nonzero;"/>
            <path d="M8340,2315C8326,2298 8335,2264 8356,2256C8378,2248 8410,2267 8410,2288C8410,2326 8364,2344 8340,2315Z" style="fill:rgb(226,238,255);fill-rule:nonzero;"/>
            <path d="M8630,2220C8615,2192 8652,2155 8680,2170C8718,2190 8744,2181 8802,2123L8860,2066L8860,1826L8860,1586L8917,1528L8974,1470L9406,1470L9458,1417L9510,1364L9510,1145L9510,926L9537,898C9562,872 9569,870 9650,870L9736,870L9778,827L9820,784L9820,704C9820,627 9821,623 9853,592C9885,561 9888,560 9976,560L10066,560L10184,680L10321,680C10444,680 10459,678 10475,660C10489,644 10506,640 10554,640C10588,641 10626,647 10640,655C10660,666 10722,669 10955,670L11246,670L11383,533C11499,416 11520,391 11520,365C11520,340 11535,320 11603,252C11684,171 11686,170 11736,170C11780,170 11790,166 11818,137C11846,109 11850,97 11850,52C11850,15 11854,0 11863,0C11873,0 11876,15 11874,56C11872,108 11868,117 11829,156C11791,195 11781,200 11741,200C11698,200 11691,204 11623,272C11564,330 11550,350 11550,375C11550,401 11528,427 11402,553L11255,700L10960,700C10723,699 10660,696 10640,685C10606,665 10506,665 10490,685C10480,697 10448,700 10323,700L10169,700L10118,645L10068,590L9981,590C9902,590 9891,592 9872,613C9853,633 9850,648 9850,716L9850,796L9802,843L9754,890L9669,890C9593,890 9581,892 9562,913C9541,935 9540,944 9540,1156L9540,1376L9482,1433L9424,1490L9209,1490L8994,1490L8942,1543L8890,1596L8890,2076L8822,2143C8772,2193 8748,2210 8727,2210C8712,2210 8697,2217 8694,2225C8685,2247 8643,2244 8630,2220Z" style="fill:rgb(226,238,255);fill-rule:nonzero;"/>
            <path d="M8920,2105L8920,2020L9090,2020L9090,2190L9005,2190L8920,2190L8920,2105Z" style="fill:rgb(226,238,255);fill-rule:nonzero;"/>
            <path d="M8637,2109C8608,2068 8658,2026 8690,2065C8710,2089 8773,2084 8798,2057C8819,2034 8820,2026 8820,1794L8820,1554L8883,1492L8946,1430L9376,1430L9423,1382L9470,1334L9470,1105L9470,876L9497,848C9523,821 9528,820 9620,820L9716,820L9753,782C9789,745 9790,743 9790,664C9790,587 9791,583 9823,552L9856,520L10116,520L10224,630L10336,630C10434,630 10449,628 10465,610C10481,593 10496,590 10575,590C10654,590 10669,593 10685,610C10702,629 10716,630 10964,630L11225,630L11348,507C11463,391 11470,383 11470,345C11470,307 11477,298 11563,212C11652,123 11657,120 11701,120C11759,120 11790,91 11790,37C11790,17 11795,0 11800,0C11806,0 11810,22 11810,49C11810,92 11806,102 11778,125C11754,145 11738,151 11708,149C11672,146 11665,151 11585,230C11510,304 11500,319 11500,350C11500,382 11487,398 11362,523L11225,660L10959,660L10693,660L10670,635C10649,613 10639,610 10570,610C10506,610 10490,613 10475,630C10459,648 10444,650 10331,650L10204,650L10155,600L10106,550L9985,550C9865,550 9863,550 9837,578C9812,604 9810,613 9810,686C9810,766 9810,766 9771,804L9732,843L9636,841C9546,839 9539,841 9515,864L9490,889L9490,1346L9432,1403L9374,1460L9165,1460L8956,1460L8898,1517L8840,1574L8840,2046L8808,2077C8784,2100 8763,2109 8730,2112C8705,2115 8678,2120 8669,2124C8657,2129 8647,2124 8637,2109Z" style="fill:rgb(226,238,255);fill-rule:nonzero;"/>
            <path d="M8632,2003C8617,1977 8635,1950 8667,1950C8683,1950 8706,1938 8722,1923L8750,1896L8750,1716L8750,1535L8985,1300L9220,1065L9220,995C9220,928 9222,922 9253,892C9283,863 9292,860 9346,860C9404,860 9407,859 9453,812C9499,766 9500,762 9500,704C9500,648 9502,642 9538,607C9574,571 9579,570 9646,570L9716,570L9775,510L9834,450L10156,450L10254,550L11195,550L11293,452L11390,355L11390,235L11390,116L11333,58C11288,12 11280,0 11296,0C11307,0 11339,24 11368,53L11420,106L11420,365L11312,473L11205,580L10723,578L10241,577L10193,528L10146,480L9995,480L9845,480L9778,540L9712,600L9648,600C9591,600 9581,603 9557,628C9534,652 9530,665 9530,716C9530,775 9530,776 9472,833C9415,890 9414,890 9354,890C9269,890 9250,911 9250,1006L9250,1075L9015,1310L8780,1545L8780,1896L8740,1935C8719,1956 8700,1983 8698,1994C8694,2022 8645,2029 8632,2003Z" style="fill:rgb(226,238,255);fill-rule:nonzero;"/>
            <path d="M9084,1946C9074,1919 9085,1895 9110,1892C9141,1887 9163,1915 9149,1941C9137,1963 9092,1966 9084,1946Z" style="fill:rgb(226,238,255);fill-rule:nonzero;"/>
            <path d="M9735,1915C9686,1867 9719,1790 9788,1790C9855,1790 9886,1878 9834,1919C9799,1947 9765,1945 9735,1915Z" style="fill:rgb(226,238,255);fill-rule:nonzero;"/>
            <path d="M9281,1912C9267,1885 9289,1857 9321,1862C9340,1864 9345,1871 9345,1895C9345,1920 9341,1926 9318,1928C9300,1930 9288,1925 9281,1912Z" style="fill:rgb(226,238,255);fill-rule:nonzero;"/>
            <path d="M8636,1888C8616,1860 8632,1830 8665,1830L8690,1830L8690,1656L8690,1482L8925,1254L9161,1026L9159,979C9157,935 9160,927 9200,883C9258,820 9257,820 9320,820C9370,820 9379,816 9418,781C9441,760 9460,736 9460,729C9460,721 9449,729 9435,747C9387,807 9303,796 9281,727C9261,667 9301,610 9363,610C9396,610 9440,636 9440,656C9440,664 9444,670 9448,670C9452,670 9454,655 9452,636C9449,606 9454,595 9495,551L9543,500L9696,500L9745,450L9794,400L10176,400L10274,500L11180,500L11260,421L11340,341L11340,243L11340,145L11268,73C11213,17 11200,0 11216,0C11227,0 11264,29 11303,68L11370,136L11370,345L11277,438L11185,530L10724,530L10264,530L10210,475L10156,420L9980,420L9804,420L9750,475L9696,530L9625,530C9556,530 9553,531 9517,568C9481,605 9480,608 9480,681L9480,756L9432,803C9386,849 9383,850 9324,850C9263,850 9263,850 9222,899C9185,942 9180,955 9180,997C9180,1052 9219,1009 8855,1360L8715,1495L8710,1686C8706,1827 8701,1881 8691,1893C8673,1916 8654,1914 8636,1888Z" style="fill:rgb(226,238,255);fill-rule:nonzero;"/>
            <path d="M8928,1650C8909,1635 8907,1628 8916,1613C8938,1577 8990,1590 8990,1631C8990,1662 8956,1673 8928,1650Z" style="fill:rgb(226,238,255);fill-rule:nonzero;"/>
            <path d="M9105,1659C9091,1638 9110,1600 9133,1600C9146,1600 9169,1587 9185,1570C9213,1540 9215,1540 9320,1540L9425,1540L9523,1442L9620,1345L9620,1270L9620,1194L9695,1120L9770,1046L9770,980C9770,915 9770,914 9818,867L9866,820L10436,820L10504,890L11165,890L11378,677C11549,506 11590,460 11590,438C11590,423 11586,408 11580,405C11566,396 11567,347 11582,332C11600,314 11635,317 11653,338C11677,364 11674,385 11645,408C11631,419 11620,438 11620,452C11620,469 11563,532 11402,693L11185,910L10834,910L10484,910L10455,880L10426,850L10150,850L9874,850L9837,888C9802,924 9800,929 9800,991L9800,1056L9725,1130L9650,1204L9650,1355L9547,1458L9445,1560L9339,1560L9234,1560L9200,1595C9181,1614 9169,1630 9173,1630C9177,1630 9176,1639 9170,1650C9159,1671 9116,1677 9105,1659Z" style="fill:rgb(226,238,255);fill-rule:nonzero;"/>
            <path d="M9306,1655C9297,1646 9290,1635 9290,1630C9290,1615 9322,1589 9338,1592C9362,1597 9377,1627 9364,1648C9349,1671 9326,1674 9306,1655Z" style="fill:rgb(226,238,255);fill-rule:nonzero;"/>
            <path d="M9490,1652C9471,1636 9469,1630 9479,1612C9485,1600 9495,1590 9500,1590C9506,1590 9510,1580 9510,1567C9510,1552 9538,1517 9595,1460L9680,1375L9680,1300L9680,1224L9750,1155L9820,1086L9820,1020C9820,957 9822,952 9858,917L9896,880L10396,880L10454,940L11204,940L11441,704C11667,478 11678,466 11673,435C11668,402 11688,370 11716,370C11734,370 11770,406 11770,424C11770,446 11742,470 11717,470C11701,470 11622,543 11455,710L11215,950L10829,950L10443,950L10420,925L10397,900L10145,900L9894,900L9867,928C9843,953 9840,964 9840,1021L9840,1086L9770,1155L9700,1224L9700,1375L9615,1460C9550,1525 9530,1551 9530,1572C9530,1587 9535,1602 9540,1605C9557,1615 9551,1649 9531,1660C9516,1667 9507,1665 9490,1652Z" style="fill:rgb(226,238,255);fill-rule:nonzero;"/>
            <path d="M9596,1657C9560,1631 9600,1573 9638,1596C9661,1611 9660,1640 9634,1656C9617,1668 9611,1668 9596,1657Z" style="fill:rgb(226,238,255);fill-rule:nonzero;"/>
            <path d="M9832,1198C9804,1170 9829,1110 9869,1110C9879,1110 9895,1119 9905,1130C9937,1166 9961,1155 10055,1060L10145,970L10276,970C10400,970 10408,971 10428,993C10447,1013 10450,1028 10450,1093C10450,1158 10453,1171 10469,1180C10481,1186 10590,1190 10752,1190L11015,1190L11370,835L11726,480L11771,480C11813,480 11820,476 11878,417L11940,354L11940,279L11940,204L12010,135C12068,77 12080,60 12080,33C12080,10 12085,0 12095,0C12106,0 12110,11 12110,37C12110,70 12101,83 12038,147L11965,220L11963,297L11961,373L11893,442C11829,506 11823,510 11780,510L11735,510L11385,860L11035,1210L10749,1210C10412,1210 10430,1216 10430,1103C10430,1004 10424,1000 10274,1000L10155,1000L10070,1085C10001,1155 9980,1170 9955,1170C9937,1170 9917,1178 9907,1190C9888,1212 9850,1216 9832,1198Z" style="fill:rgb(226,238,255);fill-rule:nonzero;"/>
            <path d="M8681,1074C8617,1020 8657,920 8742,920C8756,920 8781,905 8803,882L8840,844L8840,734L8840,624L8898,567L8956,510L9057,510C9114,510 9162,506 9165,500C9175,483 9209,489 9220,509C9233,534 9233,536 9214,554C9202,567 9175,570 9086,570L8974,570L8937,608L8900,646L8900,864L8855,910C8814,952 8810,959 8819,983C8833,1020 8815,1067 8779,1085C8739,1106 8716,1104 8681,1074Z" style="fill:rgb(226,238,255);fill-rule:nonzero;"/>
            <path d="M8995,1088C8962,1071 8950,1048 8950,1008C8950,944 9010,905 9071,930C9107,945 9120,967 9120,1013C9120,1075 9048,1118 8995,1088Z" style="fill:rgb(226,238,255);fill-rule:nonzero;"/>
            <path d="M9319,1085C9305,1077 9287,1057 9280,1040C9269,1013 9269,1003 9283,974C9311,917 9370,904 9419,946C9444,966 9450,980 9450,1010C9450,1040 9444,1054 9419,1074C9385,1103 9358,1106 9319,1085Z" style="fill:rgb(226,238,255);fill-rule:nonzero;"/>
            <path d="M9590,1072C9550,1031 9549,989 9589,949C9629,909 9671,910 9712,950C9738,977 9742,986 9737,1017C9729,1064 9704,1089 9657,1097C9626,1102 9617,1098 9590,1072Z" style="fill:rgb(226,238,255);fill-rule:nonzero;"/>
            <path d="M9920,1087C9887,1070 9867,1027 9875,990C9883,953 9924,920 9962,920C10003,920 10050,968 10050,1010C10050,1032 10041,1051 10021,1071C9989,1102 9960,1107 9920,1087Z" style="fill:rgb(226,238,255);fill-rule:nonzero;"/>
            <path d="M7971,1038C7967,1026 7965,1008 7968,998C7974,975 8017,963 8040,978C8054,987 8063,982 8089,956C8107,938 8120,914 8120,899C8120,883 8133,861 8155,840C8190,806 8190,806 8190,715L8190,624L8245,570C8283,532 8300,508 8300,490C8300,471 8334,431 8445,320L8590,175L8590,104C8590,46 8594,30 8610,15C8621,5 8632,-1 8635,2C8638,5 8631,15 8620,25C8604,40 8600,56 8600,114L8600,185L8460,325C8353,432 8320,471 8320,490C8320,508 8303,532 8265,570L8210,624L8210,806L8170,845C8144,871 8130,893 8130,910C8130,927 8117,948 8095,970C8076,989 8060,1011 8060,1020C8060,1063 7986,1077 7971,1038Z" style="fill:rgb(226,238,255);fill-rule:nonzero;"/>
        </g>
    </g>
    <g transform="matrix(1,0,0,1,24.2644,-7.30978)">
        <g transform="matrix(24,0,0,24,24.6596,31.8294)">
            <path d="M0.54,-0.7L0.54,0L0.434,0L0.434,-0.48L0.335,0L0.261,0L0.162,-0.48L0.162,0L0.058,0L0.058,-0.7L0.208,-0.7L0.3,-0.253L0.388,-0.7L0.54,-0.7Z" style="fill:rgb(226,238,255);fill-rule:nonzero;"/>
        </g>
        <g transform="matrix(24,0,0,24,39.0116,31.8294)">
            <path d="M0.219,0.01C0.17,0.01 0.131,-0.005 0.1,-0.036C0.069,-0.066 0.054,-0.105 0.054,-0.154L0.054,-0.7L0.16,-0.7L0.16,-0.154C0.16,-0.134 0.166,-0.118 0.177,-0.107C0.188,-0.096 0.202,-0.09 0.219,-0.09C0.236,-0.09 0.251,-0.096 0.262,-0.107C0.273,-0.118 0.278,-0.134 0.278,-0.154L0.278,-0.7L0.382,-0.7L0.382,-0.154C0.382,-0.105 0.367,-0.066 0.337,-0.036C0.307,-0.005 0.268,0.01 0.219,0.01Z" style="fill:rgb(226,238,255);fill-rule:nonzero;"/>
        </g>
        <g transform="matrix(24,0,0,24,49.4756,31.8294)">
            <path d="M0.058,-0.7L0.164,-0.7L0.164,-0.1L0.353,-0.1L0.353,0L0.058,0L0.058,-0.7Z" style="fill:rgb(226,238,255);fill-rule:nonzero;"/>
        </g>
        <g transform="matrix(24,0,0,24,56.9876,31.8294)">
            <path d="M0.024,-0.7L0.362,-0.7L0.362,-0.6L0.246,-0.6L0.246,0L0.14,0L0.14,-0.6L0.024,-0.6L0.024,-0.7Z" style="fill:rgb(226,238,255);fill-rule:nonzero;"/>
        </g>
        <g transform="matrix(24,0,0,24,66.2516,31.8294)">
            <rect x="0.058" y="-0.7" width="0.106" height="0.7" style="fill:rgb(226,238,255);fill-rule:nonzero;"/>
        </g>
        <g transform="matrix(24,0,0,24,71.5796,31.8294)">
            <path d="M0.54,-0.7L0.54,0L0.434,0L0.434,-0.48L0.335,0L0.261,0L0.162,-0.48L0.162,0L0.058,0L0.058,-0.7L0.208,-0.7L0.3,-0.253L0.388,-0.7L0.54,-0.7Z" style="fill:rgb(226,238,255);fill-rule:nonzero;"/>
        </g>
        <g transform="matrix(24,0,0,24,85.9316,31.8294)">
            <path d="M0.267,-0.155L0.153,-0.155L0.13,0L0.024,0L0.14,-0.7L0.282,-0.7L0.398,0L0.29,0L0.267,-0.155ZM0.253,-0.257L0.21,-0.55L0.167,-0.257L0.253,-0.257Z" style="fill:rgb(226,238,255);fill-rule:nonzero;"/>
        </g>
        <g transform="matrix(24,0,0,24,96.0596,31.8294)">
            <path d="M0.058,-0.7L0.224,-0.7C0.275,-0.7 0.315,-0.685 0.345,-0.655C0.375,-0.624 0.39,-0.584 0.39,-0.533L0.39,-0.451C0.39,-0.4 0.375,-0.36 0.345,-0.33C0.315,-0.299 0.275,-0.284 0.224,-0.284L0.164,-0.284L0.164,0L0.058,0L0.058,-0.7ZM0.219,-0.384C0.24,-0.384 0.256,-0.39 0.267,-0.401C0.278,-0.412 0.284,-0.428 0.284,-0.449L0.284,-0.535C0.284,-0.556 0.278,-0.572 0.267,-0.583C0.256,-0.594 0.24,-0.6 0.219,-0.6L0.164,-0.6L0.164,-0.384L0.219,-0.384Z" style="fill:rgb(226,238,255);fill-rule:nonzero;"/>
        </g>
    </g>
    <g id="Layer-1" serif:id="Layer 1" transform="matrix(0.173316,0,0,0.173577,70.972,352.846)">
        <g id="path849" transform="matrix(0.264583,0,0,0.264583,-130.714,-190.714)">
            <path d="M717.038,858.57L856.29,858.57C892.609,858.57 919.184,874.072 936.014,905.076C938.849,911.631 940.266,918.363 940.266,925.273L940.266,928.727C940.266,957.605 920.778,978.688 881.802,991.975C873.475,994.279 864.971,995.43 856.29,995.43L718.101,995.43C699.144,995.43 685.68,1003.93 677.707,1020.94L677.707,1063.2L896.684,1063.2L896.684,1054.69C899.164,1043.88 905.896,1038.48 916.881,1038.48L920.07,1038.48C932.825,1040.61 939.203,1044.86 939.203,1051.24L939.203,1084.99C939.203,1091.72 932.825,1095.97 920.07,1097.74L654.321,1097.74C640.857,1095.97 634.125,1090.66 634.125,1081.8L634.125,1019.88C634.125,1003.05 647.235,986.749 673.455,970.981C687.629,964.249 702.156,960.883 717.038,960.883L855.227,960.883C873.652,960.883 886.762,952.999 894.558,937.231C895.975,934.928 896.684,931.828 896.684,927.93L896.684,926.07C896.684,911.365 886.762,901.001 866.92,894.977C864.085,893.737 860.188,893.117 855.227,893.117L718.101,893.117C693.652,893.117 679.125,906.139 674.518,932.182C669.026,937.674 663.003,940.42 656.447,940.42L653.258,940.42C640.503,938.472 634.125,934.308 634.125,927.93L634.125,917.832C634.125,900.824 647.235,884.436 673.455,868.668C687.629,861.936 702.156,858.57 717.038,858.57Z" style="fill:rgb(226,238,255);fill-rule:nonzero;"/>
        </g>
        <g id="flowRoot825" transform="matrix(0.264583,0,0,0.264583,-152.059,-73.5843)">
            <path id="path852" d="M680.858,680.21C684.716,680.21 688.712,684.206 692.846,692.198L730.464,750.485L731.291,750.899L731.704,750.899C732.255,750.623 744.932,730.953 769.735,691.888C774.145,684.102 778.003,680.21 781.31,680.21L782.55,680.21C787.924,680.21 790.818,682.69 791.232,687.651C760.985,736.223 743.072,764.196 737.491,771.568C735.287,772.67 733.358,773.221 731.704,773.221L730.877,773.221C726.192,773.221 722.334,769.777 719.302,762.887C718.269,762.129 702.422,737.395 671.763,688.684C671.487,688.271 671.35,687.72 671.35,687.031C671.35,682.828 674.519,680.554 680.858,680.21Z" style="fill:rgb(226,238,255);fill-rule:nonzero;"/>
            <path id="path854" d="M865.228,680.21L867.295,680.21C888.584,680.21 905.671,688.167 918.554,704.083C923.239,711.248 925.582,717.104 925.582,721.652L924.755,721.962L909.46,721.962C909.115,721.962 908.289,719.791 906.98,715.451C898.161,700.638 884.519,693.231 866.054,693.231C848.554,693.231 835.188,700.328 825.956,714.521C824.44,719.206 823.476,721.686 823.062,721.962L807.767,721.962C807.216,721.962 806.94,721.652 806.94,721.032C806.94,714.348 811.487,706.184 820.582,696.538C833.397,685.653 848.279,680.21 865.228,680.21ZM807.354,729.816L822.649,729.816C823.062,729.816 824.027,732.537 825.543,737.98C834.361,752.793 848.003,760.2 866.468,760.2C883.968,760.2 897.334,753.103 906.566,738.91C907.669,736.017 908.633,732.985 909.46,729.816L925.169,729.816L925.995,730.126C925.995,738.187 921.31,747.109 911.94,756.893C899.125,767.779 884.243,773.221 867.295,773.221L865.228,773.221C843.938,773.221 826.852,765.264 813.968,749.348C809.421,742.597 806.94,736.189 806.527,730.126L807.354,729.816Z" style="fill:rgb(226,238,255);fill-rule:nonzero;"/>
            <path id="path856" d="M949.145,680.21L950.385,680.21C955.621,680.968 958.239,683.034 958.239,686.41L958.239,743.561C958.239,751.002 961.822,755.997 968.987,758.546C971.537,759.166 973.879,759.476 976.015,759.476L1004.12,759.476C1013.43,759.476 1019.21,755.584 1021.49,747.798C1021.76,746.903 1021.9,746.007 1021.9,745.111L1021.9,735.397C1022.87,731.263 1025.48,729.196 1029.76,729.196L1031,729.196C1036.23,729.885 1038.85,731.952 1038.85,735.397L1038.85,747.798C1038.85,757.099 1032.24,764.816 1019.01,770.948C1014.25,772.464 1009.71,773.221 1005.37,773.221L974.775,773.221C960.858,773.221 950.385,767.469 943.358,755.963C941.98,752.587 941.291,749.865 941.291,747.798L941.291,686.41C942.255,682.277 944.873,680.21 949.145,680.21Z" style="fill:rgb(226,238,255);fill-rule:nonzero;"/>
            <path id="path858" d="M1061.17,680.21L1099.2,680.21C1099.76,680.279 1100.03,680.485 1100.03,680.83L1100.03,693.335C1100.03,693.748 1099.76,693.955 1099.2,693.955L1061.17,693.955C1056.49,692.852 1054.14,690.992 1054.14,688.374L1054.14,685.79C1055.59,682.07 1057.93,680.21 1061.17,680.21ZM1114.09,680.21L1115.33,680.21C1120.56,680.968 1123.18,683.034 1123.18,686.41L1123.18,767.021C1122.22,771.155 1119.6,773.221 1115.33,773.221L1114.09,773.221C1108.85,772.464 1106.23,770.397 1106.23,767.021L1106.23,686.41C1107.2,682.277 1109.81,680.21 1114.09,680.21ZM1130.21,680.21L1166.17,680.21C1170.86,681.312 1173.2,683.172 1173.2,685.79L1173.2,688.374C1171.75,692.095 1169.41,693.955 1166.17,693.955L1130.21,693.955C1129.66,693.955 1129.38,693.748 1129.38,693.335L1129.38,680.83C1129.45,680.416 1129.73,680.21 1130.21,680.21Z" style="fill:rgb(226,238,255);fill-rule:nonzero;"/>
            <path id="path860" d="M1221.15,680.21L1300.11,680.21C1305.07,680.899 1307.55,682.552 1307.55,685.17L1307.55,698.295C1307.55,700.776 1305.07,702.429 1300.11,703.256L1298.87,703.256C1293.63,702.498 1291.02,700.397 1291.02,696.952L1291.02,693.645L1221.57,693.645C1214.4,693.645 1209.3,696.711 1206.27,702.843C1205.72,703.738 1205.44,704.944 1205.44,706.46L1205.44,707.183C1205.44,712.902 1209.3,716.932 1217.02,719.275C1218.12,719.757 1219.64,719.998 1221.57,719.998L1275.31,719.998C1289.43,719.998 1299.77,726.027 1306.31,738.084C1307.41,740.633 1307.96,743.251 1307.96,745.938L1307.96,747.282C1307.96,758.443 1300.38,766.642 1285.23,771.878C1281.99,772.774 1278.68,773.221 1275.31,773.221L1196.35,773.221C1191.39,772.533 1188.91,770.879 1188.91,768.261L1188.91,755.136C1188.91,752.656 1191.39,751.002 1196.35,750.175L1197.59,750.175C1202.83,750.933 1205.44,753.034 1205.44,756.479L1205.44,759.786L1274.89,759.786C1282.06,759.786 1287.16,756.721 1290.19,750.589C1290.74,749.693 1291.02,748.487 1291.02,746.971L1291.02,746.248C1291.02,740.53 1287.16,736.499 1279.44,734.157C1278.34,733.674 1276.82,733.433 1274.89,733.433L1221.15,733.433C1207.03,733.433 1196.69,727.405 1190.15,715.347C1189.05,712.798 1188.5,710.18 1188.5,707.493L1188.5,706.15C1188.5,694.988 1196.07,686.789 1211.23,681.553C1214.47,680.658 1217.78,680.21 1221.15,680.21Z" style="fill:rgb(226,238,255);fill-rule:nonzero;"/>
        </g>
        <g id="path863" transform="matrix(-0.880393,0,0,1.13586,0,0)">
            <path d="M-178.964,31.82L-143.099,31.82C-139.945,32.277 -138.367,33.522 -138.367,35.556L-138.367,36.116C-138.948,38.607 -140.526,39.852 -143.099,39.852L-174.73,39.852C-186.56,39.852 -194.53,43.671 -198.64,51.309C-198.764,52.222 -199.013,52.679 -199.387,52.679L-209.349,52.679L-209.847,52.492C-207.813,46.141 -204.409,41.409 -199.636,38.296C-193.077,33.979 -186.187,31.82 -178.964,31.82L-178.964,31.82ZM-205.613,55.605L-162.526,55.605C-159.371,56.062 -157.794,57.307 -157.794,59.341L-157.794,59.964C-158.375,62.454 -159.952,63.7 -162.526,63.7L-205.613,63.7C-208.768,63.243 -210.345,61.998 -210.345,59.964L-210.345,59.341C-209.764,56.851 -208.187,55.605 -205.613,55.605ZM-209.349,66.626L-199.636,66.626C-199.387,66.668 -198.557,68.038 -197.145,70.736C-192.787,76.796 -185.315,79.826 -174.73,79.826L-143.099,79.826C-139.945,80.241 -138.367,81.487 -138.367,83.562L-138.367,84.123C-138.948,86.613 -140.526,87.859 -143.099,87.859L-178.964,87.859C-189.964,87.859 -199.096,83.542 -206.36,74.907C-208.685,70.839 -209.847,68.141 -209.847,66.813L-209.349,66.626Z" style="fill:rgb(226,238,255);fill-rule:nonzero;"/>
        </g>
    </g>
    <g transform="matrix(1,0,0,1,6.5252,27.8489)">
        <g transform="matrix(12,0,0,12,26.175,343.793)">
            <path d="M0.215,0.01C0.166,0.01 0.126,-0.005 0.095,-0.036C0.064,-0.067 0.049,-0.107 0.049,-0.156L0.049,-0.544C0.049,-0.593 0.064,-0.633 0.095,-0.664C0.126,-0.695 0.166,-0.71 0.215,-0.71C0.264,-0.71 0.304,-0.695 0.335,-0.664C0.366,-0.633 0.381,-0.593 0.381,-0.544L0.381,-0.462L0.277,-0.462L0.277,-0.544C0.277,-0.564 0.271,-0.58 0.26,-0.592C0.249,-0.604 0.234,-0.61 0.216,-0.61C0.198,-0.61 0.183,-0.604 0.172,-0.592C0.161,-0.58 0.155,-0.564 0.155,-0.544L0.155,-0.156C0.155,-0.136 0.161,-0.12 0.172,-0.108C0.183,-0.096 0.198,-0.09 0.216,-0.09C0.234,-0.09 0.249,-0.096 0.26,-0.108C0.271,-0.12 0.277,-0.136 0.277,-0.156L0.277,-0.256L0.381,-0.256L0.381,-0.156C0.381,-0.107 0.366,-0.067 0.335,-0.036C0.304,-0.005 0.264,0.01 0.215,0.01Z" style="fill:rgb(226,238,255);fill-rule:nonzero;"/>
        </g>
        <g transform="matrix(12,0,0,12,31.215,343.793)">
            <path d="M0.398,-0.7L0.282,0L0.14,0L0.024,-0.7L0.132,-0.7L0.212,-0.15L0.292,-0.7L0.398,-0.7Z" style="fill:rgb(226,238,255);fill-rule:nonzero;"/>
        </g>
        <g transform="matrix(12,0,0,12,38.679,343.793)">
            <rect x="0.058" y="-0.7" width="0.106" height="0.7" style="fill:rgb(226,238,255);fill-rule:nonzero;"/>
        </g>
        <g transform="matrix(12,0,0,12,41.343,343.793)">
            <path d="M0.058,-0.7L0.175,-0.7L0.31,-0.23L0.31,-0.7L0.414,-0.7L0.414,0L0.302,0L0.162,-0.448L0.162,0L0.058,0L0.058,-0.7Z" style="fill:rgb(226,238,255);fill-rule:nonzero;"/>
        </g>
    </g>
    <g transform="matrix(1,0,0,1,100.122,27.8489)">
        <g transform="matrix(12,0,0,12,26.175,343.793)">
            <path d="M0.215,0.01C0.166,0.01 0.126,-0.005 0.095,-0.036C0.064,-0.067 0.049,-0.107 0.049,-0.156L0.049,-0.544C0.049,-0.593 0.064,-0.633 0.095,-0.664C0.126,-0.695 0.166,-0.71 0.215,-0.71C0.264,-0.71 0.304,-0.695 0.335,-0.664C0.366,-0.633 0.381,-0.593 0.381,-0.544L0.381,-0.462L0.277,-0.462L0.277,-0.544C0.277,-0.564 0.271,-0.58 0.26,-0.592C0.249,-0.604 0.234,-0.61 0.216,-0.61C0.198,-0.61 0.183,-0.604 0.172,-0.592C0.161,-0.58 0.155,-0.564 0.155,-0.544L0.155,-0.156C0.155,-0.136 0.161,-0.12 0.172,-0.108C0.183,-0.096 0.198,-0.09 0.216,-0.09C0.234,-0.09 0.249,-0.096 0.26,-0.108C0.271,-0.12 0.277,-0.136 0.277,-0.156L0.277,-0.256L0.381,-0.256L0.381,-0.156C0.381,-0.107 0.366,-0.067 0.335,-0.036C0.304,-0.005 0.264,0.01 0.215,0.01Z" style="fill:rgb(226,238,255);fill-rule:nonzero;"/>
        </g>
        <g transform="matrix(12,0,0,12,31.215,343.793)">
            <path d="M0.398,-0.7L0.282,0L0.14,0L0.024,-0.7L0.132,-0.7L0.212,-0.15L0.292,-0.7L0.398,-0.7Z" style="fill:rgb(226,238,255);fill-rule:nonzero;"/>
        </g>
        <g transform="matrix(12,0,0,12,38.679,343.793)">
            <path d="M0.219,0.01C0.168,0.01 0.127,-0.005 0.096,-0.037C0.065,-0.068 0.049,-0.108 0.049,-0.159L0.049,-0.541C0.049,-0.592 0.065,-0.632 0.096,-0.664C0.127,-0.695 0.168,-0.71 0.219,-0.71C0.27,-0.71 0.311,-0.695 0.342,-0.664C0.373,-0.632 0.389,-0.592 0.389,-0.541L0.389,-0.159C0.389,-0.108 0.373,-0.068 0.342,-0.037C0.311,-0.005 0.27,0.01 0.219,0.01ZM0.219,-0.09C0.239,-0.09 0.255,-0.096 0.266,-0.108C0.277,-0.12 0.283,-0.137 0.283,-0.159L0.283,-0.541C0.283,-0.563 0.277,-0.58 0.266,-0.592C0.255,-0.604 0.239,-0.61 0.219,-0.61C0.199,-0.61 0.183,-0.604 0.172,-0.592C0.161,-0.58 0.155,-0.563 0.155,-0.541L0.155,-0.159C0.155,-0.137 0.161,-0.12 0.172,-0.108C0.183,-0.096 0.199,-0.09 0.219,-0.09Z" style="fill:rgb(226,238,255);fill-rule:nonzero;"/>
        </g>
        <g transform="matrix(12,0,0,12,43.935,343.793)">
            <path d="M0.219,0.01C0.17,0.01 0.131,-0.005 0.1,-0.036C0.069,-0.066 0.054,-0.105 0.054,-0.154L0.054,-0.7L0.16,-0.7L0.16,-0.154C0.16,-0.134 0.166,-0.118 0.177,-0.107C0.188,-0.096 0.202,-0.09 0.219,-0.09C0.236,-0.09 0.251,-0.096 0.262,-0.107C0.273,-0.118 0.278,-0.134 0.278,-0.154L0.278,-0.7L0.382,-0.7L0.382,-0.154C0.382,-0.105 0.367,-0.066 0.337,-0.036C0.307,-0.005 0.268,0.01 0.219,0.01Z" style="fill:rgb(226,238,255);fill-rule:nonzero;"/>
        </g>
        <g transform="matrix(12,0,0,12,49.167,343.793)">
            <path d="M0.024,-0.7L0.362,-0.7L0.362,-0.6L0.246,-0.6L0.246,0L0.14,0L0.14,-0.6L0.024,-0.6L0.024,-0.7Z" style="fill:rgb(226,238,255);fill-rule:nonzero;"/>
        </g>
    </g>
    <g transform="matrix(1,0,0,1,-73.6702,-28.0999)">
        <g transform="matrix(16,0,0,16,78.5349,154.358)">
            <path d="M0.321,-0.362C0.347,-0.35 0.367,-0.332 0.381,-0.309C0.394,-0.286 0.401,-0.257 0.401,-0.224L0.401,-0.167C0.401,-0.116 0.386,-0.076 0.356,-0.046C0.326,-0.015 0.286,0 0.235,0L0.058,0L0.058,-0.7L0.226,-0.7C0.277,-0.7 0.317,-0.685 0.347,-0.655C0.377,-0.624 0.392,-0.584 0.392,-0.533L0.392,-0.496C0.392,-0.433 0.368,-0.389 0.321,-0.362ZM0.164,-0.6L0.164,-0.41L0.211,-0.41C0.236,-0.41 0.255,-0.416 0.268,-0.429C0.28,-0.441 0.286,-0.46 0.286,-0.485L0.286,-0.535C0.286,-0.556 0.28,-0.572 0.269,-0.583C0.258,-0.594 0.242,-0.6 0.221,-0.6L0.164,-0.6ZM0.295,-0.235C0.295,-0.26 0.289,-0.279 0.277,-0.292C0.264,-0.304 0.245,-0.31 0.22,-0.31L0.164,-0.31L0.164,-0.1L0.23,-0.1C0.251,-0.1 0.267,-0.106 0.278,-0.117C0.289,-0.128 0.295,-0.144 0.295,-0.165L0.295,-0.235Z" style="fill:rgb(226,238,255);fill-rule:nonzero;"/>
        </g>
        <g transform="matrix(16,0,0,16,85.5109,154.358)">
            <path d="M0.267,-0.155L0.153,-0.155L0.13,0L0.024,0L0.14,-0.7L0.282,-0.7L0.398,0L0.29,0L0.267,-0.155ZM0.253,-0.257L0.21,-0.55L0.167,-0.257L0.253,-0.257Z" style="fill:rgb(226,238,255);fill-rule:nonzero;"/>
        </g>
        <g transform="matrix(16,0,0,16,92.2629,154.358)">
            <path d="M0.058,-0.7L0.175,-0.7L0.31,-0.23L0.31,-0.7L0.414,-0.7L0.414,0L0.302,0L0.162,-0.448L0.162,0L0.058,0L0.058,-0.7Z" style="fill:rgb(226,238,255);fill-rule:nonzero;"/>
        </g>
        <g transform="matrix(16,0,0,16,99.8149,154.358)">
            <path d="M0.204,-0.288L0.164,-0.211L0.164,0L0.058,0L0.058,-0.7L0.164,-0.7L0.164,-0.416L0.304,-0.7L0.418,-0.7L0.269,-0.403L0.429,0L0.315,0L0.204,-0.288Z" style="fill:rgb(226,238,255);fill-rule:nonzero;"/>
        </g>
        <g transform="matrix(16,0,0,16,106.919,154.358)">
            <path d="M0.205,0.01C0.172,0.01 0.142,0.003 0.116,-0.012C0.09,-0.027 0.07,-0.047 0.056,-0.073C0.041,-0.099 0.034,-0.129 0.034,-0.162L0.034,-0.187L0.136,-0.198L0.136,-0.172C0.136,-0.147 0.142,-0.127 0.154,-0.112C0.166,-0.097 0.183,-0.09 0.204,-0.09C0.225,-0.09 0.241,-0.096 0.254,-0.108C0.266,-0.12 0.272,-0.136 0.272,-0.157C0.272,-0.18 0.266,-0.201 0.253,-0.222C0.24,-0.243 0.214,-0.271 0.175,-0.308C0.123,-0.357 0.088,-0.398 0.069,-0.431C0.05,-0.464 0.04,-0.499 0.04,-0.538C0.04,-0.591 0.054,-0.632 0.083,-0.664C0.112,-0.695 0.151,-0.71 0.201,-0.71C0.251,-0.71 0.29,-0.694 0.319,-0.663C0.348,-0.632 0.362,-0.59 0.362,-0.537L0.362,-0.519L0.26,-0.508L0.26,-0.528C0.26,-0.555 0.255,-0.575 0.245,-0.589C0.235,-0.603 0.221,-0.61 0.202,-0.61C0.183,-0.61 0.169,-0.604 0.159,-0.593C0.149,-0.582 0.144,-0.565 0.144,-0.543C0.144,-0.521 0.151,-0.5 0.164,-0.48C0.177,-0.459 0.203,-0.43 0.241,-0.392C0.293,-0.34 0.329,-0.298 0.348,-0.267C0.367,-0.235 0.376,-0.2 0.376,-0.162C0.376,-0.129 0.369,-0.099 0.355,-0.073C0.34,-0.047 0.32,-0.027 0.294,-0.012C0.268,0.003 0.238,0.01 0.205,0.01Z" style="fill:rgb(226,238,255);fill-rule:nonzero;"/>
        </g>
    </g>
    <g transform="matrix(1,0,0,1,-16.0725,-9.43499)">
        <g transform="matrix(12,0,0,12,134.971,150.662)">
            <path d="M0.058,-0.7L0.175,-0.7L0.31,-0.23L0.31,-0.7L0.414,-0.7L0.414,0L0.302,0L0.162,-0.448L0.162,0L0.058,0L0.058,-0.7Z" style="fill:rgb(226,238,255);fill-rule:nonzero;"/>
        </g>
        <g transform="matrix(12,0,0,12,140.635,150.662)">
            <path d="M0.058,-0.7L0.359,-0.7L0.359,-0.6L0.164,-0.6L0.164,-0.405L0.319,-0.405L0.319,-0.305L0.164,-0.305L0.164,-0.1L0.359,-0.1L0.359,0L0.058,0L0.058,-0.7Z" style="fill:rgb(226,238,255);fill-rule:nonzero;"/>
        </g>
        <g transform="matrix(12,0,0,12,145.363,150.662)">
            <path d="M0.307,0L0.217,-0.244L0.132,0L0.022,0L0.161,-0.362L0.031,-0.7L0.145,-0.7L0.228,-0.476L0.306,-0.7L0.416,-0.7L0.284,-0.357L0.421,0L0.307,0Z" style="fill:rgb(226,238,255);fill-rule:nonzero;"/>
        </g>
        <g transform="matrix(12,0,0,12,150.679,150.662)">
            <path d="M0.024,-0.7L0.362,-0.7L0.362,-0.6L0.246,-0.6L0.246,0L0.14,0L0.14,-0.6L0.024,-0.6L0.024,-0.7Z" style="fill:rgb(226,238,255);fill-rule:nonzero;"/>
        </g>
    </g>
    <g transform="matrix(1,0,0,1,65.942,-11.6636)">
        <g transform="matrix(12,0,0,12,17.476,152.891)">
            <path d="M0.058,-0.7L0.224,-0.7C0.275,-0.7 0.315,-0.685 0.345,-0.655C0.375,-0.624 0.39,-0.584 0.39,-0.533L0.39,-0.451C0.39,-0.4 0.375,-0.36 0.345,-0.33C0.315,-0.299 0.275,-0.284 0.224,-0.284L0.164,-0.284L0.164,0L0.058,0L0.058,-0.7ZM0.219,-0.384C0.24,-0.384 0.256,-0.39 0.267,-0.401C0.278,-0.412 0.284,-0.428 0.284,-0.449L0.284,-0.535C0.284,-0.556 0.278,-0.572 0.267,-0.583C0.256,-0.594 0.24,-0.6 0.219,-0.6L0.164,-0.6L0.164,-0.384L0.219,-0.384Z" style="fill:rgb(226,238,255);fill-rule:nonzero;"/>
        </g>
        <g transform="matrix(12,0,0,12,22.528,152.891)">
            <path d="M0.296,0L0.219,-0.289L0.164,-0.289L0.164,0L0.058,0L0.058,-0.7L0.224,-0.7C0.275,-0.7 0.315,-0.685 0.345,-0.655C0.375,-0.624 0.39,-0.584 0.39,-0.533L0.39,-0.456C0.39,-0.424 0.384,-0.396 0.371,-0.371C0.358,-0.346 0.34,-0.327 0.317,-0.313L0.406,0L0.296,0ZM0.164,-0.389L0.219,-0.389C0.24,-0.389 0.256,-0.395 0.267,-0.406C0.278,-0.417 0.284,-0.433 0.284,-0.454L0.284,-0.535C0.284,-0.556 0.278,-0.572 0.267,-0.583C0.256,-0.594 0.24,-0.6 0.219,-0.6L0.164,-0.6L0.164,-0.389Z" style="fill:rgb(226,238,255);fill-rule:nonzero;"/>
        </g>
        <g transform="matrix(12,0,0,12,27.748,152.891)">
            <path d="M0.058,-0.7L0.359,-0.7L0.359,-0.6L0.164,-0.6L0.164,-0.405L0.319,-0.405L0.319,-0.305L0.164,-0.305L0.164,-0.1L0.359,-0.1L0.359,0L0.058,0L0.058,-0.7Z" style="fill:rgb(226,238,255);fill-rule:nonzero;"/>
        </g>
        <g transform="matrix(12,0,0,12,32.548,152.891)">
            <path d="M0.398,-0.7L0.282,0L0.14,0L0.024,-0.7L0.132,-0.7L0.212,-0.15L0.292,-0.7L0.398,-0.7Z" style="fill:rgb(226,238,255);fill-rule:nonzero;"/>
        </g>
        <g transform="matrix(12,0,0,12,36.892,152.891)">
            <rect x="0.065" y="-0.105" width="0.106" height="0.105" style="fill:rgb(226,238,255);fill-rule:nonzero;"/>
        </g>
    </g>
    <g transform="matrix(1,0,0,1,1.54773,16.1186)">
        <g transform="matrix(12,0,0,12,155.755,125.229)">
            <path d="M0.215,0.01C0.166,0.01 0.126,-0.005 0.095,-0.036C0.064,-0.067 0.049,-0.107 0.049,-0.156L0.049,-0.544C0.049,-0.593 0.064,-0.633 0.095,-0.664C0.126,-0.695 0.166,-0.71 0.215,-0.71C0.264,-0.71 0.304,-0.695 0.335,-0.664C0.366,-0.633 0.381,-0.593 0.381,-0.544L0.381,-0.462L0.277,-0.462L0.277,-0.544C0.277,-0.564 0.271,-0.58 0.26,-0.592C0.249,-0.604 0.234,-0.61 0.216,-0.61C0.198,-0.61 0.183,-0.604 0.172,-0.592C0.161,-0.58 0.155,-0.564 0.155,-0.544L0.155,-0.156C0.155,-0.136 0.161,-0.12 0.172,-0.108C0.183,-0.096 0.198,-0.09 0.216,-0.09C0.234,-0.09 0.249,-0.096 0.26,-0.108C0.271,-0.12 0.277,-0.136 0.277,-0.156L0.277,-0.256L0.381,-0.256L0.381,-0.156C0.381,-0.107 0.366,-0.067 0.335,-0.036C0.304,-0.005 0.264,0.01 0.215,0.01Z" style="fill:rgb(226,238,255);fill-rule:nonzero;"/>
        </g>
        <g transform="matrix(12,0,0,12,160.795,125.229)">
            <path d="M0.398,-0.7L0.282,0L0.14,0L0.024,-0.7L0.132,-0.7L0.212,-0.15L0.292,-0.7L0.398,-0.7Z" style="fill:rgb(226,238,255);fill-rule:nonzero;"/>
        </g>
    </g>
    <g transform="matrix(1,0,0,1,40.189,14.1023)">
        <g transform="matrix(12,0,0,12,9.08759,127.005)">
            <path d="M0.058,-0.7L0.354,-0.7L0.354,-0.6L0.164,-0.6L0.164,-0.395L0.314,-0.395L0.314,-0.295L0.164,-0.295L0.164,0L0.058,0L0.058,-0.7Z" style="fill:rgb(226,238,255);fill-rule:nonzero;"/>
        </g>
        <g transform="matrix(12,0,0,12,13.6236,127.005)">
            <rect x="0.058" y="-0.7" width="0.106" height="0.7" style="fill:rgb(226,238,255);fill-rule:nonzero;"/>
        </g>
        <g transform="matrix(12,0,0,12,16.2876,127.005)">
            <path d="M0.296,0L0.219,-0.289L0.164,-0.289L0.164,0L0.058,0L0.058,-0.7L0.224,-0.7C0.275,-0.7 0.315,-0.685 0.345,-0.655C0.375,-0.624 0.39,-0.584 0.39,-0.533L0.39,-0.456C0.39,-0.424 0.384,-0.396 0.371,-0.371C0.358,-0.346 0.34,-0.327 0.317,-0.313L0.406,0L0.296,0ZM0.164,-0.389L0.219,-0.389C0.24,-0.389 0.256,-0.395 0.267,-0.406C0.278,-0.417 0.284,-0.433 0.284,-0.454L0.284,-0.535C0.284,-0.556 0.278,-0.572 0.267,-0.583C0.256,-0.594 0.24,-0.6 0.219,-0.6L0.164,-0.6L0.164,-0.389Z" style="fill:rgb(226,238,255);fill-rule:nonzero;"/>
        </g>
        <g transform="matrix(12,0,0,12,21.5076,127.005)">
            <path d="M0.205,0.01C0.172,0.01 0.142,0.003 0.116,-0.012C0.09,-0.027 0.07,-0.047 0.056,-0.073C0.041,-0.099 0.034,-0.129 0.034,-0.162L0.034,-0.187L0.136,-0.198L0.136,-0.172C0.136,-0.147 0.142,-0.127 0.154,-0.112C0.166,-0.097 0.183,-0.09 0.204,-0.09C0.225,-0.09 0.241,-0.096 0.254,-0.108C0.266,-0.12 0.272,-0.136 0.272,-0.157C0.272,-0.18 0.266,-0.201 0.253,-0.222C0.24,-0.243 0.214,-0.271 0.175,-0.308C0.123,-0.357 0.088,-0.398 0.069,-0.431C0.05,-0.464 0.04,-0.499 0.04,-0.538C0.04,-0.591 0.054,-0.632 0.083,-0.664C0.112,-0.695 0.151,-0.71 0.201,-0.71C0.251,-0.71 0.29,-0.694 0.319,-0.663C0.348,-0.632 0.362,-0.59 0.362,-0.537L0.362,-0.519L0.26,-0.508L0.26,-0.528C0.26,-0.555 0.255,-0.575 0.245,-0.589C0.235,-0.603 0.221,-0.61 0.202,-0.61C0.183,-0.61 0.169,-0.604 0.159,-0.593C0.149,-0.582 0.144,-0.565 0.144,-0.543C0.144,-0.521 0.151,-0.5 0.164,-0.48C0.177,-0.459 0.203,-0.43 0.241,-0.392C0.293,-0.34 0.329,-0.298 0.348,-0.267C0.367,-0.235 0.376,-0.2 0.376,-0.162C0.376,-0.129 0.369,-0.099 0.355,-0.073C0.34,-0.047 0.32,-0.027 0.294,-0.012C0.268,0.003 0.238,0.01 0.205,0.01Z" style="fill:rgb(226,238,255);fill-rule:nonzero;"/>
        </g>
        <g transform="matrix(12,0,0,12,26.3676,127.005)">
            <path d="M0.024,-0.7L0.362,-0.7L0.362,-0.6L0.246,-0.6L0.246,0L0.14,0L0.14,-0.6L0.024,-0.6L0.024,-0.7Z" style="fill:rgb(226,238,255);fill-rule:nonzero;"/>
        </g>
    </g>
</svg>
