<?xml version="1.0" encoding="UTF-8" standalone="no"?>
<!DOCTYPE svg PUBLIC "-//W3C//DTD SVG 1.1//EN" "http://www.w3.org/Graphics/SVG/1.1/DTD/svg11.dtd">
<svg width="100%" height="100%" viewBox="0 0 150 380" version="1.1" xmlns="http://www.w3.org/2000/svg" xmlns:xlink="http://www.w3.org/1999/xlink" xml:space="preserve" xmlns:serif="http://www.serif.com/" style="fill-rule:evenodd;clip-rule:evenodd;stroke-linejoin:round;stroke-miterlimit:2;">
    <g transform="matrix(1.11111,0,0,0.938494,0,0)">
        <rect x="0" y="0" width="135" height="404.904" style="fill:rgb(62,71,83);"/>
    </g>
    <g transform="matrix(1,0,0,1,-4,-4)">
        <g transform="matrix(12,0,0,12,12.9765,38.9084)">
            <rect x="0.058" y="-0.7" width="0.106" height="0.7" style="fill:rgb(226,238,255);fill-rule:nonzero;"/>
        </g>
        <g transform="matrix(12,0,0,12,15.6405,38.9084)">
            <path d="M0.058,-0.7L0.175,-0.7L0.31,-0.23L0.31,-0.7L0.414,-0.7L0.414,0L0.302,0L0.162,-0.448L0.162,0L0.058,0L0.058,-0.7Z" style="fill:rgb(226,238,255);fill-rule:nonzero;"/>
        </g>
    </g>
    <g transform="matrix(1,0,0,1,115,-4)">
        <g transform="matrix(12,0,0,12,12.9765,38.9084)">
            <path d="M0.219,0.01C0.168,0.01 0.127,-0.005 0.096,-0.037C0.065,-0.068 0.049,-0.108 0.049,-0.159L0.049,-0.541C0.049,-0.592 0.065,-0.632 0.096,-0.664C0.127,-0.695 0.168,-0.71 0.219,-0.71C0.27,-0.71 0.311,-0.695 0.342,-0.664C0.373,-0.632 0.389,-0.592 0.389,-0.541L0.389,-0.159C0.389,-0.108 0.373,-0.068 0.342,-0.037C0.311,-0.005 0.27,0.01 0.219,0.01ZM0.219,-0.09C0.239,-0.09 0.255,-0.096 0.266,-0.108C0.277,-0.12 0.283,-0.137 0.283,-0.159L0.283,-0.541C0.283,-0.563 0.277,-0.58 0.266,-0.592C0.255,-0.604 0.239,-0.61 0.219,-0.61C0.199,-0.61 0.183,-0.604 0.172,-0.592C0.161,-0.58 0.155,-0.563 0.155,-0.541L0.155,-0.159C0.155,-0.137 0.161,-0.12 0.172,-0.108C0.183,-0.096 0.199,-0.09 0.219,-0.09Z" style="fill:rgb(226,238,255);fill-rule:nonzero;"/>
        </g>
        <g transform="matrix(12,0,0,12,18.2325,38.9084)">
            <path d="M0.219,0.01C0.17,0.01 0.131,-0.005 0.1,-0.036C0.069,-0.066 0.054,-0.105 0.054,-0.154L0.054,-0.7L0.16,-0.7L0.16,-0.154C0.16,-0.134 0.166,-0.118 0.177,-0.107C0.188,-0.096 0.202,-0.09 0.219,-0.09C0.236,-0.09 0.251,-0.096 0.262,-0.107C0.273,-0.118 0.278,-0.134 0.278,-0.154L0.278,-0.7L0.382,-0.7L0.382,-0.154C0.382,-0.105 0.367,-0.066 0.337,-0.036C0.307,-0.005 0.268,0.01 0.219,0.01Z" style="fill:rgb(226,238,255);fill-rule:nonzero;"/>
        </g>
        <g transform="matrix(12,0,0,12,23.4645,38.9084)">
            <path d="M0.024,-0.7L0.362,-0.7L0.362,-0.6L0.246,-0.6L0.246,0L0.14,0L0.14,-0.6L0.024,-0.6L0.024,-0.7Z" style="fill:rgb(226,238,255);fill-rule:nonzero;"/>
        </g>
    </g>
    <g id="logo" transform="matrix(0.150679,0,0,0.150906,53.8145,357.933)">
        <g id="path1388" transform="matrix(0.264583,0,0,0.264583,-130.714,-190.714)">
            <path d="M717.038,858.57L856.29,858.57C892.609,858.57 919.184,874.072 936.014,905.076C938.849,911.631 940.266,918.363 940.266,925.273L940.266,928.727C940.266,957.605 920.778,978.688 881.802,991.975C873.475,994.279 864.971,995.43 856.29,995.43L718.101,995.43C699.144,995.43 685.68,1003.93 677.707,1020.94L677.707,1063.2L896.684,1063.2L896.684,1054.69C899.164,1043.88 905.896,1038.48 916.881,1038.48L920.07,1038.48C932.825,1040.61 939.203,1044.86 939.203,1051.24L939.203,1084.99C939.203,1091.72 932.825,1095.97 920.07,1097.74L654.321,1097.74C640.857,1095.97 634.125,1090.66 634.125,1081.8L634.125,1019.88C634.125,1003.05 647.235,986.749 673.455,970.981C687.629,964.249 702.156,960.883 717.038,960.883L855.227,960.883C873.652,960.883 886.762,952.999 894.558,937.231C895.975,934.928 896.684,931.828 896.684,927.93L896.684,926.07C896.684,911.365 886.762,901.001 866.92,894.977C864.085,893.737 860.188,893.117 855.227,893.117L718.101,893.117C693.652,893.117 679.125,906.139 674.518,932.182C669.026,937.674 663.003,940.42 656.447,940.42L653.258,940.42C640.503,938.472 634.125,934.308 634.125,927.93L634.125,917.832C634.125,900.824 647.235,884.436 673.455,868.668C687.629,861.936 702.156,858.57 717.038,858.57Z" style="fill:rgb(226,238,255);fill-rule:nonzero;"/>
        </g>
        <g id="path1391" transform="matrix(0.455057,0,0,0.50612,-115.92,-291.316)">
            <path d="M680.858,680.21C684.716,680.21 688.712,684.206 692.846,692.198L730.464,750.485L731.291,750.899L731.704,750.899C732.255,750.623 744.932,730.953 769.735,691.888C774.145,684.102 778.003,680.21 781.31,680.21L782.55,680.21C787.924,680.21 790.818,682.69 791.232,687.651C760.985,736.223 743.072,764.196 737.491,771.568C735.287,772.67 733.358,773.221 731.704,773.221L730.877,773.221C726.192,773.221 722.334,769.777 719.302,762.887C718.269,762.129 702.422,737.395 671.763,688.684C671.487,688.271 671.35,687.72 671.35,687.031C671.35,682.828 674.519,680.554 680.858,680.21Z" style="fill:rgb(226,238,255);fill-rule:nonzero;"/>
        </g>
        <g id="path1394" transform="matrix(-0.880393,0,0,1.13586,0,0)">
            <path d="M-178.964,31.82L-143.099,31.82C-139.945,32.277 -138.367,33.522 -138.367,35.556L-138.367,36.116C-138.948,38.607 -140.526,39.852 -143.099,39.852L-174.73,39.852C-186.56,39.852 -194.53,43.671 -198.64,51.309C-198.764,52.222 -199.013,52.679 -199.387,52.679L-209.349,52.679L-209.847,52.492C-207.813,46.141 -204.409,41.409 -199.636,38.296C-193.077,33.979 -186.187,31.82 -178.964,31.82L-178.964,31.82ZM-205.613,55.605L-162.526,55.605C-159.371,56.062 -157.794,57.307 -157.794,59.341L-157.794,59.964C-158.375,62.454 -159.952,63.7 -162.526,63.7L-205.613,63.7C-208.768,63.243 -210.345,61.998 -210.345,59.964L-210.345,59.341C-209.764,56.851 -208.187,55.605 -205.613,55.605ZM-209.349,66.626L-199.636,66.626C-199.387,66.668 -198.557,68.038 -197.145,70.736C-192.787,76.796 -185.315,79.826 -174.73,79.826L-143.099,79.826C-139.945,80.241 -138.367,81.487 -138.367,83.562L-138.367,84.123C-138.948,86.613 -140.526,87.859 -143.099,87.859L-178.964,87.859C-189.964,87.859 -199.096,83.542 -206.36,74.907C-208.685,70.839 -209.847,68.141 -209.847,66.813L-209.349,66.626Z" style="fill:rgb(226,238,255);fill-rule:nonzero;"/>
        </g>
    </g>
    <g transform="matrix(1,0,0,1,4.97589,13.1128)">
        <g transform="matrix(18,0,0,18,40.2701,12.6036)">
            <path d="M0.058,-0.7L0.224,-0.7C0.275,-0.7 0.315,-0.685 0.345,-0.655C0.375,-0.624 0.39,-0.584 0.39,-0.533L0.39,-0.451C0.39,-0.4 0.375,-0.36 0.345,-0.33C0.315,-0.299 0.275,-0.284 0.224,-0.284L0.164,-0.284L0.164,0L0.058,0L0.058,-0.7ZM0.219,-0.384C0.24,-0.384 0.256,-0.39 0.267,-0.401C0.278,-0.412 0.284,-0.428 0.284,-0.449L0.284,-0.535C0.284,-0.556 0.278,-0.572 0.267,-0.583C0.256,-0.594 0.24,-0.6 0.219,-0.6L0.164,-0.6L0.164,-0.384L0.219,-0.384Z" style="fill:rgb(226,238,255);fill-rule:nonzero;"/>
        </g>
        <g transform="matrix(18,0,0,18,47.1641,12.6036)">
            <path d="M0.267,-0.155L0.153,-0.155L0.13,0L0.024,0L0.14,-0.7L0.282,-0.7L0.398,0L0.29,0L0.267,-0.155ZM0.253,-0.257L0.21,-0.55L0.167,-0.257L0.253,-0.257Z" style="fill:rgb(226,238,255);fill-rule:nonzero;"/>
        </g>
        <g transform="matrix(18,0,0,18,54.0041,12.6036)">
            <path d="M0.024,-0.7L0.362,-0.7L0.362,-0.6L0.246,-0.6L0.246,0L0.14,0L0.14,-0.6L0.024,-0.6L0.024,-0.7Z" style="fill:rgb(226,238,255);fill-rule:nonzero;"/>
        </g>
        <g transform="matrix(18,0,0,18,60.9521,12.6036)">
            <path d="M0.215,0.01C0.166,0.01 0.126,-0.005 0.095,-0.036C0.064,-0.067 0.049,-0.107 0.049,-0.156L0.049,-0.544C0.049,-0.593 0.064,-0.633 0.095,-0.664C0.126,-0.695 0.166,-0.71 0.215,-0.71C0.264,-0.71 0.304,-0.695 0.335,-0.664C0.366,-0.633 0.381,-0.593 0.381,-0.544L0.381,-0.462L0.277,-0.462L0.277,-0.544C0.277,-0.564 0.271,-0.58 0.26,-0.592C0.249,-0.604 0.234,-0.61 0.216,-0.61C0.198,-0.61 0.183,-0.604 0.172,-0.592C0.161,-0.58 0.155,-0.564 0.155,-0.544L0.155,-0.156C0.155,-0.136 0.161,-0.12 0.172,-0.108C0.183,-0.096 0.198,-0.09 0.216,-0.09C0.234,-0.09 0.249,-0.096 0.26,-0.108C0.271,-0.12 0.277,-0.136 0.277,-0.156L0.277,-0.256L0.381,-0.256L0.381,-0.156C0.381,-0.107 0.366,-0.067 0.335,-0.036C0.304,-0.005 0.264,0.01 0.215,0.01Z" style="fill:rgb(226,238,255);fill-rule:nonzero;"/>
        </g>
        <g transform="matrix(18,0,0,18,68.5121,12.6036)">
            <path d="M0.058,0L0.058,-0.7L0.164,-0.7L0.164,-0.405L0.29,-0.405L0.29,-0.7L0.396,-0.7L0.396,0L0.29,0L0.29,-0.305L0.164,-0.305L0.164,0L0.058,0Z" style="fill:rgb(226,238,255);fill-rule:nonzero;"/>
        </g>
        <g transform="matrix(18,0,0,18,76.6841,12.6036)">
            <path d="M0.321,-0.362C0.347,-0.35 0.367,-0.332 0.381,-0.309C0.394,-0.286 0.401,-0.257 0.401,-0.224L0.401,-0.167C0.401,-0.116 0.386,-0.076 0.356,-0.046C0.326,-0.015 0.286,0 0.235,0L0.058,0L0.058,-0.7L0.226,-0.7C0.277,-0.7 0.317,-0.685 0.347,-0.655C0.377,-0.624 0.392,-0.584 0.392,-0.533L0.392,-0.496C0.392,-0.433 0.368,-0.389 0.321,-0.362ZM0.164,-0.6L0.164,-0.41L0.211,-0.41C0.236,-0.41 0.255,-0.416 0.268,-0.429C0.28,-0.441 0.286,-0.46 0.286,-0.485L0.286,-0.535C0.286,-0.556 0.28,-0.572 0.269,-0.583C0.258,-0.594 0.242,-0.6 0.221,-0.6L0.164,-0.6ZM0.295,-0.235C0.295,-0.26 0.289,-0.279 0.277,-0.292C0.264,-0.304 0.245,-0.31 0.22,-0.31L0.164,-0.31L0.164,-0.1L0.23,-0.1C0.251,-0.1 0.267,-0.106 0.278,-0.117C0.289,-0.128 0.295,-0.144 0.295,-0.165L0.295,-0.235Z" style="fill:rgb(226,238,255);fill-rule:nonzero;"/>
        </g>
        <g transform="matrix(18,0,0,18,84.5321,12.6036)">
            <path d="M0.267,-0.155L0.153,-0.155L0.13,0L0.024,0L0.14,-0.7L0.282,-0.7L0.398,0L0.29,0L0.267,-0.155ZM0.253,-0.257L0.21,-0.55L0.167,-0.257L0.253,-0.257Z" style="fill:rgb(226,238,255);fill-rule:nonzero;"/>
        </g>
        <g transform="matrix(18,0,0,18,91.3541,12.6036)">
            <path d="M0.41,-0.7L0.268,-0.293L0.268,0L0.162,0L0.162,-0.293L0.02,-0.7L0.133,-0.7L0.215,-0.433L0.299,-0.7L0.41,-0.7Z" style="fill:rgb(226,238,255);fill-rule:nonzero;"/>
        </g>
    </g>
</svg>
