<?xml version="1.0" encoding="UTF-8" standalone="no"?>
<!DOCTYPE svg PUBLIC "-//W3C//DTD SVG 1.1//EN" "http://www.w3.org/Graphics/SVG/1.1/DTD/svg11.dtd">
<svg width="100%" height="100%" viewBox="0 0 45 380" version="1.1" xmlns="http://www.w3.org/2000/svg" xmlns:xlink="http://www.w3.org/1999/xlink" xml:space="preserve" xmlns:serif="http://www.serif.com/" style="fill-rule:evenodd;clip-rule:evenodd;stroke-linejoin:round;stroke-miterlimit:2;">
    <g id="background" transform="matrix(1.04167,0,0,1.04323,0,0)">
        <rect id="rect1413" x="0" y="-0.034" width="43.393" height="364.348" style="fill:rgb(62,71,83);"/>
        <g id="logo" transform="matrix(0.138866,0,0,0.138657,2.50171,336.946)">
            <g id="path1388" transform="matrix(0.264583,0,0,0.264583,-130.714,-218.367)">
                <path d="M717.038,858.57L856.29,858.57C892.609,858.57 919.184,874.072 936.014,905.076C938.849,911.631 940.266,918.363 940.266,925.273L940.266,928.727C940.266,957.605 920.778,978.688 881.802,991.975C873.475,994.279 864.971,995.43 856.29,995.43L718.101,995.43C699.144,995.43 685.68,1003.93 677.707,1020.94L677.707,1063.2L896.684,1063.2L896.684,1054.69C899.164,1043.88 905.896,1038.48 916.881,1038.48L920.07,1038.48C932.825,1040.61 939.203,1044.86 939.203,1051.24L939.203,1084.99C939.203,1091.72 932.825,1095.97 920.07,1097.74L654.321,1097.74C640.857,1095.97 634.125,1090.66 634.125,1081.8L634.125,1019.88C634.125,1003.05 647.235,986.749 673.455,970.981C687.629,964.249 702.156,960.883 717.038,960.883L855.227,960.883C873.652,960.883 886.762,952.999 894.558,937.231C895.975,934.928 896.684,931.828 896.684,927.93L896.684,926.07C896.684,911.365 886.762,901.001 866.92,894.977C864.085,893.737 860.188,893.117 855.227,893.117L718.101,893.117C693.652,893.117 679.125,906.139 674.518,932.182C669.026,937.674 663.003,940.42 656.447,940.42L653.258,940.42C640.503,938.472 634.125,934.308 634.125,927.93L634.125,917.832C634.125,900.824 647.235,884.436 673.455,868.668C687.629,861.936 702.156,858.57 717.038,858.57Z" style="fill:rgb(226,238,255);fill-rule:nonzero;"/>
            </g>
            <g id="path1391" transform="matrix(0.455057,0,0,0.50612,-115.92,-318.968)">
                <path d="M680.858,680.21C684.716,680.21 688.712,684.206 692.846,692.198L730.464,750.485L731.291,750.899L731.704,750.899C732.255,750.623 744.932,730.953 769.735,691.888C774.145,684.102 778.003,680.21 781.31,680.21L782.55,680.21C787.924,680.21 790.818,682.69 791.232,687.651C760.985,736.223 743.072,764.196 737.491,771.568C735.287,772.67 733.358,773.221 731.704,773.221L730.877,773.221C726.192,773.221 722.334,769.777 719.302,762.887C718.269,762.129 702.422,737.395 671.763,688.684C671.487,688.271 671.35,687.72 671.35,687.031C671.35,682.828 674.519,680.554 680.858,680.21Z" style="fill:rgb(226,238,255);fill-rule:nonzero;"/>
            </g>
            <g id="path1394" transform="matrix(-0.880393,0,0,1.13586,0,-27.6526)">
                <path d="M-178.964,31.82L-143.099,31.82C-139.945,32.277 -138.367,33.522 -138.367,35.556L-138.367,36.116C-138.948,38.607 -140.526,39.852 -143.099,39.852L-174.73,39.852C-186.56,39.852 -194.53,43.671 -198.64,51.309C-198.764,52.222 -199.013,52.679 -199.387,52.679L-209.349,52.679L-209.847,52.492C-207.813,46.141 -204.409,41.409 -199.636,38.296C-193.077,33.979 -186.187,31.82 -178.964,31.82L-178.964,31.82ZM-205.613,55.605L-162.526,55.605C-159.371,56.062 -157.794,57.307 -157.794,59.341L-157.794,59.964C-158.375,62.454 -159.952,63.7 -162.526,63.7L-205.613,63.7C-208.768,63.243 -210.345,61.998 -210.345,59.964L-210.345,59.341C-209.764,56.851 -208.187,55.605 -205.613,55.605ZM-209.349,66.626L-199.636,66.626C-199.387,66.668 -198.557,68.038 -197.145,70.736C-192.787,76.796 -185.315,79.826 -174.73,79.826L-143.099,79.826C-139.945,80.241 -138.367,81.487 -138.367,83.562L-138.367,84.123C-138.948,86.613 -140.526,87.859 -143.099,87.859L-178.964,87.859C-189.964,87.859 -199.096,83.542 -206.36,74.907C-208.685,70.839 -209.847,68.141 -209.847,66.813L-209.349,66.626Z" style="fill:rgb(226,238,255);fill-rule:nonzero;"/>
            </g>
        </g>
    </g>
    <g id="g4406" transform="matrix(0.0367477,0,0,-0.036803,-654.599,771.799)">
        <g opacity="0.03">
            <path id="path3464" d="M16730.1,22498.6L16554.3,22320L16554.3,19726.3L16554.3,17132.6L16710.2,16979.5C16840.6,16849.1 16866.1,16809.4 16866.1,16724.4C16866.1,16639.4 16840.6,16599.7 16724.4,16483.5C16599.7,16361.6 16582.7,16330.4 16582.7,16228.3C16582.7,16078.1 16500.5,15995.9 16341.7,15981.7C16234,15973.2 16228.3,15967.6 16219.8,15868.3L16211.3,15760.6L16367.2,15760.6C16506.1,15760.6 16526,15755 16526,15703.9C16526,15652.9 16548.7,15647.2 16818,15641.6L17107.1,15633.1L17016.4,15584.9C16937,15539.5 16843.5,15533.9 16310.6,15533.9L15692.6,15533.9L15613.2,15610.4L15533.9,15686.9L15533.9,15369.4L15533.9,15052L15253.2,15052C15094.5,15052 14961.3,15063.3 14952.8,15080.3C14941.4,15097.3 15023.6,15108.7 15176.7,15108.7L15420.5,15108.7L15420.5,15363.8C15420.5,15570.7 15412,15618.9 15378,15618.9C15349.6,15618.9 15335.4,15647.2 15335.4,15712.4C15335.4,15851.3 15188,15987.4 15035,15987.4C14799.7,15987.4 14754.3,15842.8 14961.3,15749.3C15026.5,15718.1 15080.3,15678.4 15080.3,15655.7C15080.3,15624.6 14898.9,15618.9 14108,15618.9C13169.8,15618.9 13130.1,15616.1 13081.9,15562.2C13042.2,15516.9 12994,15505.5 12855.1,15505.5C12676.5,15505.5 12614.2,15474.3 12614.2,15386.5C12614.2,15312.8 12704.9,15278.7 12906.1,15278.7C13084.7,15278.7 13087.6,15278.7 13073.4,15207.9L13062,15137L13578,15137L13578,15060.5C13578,15009.4 13532.6,14938.6 13436.2,14836.5L13294.5,14686.3L13294.5,13898.3L13294.5,13107.4L13144.3,12960C13062,12877.8 12988.3,12812.6 12979.8,12812.6C12971.3,12812.6 12962.8,12835.3 12962.8,12863.6C12965.7,13243.5 12951.5,13436.2 12920.3,13427.7C12894.8,13424.9 12880.6,13470.2 12875,13566.6C12863.6,13750.9 12792.8,13830.2 12676.5,13787.7C12608.5,13765 12600,13745.2 12591.5,13606.3C12585.8,13521.3 12574.5,13441.9 12563.1,13430.6C12551.8,13419.2 12546.1,13206.6 12551.8,12957.2L12560.3,12500.8L13827.4,12500.8L13915.3,12401.6L14003.1,12299.5L14003.1,11877.2L14003.1,11452L15740.8,11452C17390.6,11452 17484.1,11454.8 17526.6,11503C17566.3,11545.5 17574.8,11616.4 17574.8,11837.5L17574.8,12120.9L17696.7,12240C17787.4,12330.7 17829.9,12353.4 17880.9,12342C17937.6,12325 17943.3,12308 17943.3,12101.1L17943.3,11877.2L18096.4,11877.2L18002.8,11780.8C17920.6,11695.7 17912.1,11673.1 17920.6,11548.3C17929.1,11420.8 17934.8,11409.4 18008.5,11400.9C18082.2,11392.4 18085,11398.1 18085,11511.5C18085,11619.2 18102,11650.4 18215.4,11766.6L18345.8,11897L18340.2,12438.4L18337.3,12979.8L18433.7,13087.6C18524.4,13183.9 18538.6,13189.6 18626.5,13164.1L18722.8,13135.7L18731.3,12917.5C18739.8,12721.9 18745.5,12699.2 18793.7,12699.2C18836.2,12699.2 18850.4,12679.4 18850.4,12614.2C18850.4,12546.1 18875.9,12512.1 18972.3,12441.3C19046,12387.4 19097,12327.9 19105.5,12279.7C19116.9,12217.3 19136.7,12203.1 19201.9,12203.1C19303.9,12203.1 19360.6,12279.7 19315.3,12353.4C19295.4,12381.7 19247.2,12401.6 19201.9,12401.6C19156.5,12401.6 19071.5,12429.9 19014.8,12466.8C18929.8,12520.6 18907.1,12551.8 18907.1,12617C18907.1,12679.4 18921.3,12699.2 18963.8,12699.2C19017.6,12699.2 19020.5,12719.1 19020.5,13161.3C19020.5,13773.5 19046,13748 18479.1,13748L18068,13748L17977.3,13841.6L17886.6,13935.1L17886.6,14740.2L18223.9,14740.2L18232.4,14394.3C18240.9,14085.4 18246.6,14045.7 18289.1,14054.2C18314.6,14057 18343,14048.5 18354.3,14031.5C18382.7,13983.3 18507.4,14000.3 18535.7,14057C18575.4,14130.7 18510.2,14215.7 18428,14193.1C18371.3,14178.9 18368.5,14187.4 18368.5,14456.7L18368.5,14737.3L18447.9,14745.8C18524.4,14754.3 18524.4,14757.2 18532.9,14989.6L18541.4,15222L18453.5,15222L18368.5,15222L18368.5,15720.9L18575.4,15925C18691.7,16041.3 18805,16129.1 18836.2,16129.1C18870.2,16129.1 18986.5,16035.6 19119.7,15902.4L19346.5,15675.6L22152.8,15675.6L25937,19459.8L25937,22130.1L25741.4,22317.2C25633.7,22422 25520.3,22507.1 25492,22507.1C25446.6,22507.1 25438.1,22524.1 25449.4,22592.1L25460.8,22677.2L25217,22677.2L24973.2,22677.2L24973.2,22450.4L24973.2,22220.8L25208.5,22229.3C25429.6,22237.8 25440.9,22240.6 25438.1,22303C25435.3,22399.4 25480.6,22379.5 25659.2,22203.8L25823.6,22042.2L25823.6,20778L25823.6,19516.5L23958.4,17651.3L22096.1,15789L20749.6,15789L19403.2,15789L19176.4,16015.7C18960.9,16234 18946.8,16242.5 18822,16242.5C18697.3,16242.5 18683.2,16234 18459.2,16007.2L18226.8,15774.8L18226.8,15497L18226.8,15222L18056.7,15222L17886.6,15222L17886.6,15584.9C17886.6,15944.9 17886.6,15947.7 17807.2,16024.3L17727.9,16100.8L17240.3,16100.8L16752.8,16100.8L16752.8,16202.8C16752.8,16287.9 16775.4,16324.7 16880.3,16423.9C17005,16543 17007.9,16551.5 17007.9,16713.1C17007.9,16877.5 17005,16886 16866.1,17022L16724.4,17160.9L16724.4,22269L16880.3,22422C17047.6,22586.5 17078.7,22677.2 16971,22677.2C16931.3,22677.2 16843.5,22614.8 16730.1,22498.6Z" style="fill:rgb(226,238,255);fill-rule:nonzero;"/>
            <path id="path3466" d="M17688.2,22578L17688.2,22478.7L17523.8,22478.7L17362.2,22478.7L17098.6,22215.1L16837.8,21951.5L16837.8,19885L16837.8,17818.6L16922.8,17730.7C16968.2,17682.5 17007.9,17623 17007.9,17600.3C17007.9,17489.8 17155.3,17452.9 17206.3,17549.3C17231.8,17594.6 17229,17620.2 17189.3,17662.7C17163.8,17691 17126.9,17716.5 17107.1,17716.5C17090.1,17716.5 17041.9,17753.4 16999.4,17795.9L16922.8,17875.3L16922.8,21897.6L17390.6,22365.4L17801.6,22365.4L17801.6,22521.3C17801.6,22657.3 17795.9,22677.2 17744.9,22677.2C17699.5,22677.2 17688.2,22657.3 17688.2,22578Z" style="fill:rgb(226,238,255);fill-rule:nonzero;"/>
            <path id="path3468" d="M17858.3,21506.5L17858.3,20338.6L17560.6,20040.9L17263,19743.3L17263,18569.8C17265.8,17401.9 17265.8,17396.2 17203.5,17331C17169.4,17294.2 17129.8,17271.5 17115.6,17280C17075.9,17305.5 17007.9,17231.8 17007.9,17160.9C17007.9,17081.6 17047.6,17053.2 17138.3,17075.9C17186.5,17090.1 17206.3,17112.8 17206.3,17158.1C17206.3,17195 17237.5,17254.5 17277.2,17291.3L17348,17356.5L17348,19715L17943.3,20310.2L17943.3,21492.3C17943.3,22526.9 17937.6,22677.2 17900.8,22677.2C17863.9,22677.2 17858.3,22526.9 17858.3,21506.5Z" style="fill:rgb(226,238,255);fill-rule:nonzero;"/>
            <path id="path3470" d="M18000,21449.8L18000,20225.2L17688.2,19913.4L17376.4,19601.6L17376.4,18737C17376.4,17923.5 17379.2,17866.8 17433.1,17778.9C17478.4,17708 17489.8,17637.2 17489.8,17455.7L17489.8,17223.3L17682.5,17027.7C17838.4,16871.8 17872.4,16820.8 17872.4,16744.3C17872.4,16667.7 17883.8,16653.5 17949,16645C18051,16633.7 18110.6,16732.9 18036.9,16792.4C18008.5,16815.1 17892.3,16920 17781.7,17024.9L17574.8,17214.8L17574.8,17450.1C17574.8,17637.2 17563.5,17705.2 17518.1,17778.9C17464.3,17866.8 17461.4,17923.5 17461.4,18722.8L17461.4,19573.2L17770.4,19882.2L18082.2,20191.2L18085,20902.7C18087.9,21767.2 18056.7,22677.2 18022.7,22677.2C18011.3,22677.2 18000,22124.4 18000,21449.8Z" style="fill:rgb(226,238,255);fill-rule:nonzero;"/>
            <path id="path3472" d="M18850.4,22351.2L18850.4,22028L18504.6,22019.5L18155.9,22011L18147.4,21018.9L18141.7,20023.9L17844.1,19729.1L17546.5,19431.5L17546.5,18652L17546.5,17869.6L17631.5,17787.4C17710.9,17713.7 17716.5,17691 17716.5,17512.4C17716.5,17333.9 17722.2,17316.8 17787.4,17285.7C17829.9,17265.8 17858.3,17231.8 17858.3,17192.1C17858.3,17067.4 18000,17016.4 18056.7,17124.1C18099.2,17200.6 18059.5,17246 17898,17319.7L17773.2,17373.5L17773.2,17555C17773.2,17710.9 17764.7,17744.9 17702.4,17801.6L17631.5,17866.8L17631.5,19403.2L18226.8,19998.4L18226.8,21940.2L18935.4,21940.2L18935.4,22308.7C18935.4,22617.6 18929.8,22677.2 18892.9,22677.2C18858.9,22677.2 18850.4,22623.3 18850.4,22351.2Z" style="fill:rgb(226,238,255);fill-rule:nonzero;"/>
            <path id="path3474" d="M18992.1,22266.1L18992.1,21855.1L18637.8,21855.1L18283.5,21855.1L18283.5,20840.3L18283.5,19828.3L17985.8,19530.7L17688.2,19233.1L17688.2,18581.1L17688.2,17926.3L17798.7,17818.6C17898,17722.2 17906.5,17702.4 17880.9,17642.8C17827.1,17529.4 17963.2,17435.9 18051,17523.8C18110.6,17583.3 18087.9,17631.5 17929.1,17798.7L17773.2,17963.2L17773.2,19233.1L18368.5,19828.3L18368.5,21767.2L18717.2,21775.7L19063,21784.3L19071.5,22232.1C19077.2,22614.8 19071.5,22677.2 19034.6,22677.2C18997.8,22677.2 18992.1,22614.8 18992.1,22266.1Z" style="fill:rgb(226,238,255);fill-rule:nonzero;"/>
            <path id="path3476" d="M19105.5,22195.3L19105.5,21716.2L18807.9,21707.7L18507.4,21699.2L18507.4,20707.1L18507.4,19712.1L18226.8,19431.5L17943.3,19148L17943.3,18657.6C17943.3,18252.3 17934.8,18158.7 17898,18121.9C17832.8,18053.9 17858.3,17960.3 17949,17949C18036.9,17937.6 18099.2,18019.8 18053.9,18087.9C18039.7,18107.7 18028.3,18351.5 18028.3,18623.6L18028.3,19119.7L18566.9,19658.3L18566.9,21628.3L19190.6,21628.3L19190.6,22152.8C19190.6,22600.6 19184.9,22677.2 19148,22677.2C19111.2,22677.2 19105.5,22603.5 19105.5,22195.3Z" style="fill:rgb(226,238,255);fill-rule:nonzero;"/>
            <path id="path3478" d="M19275.6,22138.6L19275.6,21600L18992.1,21600L18708.7,21600L18708.7,20556.9L18708.7,19516.5L18439.4,19247.2L18170.1,18978L18170.1,18167.2L18170.1,17356.5L18240.9,17291.3C18280.6,17254.5 18311.8,17195 18311.8,17160.9C18311.8,17121.3 18337.3,17081.6 18371.3,17061.7C18422.4,17036.2 18442.2,17041.9 18487.6,17087.2C18532.9,17132.6 18538.6,17152.4 18513.1,17203.5C18493.2,17237.5 18453.5,17263 18413.9,17263C18379.8,17263 18323.2,17291.3 18289.1,17328.2C18229.6,17393.4 18226.8,17413.2 18226.8,18158.7L18226.8,18921.3L18765.4,19459.8L18765.4,21515L19360.6,21515L19360.6,22096.1C19360.6,22595 19355,22677.2 19318.1,22677.2C19281.3,22677.2 19275.6,22597.8 19275.6,22138.6Z" style="fill:rgb(226,238,255);fill-rule:nonzero;"/>
            <path id="path3480" d="M19445.7,22053.5L19445.7,21429.9L19176.4,21429.9L18907.1,21429.9L18907.1,20429.3L18907.1,19431.5L18637.8,19162.2L18368.5,18892.9L18368.5,18518.7C18368.5,18266.5 18357.2,18121.9 18334.5,18085C18289.1,18014.2 18331.7,17932 18419.5,17920.6C18527.2,17903.6 18569.8,18085 18467.7,18124.7C18436.5,18136.1 18428,18221.1 18428,18490.4L18428,18841.9L18697.3,19108.3L18963.8,19374.8L18963.8,21344.9L19502.4,21344.9L19502.4,22011C19502.4,22436.2 19491,22677.2 19474,22677.2C19457,22677.2 19445.7,22450.4 19445.7,22053.5Z" style="fill:rgb(226,238,255);fill-rule:nonzero;"/>
            <path id="path3482" d="M19587.4,21968.5L19587.4,21259.8L19326.6,21259.8L19063,21259.8L19068.7,20293.2L19077.2,19323.8L18836.2,19077.2L18595.3,18833.4L18595.3,18340.2L18595.3,17846.9L18518.7,17767.6C18476.2,17725 18428,17688.2 18408.2,17688.2C18354.3,17688.2 18306.1,17608.8 18326,17549.3C18362.8,17427.4 18555.6,17464.3 18530.1,17589C18521.6,17637.2 18541.4,17679.7 18598.1,17733.5L18680.3,17812.9L18680.3,18836.2L18907.1,19063L19133.9,19286.9L19139.5,20233.7L19148,21180.5L19403.2,21186.1L19658.3,21189L19666.8,21934.5C19672.4,22583.6 19666.8,22677.2 19629.9,22677.2C19593.1,22677.2 19587.4,22583.6 19587.4,21968.5Z" style="fill:rgb(226,238,255);fill-rule:nonzero;"/>
            <path id="path3484" d="M19814.2,21974.2L19814.2,21271.2L19720.6,21180.5C19635.6,21098.3 19610.1,21089.8 19451.3,21089.8L19275.6,21089.8L19275.6,20174.2L19275.6,19258.6L19148,19133.9L19020.5,19009.1L19020.5,18635C19020.5,18235.3 19012,18212.6 18841.9,18130.4C18754,18085 18742.7,17954.6 18822,17929.1C18895.7,17906.5 18963.8,17957.5 18963.8,18042.5C18963.8,18076.5 18989.3,18127.6 19020.5,18155.9C19071.5,18201.3 19077.2,18243.8 19077.2,18578.3L19077.2,18952.4L19360.6,19230.2L19360.6,21004.7L19502.4,21004.7C19629.9,21004.7 19652.6,21016.1 19771.7,21132.3L19899.2,21262.7L19899.2,21968.5C19899.2,22580.8 19893.5,22677.2 19856.7,22677.2C19819.8,22677.2 19814.2,22580.8 19814.2,21974.2Z" style="fill:rgb(226,238,255);fill-rule:nonzero;"/>
            <path id="path3486" d="M19927.6,21917.5L19927.6,21157.8L19791.5,21024.6C19678.1,20914 19638.4,20891.3 19550.6,20891.3L19445.7,20891.3L19445.7,20032.4L19445.7,19173.5L19289.8,19020.5L19133.9,18867.4L19133.9,18453.5L19133.9,18039.7L18992.1,17900.8C18915.6,17824.3 18850.4,17747.7 18850.4,17727.9C18850.4,17710.9 18830.6,17679.7 18807.9,17659.8C18745.5,17608.8 18756.9,17526.6 18824.9,17486.9C18875.9,17461.4 18895.7,17464.3 18941.1,17509.6C18989.3,17557.8 18989.3,17574.8 18960.9,17642.8C18926.9,17713.7 18932.6,17727.9 19071.5,17866.8L19218.9,18017L19218.9,18867.4L19530.7,19173.5L19530.7,20806.3L19607.2,20806.3C19663.9,20806.3 19729.1,20851.7 19848.2,20967.9L20012.6,21129.4L20012.6,21903.3C20012.6,22572.3 20006.9,22677.2 19970.1,22677.2C19933.2,22677.2 19927.6,22575.1 19927.6,21917.5Z" style="fill:rgb(226,238,255);fill-rule:nonzero;"/>
            <path id="path3492" d="M20607.9,21557.5L20607.9,20437.8L20097.6,20437.8L19587.4,20437.8L19587.4,19777.3L19587.4,19116.9L19445.7,18978L19303.9,18839.1L19303.9,18411L19303.9,17983L19190.6,17872.4C19085.7,17770.4 19077.2,17750.6 19077.2,17603.2L19077.2,17447.2L18773.9,17143.9C18578.3,16954 18442.2,16837.8 18396.9,16832.1C18272.1,16818 18300.5,16639.4 18428,16639.4C18476.2,16639.4 18549.9,16730.1 18524.4,16758.4C18518.7,16764.1 18657.6,16914.3 18836.2,17092.9L19162.2,17418.9L19162.2,17589C19162.2,17750.6 19170.7,17770.4 19261.4,17858.3L19360.6,17954.6L19360.6,18782.4L19516.5,18935.4L19675.3,19091.3L19672.4,19729.1L19669.6,20366.9L20179.8,20375.4L20692.9,20381.1L20692.9,21529.1C20692.9,22529.8 20687.2,22677.2 20650.4,22677.2C20613.5,22677.2 20607.9,22532.6 20607.9,21557.5Z" style="fill:rgb(226,238,255);fill-rule:nonzero;"/>
            <path id="path3712" d="M17949,16406.9C17895.1,16353.1 17909.3,16248.2 17971.7,16228.3C18039.7,16205.7 18113.4,16256.7 18113.4,16324.7C18113.4,16378.6 18059.5,16440.9 18014.2,16440.9C17997.2,16440.9 17968.8,16426.8 17949,16406.9Z" style="fill:rgb(226,238,255);fill-rule:nonzero;"/>
            <path id="path3714" d="M18396.9,16398.4C18323.2,16310.6 18433.7,16166 18521.6,16239.7C18575.4,16285 18581.1,16358.7 18532.9,16406.9C18487.6,16452.3 18439.4,16449.4 18396.9,16398.4Z" style="fill:rgb(226,238,255);fill-rule:nonzero;"/>
            <path id="path3752" d="M18805,15494.2C18776.7,15417.6 18807.9,15349.6 18878.7,15341.1C18966.6,15326.9 19029,15406.3 18989.3,15480C18955.3,15542.4 18827.7,15550.9 18805,15494.2Z" style="fill:rgb(226,238,255);fill-rule:nonzero;"/>
            <path id="path3768" d="M18813.5,15091.7C18773.9,15052 18793.7,14941.4 18847.6,14913.1C18921.3,14873.4 19000.6,14935.7 18986.5,15026.5C18980.8,15074.6 18958.1,15097.3 18907.1,15103C18867.4,15108.7 18824.9,15103 18813.5,15091.7Z" style="fill:rgb(226,238,255);fill-rule:nonzero;"/>
            <path id="path3814" d="M18805,14161.9C18771,14074 18805,14017.3 18892.9,14017.3C18969.4,14017.3 18978,14025.8 18978,14102.4C18978,14173.2 18966.6,14187.4 18898.6,14195.9C18850.4,14201.6 18816.4,14190.2 18805,14161.9Z" style="fill:rgb(226,238,255);fill-rule:nonzero;"/>
            <path id="path3890" d="M11712.8,12265.5L11565.4,12115.3L11565.4,11437.8L11565.4,10757.5L11318.7,10510.9L11069.3,10261.4L10811.3,10261.4C10590.2,10261.4 10547.7,10252.9 10502.4,10204.7C10457,10153.7 10414.5,10148 10057.3,10148L9663.31,10148L9025.51,9518.74L8390.55,8892.28L8390.55,7982.36L8390.55,7072.44L7341.73,6023.62L6292.91,4974.8L6292.91,4733.86L6292.91,4492.91L5839.37,4039.37L5385.83,3585.83L5385.83,3146.46L5385.83,2707.09L5825.2,2267.72L6264.57,1828.35L6264.57,1584.57C6264.57,1369.13 6258.9,1335.12 6199.37,1281.26C6151.18,1233.07 6097.32,1218.9 5992.44,1218.9L5853.54,1218.9L5309.29,1763.15L4762.2,2310.24L4762.2,4376.69L4685.67,4456.06L4609.13,4535.43L2304.57,4535.43C274.961,4535.43 0,4529.76 0,4492.91C0,4456.06 272.126,4450.39 2290.39,4450.39C4475.91,4450.39 4586.46,4447.56 4628.98,4399.37C4671.5,4351.18 4677.16,4234.96 4677.16,3313.7L4677.16,2281.89L5252.6,1706.46L5825.2,1133.86L5998.11,1133.86C6154.02,1133.86 6176.69,1142.36 6258.9,1227.4C6346.77,1318.11 6349.61,1326.61 6349.61,1590.24L6349.61,1856.69L5910.24,2296.06L5470.87,2735.43L5470.87,3585.83L6377.95,4492.91L6377.95,4974.8L8475.59,7072.44L8475.59,8858.27L9708.66,10091.3L10108.3,10091.3C10471.2,10091.3 10513.7,10097 10559.1,10148C10601.6,10196.2 10646.9,10204.7 10853.9,10204.7L11097.6,10204.7L11622,10729.1L11622,12064.3L11894.2,12330.7L12772.9,12330.7C13592.1,12330.7 13657.3,12327.9 13699.8,12279.7C13739.5,12234.3 13748,12157.8 13748,11797.8C13748,11534.2 13759.4,11341.4 13782,11296.1L13813.2,11225.2L15576.4,11225.2C17302.7,11225.2 17339.5,11225.2 17390.6,11168.5C17438.7,11117.5 17478.4,11111.8 17869.6,11111.8L18300.5,11111.8L18447.9,11262C18586.8,11400.9 18595.3,11420.8 18595.3,11554C18595.3,11684.4 18603.8,11704.3 18731.3,11829L18867.4,11962.2L19547.7,11962.2L19629.9,11877.2C19703.6,11800.6 19729.1,11792.1 19885,11792.1C20023.9,11792.1 20072.1,11780.8 20111.8,11735.4C20148.7,11692.9 20199.7,11678.7 20296.1,11678.7C20446.3,11678.7 20522.8,11619.2 20522.8,11505.8C20522.8,11423.6 20571,11366.9 20639.1,11366.9C20763.8,11366.9 20780.8,11571 20656.1,11610.7C20622,11622 20556.9,11658.9 20514.3,11695.7C20457.6,11743.9 20398.1,11763.8 20313.1,11763.8C20228,11763.8 20177,11780.8 20140.2,11820.5C20100.5,11865.8 20052.3,11877.2 19913.4,11877.2C19757.5,11877.2 19732,11885.7 19658.3,11962.2L19576.1,12047.2L19204.7,12047.2L18833.4,12047.2L18671.8,11882.8C18518.7,11729.8 18510.2,11712.8 18510.2,11579.5C18510.2,11454.8 18498.9,11429.3 18391.2,11318.7L18272.1,11196.9L17855.4,11196.9C17475.6,11196.9 17438.7,11202.5 17390.6,11253.5C17339.5,11310.2 17308.3,11310.2 15613.2,11310.2C14663.6,11310.2 13875.6,11315.9 13861.4,11324.4C13844.4,11335.7 13833.1,11539.8 13833.1,11803.5L13833.1,12262.7L13753.7,12339.2L13674.3,12415.7L12767.2,12415.7L11860.2,12415.7L11712.8,12265.5Z" style="fill:rgb(226,238,255);fill-rule:nonzero;"/>
            <path id="path3896" d="M22229.3,12268.3C22209.4,12248.5 22195.3,12214.5 22195.3,12189C22195.3,12166.3 22013.9,11965 21789.9,11741.1L21387.4,11338.6L20488.8,11338.6L19587.4,11338.6L19573.2,11418C19542,11562.5 19519.4,11579.5 19346.5,11588C19131,11599.4 19077.2,11554 19077.2,11355.6C19077.2,11213.9 19071.5,11202.5 18907.1,11040.9L18737,10873.7L18737,10204.7L18737,9538.58L19071.5,9204.09C19369.1,8906.46 19414.5,8872.44 19505.2,8872.44C19581.7,8872.44 19627.1,8849.76 19698,8776.06C19800,8671.18 19822.7,8665.51 20352.8,8628.66L20565.4,8614.49L22033.7,7148.98L23499.2,5683.47L23499.2,4521.26L23499.2,3356.22L23612.6,3245.67L23726,3135.12L23726,2267.72L23726,1403.15L24137,992.126L24548,581.102L24548,374.173C24548,243.78 24536.7,172.913 24519.7,184.252C24505.5,192.756 24491.3,286.299 24491.3,391.181L24491.3,581.102L24094.5,977.953L23697.6,1374.8L23697.6,3098.27L23584.3,3220.16L23470.9,3344.88L23470.9,5655.12L22002.5,7123.47L20537,8588.98L20332.9,8588.98C20222.4,8588.98 20120.3,8603.15 20111.8,8617.32C20103.3,8634.33 20009.8,8645.67 19907.7,8645.67C19734.8,8645.67 19715,8651.34 19612.9,8744.88C19550.6,8798.74 19474,8844.09 19437.2,8844.09C19394.6,8844.09 19267.1,8951.81 19026.1,9192.76L18680.3,9538.58L18680.3,10902L18850.4,11069.3C19012,11230.9 19020.5,11245 19020.5,11378.3C19020.5,11494.5 19034.6,11534.2 19097,11599.4C19165,11670.2 19190.6,11678.7 19360.6,11678.7C19516.5,11678.7 19559.1,11667.4 19604.4,11619.2C19632.8,11585.2 19655.4,11531.3 19649.8,11497.3C19638.4,11418 19706.5,11358.4 19791.5,11372.6C19910.6,11389.6 19882.2,11593.7 19760.3,11593.7C19732,11593.7 19680.9,11624.9 19644.1,11664.6C19584.6,11726.9 19556.2,11735.4 19360.6,11735.4C19153.7,11735.4 19142.4,11732.6 19054.5,11641.9C18975.1,11559.7 18963.8,11528.5 18963.8,11392.4C18963.8,11239.4 18960.9,11233.7 18793.7,11069.3L18623.6,10902L18623.6,10207.6L18623.6,9515.91L18983.6,9150.24C19261.4,8869.61 19360.6,8787.4 19417.3,8787.4C19465.5,8787.4 19525,8750.55 19587.4,8688.19C19678.1,8594.65 19692.3,8588.98 19873.7,8588.98C19978.6,8588.98 20075,8577.64 20083.5,8560.63C20092,8546.46 20199.7,8532.28 20318.7,8532.28L20537,8532.28L21991.2,7078.11L23442.5,5626.77L23442.5,4461.73L23442.5,3299.53L23541.7,3203.15L23640.9,3106.77L23640.9,2239.37L23640.9,1374.8L24037.8,977.953L24434.6,581.102L24434.6,382.677C24434.6,192.756 24440.3,175.748 24528.2,90.709C24590.6,31.181 24650.1,0 24703.9,0L24786.1,0L24681.3,107.717C24579.2,212.598 24576.4,221.102 24576.4,428.031L24576.4,640.63L24165.4,1048.82L23754.3,1454.17L23754.3,3191.81L23655.1,3288.19L23555.9,3384.57L23555.9,5674.96L22076.2,7168.82L20599.4,8659.84L20383.9,8668.35C20264.9,8674.02 20157.2,8688.19 20143,8702.36C20126,8719.37 20043.8,8730.71 19955.9,8730.71C19811.3,8730.71 19788.7,8739.21 19700.8,8829.92C19632.8,8900.79 19578.9,8929.13 19516.5,8929.13C19445.7,8929.13 19380.5,8980.16 19111.2,9249.45L18793.7,9566.93L18793.7,10845.4L18963.8,11012.6C19128.2,11174.2 19133.9,11185.5 19133.9,11327.2C19133.9,11497.3 19190.6,11565.4 19329.4,11565.4C19462.7,11565.4 19530.7,11520 19530.7,11429.3C19530.7,11383.9 19544.9,11335.7 19564.7,11315.9C19590.2,11290.4 19839.7,11281.9 20508.7,11281.9L21415.7,11281.9L21812.6,11678.7C22132.9,11999.1 22218,12069.9 22269,12058.6C22337,12041.6 22422,12109.6 22422,12186.1C22422,12245.7 22368.2,12302.4 22308.7,12302.4C22283.2,12302.4 22249.1,12288.2 22229.3,12268.3Z" style="fill:rgb(226,238,255);fill-rule:nonzero;"/>
            <path id="path3906" d="M12038.7,11826.1L11735.4,11522.8L11735.4,11111.8L11735.4,10700.8L11443.5,10408.8L11154.3,10119.7L10924.7,10119.7C10709.3,10119.7 10692.3,10114 10615.7,10034.6L10533.5,9949.61L10136.7,9949.61L9737.01,9949.61L9161.58,9374.17L8588.98,8801.58L8588.98,7894.49L8588.98,6987.4L7540.16,5938.58L6491.34,4889.76L6491.34,4662.99L6491.34,4436.22L6037.8,3982.68L5584.25,3529.13L5584.25,3188.98L5584.25,2848.82L6023.62,2409.45L6462.99,1970.08L6462.99,1615.75L6462.99,1258.58L6326.93,1125.35L6190.87,992.126L5966.93,992.126L5740.16,992.126L5153.39,1578.9L4563.78,2168.5L4563.78,3174.8C4563.78,4042.2 4558.11,4192.44 4518.43,4246.3L4475.91,4308.66L2236.53,4308.66C765.354,4308.66 0,4300.16 0,4280.32C0,4260.47 754.016,4251.97 2205.35,4251.97C3883.47,4251.97 4419.21,4243.47 4444.72,4217.95C4470.24,4192.44 4478.74,3920.32 4478.74,3160.63L4478.74,2140.16L5096.69,1522.2L5711.81,907.087L6219.21,907.087L6548.03,1230.24L6548.03,1970.08L6105.83,2412.28L5663.62,2857.32L5666.46,3177.64L5672.13,3500.79L6122.84,3954.33L6576.38,4407.87L6576.38,4861.42L7625.2,5910.24L8674.02,6961.89L8674.02,8773.23L9765.35,9864.57L10561.9,9864.57L10644.1,9949.61C10720.6,10029 10737.6,10034.6 10955.9,10034.6L11182.7,10034.6L11820.5,10672.4L11820.5,11494.5L12401.6,12075.6L12917.5,12075.6C13200.9,12075.6 13450.4,12067.1 13475.9,12058.6C13515.6,12044.4 13521.3,11982 13521.3,11653.2L13521.3,11264.9L13671.5,11117.5L13821.7,10970.1L15548,10970.1C16993.7,10967.2 17288.5,10961.6 17348,10927.6C17401.9,10896.4 17538,10887.9 17900.8,10885L18382.7,10885L18603.8,11106.1C18819.2,11321.6 18822,11327.2 18822,11469C18822,11596.5 18833.4,11622 18929.8,11715.6L19037.5,11820.5L19292.6,11820.5C19539.2,11820.5 19550.6,11817.6 19629.9,11735.4C19700.8,11661.7 19732,11650.4 19862.4,11650.4C19987.1,11650.4 20015.4,11639.1 20046.6,11588C20066.5,11551.2 20077.8,11505.8 20072.1,11486C20052.3,11383.9 20239.4,11321.6 20290.4,11412.3C20332.9,11488.8 20296.1,11568.2 20208.2,11585.2C20165.7,11593.7 20100.5,11630.6 20066.5,11667.4C20018.3,11721.3 19972.9,11735.4 19870.9,11735.4C19766,11735.4 19726.3,11749.6 19672.4,11806.3C19610.1,11874.3 19590.2,11877.2 19289.8,11877.2L18975.1,11877.2L18856.1,11755.3C18748.3,11644.7 18737,11622 18737,11491.7C18737,11355.6 18731.3,11344.3 18544.3,11160L18351.5,10967.2L17855.4,10984.3C17583.3,10992.8 16571.3,11006.9 15604.7,11012.6L13847.2,11026.8L13728.2,11145.8L13606.3,11264.9L13606.3,11653.2C13606.3,11990.6 13600.6,12044.4 13555.3,12084.1C13509.9,12126.6 13422,12132.3 12923.1,12132.3L12344.9,12132.3L12038.7,11826.1Z" style="fill:rgb(226,238,255);fill-rule:nonzero;"/>
            <path id="path3920" d="M22308.7,11647.6C22288.8,11616.4 22283.2,11573.9 22288.8,11554C22297.3,11534.2 22212.3,11426.5 22098.9,11313.1L21897.6,11111.8L20735.4,11111.8L19573.2,11111.8L19267.1,10805.7L18963.8,10502.4L18963.8,10091.3L18963.8,9680.32L19241.6,9402.52C19408.8,9235.28 19539.2,9127.56 19576.1,9127.56C19607.2,9127.56 19689.4,9070.87 19757.5,9000C19876.5,8878.11 19890.7,8872.44 20043.8,8872.44C20134.5,8872.44 20216.7,8861.1 20225.2,8844.09C20233.7,8829.92 20341.4,8815.75 20460.5,8815.75L20678.7,8815.75L22203.8,7290.71L23726,5768.5L23726,4617.64L23726,3469.61L23825.2,3373.23L23924.4,3276.85L23924.4,2395.28L23924.4,1516.54L24273.1,1167.87L24618.9,822.047L24961.9,822.047C25188.7,822.047 25313.4,810.709 25336.1,788.031C25358.7,765.354 25370.1,632.126 25370.1,377.008C25370.1,144.567 25381.4,0 25398.4,0C25415.4,0 25426.8,144.567 25426.8,377.008C25426.8,737.008 25423.9,759.685 25361.6,816.378C25302,873.071 25265.2,878.74 24973.2,878.74L24647.2,878.74L24315.6,1210.39L23981.1,1544.88L23981.1,3276.85L23881.9,3373.23L23782.7,3469.61L23782.7,5768.5L22229.3,7321.89L20678.7,8872.44L20457.6,8872.44C20330.1,8872.44 20239.4,8883.78 20239.4,8900.79C20239.4,8917.8 20165.7,8929.13 20072.1,8929.13C19916.2,8929.13 19899.2,8934.8 19791.5,9042.52C19726.3,9107.72 19652.6,9155.91 19615.7,9155.91C19573.2,9155.91 19462.7,9243.78 19286.9,9416.69L19020.5,9677.48L19020.5,10474L19601.6,11055.1L21900.5,11055.1L22110.2,11267.7C22260.5,11418 22337,11477.5 22373.9,11469C22424.9,11457.6 22535.4,11539.8 22535.4,11590.9C22535.4,11636.2 22447.6,11707.1 22393.7,11707.1C22362.5,11707.1 22325.7,11681.6 22308.7,11647.6Z" style="fill:rgb(226,238,255);fill-rule:nonzero;"/>
            <path id="path3948" d="M12557.5,10989.9C12557.5,10887.9 12418.6,10771.7 12299.5,10771.7C12189,10771.7 12075.6,10678.1 12075.6,10584.6C12072.8,10556.2 12055.7,10499.5 12033.1,10459.8C12007.6,10417.3 11993.4,10306.8 11990.6,10176.4L11990.6,9963.78L11741.1,9714.33L11494.5,9467.72L11310.2,9467.72L11123.1,9467.72L10919.1,9260.79L10715,9056.69L10715,8858.27L10715,8659.84L10119.7,8064.57L9524.41,7469.29L9524.41,7029.92L9524.41,6590.55L8914.96,5981.1L8302.68,5368.82L8305.51,3982.68L8305.51,2596.53L8115.59,2403.78C7979.53,2264.88 7902.99,2211.02 7851.97,2211.02C7798.11,2211.02 7715.91,2148.66 7545.83,1975.75L7313.39,1743.31L7313.39,1559.06L7313.39,1374.8L6950.55,1011.97L6590.55,651.969L6168.19,651.969L5745.83,651.969L5417.01,325.984L5088.19,0L7698.9,0L8087.24,391.181L8475.59,785.197L8475.59,2057.95L8787.4,2364.09L8787.4,5144.88L10034.6,6392.13L10034.6,7270.87L11225.2,8461.42L11225.2,8662.68C11225.2,8931.97 11276.2,8985.83 11539.8,8985.83L11721.3,8985.83L12500.8,9765.35L12500.8,9980.79C12500.8,10184.9 12503.6,10196.2 12594.3,10284.1L12687.9,10374.8L14558.7,10374.8L14726,10204.7L14893.2,10034.6L15562.2,10034.6L15562.2,10488.2L16526,10488.2L16526,10289.8C16526,10125.4 16534.5,10088.5 16579.8,10063C16613.9,10046 16911.5,10034.6 17345.2,10034.6L18056.7,10034.6L18056.7,10686.6L17640,10686.6C17271.5,10686.6 17209.1,10692.3 17126.9,10743.3C17039.1,10797.2 16985.2,10800 15355.3,10800L13674.3,10800L13549.6,10927.6L13424.9,11055.1L12991.2,11055.1L12557.5,11055.1L12557.5,10989.9ZM8206.3,1062.99C8350.87,921.26 8257.32,680.315 8058.9,680.315C7934.17,680.315 7823.62,785.197 7823.62,907.087C7823.62,1023.31 7934.17,1133.86 8050.39,1133.86C8104.25,1133.86 8163.78,1108.35 8206.3,1062.99Z" style="fill:rgb(226,238,255);fill-rule:nonzero;"/>
            <path id="path3952" d="M19071.5,10995.6C19037.5,10978.6 19020.5,10933.2 19020.5,10870.9C19020.5,10800 18997.8,10757.5 18932.6,10703.6L18844.7,10629.9L18847.6,10111.2L18853.2,9595.28L19156.5,9291.97C19408.8,9034.02 19474,8985.83 19544.9,8985.83C19607.2,8985.83 19661.1,8957.48 19729.1,8886.61C19817,8795.91 19839.7,8787.4 19987.1,8787.4C20077.8,8787.4 20160,8776.06 20168.5,8759.06C20177,8744.88 20279.1,8730.71 20389.6,8730.71L20593.7,8730.71L22104.6,7219.84L23612.6,5711.81L23612.6,4546.77L23612.6,3384.57L23711.8,3288.19L23811,3191.81L23811,2324.41L23811,1459.84L24173.9,1099.84L24533.9,739.843L24902.4,731.339L25270.9,722.835L25279.4,362.835C25282.2,153.071 25299.2,0 25313.4,0C25350.2,0 25350.2,668.976 25313.4,739.843C25285,788.031 25251,793.701 24922.2,793.701L24562.2,793.701L24213.5,1142.36L23867.7,1488.19L23867.7,3220.16L23768.5,3316.53L23669.3,3412.91L23669.3,5740.16L22158.4,7251.02L20650.4,8759.06L20435,8759.06C20276.2,8759.06 20208.2,8770.39 20182.7,8801.58C20160,8829.92 20097.6,8844.09 20001.3,8844.09C19870.9,8844.09 19842.5,8855.43 19757.5,8943.31C19689.4,9014.17 19635.6,9042.52 19573.2,9042.52C19502.4,9042.52 19437.2,9090.71 19182,9348.66L18878.7,9651.97L18878.7,10590.2L18972.3,10680.9C19023.3,10732 19091.3,10771.7 19125.4,10771.7C19196.2,10771.7 19255.7,10836.9 19241.6,10902C19227.4,10975.7 19128.2,11029.6 19071.5,10995.6Z" style="fill:rgb(226,238,255);fill-rule:nonzero;"/>
            <path id="path3966" d="M18365.7,10661.1C18283.5,10595.9 18309,10468.3 18411,10442.8C18507.4,10417.3 18572.6,10476.9 18561.3,10581.7C18549.9,10692.3 18453.5,10732 18365.7,10661.1Z" style="fill:rgb(226,238,255);fill-rule:nonzero;"/>
        </g>
    </g>
    <g id="rect2071" transform="matrix(1.34072,0,0,0.150563,-10.5862,27.2781)">
        <path d="M38.126,111.253C38.126,99.498 37.054,89.955 35.734,89.955L13.622,89.955C12.302,89.955 11.23,99.498 11.23,111.253L11.23,312.463C11.23,324.218 12.302,333.761 13.622,333.761L35.734,333.761C37.054,333.761 38.126,324.218 38.126,312.463L38.126,111.253Z" style="fill:rgb(226,238,255);"/>
    </g>
    <g id="text835" transform="matrix(-0.132657,0,0,0.171407,2.71453,350.483)">
        <g transform="matrix(-7.53824,0,0,5.83405,20.4627,-1805.54)">
            <g transform="matrix(8,0,0,8,3.98407,58.0831)">
                <path d="M0.141,-0.549L0.021,-0.549L0.021,-0.623C0.06,-0.626 0.092,-0.634 0.118,-0.648C0.143,-0.662 0.162,-0.679 0.173,-0.7L0.247,-0.7L0.247,0L0.141,0L0.141,-0.549Z" style="fill:rgb(226,238,255);fill-rule:nonzero;"/>
            </g>
        </g>
        <g transform="matrix(-7.53824,0,0,5.83405,20.4627,-1613.01)">
            <g transform="matrix(8,0,0,8,3.98407,58.0831)">
                <path d="M0.156,-0.1L0.366,-0.1L0.366,0L0.03,0L0.03,-0.092L0.185,-0.339C0.214,-0.384 0.233,-0.421 0.244,-0.45C0.255,-0.478 0.26,-0.506 0.26,-0.533C0.26,-0.558 0.255,-0.577 0.244,-0.59C0.233,-0.603 0.217,-0.609 0.196,-0.609C0.175,-0.609 0.16,-0.603 0.149,-0.59C0.137,-0.577 0.132,-0.558 0.132,-0.533L0.132,-0.492L0.03,-0.492L0.03,-0.525C0.03,-0.582 0.045,-0.627 0.075,-0.66C0.104,-0.693 0.145,-0.709 0.197,-0.709C0.25,-0.709 0.291,-0.694 0.321,-0.663C0.351,-0.632 0.366,-0.59 0.366,-0.536C0.366,-0.498 0.359,-0.461 0.346,-0.425C0.332,-0.388 0.307,-0.342 0.272,-0.285L0.156,-0.1Z" style="fill:rgb(226,238,255);fill-rule:nonzero;"/>
            </g>
        </g>
        <g transform="matrix(-7.53824,0,0,5.83405,20.4627,-1426.32)">
            <g transform="matrix(8,0,0,8,3.98407,58.0831)">
                <path d="M0.284,-0.365C0.339,-0.34 0.366,-0.294 0.366,-0.227L0.366,-0.162C0.366,-0.109 0.351,-0.067 0.321,-0.036C0.291,-0.005 0.25,0.01 0.197,0.01C0.144,0.01 0.103,-0.005 0.073,-0.036C0.043,-0.067 0.028,-0.109 0.028,-0.162L0.028,-0.183L0.13,-0.193L0.13,-0.17C0.13,-0.117 0.152,-0.09 0.195,-0.09C0.216,-0.09 0.232,-0.096 0.243,-0.108C0.254,-0.12 0.26,-0.137 0.26,-0.16L0.26,-0.233C0.26,-0.261 0.254,-0.281 0.241,-0.294C0.228,-0.307 0.208,-0.313 0.18,-0.313L0.138,-0.313L0.138,-0.413L0.173,-0.413C0.201,-0.413 0.221,-0.419 0.234,-0.432C0.247,-0.445 0.253,-0.465 0.253,-0.493L0.253,-0.547C0.253,-0.568 0.248,-0.583 0.238,-0.594C0.227,-0.605 0.212,-0.61 0.193,-0.61C0.153,-0.61 0.133,-0.586 0.133,-0.537L0.133,-0.521L0.031,-0.521L0.031,-0.545C0.031,-0.596 0.046,-0.636 0.075,-0.666C0.103,-0.695 0.144,-0.71 0.195,-0.71C0.246,-0.71 0.287,-0.695 0.316,-0.666C0.345,-0.636 0.359,-0.596 0.359,-0.545L0.359,-0.499C0.359,-0.468 0.353,-0.441 0.34,-0.418C0.327,-0.395 0.309,-0.378 0.284,-0.365Z" style="fill:rgb(226,238,255);fill-rule:nonzero;"/>
            </g>
        </g>
        <g transform="matrix(-7.53824,0,0,5.83405,20.4627,-1233.8)">
            <g transform="matrix(8,0,0,8,3.98407,58.0831)">
                <path d="M0.394,-0.146L0.337,-0.146L0.337,0L0.231,0L0.231,-0.146L0.024,-0.146L0.024,-0.241L0.211,-0.7L0.337,-0.7L0.337,-0.246L0.394,-0.246L0.394,-0.146ZM0.231,-0.246L0.231,-0.521L0.124,-0.246L0.231,-0.246Z" style="fill:rgb(226,238,255);fill-rule:nonzero;"/>
            </g>
        </g>
        <g transform="matrix(-7.53824,0,0,5.83405,20.4627,-1029.61)">
            <g transform="matrix(8,0,0,8,3.98407,58.0831)">
                <path d="M0.211,0.01C0.159,0.01 0.118,-0.005 0.089,-0.036C0.059,-0.066 0.044,-0.107 0.044,-0.16L0.044,-0.181L0.146,-0.191L0.146,-0.168C0.146,-0.116 0.167,-0.09 0.209,-0.09C0.229,-0.09 0.245,-0.096 0.256,-0.107C0.267,-0.118 0.272,-0.135 0.272,-0.158L0.272,-0.32C0.272,-0.34 0.267,-0.355 0.257,-0.366C0.247,-0.376 0.233,-0.381 0.216,-0.381C0.197,-0.381 0.181,-0.375 0.169,-0.363C0.156,-0.35 0.15,-0.333 0.15,-0.312L0.15,-0.3L0.048,-0.3L0.048,-0.7L0.351,-0.7L0.351,-0.6L0.15,-0.6L0.15,-0.426C0.158,-0.44 0.171,-0.452 0.19,-0.462C0.208,-0.472 0.228,-0.477 0.251,-0.477C0.29,-0.477 0.321,-0.464 0.344,-0.439C0.367,-0.413 0.378,-0.379 0.378,-0.336L0.378,-0.16C0.378,-0.107 0.363,-0.066 0.334,-0.036C0.304,-0.005 0.263,0.01 0.211,0.01Z" style="fill:rgb(226,238,255);fill-rule:nonzero;"/>
            </g>
        </g>
        <g transform="matrix(-7.53824,0,0,5.83405,20.4627,-819.583)">
            <g transform="matrix(8,0,0,8,3.98407,58.0831)">
                <path d="M0.217,0.01C0.166,0.01 0.125,-0.005 0.094,-0.037C0.063,-0.068 0.047,-0.108 0.047,-0.158L0.047,-0.542C0.047,-0.592 0.062,-0.632 0.093,-0.664C0.124,-0.695 0.164,-0.71 0.214,-0.71C0.264,-0.71 0.304,-0.695 0.335,-0.664C0.365,-0.632 0.38,-0.592 0.38,-0.542L0.38,-0.519L0.278,-0.519L0.278,-0.547C0.278,-0.566 0.272,-0.582 0.261,-0.593C0.25,-0.604 0.234,-0.61 0.215,-0.61C0.196,-0.61 0.181,-0.604 0.17,-0.593C0.159,-0.582 0.153,-0.566 0.153,-0.547L0.153,-0.387C0.162,-0.401 0.175,-0.413 0.193,-0.423C0.21,-0.432 0.231,-0.437 0.256,-0.437C0.296,-0.437 0.328,-0.424 0.351,-0.399C0.374,-0.373 0.385,-0.338 0.385,-0.294L0.385,-0.158C0.385,-0.108 0.37,-0.068 0.339,-0.037C0.308,-0.005 0.267,0.01 0.217,0.01ZM0.217,-0.09C0.236,-0.09 0.251,-0.096 0.262,-0.107C0.273,-0.118 0.279,-0.134 0.279,-0.153L0.279,-0.278C0.279,-0.299 0.274,-0.315 0.264,-0.326C0.254,-0.336 0.24,-0.341 0.221,-0.341C0.2,-0.341 0.183,-0.335 0.171,-0.323C0.159,-0.31 0.153,-0.293 0.153,-0.271L0.153,-0.153C0.153,-0.134 0.159,-0.118 0.17,-0.107C0.181,-0.096 0.197,-0.09 0.217,-0.09Z" style="fill:rgb(226,238,255);fill-rule:nonzero;"/>
            </g>
        </g>
        <g transform="matrix(-7.53824,0,0,5.83405,20.4627,-632.894)">
            <g transform="matrix(8,0,0,8,3.98407,58.0831)">
                <path d="M0.343,-0.7L0.343,-0.608L0.175,0L0.065,0L0.24,-0.598L0.021,-0.598L0.021,-0.7L0.343,-0.7Z" style="fill:rgb(226,238,255);fill-rule:nonzero;"/>
            </g>
        </g>
        <g transform="matrix(-7.53824,0,0,5.83405,20.4627,-428.702)">
            <g transform="matrix(8,0,0,8,3.98407,58.0831)">
                <path d="M0.312,-0.364C0.337,-0.352 0.357,-0.334 0.37,-0.311C0.383,-0.288 0.39,-0.26 0.39,-0.227L0.39,-0.162C0.39,-0.109 0.375,-0.067 0.344,-0.036C0.313,-0.005 0.27,0.01 0.214,0.01C0.158,0.01 0.115,-0.005 0.084,-0.036C0.053,-0.067 0.038,-0.109 0.038,-0.162L0.038,-0.227C0.038,-0.26 0.045,-0.288 0.058,-0.311C0.071,-0.334 0.091,-0.352 0.116,-0.364C0.093,-0.377 0.076,-0.395 0.064,-0.418C0.051,-0.44 0.045,-0.468 0.045,-0.499L0.045,-0.545C0.045,-0.596 0.06,-0.637 0.09,-0.666C0.119,-0.695 0.161,-0.71 0.214,-0.71C0.267,-0.71 0.309,-0.695 0.339,-0.666C0.368,-0.637 0.383,-0.596 0.383,-0.545L0.383,-0.499C0.383,-0.468 0.377,-0.44 0.365,-0.418C0.352,-0.395 0.335,-0.377 0.312,-0.364ZM0.151,-0.493C0.151,-0.44 0.172,-0.413 0.214,-0.413C0.256,-0.413 0.277,-0.44 0.277,-0.493L0.277,-0.547C0.277,-0.568 0.272,-0.583 0.261,-0.594C0.25,-0.605 0.235,-0.61 0.214,-0.61C0.193,-0.61 0.178,-0.605 0.167,-0.594C0.156,-0.583 0.151,-0.568 0.151,-0.547L0.151,-0.493ZM0.284,-0.233C0.284,-0.26 0.278,-0.281 0.267,-0.294C0.255,-0.307 0.237,-0.313 0.214,-0.313C0.191,-0.313 0.173,-0.307 0.162,-0.294C0.15,-0.281 0.144,-0.26 0.144,-0.233L0.144,-0.16C0.144,-0.113 0.167,-0.09 0.214,-0.09C0.261,-0.09 0.284,-0.113 0.284,-0.16L0.284,-0.233Z" style="fill:rgb(226,238,255);fill-rule:nonzero;"/>
            </g>
        </g>
    </g>
    <g transform="matrix(1,0,0,1,1.77518,4)">
        <g transform="matrix(20,0,0,20,14.4162,33.7114)">
            <path d="M0.188,-0.439L0.562,-0.439C0.585,-0.436 0.597,-0.428 0.597,-0.416L0.597,-0.354C0.597,-0.342 0.585,-0.334 0.562,-0.331L0.556,-0.331C0.531,-0.334 0.519,-0.344 0.519,-0.36L0.519,-0.376L0.19,-0.376C0.157,-0.376 0.132,-0.361 0.118,-0.333C0.116,-0.328 0.114,-0.323 0.114,-0.315L0.114,-0.312C0.114,-0.285 0.132,-0.266 0.169,-0.255C0.174,-0.253 0.181,-0.251 0.19,-0.251L0.292,-0.251C0.295,-0.251 0.296,-0.25 0.296,-0.249L0.296,-0.191C0.296,-0.189 0.295,-0.188 0.292,-0.188L0.188,-0.188C0.122,-0.188 0.073,-0.216 0.042,-0.273C0.037,-0.285 0.034,-0.298 0.034,-0.311L0.034,-0.317C0.034,-0.37 0.07,-0.408 0.142,-0.433C0.157,-0.437 0.173,-0.439 0.188,-0.439ZM0.347,-0.251L0.444,-0.251C0.511,-0.251 0.56,-0.223 0.591,-0.166C0.596,-0.154 0.599,-0.142 0.599,-0.129L0.599,-0.123C0.599,-0.07 0.563,-0.031 0.491,-0.006C0.476,-0.002 0.46,0 0.444,0L0.071,0C0.048,-0.003 0.036,-0.011 0.036,-0.023L0.036,-0.085C0.036,-0.097 0.048,-0.105 0.071,-0.109L0.077,-0.109C0.102,-0.105 0.114,-0.095 0.114,-0.079L0.114,-0.063L0.442,-0.063C0.476,-0.063 0.5,-0.078 0.515,-0.107C0.517,-0.111 0.519,-0.117 0.519,-0.124L0.519,-0.127C0.519,-0.154 0.5,-0.174 0.464,-0.185C0.459,-0.187 0.451,-0.188 0.442,-0.188L0.347,-0.188C0.344,-0.188 0.343,-0.189 0.343,-0.191L0.343,-0.249C0.343,-0.25 0.344,-0.251 0.347,-0.251Z" style="fill:rgb(226,238,255);fill-rule:nonzero;"/>
        </g>
    </g>
    <g transform="matrix(1,0,0,1,-3.96102,-2)">
        <g transform="matrix(16,0,0,16,7.24972,26.7642)">
            <path d="M0.071,-0.439L0.444,-0.439C0.511,-0.439 0.56,-0.411 0.591,-0.354C0.596,-0.342 0.599,-0.33 0.599,-0.317L0.599,-0.311C0.599,-0.257 0.563,-0.219 0.491,-0.194C0.476,-0.19 0.46,-0.188 0.444,-0.188L0.071,-0.188C0.047,-0.192 0.034,-0.201 0.034,-0.217L0.034,-0.222C0.039,-0.242 0.051,-0.251 0.071,-0.251L0.442,-0.251C0.476,-0.251 0.5,-0.266 0.515,-0.295C0.517,-0.299 0.519,-0.305 0.519,-0.312L0.519,-0.315C0.519,-0.342 0.5,-0.361 0.464,-0.373C0.459,-0.375 0.451,-0.376 0.442,-0.376L0.114,-0.376L0.114,-0.278C0.114,-0.276 0.113,-0.275 0.11,-0.275L0.04,-0.275C0.037,-0.275 0.036,-0.276 0.036,-0.278L0.036,-0.416C0.036,-0.428 0.048,-0.436 0.071,-0.439ZM0.04,-0.165L0.11,-0.165C0.113,-0.164 0.114,-0.163 0.114,-0.162L0.114,-0.023C0.114,-0.012 0.103,-0.004 0.079,0L0.073,0C0.049,-0.004 0.036,-0.013 0.036,-0.029L0.036,-0.162C0.036,-0.164 0.038,-0.165 0.04,-0.165Z" style="fill:rgb(226,238,255);fill-rule:nonzero;"/>
        </g>
        <g transform="matrix(16,0,0,16,17.4216,26.7642)">
            <path d="M0.312,-0.439L0.321,-0.439C0.422,-0.439 0.503,-0.402 0.563,-0.327C0.586,-0.293 0.597,-0.265 0.597,-0.244L0.593,-0.242L0.521,-0.242C0.519,-0.242 0.515,-0.252 0.509,-0.273C0.467,-0.343 0.403,-0.378 0.315,-0.378C0.233,-0.378 0.17,-0.344 0.126,-0.277C0.119,-0.255 0.114,-0.243 0.112,-0.242L0.04,-0.242C0.037,-0.242 0.036,-0.244 0.036,-0.247C0.036,-0.278 0.058,-0.317 0.101,-0.362C0.161,-0.414 0.231,-0.439 0.312,-0.439ZM0.319,-0.276L0.323,-0.276C0.357,-0.276 0.38,-0.261 0.392,-0.23L0.392,-0.219C0.385,-0.183 0.362,-0.165 0.323,-0.165L0.319,-0.165C0.285,-0.165 0.263,-0.181 0.251,-0.211L0.251,-0.222C0.258,-0.258 0.281,-0.276 0.319,-0.276ZM0.038,-0.205L0.11,-0.205C0.112,-0.205 0.117,-0.192 0.124,-0.167C0.166,-0.097 0.23,-0.062 0.317,-0.062C0.4,-0.062 0.463,-0.095 0.507,-0.162C0.512,-0.176 0.517,-0.19 0.521,-0.205L0.595,-0.205L0.599,-0.204C0.599,-0.166 0.576,-0.123 0.532,-0.077C0.472,-0.026 0.401,0 0.321,0L0.312,0C0.211,0 0.13,-0.038 0.069,-0.113C0.048,-0.145 0.036,-0.175 0.034,-0.204L0.038,-0.205Z" style="fill:rgb(226,238,255);fill-rule:nonzero;"/>
        </g>
        <g transform="matrix(16,0,0,16,27.5935,26.7642)">
            <path d="M0.071,-0.439L0.077,-0.439C0.102,-0.436 0.114,-0.426 0.114,-0.41L0.114,-0.244C0.114,-0.242 0.113,-0.241 0.11,-0.241L0.038,-0.241C0.035,-0.241 0.034,-0.242 0.034,-0.244L0.034,-0.41C0.039,-0.43 0.051,-0.439 0.071,-0.439ZM0.452,-0.208L0.458,-0.208C0.483,-0.205 0.495,-0.195 0.495,-0.179L0.495,-0.12C0.495,-0.076 0.464,-0.04 0.401,-0.011C0.379,-0.004 0.357,0 0.337,0L0.192,0C0.127,0 0.077,-0.027 0.044,-0.082C0.037,-0.097 0.034,-0.11 0.034,-0.12L0.034,-0.204C0.035,-0.206 0.036,-0.207 0.038,-0.207L0.11,-0.207C0.113,-0.206 0.114,-0.205 0.114,-0.204L0.114,-0.14C0.114,-0.105 0.131,-0.081 0.165,-0.069C0.177,-0.066 0.188,-0.065 0.198,-0.065L0.331,-0.065C0.375,-0.065 0.402,-0.083 0.413,-0.12C0.414,-0.124 0.415,-0.129 0.415,-0.133L0.415,-0.179C0.42,-0.198 0.432,-0.208 0.452,-0.208Z" style="fill:rgb(226,238,255);fill-rule:nonzero;"/>
        </g>
        <g transform="matrix(16,0,0,16,36.1091,26.7642)">
            <path d="M0.071,-0.439L0.077,-0.439C0.103,-0.439 0.116,-0.424 0.116,-0.395C0.116,-0.35 0.146,-0.312 0.206,-0.282C0.232,-0.271 0.261,-0.265 0.292,-0.265L0.339,-0.265C0.42,-0.265 0.477,-0.298 0.509,-0.364C0.513,-0.377 0.515,-0.396 0.517,-0.419C0.527,-0.433 0.539,-0.439 0.554,-0.439L0.56,-0.439C0.583,-0.436 0.595,-0.428 0.595,-0.417L0.595,-0.369C0.595,-0.339 0.573,-0.304 0.528,-0.262C0.473,-0.221 0.413,-0.201 0.349,-0.201L0.282,-0.201C0.196,-0.201 0.123,-0.235 0.063,-0.302C0.044,-0.334 0.034,-0.361 0.034,-0.382L0.034,-0.41C0.039,-0.43 0.051,-0.439 0.071,-0.439ZM0.315,-0.165L0.321,-0.165C0.346,-0.161 0.358,-0.152 0.358,-0.136L0.358,-0.029C0.354,-0.01 0.341,0 0.321,0L0.315,0C0.291,-0.004 0.278,-0.013 0.278,-0.029L0.278,-0.136C0.283,-0.155 0.295,-0.165 0.315,-0.165Z" style="fill:rgb(226,238,255);fill-rule:nonzero;"/>
        </g>
    </g>
</svg>
