<?xml version="1.0" encoding="UTF-8" standalone="no"?>
<!DOCTYPE svg PUBLIC "-//W3C//DTD SVG 1.1//EN" "http://www.w3.org/Graphics/SVG/1.1/DTD/svg11.dtd">
<svg width="100%" height="100%" viewBox="0 0 45 380" version="1.1" xmlns="http://www.w3.org/2000/svg" xmlns:xlink="http://www.w3.org/1999/xlink" xml:space="preserve" xmlns:serif="http://www.serif.com/" style="fill-rule:evenodd;clip-rule:evenodd;stroke-linejoin:round;stroke-miterlimit:2;">
    <rect x="0" y="0" width="45" height="380" style="fill:rgb(62,71,83);"/>
    <g transform="matrix(1.04167,0,0,1.04323,0.565025,8.0588)">
        <g transform="matrix(24,0,0,24,5.85836,20.3829)">
            <path d="M0.188,-0.439L0.562,-0.439C0.585,-0.436 0.597,-0.428 0.597,-0.416L0.597,-0.354C0.597,-0.342 0.585,-0.334 0.562,-0.331L0.556,-0.331C0.531,-0.334 0.519,-0.344 0.519,-0.36L0.519,-0.376L0.19,-0.376C0.157,-0.376 0.132,-0.361 0.118,-0.333C0.116,-0.328 0.114,-0.323 0.114,-0.315L0.114,-0.312C0.114,-0.285 0.132,-0.266 0.169,-0.255C0.174,-0.253 0.181,-0.251 0.19,-0.251L0.292,-0.251C0.295,-0.251 0.296,-0.25 0.296,-0.249L0.296,-0.191C0.296,-0.189 0.295,-0.188 0.292,-0.188L0.188,-0.188C0.122,-0.188 0.073,-0.216 0.042,-0.273C0.037,-0.285 0.034,-0.298 0.034,-0.311L0.034,-0.317C0.034,-0.37 0.07,-0.408 0.142,-0.433C0.157,-0.437 0.173,-0.439 0.188,-0.439ZM0.347,-0.251L0.444,-0.251C0.511,-0.251 0.56,-0.223 0.591,-0.166C0.596,-0.154 0.599,-0.142 0.599,-0.129L0.599,-0.123C0.599,-0.07 0.563,-0.031 0.491,-0.006C0.476,-0.002 0.46,0 0.444,0L0.071,0C0.048,-0.003 0.036,-0.011 0.036,-0.023L0.036,-0.085C0.036,-0.097 0.048,-0.105 0.071,-0.109L0.077,-0.109C0.102,-0.105 0.114,-0.095 0.114,-0.079L0.114,-0.063L0.442,-0.063C0.476,-0.063 0.5,-0.078 0.515,-0.107C0.517,-0.111 0.519,-0.117 0.519,-0.124L0.519,-0.127C0.519,-0.154 0.5,-0.174 0.464,-0.185C0.459,-0.187 0.451,-0.188 0.442,-0.188L0.347,-0.188C0.344,-0.188 0.343,-0.189 0.343,-0.191L0.343,-0.249C0.343,-0.25 0.344,-0.251 0.347,-0.251Z" style="fill:rgb(226,238,255);fill-rule:nonzero;"/>
        </g>
        <g transform="matrix(24,0,0,24,21.1162,20.3829)">
            <path d="M0.071,-0.439L0.077,-0.439C0.102,-0.436 0.114,-0.426 0.114,-0.41L0.114,-0.287C0.114,-0.263 0.13,-0.25 0.161,-0.25L0.56,-0.25C0.584,-0.247 0.597,-0.237 0.597,-0.221L0.597,-0.217C0.592,-0.197 0.58,-0.188 0.56,-0.188L0.112,-0.188C0.077,-0.188 0.051,-0.204 0.036,-0.237C0.035,-0.241 0.034,-0.245 0.034,-0.249L0.034,-0.41C0.039,-0.43 0.051,-0.439 0.071,-0.439ZM0.46,-0.439L0.466,-0.439C0.491,-0.436 0.503,-0.426 0.503,-0.41L0.503,-0.278C0.503,-0.276 0.502,-0.275 0.499,-0.275L0.427,-0.275C0.424,-0.275 0.423,-0.276 0.423,-0.278L0.423,-0.41C0.427,-0.43 0.44,-0.439 0.46,-0.439ZM0.427,-0.166L0.499,-0.166C0.502,-0.166 0.503,-0.165 0.503,-0.163L0.503,-0.029C0.498,-0.01 0.486,0 0.466,0L0.46,0C0.435,-0.004 0.423,-0.013 0.423,-0.029L0.423,-0.163C0.423,-0.165 0.424,-0.166 0.427,-0.166Z" style="fill:rgb(226,238,255);fill-rule:nonzero;"/>
        </g>
    </g>
    <g id="logo" transform="matrix(0.150679,0,0,0.150906,2.71453,351.192)">
        <g id="path1388" transform="matrix(0.264583,0,0,0.264583,-130.714,-218.367)">
            <path d="M717.038,858.57L856.29,858.57C892.609,858.57 919.184,874.072 936.014,905.076C938.849,911.631 940.266,918.363 940.266,925.273L940.266,928.727C940.266,957.605 920.778,978.688 881.802,991.975C873.475,994.279 864.971,995.43 856.29,995.43L718.101,995.43C699.144,995.43 685.68,1003.93 677.707,1020.94L677.707,1063.2L896.684,1063.2L896.684,1054.69C899.164,1043.88 905.896,1038.48 916.881,1038.48L920.07,1038.48C932.825,1040.61 939.203,1044.86 939.203,1051.24L939.203,1084.99C939.203,1091.72 932.825,1095.97 920.07,1097.74L654.321,1097.74C640.857,1095.97 634.125,1090.66 634.125,1081.8L634.125,1019.88C634.125,1003.05 647.235,986.749 673.455,970.981C687.629,964.249 702.156,960.883 717.038,960.883L855.227,960.883C873.652,960.883 886.762,952.999 894.558,937.231C895.975,934.928 896.684,931.828 896.684,927.93L896.684,926.07C896.684,911.365 886.762,901.001 866.92,894.977C864.085,893.737 860.188,893.117 855.227,893.117L718.101,893.117C693.652,893.117 679.125,906.139 674.518,932.182C669.026,937.674 663.003,940.42 656.447,940.42L653.258,940.42C640.503,938.472 634.125,934.308 634.125,927.93L634.125,917.832C634.125,900.824 647.235,884.436 673.455,868.668C687.629,861.936 702.156,858.57 717.038,858.57Z" style="fill:rgb(226,238,255);fill-rule:nonzero;"/>
        </g>
        <g id="path1391" transform="matrix(0.455057,0,0,0.50612,-115.92,-318.968)">
            <path d="M680.858,680.21C684.716,680.21 688.712,684.206 692.846,692.198L730.464,750.485L731.291,750.899L731.704,750.899C732.255,750.623 744.932,730.953 769.735,691.888C774.145,684.102 778.003,680.21 781.31,680.21L782.55,680.21C787.924,680.21 790.818,682.69 791.232,687.651C760.985,736.223 743.072,764.196 737.491,771.568C735.287,772.67 733.358,773.221 731.704,773.221L730.877,773.221C726.192,773.221 722.334,769.777 719.302,762.887C718.269,762.129 702.422,737.395 671.763,688.684C671.487,688.271 671.35,687.72 671.35,687.031C671.35,682.828 674.519,680.554 680.858,680.21Z" style="fill:rgb(226,238,255);fill-rule:nonzero;"/>
        </g>
        <g id="path1394" transform="matrix(-0.880393,0,0,1.13586,0,-27.6526)">
            <path d="M-178.964,31.82L-143.099,31.82C-139.945,32.277 -138.367,33.522 -138.367,35.556L-138.367,36.116C-138.948,38.607 -140.526,39.852 -143.099,39.852L-174.73,39.852C-186.56,39.852 -194.53,43.671 -198.64,51.309C-198.764,52.222 -199.013,52.679 -199.387,52.679L-209.349,52.679L-209.847,52.492C-207.813,46.141 -204.409,41.409 -199.636,38.296C-193.077,33.979 -186.187,31.82 -178.964,31.82L-178.964,31.82ZM-205.613,55.605L-162.526,55.605C-159.371,56.062 -157.794,57.307 -157.794,59.341L-157.794,59.964C-158.375,62.454 -159.952,63.7 -162.526,63.7L-205.613,63.7C-208.768,63.243 -210.345,61.998 -210.345,59.964L-210.345,59.341C-209.764,56.851 -208.187,55.605 -205.613,55.605ZM-209.349,66.626L-199.636,66.626C-199.387,66.668 -198.557,68.038 -197.145,70.736C-192.787,76.796 -185.315,79.826 -174.73,79.826L-143.099,79.826C-139.945,80.241 -138.367,81.487 -138.367,83.562L-138.367,84.123C-138.948,86.613 -140.526,87.859 -143.099,87.859L-178.964,87.859C-189.964,87.859 -199.096,83.542 -206.36,74.907C-208.685,70.839 -209.847,68.141 -209.847,66.813L-209.349,66.626Z" style="fill:rgb(226,238,255);fill-rule:nonzero;"/>
        </g>
    </g>
</svg>
