<?xml version="1.0" encoding="UTF-8" standalone="no"?>
<!DOCTYPE svg PUBLIC "-//W3C//DTD SVG 1.1//EN" "http://www.w3.org/Graphics/SVG/1.1/DTD/svg11.dtd">
<svg width="100%" height="100%" viewBox="0 0 45 380" version="1.1" xmlns="http://www.w3.org/2000/svg" xmlns:xlink="http://www.w3.org/1999/xlink" xml:space="preserve" xmlns:serif="http://www.serif.com/" style="fill-rule:evenodd;clip-rule:evenodd;stroke-linejoin:round;stroke-miterlimit:2;">
    <g id="background" transform="matrix(1.04167,0,0,1.04323,0,0)">
        <rect id="rect1413" x="0" y="-0.034" width="43.393" height="364.348" style="fill:rgb(62,71,83);"/>
        <g id="g4406" transform="matrix(0.0352778,0,0,-0.0352778,-668.861,744.635)">
            <g opacity="0.03">
                <path id="path3464" d="M16730.1,22498.6L16554.3,22320L16554.3,19726.3L16554.3,17132.6L16710.2,16979.5C16840.6,16849.1 16866.1,16809.4 16866.1,16724.4C16866.1,16639.4 16840.6,16599.7 16724.4,16483.5C16599.7,16361.6 16582.7,16330.4 16582.7,16228.3C16582.7,16078.1 16500.5,15995.9 16341.7,15981.7C16234,15973.2 16228.3,15967.6 16219.8,15868.3L16211.3,15760.6L16367.2,15760.6C16506.1,15760.6 16526,15755 16526,15703.9C16526,15652.9 16548.7,15647.2 16818,15641.6L17107.1,15633.1L17016.4,15584.9C16937,15539.5 16843.5,15533.9 16310.6,15533.9L15692.6,15533.9L15613.2,15610.4L15533.9,15686.9L15533.9,15369.4L15533.9,15052L15253.2,15052C15094.5,15052 14961.3,15063.3 14952.8,15080.3C14941.4,15097.3 15023.6,15108.7 15176.7,15108.7L15420.5,15108.7L15420.5,15363.8C15420.5,15570.7 15412,15618.9 15378,15618.9C15349.6,15618.9 15335.4,15647.2 15335.4,15712.4C15335.4,15851.3 15188,15987.4 15035,15987.4C14799.7,15987.4 14754.3,15842.8 14961.3,15749.3C15026.5,15718.1 15080.3,15678.4 15080.3,15655.7C15080.3,15624.6 14898.9,15618.9 14108,15618.9C13169.8,15618.9 13130.1,15616.1 13081.9,15562.2C13042.2,15516.9 12994,15505.5 12855.1,15505.5C12676.5,15505.5 12614.2,15474.3 12614.2,15386.5C12614.2,15312.8 12704.9,15278.7 12906.1,15278.7C13084.7,15278.7 13087.6,15278.7 13073.4,15207.9L13062,15137L13578,15137L13578,15060.5C13578,15009.4 13532.6,14938.6 13436.2,14836.5L13294.5,14686.3L13294.5,13898.3L13294.5,13107.4L13144.3,12960C13062,12877.8 12988.3,12812.6 12979.8,12812.6C12971.3,12812.6 12962.8,12835.3 12962.8,12863.6C12965.7,13243.5 12951.5,13436.2 12920.3,13427.7C12894.8,13424.9 12880.6,13470.2 12875,13566.6C12863.6,13750.9 12792.8,13830.2 12676.5,13787.7C12608.5,13765 12600,13745.2 12591.5,13606.3C12585.8,13521.3 12574.5,13441.9 12563.1,13430.6C12551.8,13419.2 12546.1,13206.6 12551.8,12957.2L12560.3,12500.8L13827.4,12500.8L13915.3,12401.6L14003.1,12299.5L14003.1,11877.2L14003.1,11452L15740.8,11452C17390.6,11452 17484.1,11454.8 17526.6,11503C17566.3,11545.5 17574.8,11616.4 17574.8,11837.5L17574.8,12120.9L17696.7,12240C17787.4,12330.7 17829.9,12353.4 17880.9,12342C17937.6,12325 17943.3,12308 17943.3,12101.1L17943.3,11877.2L18096.4,11877.2L18002.8,11780.8C17920.6,11695.7 17912.1,11673.1 17920.6,11548.3C17929.1,11420.8 17934.8,11409.4 18008.5,11400.9C18082.2,11392.4 18085,11398.1 18085,11511.5C18085,11619.2 18102,11650.4 18215.4,11766.6L18345.8,11897L18340.2,12438.4L18337.3,12979.8L18433.7,13087.6C18524.4,13183.9 18538.6,13189.6 18626.5,13164.1L18722.8,13135.7L18731.3,12917.5C18739.8,12721.9 18745.5,12699.2 18793.7,12699.2C18836.2,12699.2 18850.4,12679.4 18850.4,12614.2C18850.4,12546.1 18875.9,12512.1 18972.3,12441.3C19046,12387.4 19097,12327.9 19105.5,12279.7C19116.9,12217.3 19136.7,12203.1 19201.9,12203.1C19303.9,12203.1 19360.6,12279.7 19315.3,12353.4C19295.4,12381.7 19247.2,12401.6 19201.9,12401.6C19156.5,12401.6 19071.5,12429.9 19014.8,12466.8C18929.8,12520.6 18907.1,12551.8 18907.1,12617C18907.1,12679.4 18921.3,12699.2 18963.8,12699.2C19017.6,12699.2 19020.5,12719.1 19020.5,13161.3C19020.5,13773.5 19046,13748 18479.1,13748L18068,13748L17977.3,13841.6L17886.6,13935.1L17886.6,14740.2L18223.9,14740.2L18232.4,14394.3C18240.9,14085.4 18246.6,14045.7 18289.1,14054.2C18314.6,14057 18343,14048.5 18354.3,14031.5C18382.7,13983.3 18507.4,14000.3 18535.7,14057C18575.4,14130.7 18510.2,14215.7 18428,14193.1C18371.3,14178.9 18368.5,14187.4 18368.5,14456.7L18368.5,14737.3L18447.9,14745.8C18524.4,14754.3 18524.4,14757.2 18532.9,14989.6L18541.4,15222L18453.5,15222L18368.5,15222L18368.5,15720.9L18575.4,15925C18691.7,16041.3 18805,16129.1 18836.2,16129.1C18870.2,16129.1 18986.5,16035.6 19119.7,15902.4L19346.5,15675.6L22152.8,15675.6L25937,19459.8L25937,22130.1L25741.4,22317.2C25633.7,22422 25520.3,22507.1 25492,22507.1C25446.6,22507.1 25438.1,22524.1 25449.4,22592.1L25460.8,22677.2L25217,22677.2L24973.2,22677.2L24973.2,22450.4L24973.2,22220.8L25208.5,22229.3C25429.6,22237.8 25440.9,22240.6 25438.1,22303C25435.3,22399.4 25480.6,22379.5 25659.2,22203.8L25823.6,22042.2L25823.6,20778L25823.6,19516.5L23958.4,17651.3L22096.1,15789L20749.6,15789L19403.2,15789L19176.4,16015.7C18960.9,16234 18946.8,16242.5 18822,16242.5C18697.3,16242.5 18683.2,16234 18459.2,16007.2L18226.8,15774.8L18226.8,15497L18226.8,15222L18056.7,15222L17886.6,15222L17886.6,15584.9C17886.6,15944.9 17886.6,15947.7 17807.2,16024.3L17727.9,16100.8L17240.3,16100.8L16752.8,16100.8L16752.8,16202.8C16752.8,16287.9 16775.4,16324.7 16880.3,16423.9C17005,16543 17007.9,16551.5 17007.9,16713.1C17007.9,16877.5 17005,16886 16866.1,17022L16724.4,17160.9L16724.4,22269L16880.3,22422C17047.6,22586.5 17078.7,22677.2 16971,22677.2C16931.3,22677.2 16843.5,22614.8 16730.1,22498.6Z" style="fill:rgb(226,238,255);fill-rule:nonzero;"/>
                <path id="path3472" d="M18850.4,22351.2L18850.4,22028L18504.6,22019.5L18155.9,22011L18147.4,21018.9L18141.7,20023.9L17844.1,19729.1L17546.5,19431.5L17546.5,18652L17546.5,17869.6L17631.5,17787.4C17710.9,17713.7 17716.5,17691 17716.5,17512.4C17716.5,17333.9 17722.2,17316.8 17787.4,17285.7C17829.9,17265.8 17858.3,17231.8 17858.3,17192.1C17858.3,17067.4 18000,17016.4 18056.7,17124.1C18099.2,17200.6 18059.5,17246 17898,17319.7L17773.2,17373.5L17773.2,17555C17773.2,17710.9 17764.7,17744.9 17702.4,17801.6L17631.5,17866.8L17631.5,19403.2L18226.8,19998.4L18226.8,21940.2L18935.4,21940.2L18935.4,22308.7C18935.4,22617.6 18929.8,22677.2 18892.9,22677.2C18858.9,22677.2 18850.4,22623.3 18850.4,22351.2Z" style="fill:rgb(226,238,255);fill-rule:nonzero;"/>
                <path id="path3474" d="M18992.1,22266.1L18992.1,21855.1L18637.8,21855.1L18283.5,21855.1L18283.5,20840.3L18283.5,19828.3L17985.8,19530.7L17688.2,19233.1L17688.2,18581.1L17688.2,17926.3L17798.7,17818.6C17898,17722.2 17906.5,17702.4 17880.9,17642.8C17827.1,17529.4 17963.2,17435.9 18051,17523.8C18110.6,17583.3 18087.9,17631.5 17929.1,17798.7L17773.2,17963.2L17773.2,19233.1L18368.5,19828.3L18368.5,21767.2L18717.2,21775.7L19063,21784.3L19071.5,22232.1C19077.2,22614.8 19071.5,22677.2 19034.6,22677.2C18997.8,22677.2 18992.1,22614.8 18992.1,22266.1Z" style="fill:rgb(226,238,255);fill-rule:nonzero;"/>
                <path id="path3476" d="M19105.5,22195.3L19105.5,21716.2L18807.9,21707.7L18507.4,21699.2L18507.4,20707.1L18507.4,19712.1L18226.8,19431.5L17943.3,19148L17943.3,18657.6C17943.3,18252.3 17934.8,18158.7 17898,18121.9C17832.8,18053.9 17858.3,17960.3 17949,17949C18036.9,17937.6 18099.2,18019.8 18053.9,18087.9C18039.7,18107.7 18028.3,18351.5 18028.3,18623.6L18028.3,19119.7L18566.9,19658.3L18566.9,21628.3L19190.6,21628.3L19190.6,22152.8C19190.6,22600.6 19184.9,22677.2 19148,22677.2C19111.2,22677.2 19105.5,22603.5 19105.5,22195.3Z" style="fill:rgb(226,238,255);fill-rule:nonzero;"/>
                <path id="path3478" d="M19275.6,22138.6L19275.6,21600L18992.1,21600L18708.7,21600L18708.7,20556.9L18708.7,19516.5L18439.4,19247.2L18170.1,18978L18170.1,18167.2L18170.1,17356.5L18240.9,17291.3C18280.6,17254.5 18311.8,17195 18311.8,17160.9C18311.8,17121.3 18337.3,17081.6 18371.3,17061.7C18422.4,17036.2 18442.2,17041.9 18487.6,17087.2C18532.9,17132.6 18538.6,17152.4 18513.1,17203.5C18493.2,17237.5 18453.5,17263 18413.9,17263C18379.8,17263 18323.2,17291.3 18289.1,17328.2C18229.6,17393.4 18226.8,17413.2 18226.8,18158.7L18226.8,18921.3L18765.4,19459.8L18765.4,21515L19360.6,21515L19360.6,22096.1C19360.6,22595 19355,22677.2 19318.1,22677.2C19281.3,22677.2 19275.6,22597.8 19275.6,22138.6Z" style="fill:rgb(226,238,255);fill-rule:nonzero;"/>
                <path id="path3480" d="M19445.7,22053.5L19445.7,21429.9L19176.4,21429.9L18907.1,21429.9L18907.1,20429.3L18907.1,19431.5L18637.8,19162.2L18368.5,18892.9L18368.5,18518.7C18368.5,18266.5 18357.2,18121.9 18334.5,18085C18289.1,18014.2 18331.7,17932 18419.5,17920.6C18527.2,17903.6 18569.8,18085 18467.7,18124.7C18436.5,18136.1 18428,18221.1 18428,18490.4L18428,18841.9L18697.3,19108.3L18963.8,19374.8L18963.8,21344.9L19502.4,21344.9L19502.4,22011C19502.4,22436.2 19491,22677.2 19474,22677.2C19457,22677.2 19445.7,22450.4 19445.7,22053.5Z" style="fill:rgb(226,238,255);fill-rule:nonzero;"/>
                <path id="path3482" d="M19587.4,21968.5L19587.4,21259.8L19326.6,21259.8L19063,21259.8L19068.7,20293.2L19077.2,19323.8L18836.2,19077.2L18595.3,18833.4L18595.3,18340.2L18595.3,17846.9L18518.7,17767.6C18476.2,17725 18428,17688.2 18408.2,17688.2C18354.3,17688.2 18306.1,17608.8 18326,17549.3C18362.8,17427.4 18555.6,17464.3 18530.1,17589C18521.6,17637.2 18541.4,17679.7 18598.1,17733.5L18680.3,17812.9L18680.3,18836.2L18907.1,19063L19133.9,19286.9L19139.5,20233.7L19148,21180.5L19403.2,21186.1L19658.3,21189L19666.8,21934.5C19672.4,22583.6 19666.8,22677.2 19629.9,22677.2C19593.1,22677.2 19587.4,22583.6 19587.4,21968.5Z" style="fill:rgb(226,238,255);fill-rule:nonzero;"/>
                <path id="path3484" d="M19814.2,21974.2L19814.2,21271.2L19720.6,21180.5C19635.6,21098.3 19610.1,21089.8 19451.3,21089.8L19275.6,21089.8L19275.6,20174.2L19275.6,19258.6L19148,19133.9L19020.5,19009.1L19020.5,18635C19020.5,18235.3 19012,18212.6 18841.9,18130.4C18754,18085 18742.7,17954.6 18822,17929.1C18895.7,17906.5 18963.8,17957.5 18963.8,18042.5C18963.8,18076.5 18989.3,18127.6 19020.5,18155.9C19071.5,18201.3 19077.2,18243.8 19077.2,18578.3L19077.2,18952.4L19360.6,19230.2L19360.6,21004.7L19502.4,21004.7C19629.9,21004.7 19652.6,21016.1 19771.7,21132.3L19899.2,21262.7L19899.2,21968.5C19899.2,22580.8 19893.5,22677.2 19856.7,22677.2C19819.8,22677.2 19814.2,22580.8 19814.2,21974.2Z" style="fill:rgb(226,238,255);fill-rule:nonzero;"/>
                <path id="path3486" d="M19927.6,21917.5L19927.6,21157.8L19791.5,21024.6C19678.1,20914 19638.4,20891.3 19550.6,20891.3L19445.7,20891.3L19445.7,20032.4L19445.7,19173.5L19289.8,19020.5L19133.9,18867.4L19133.9,18453.5L19133.9,18039.7L18992.1,17900.8C18915.6,17824.3 18850.4,17747.7 18850.4,17727.9C18850.4,17710.9 18830.6,17679.7 18807.9,17659.8C18745.5,17608.8 18756.9,17526.6 18824.9,17486.9C18875.9,17461.4 18895.7,17464.3 18941.1,17509.6C18989.3,17557.8 18989.3,17574.8 18960.9,17642.8C18926.9,17713.7 18932.6,17727.9 19071.5,17866.8L19218.9,18017L19218.9,18867.4L19530.7,19173.5L19530.7,20806.3L19607.2,20806.3C19663.9,20806.3 19729.1,20851.7 19848.2,20967.9L20012.6,21129.4L20012.6,21903.3C20012.6,22572.3 20006.9,22677.2 19970.1,22677.2C19933.2,22677.2 19927.6,22575.1 19927.6,21917.5Z" style="fill:rgb(226,238,255);fill-rule:nonzero;"/>
                <path id="path3488" d="M20097.6,21875L20097.6,21072.8L19919.1,20897C19822.7,20800.6 19720.6,20721.3 19695.1,20721.3C19590.2,20721.3 19556.2,20573.9 19649.8,20514.3C19686.6,20488.8 19743.3,20531.3 19967.2,20766.6L20236.5,21047.2L20239.4,21863.6L20239.4,22677.2L20168.5,22677.2L20097.6,22677.2L20097.6,21875Z" style="fill:rgb(226,238,255);fill-rule:nonzero;"/>
                <path id="path3490" d="M20409.4,21832.4L20409.4,20987.7L20276.2,20860.2C20199.7,20789.3 20106.1,20715.6 20063.6,20698.6C19981.4,20664.6 19958.7,20588 20018.3,20528.5C20075,20471.8 20151.5,20491.7 20194,20573.9C20216.7,20616.4 20307.4,20721.3 20392.4,20806.3L20551.2,20959.4L20551.2,22677.2L20480.3,22677.2L20409.4,22677.2L20409.4,21832.4Z" style="fill:rgb(226,238,255);fill-rule:nonzero;"/>
                <path id="path3492" d="M20607.9,21557.5L20607.9,20437.8L20097.6,20437.8L19587.4,20437.8L19587.4,19777.3L19587.4,19116.9L19445.7,18978L19303.9,18839.1L19303.9,18411L19303.9,17983L19190.6,17872.4C19085.7,17770.4 19077.2,17750.6 19077.2,17603.2L19077.2,17447.2L18773.9,17143.9C18578.3,16954 18442.2,16837.8 18396.9,16832.1C18272.1,16818 18300.5,16639.4 18428,16639.4C18476.2,16639.4 18549.9,16730.1 18524.4,16758.4C18518.7,16764.1 18657.6,16914.3 18836.2,17092.9L19162.2,17418.9L19162.2,17589C19162.2,17750.6 19170.7,17770.4 19261.4,17858.3L19360.6,17954.6L19360.6,18782.4L19516.5,18935.4L19675.3,19091.3L19672.4,19729.1L19669.6,20366.9L20179.8,20375.4L20692.9,20381.1L20692.9,21529.1C20692.9,22529.8 20687.2,22677.2 20650.4,22677.2C20613.5,22677.2 20607.9,22532.6 20607.9,21557.5Z" style="fill:rgb(226,238,255);fill-rule:nonzero;"/>
                <path id="path3494" d="M20778,21534.8L20778,20392.4L20695.7,20313.1L20613.5,20233.7L20250.7,20242.2C19902,20253.5 19890.7,20250.7 19862.4,20191.2C19811.3,20075 19958.7,19984.3 20040.9,20083.5C20069.3,20117.5 20145.8,20126 20378.3,20126L20681.6,20126L20891.3,20341.4L20891.3,21509.3C20891.3,22657.3 20891.3,22677.2 20834.6,22677.2C20778,22677.2 20778,22657.3 20778,21534.8Z" style="fill:rgb(226,238,255);fill-rule:nonzero;"/>
                <path id="path3496" d="M20976.4,21449.8L20976.4,20222.4L20840.3,20089.1L20707.1,19958.7L20239.4,19950.2L19771.7,19941.7L19766,19488.2L19763.2,19034.6L19618.6,18901.4L19474,18768.2L19474,18306.1L19474,17841.3L19556.2,17761.9C19601.6,17716.5 19632.8,17665.5 19627.1,17645.7C19607.2,17600.3 19695.1,17512.4 19751.8,17523.8C19774.5,17529.4 19808.5,17555 19825.5,17583.3C19865.2,17642.8 19819.8,17725 19740.5,17739.2C19712.1,17744.9 19652.6,17784.6 19610.1,17824.3L19530.7,17898L19530.7,18725.7L19842.5,19031.8L19842.5,19870.9L20738.3,19870.9L21033.1,20171.3L21033.1,21424.3C21033.1,22240.6 21024.6,22677.2 21004.7,22677.2C20984.9,22677.2 20976.4,22249.1 20976.4,21449.8Z" style="fill:rgb(226,238,255);fill-rule:nonzero;"/>
                <path id="path3498" d="M21089.8,21109.6L21089.8,19542L20897,19352.1L20704.3,19162.2L20423.6,19162.2L20140.2,19162.2L19919.1,18941.1L19700.8,18722.8L19700.8,18447.9C19700.8,18232.4 19692.3,18172.9 19658.3,18158.7C19607.2,18138.9 19601.6,18053.9 19649.8,18005.7C19734.8,17920.6 19882.2,18014.2 19819.8,18116.2C19800,18147.4 19785.8,18277.8 19785.8,18430.9L19785.8,18694.5L19989.9,18898.6L20194,19105.5L20766.6,19105.5L20970.7,19312.4L21174.8,19516.5L21174.8,21098.3C21174.8,22481.6 21169.1,22677.2 21132.3,22677.2C21095.4,22677.2 21089.8,22484.4 21089.8,21109.6Z" style="fill:rgb(226,238,255);fill-rule:nonzero;"/>
                <path id="path3500" d="M21257,21084.1C21254.2,20205.4 21254.2,19476.9 21257,19462.7C21259.8,19448.5 21157.8,19329.4 21027.4,19199.1L20792.1,18963.8L20466.1,18963.8L20137.3,18963.8L20004.1,18827.7C19873.7,18694.5 19870.9,18688.8 19870.9,18507.4C19870.9,18334.5 19876.5,18317.5 19970.1,18226.8C20026.8,18172.9 20069.3,18102 20069.3,18065.2C20069.3,17943.3 20245,17915 20281.9,18031.2C20304.6,18102 20250.7,18170.1 20171.3,18170.1C20137.3,18170.1 20075,18206.9 20032.4,18249.4C19967.2,18317.5 19955.9,18354.3 19955.9,18496.1C19955.9,18654.8 19961.6,18671.8 20075,18785.2L20194,18907.1L20848.8,18907.1L21316.5,19374.8L21316.5,21027.4C21316.5,22107.4 21308,22677.2 21288.2,22677.2C21268.3,22677.2 21259.8,22124.4 21257,21084.1Z" style="fill:rgb(226,238,255);fill-rule:nonzero;"/>
                <path id="path3502" d="M21429.9,20982L21429.9,19289.8L21038.7,18898.6L20650.4,18510.2L20463.3,18510.2C20296.1,18510.2 20273.4,18515.9 20259.2,18569.8C20236.5,18657.6 20086.3,18635 20075,18541.4C20060.8,18445 20137.3,18391.2 20233.7,18428C20276.2,18445 20395.3,18453.5 20503,18450.7L20695.7,18445L21106.8,18853.2L21515,19261.4L21515,20967.9C21515,22467.4 21509.3,22677.2 21472.4,22677.2C21435.6,22677.2 21429.9,22470.2 21429.9,20982Z" style="fill:rgb(226,238,255);fill-rule:nonzero;"/>
                <path id="path3510" d="M22081.9,20743.9L22081.9,18807.9L21410.1,18136.1L20735.4,17461.4L20602.2,17461.4C20474.6,17461.4 20463.3,17467.1 20409.4,17574.8C20364.1,17662.7 20332.9,17688.2 20247.9,17705.2C20126,17727.9 20052.3,17662.7 20100.5,17572C20134.5,17506.8 20262,17501.1 20287.6,17563.5C20298.9,17594.6 20321.6,17577.6 20372.6,17492.6C20440.6,17379.2 20443.5,17376.4 20602.2,17376.4L20763.8,17376.4L22166.9,18779.5L22166.9,20729.8C22166.9,22441.9 22161.3,22677.2 22124.4,22677.2C22087.6,22677.2 22081.9,22444.7 22081.9,20743.9Z" style="fill:rgb(226,238,255);fill-rule:nonzero;"/>
                <path id="path3512" d="M22252,22096.1L22252,21515L22521.3,21515C22668.7,21515 22821.7,21500.8 22861.4,21480.9L22932.3,21449.8L22932.3,20412.3L22932.3,19374.8L21920.3,18362.8L20905.5,17348L20409.4,17348L19913.4,17348L19658.3,17092.9C19485.4,16920 19389,16843.5 19357.8,16852C19244.4,16888.8 19156.5,16761.3 19238.7,16679.1C19298.3,16622.4 19366.3,16639.4 19406,16721.6C19425.8,16758.4 19547.7,16894.5 19675.3,17024.9L19913.4,17263L20933.9,17263L23017.3,19346.5L23017.3,21480.9L22915.3,21540.5C22833.1,21588.7 22767.9,21600 22560.9,21600L22308.7,21600L22308.7,22138.6C22308.7,22478.7 22297.3,22677.2 22280.3,22677.2C22263.3,22677.2 22252,22464.6 22252,22096.1Z" style="fill:rgb(226,238,255);fill-rule:nonzero;"/>
                <path id="path3514" d="M24009.4,21421.4L24009.4,20168.5L22512.8,18671.8L21018.9,17178L20718.4,17178C20423.6,17178 20418,17178 20338.6,17092.9C20267.7,17019.2 20236.5,17007.9 20111.8,17007.9C19992.8,17007.9 19953.1,16993.7 19899.2,16937C19862.4,16897.3 19805.7,16866.1 19768.8,16866.1C19689.4,16866.1 19635.6,16798.1 19658.3,16727.2C19692.3,16619.5 19825.5,16622.4 19859.5,16732.9C19899.2,16863.3 19984.3,16922.8 20140.2,16922.8C20264.9,16922.8 20296.1,16934.2 20366.9,17007.9C20446.3,17090.1 20454.8,17092.9 20732.6,17092.9L21018.9,17092.9L24066.1,20140.2L24066.1,21410.1C24066.1,22235 24057.6,22677.2 24037.8,22677.2C24018,22677.2 24009.4,22240.6 24009.4,21421.4Z" style="fill:rgb(226,238,255);fill-rule:nonzero;"/>
                <path id="path3516" d="M24207.9,20970.7L24207.9,19261.4L23876.2,18929.8L23541.7,18595.3L23130.7,18595.3L22719.7,18595.3L21940.2,17815.7L21160.6,17036.2L20848.8,17036.2L20539.8,17036.2L20418,16917.2C20324.4,16823.6 20287.6,16806.6 20262,16832.1C20165.7,16928.5 20038.1,16812.3 20114.6,16701.7C20137.3,16667.7 20171.3,16639.4 20188.3,16639.4C20205.4,16639.4 20290.4,16715.9 20372.6,16809.4L20528.5,16979.5L21189,16979.5L22776.4,18566.9L23598.4,18566.9L24264.6,19233.1L24264.6,20956.5C24264.6,22084.7 24256.1,22677.2 24236.2,22677.2C24216.4,22677.2 24207.9,22090.4 24207.9,20970.7Z" style="fill:rgb(226,238,255);fill-rule:nonzero;"/>
                <path id="path3518" d="M24406.3,20911.2L24406.3,19148L23122.2,17863.9L21840.9,16582.7L20931,16582.7L20023.9,16582.7L19941.7,16497.6C19882.2,16435.3 19839.7,16415.4 19797.2,16423.9C19666.8,16458 19593.1,16302 19709.3,16231.2C19768.8,16191.5 19851,16236.9 19865.2,16316.2C19870.9,16344.6 19910.6,16404.1 19950.2,16449.4L20023.9,16526L21869.3,16526L24463,19119.7L24463,20899.8C24463,22064.9 24454.5,22677.2 24434.6,22677.2C24414.8,22677.2 24406.3,22070.6 24406.3,20911.2Z" style="fill:rgb(226,238,255);fill-rule:nonzero;"/>
                <path id="path3522" d="M24746.5,20843.2L24749.3,19009.1L23295.1,17555L21840.9,16100.8L21129.4,16100.8L20418,16100.8L20349.9,16174.5C20310.2,16217 20284.7,16273.7 20290.4,16313.4C20296.1,16358.7 20279.1,16389.9 20236.5,16415.4C20179.8,16443.8 20165.7,16440.9 20120.3,16384.3C20058,16307.7 20094.8,16214.2 20191.2,16214.2C20228,16214.2 20293.2,16177.3 20338.6,16129.1L20420.8,16044.1L21869.3,16044.1L24803.2,18978L24803.2,20826.1C24803.2,22059.2 24794.6,22677.2 24774.8,22677.2C24755,22677.2 24746.5,22064.9 24746.5,20843.2Z" style="fill:rgb(226,238,255);fill-rule:nonzero;"/>
                <path id="path3526" d="M26475.6,21166.3L26475.6,19658.3L24397.8,17580.5L22322.8,15505.5L21670.9,15505.5L21016.1,15505.5L20891.3,15378C20715.6,15199.4 20627.7,15202.2 20415.1,15392.1C20247.9,15539.5 20148.7,15570.7 20100.5,15482.8C20040.9,15372.3 20228,15267.4 20287.6,15378C20307.4,15412 20332.9,15400.6 20423.6,15307.1C20520,15207.9 20551.2,15193.7 20664.6,15193.7C20780.8,15193.7 20806.3,15207.9 20919.7,15321.3L21044.4,15448.8L22351.2,15448.8L26532.3,19629.9L26532.3,21155C26532.3,22149.9 26523.8,22677.2 26503.9,22677.2C26484.1,22677.2 26475.6,22155.6 26475.6,21166.3Z" style="fill:rgb(226,238,255);fill-rule:nonzero;"/>
                <path id="path3530" d="M26730.7,21123.8L26730.7,19573.2L24582,17424.6L22436.2,15278.7L21812.6,15278.7L21189,15278.7L20948,15037.8C20769.4,14859.2 20690.1,14796.9 20633.4,14796.9C20531.3,14796.9 20437.8,14904.6 20437.8,15026.5C20437.8,15179.5 20347.1,15250.4 20151.5,15250.4C19978.6,15250.4 19893.5,15309.9 19859.5,15451.7C19831.2,15576.4 19695.1,15590.6 19658.3,15474.3C19635.6,15403.5 19689.4,15335.4 19768.8,15335.4C19805.7,15335.4 19862.4,15304.3 19899.2,15264.6C19955.9,15205 19989.9,15193.7 20140.2,15193.7C20236.5,15193.7 20327.2,15179.5 20347.1,15159.7C20366.9,15139.8 20381.1,15074.6 20381.1,15012.3C20381.1,14859.2 20491.7,14740.2 20636.2,14740.2C20724.1,14740.2 20763.8,14768.5 20976.4,14981.1L21217.3,15222L22436.2,15222L26787.4,19573.2L26787.4,21126.6C26787.4,22141.4 26778.9,22677.2 26759.1,22677.2C26739.2,22677.2 26730.7,22141.4 26730.7,21123.8Z" style="fill:rgb(226,238,255);fill-rule:nonzero;"/>
                <path id="path3532" d="M26815.7,21081.3L26815.7,19488.2L24652.9,17325.4L22492.9,15165.4L21855.1,15165.4L21217.3,15165.4L20990.6,14938.6C20775.1,14720.3 20760.9,14711.8 20636.2,14711.8C20517.2,14711.8 20494.5,14723.1 20352.8,14867.7L20199.7,15023.6L19811.3,15023.6C19502.4,15023.6 19417.3,15032.1 19389,15066.1C19312.4,15156.9 19167.9,15083.1 19204.7,14972.6C19224.6,14901.7 19320.9,14876.2 19372,14927.2C19403.2,14958.4 19505.2,14966.9 19794.3,14966.9L20174.2,14966.9L20335.7,14811C20483.2,14666.5 20503,14655.1 20630.6,14655.1C20760.9,14655.1 20772.3,14660.8 20990.6,14881.9L21217.3,15108.7L22492.9,15108.7L26872.4,19488.2L26872.4,21084.1C26872.4,22127.2 26863.9,22677.2 26844.1,22677.2C26824.3,22677.2 26815.7,22127.2 26815.7,21081.3Z" style="fill:rgb(226,238,255);fill-rule:nonzero;"/>
                <path id="path3534" d="M26934.8,21089.8L26929.1,19488.2L24723.8,17282.8L22521.3,15080.3L21911.8,15080.3L21302.4,15080.3L21061.4,14839.4L20820.5,14598.4L20636.2,14598.4L20449.1,14598.4L20296.1,14754.3L20143,14910.2L19839.7,14910.2C19576.1,14910.2 19533.5,14904.6 19488.2,14853.5C19451.3,14813.9 19400.3,14796.9 19318.1,14796.9C19162.2,14796.9 19105.5,14859.2 19105.5,15026.5C19105.5,15134.2 19119.7,15168.2 19199.1,15241.9C19247.2,15290.1 19315.3,15335.4 19346.5,15341.1C19389,15346.8 19403.2,15372.3 19403.2,15434.6C19403.2,15502.7 19389,15522.5 19335.1,15528.2C19250.1,15542.4 19193.4,15474.3 19210.4,15383.6C19218.9,15341.1 19199.1,15298.6 19150.9,15253.2C19088.5,15193.7 19077.2,15159.7 19077.2,15009.4C19077.2,14913.1 19091.3,14822.4 19111.2,14802.5C19162.2,14751.5 19459.8,14760 19502.4,14811C19530.7,14845 19604.4,14853.5 19839.7,14853.5L20143,14853.5L20296.1,14697.6L20449.1,14541.7L20820.5,14541.7L21330.7,15052L22549.6,15052L26957.5,19459.8L26949,21075.6L26943.3,22691.3L26934.8,21089.8Z" style="fill:rgb(226,238,255);fill-rule:nonzero;"/>
                <path id="path3550" d="M28318.1,20925.4L28318.1,19173.5L28502.4,18992.1L28686.6,18810.7L28686.6,15902.4L28686.6,12994L28800,12883.5L28913.4,12772.9L28913.4,12515L28913.4,12259.8L28578.9,11925.4L28247.2,11593.7L27793.7,11593.7L27340.2,11593.7L26985.8,11239.4L26631.5,10885L24644.4,10885C22694.2,10885 22657.3,10885 22606.3,10941.7C22555.3,10998.4 22518.4,10998.4 21106.8,10998.4L19658.3,10998.4L19423,10763.1C19199.1,10539.2 19190.6,10525 19190.6,10400.3C19190.6,10318.1 19173.5,10255.7 19148,10233.1C19051.7,10153.7 19128.2,9983.62 19244.4,10020.5C19323.8,10046 19355,10173.5 19292.6,10218.9C19261.4,10241.6 19247.2,10295.4 19247.2,10377.6C19247.2,10496.7 19258.6,10516.5 19468.3,10723.5L19686.6,10941.7L21120.9,10941.7C22518.4,10941.7 22555.3,10938.9 22606.3,10885C22657.3,10828.3 22694.2,10828.3 24658.6,10828.3L26659.8,10828.3L27368.5,11537L28247.2,11537L28941.7,12231.5L28941.7,12829.6L28842.5,12926L28743.3,13022.4L28743.3,18810.7L28559.1,18992.1L28374.8,19173.5L28374.8,20925.4C28374.8,22073.4 28366.3,22677.2 28346.5,22677.2C28326.6,22677.2 28318.1,22073.4 28318.1,20925.4Z" style="fill:rgb(226,238,255);fill-rule:nonzero;"/>
                <path id="path3554" d="M28550.6,20976.4L28544.9,19258.6L28729.1,19077.2L28913.4,18895.7L28913.4,16001.6L28913.4,13107.4L29012.6,13011L29111.8,12914.6L29111.8,12543.3L29111.8,12174.8L28706.5,11769.4L28303.9,11366.9L27864.6,11366.9L27425.2,11366.9L27019.8,10961.6L26617.3,10559.1L26617.3,10315.3C26617.3,10097 26611.7,10065.8 26549.3,10009.1C26489.8,9955.28 26458.6,9946.77 26260.2,9955.28L26036.2,9963.78L26027.7,10218.9C26022,10403.1 26007.9,10485.4 25973.9,10522.2C25931.3,10570.4 25820.8,10573.2 24182.4,10573.2L22436.2,10573.2L22138.6,10275.6L21840.9,9977.95L21515,9977.95L21189,9977.95L20891.3,10275.6L20593.7,10573.2L20443.5,10573.2C20335.7,10573.2 20290.4,10584.6 20279.1,10615.7C20267.7,10641.3 20225.2,10658.3 20179.8,10658.3C20117.5,10658.3 20094.8,10641.3 20080.6,10587.4C20049.4,10459.8 20185.5,10377.6 20267.7,10474C20290.4,10499.5 20352.8,10516.5 20435,10516.5C20565.4,10516.5 20571,10510.9 20863,10218.9L21160.6,9921.26L21840.9,9921.26L22436.2,10516.5L24193.7,10510.9L25951.2,10502.4L25959.7,10247.2C25971,9912.76 25988,9892.91 26274.3,9892.91C26467.1,9892.91 26495.4,9901.42 26566.3,9969.45C26640,10040.3 26645.7,10060.2 26645.7,10272.8L26645.7,10502.4L27481.9,11338.6L28332.3,11338.6L29168.5,12174.8L29168.5,12943L29055.1,13053.5L28941.7,13164.1L28941.7,18952.4L28757.5,19133.9L28573.2,19315.3L28564.7,21004.7L28559.1,22691.3L28550.6,20976.4Z" style="fill:rgb(226,238,255);fill-rule:nonzero;"/>
                <path id="path3602" d="M25035.6,21713.4C24899.5,21585.8 24964.7,21367.6 25154.6,21330.7C25211.3,21316.5 25313.4,21242.8 25435.3,21123.8L25625.2,20936.7L25625.2,20281.9L25625.2,19629.9L23816.7,17821.4L22011,16015.7L20820.5,16015.7L19627.1,16015.7L19516.5,16129.1C19437.2,16211.3 19406,16265.2 19411.7,16313.4C19423,16401.3 19329.4,16458 19247.2,16412.6C19153.7,16361.6 19182,16302 19386.1,16112.1L19581.7,15930.7L22079.1,15930.7L23893.2,17750.6L25707.4,19573.2L25710.2,20281.9L25710.2,20987.7L25523.2,21177.6C25358.7,21344.9 25338.9,21373.2 25367.2,21424.3C25489.1,21651 25219.8,21886.3 25035.6,21713.4Z" style="fill:rgb(226,238,255);fill-rule:nonzero;"/>
                <path id="path3642" d="M20040.9,19675.3C20004.1,19604.4 20029.6,19539.2 20100.5,19516.5C20208.2,19482.5 20284.7,19615.7 20205.4,19695.1C20154.3,19746.1 20075,19734.8 20040.9,19675.3Z" style="fill:rgb(226,238,255);fill-rule:nonzero;"/>
                <path id="path3650" d="M20058,19400.3C20004.1,19349.3 20004.1,19343.6 20040.9,19272.8C20075,19213.2 20154.3,19201.9 20205.4,19252.9C20256.4,19303.9 20245,19383.3 20185.5,19417.3C20114.6,19454.2 20109,19454.2 20058,19400.3Z" style="fill:rgb(226,238,255);fill-rule:nonzero;"/>
                <path id="path3658" d="M27946.8,18833.4C27918.4,18799.4 27918.4,18771 27943.9,18697.3C27963.8,18646.3 27978,18535.7 27978,18450.7C27978,18303.3 27983.6,18289.1 28119.7,18155.9L28261.4,18017L28261.4,17546.5L28261.4,17075.9L28153.7,16971L28046,16866.1L27138.9,16866.1L26234.6,16866.1L25809.4,16440.9L25384.3,16015.7L24930.7,16015.7L24477.2,16015.7L23881.9,15420.5L23286.6,14825.2L22365.4,14825.2L21444.1,14825.2L21189,14570.1L20933.9,14315L20647.6,14315C20398.1,14315 20355.6,14306.5 20310.2,14258.3C20281.9,14227.1 20236.5,14201.6 20208.2,14201.6C20151.5,14201.6 20106.1,14085.4 20140.2,14034.3C20171.3,13983.3 20293.2,14000.3 20324.4,14059.8C20341.4,14091 20347.1,14116.5 20335.7,14116.5C20324.4,14116.5 20338.6,14142 20366.9,14173.2C20412.3,14221.4 20454.8,14229.9 20704.3,14229.9L20990.6,14229.9L21472.4,14711.8L23315,14711.8L24533.9,15930.7L25440.9,15930.7L26263,16752.8L28080,16752.8L28374.8,17053.2L28374.8,18045.4L28233.1,18184.3C28097,18317.5 28091.3,18331.7 28091.3,18479.1C28091.3,18583.9 28105.5,18649.1 28139.5,18686C28176.4,18728.5 28179.2,18751.2 28153.7,18807.9C28116.9,18890.1 28006.3,18904.3 27946.8,18833.4Z" style="fill:rgb(226,238,255);fill-rule:nonzero;"/>
                <path id="path3684" d="M27969.4,17555C27958.1,17546.5 27949.6,17503.9 27949.6,17464.3C27949.6,17410.4 27898.6,17339.5 27771,17212L27592.4,17036.2L26829.9,17036.2L26064.6,17036.2L25653.5,16625.2L25242.5,16214.2L24831.5,16214.2L24420.5,16214.2L23796.9,15590.6L23173.2,14966.9L22266.1,14966.9L21359.1,14966.9L21118.1,14726L20877.2,14485L20613.5,14485C20372.6,14485 20347.1,14490.7 20332.9,14541.7C20301.7,14655.1 20126,14632.4 20126,14516.2C20126,14414.2 20185.5,14400 20565.4,14400L20933.9,14400L21387.4,14853.5L23201.6,14853.5L24448.8,16100.8L25270.9,16100.8L26121.3,16951.2L27646.3,16951.2L27853.2,17149.6C27963.8,17260.2 28077.2,17348 28102.7,17348C28167.9,17348 28213.2,17450.1 28176.4,17518.1C28148,17574.8 28012,17597.5 27969.4,17555Z" style="fill:rgb(226,238,255);fill-rule:nonzero;"/>
                <path id="path3700" d="M26362.2,16653.5C26342.4,16630.9 26299.8,16611 26265.8,16611C26226.1,16611 26075.9,16480.6 25823.6,16228.3L25440.9,15845.7L25029.9,15845.7L24618.9,15845.7L24009.4,15236.2L23400,14626.8L22447.6,14626.8L21492.3,14626.8L21257,14385.8L21021.7,14144.9L20763.8,14144.9L20505.8,14144.9L20381.1,14017.3C20236.5,13869.9 20143,13852.9 20046.6,13955C19992.8,14011.7 19984.3,14054.2 19984.3,14232.8C19984.3,14434 19978.6,14448.2 19885,14550.2C19800,14643.8 19777.3,14652.3 19729.1,14626.8C19644.1,14581.4 19661.1,14445.4 19751.8,14434C19788.7,14428.3 19834,14436.9 19853.9,14453.9C19913.4,14504.9 19927.6,14459.5 19927.6,14215.7C19927.6,14011.7 19936.1,13977.6 19992.8,13923.8C20040.9,13878.4 20094.8,13861.4 20185.5,13861.4C20296.1,13861.4 20327.2,13875.6 20423.6,13974.8L20534.2,14088.2L21018.9,14088.2L21500.8,14570.1L23428.3,14570.1L24675.6,15817.3L25469.3,15817.3L25837.8,16185.8C26039.1,16389.9 26229,16554.3 26254.5,16554.3C26282.8,16554.3 26331,16528.8 26362.2,16497.6C26435.9,16423.9 26489.8,16426.8 26543.6,16503.3C26600.3,16582.7 26600.3,16596.8 26543.6,16650.7C26486.9,16707.4 26407.6,16707.4 26362.2,16653.5Z" style="fill:rgb(226,238,255);fill-rule:nonzero;"/>
                <path id="path3718" d="M26169.4,16378.6C26152.4,16361.6 26135.4,16319.1 26135.4,16285C26135.4,16251 26036.2,16126.3 25871.8,15964.7L25611,15703.9L25129.1,15703.9L24647.2,15703.9L24052,15108.7L23456.7,14513.4L22509.9,14513.4L21563.2,14513.4L21305.2,14258.3L21044.4,14003.1L20817.6,14003.1L20590.9,14003.1L20466.1,13875.6C20358.4,13765 20324.4,13748 20228,13748C20128.8,13748 20094.8,13767.9 19978.6,13881.3C19873.7,13983.3 19851,14023 19870.9,14059.8C19913.4,14136.4 19839.7,14212.9 19749,14190.2C19621.4,14159.1 19655.4,14076.9 19879.4,13861.4C20075,13671.5 20089.1,13665.8 20225.2,13663C20358.4,13663 20378.3,13671.5 20494.5,13790.6L20619.2,13918.1L21075.6,13918.1L21585.8,14428.3L23485,14428.3L24681.3,15624.6L25160.3,15621.7L25639.4,15616.1L25908.7,15888.2C26087.2,16066.8 26197.8,16157.5 26240.3,16157.5C26274.3,16157.5 26322.5,16185.8 26345.2,16219.8C26382,16273.7 26384.9,16290.7 26350.9,16341.7C26305.5,16409.8 26220.5,16429.6 26169.4,16378.6Z" style="fill:rgb(226,238,255);fill-rule:nonzero;"/>
                <path id="path3720" d="M28204.7,16242.5C28150.9,16188.7 28111.2,16185.8 27484.7,16185.8L26821.4,16185.8L26401.9,15760.6C26016.4,15369.4 25976.7,15335.4 25880.3,15335.4C25815.1,15335.4 25764.1,15355.3 25730.1,15392.1C25679.1,15454.5 25611,15465.8 25582.7,15420.5C25571.3,15403.5 25401.3,15392.1 25163.2,15392.1L24760.6,15392.1L24193.7,14825.2L23626.8,14258.3L22677.2,14258.3L21724.7,14258.3L21469.6,14003.1C21234.3,13767.9 21206,13748 21101.1,13748C21004.7,13748 20970.7,13728.2 20848.8,13606.3C20726.9,13481.6 20695.7,13464.6 20590.9,13464.6C20511.5,13464.6 20460.5,13481.6 20423.6,13521.3C20381.1,13569.4 20335.7,13578 20123.2,13578C19876.5,13578 19839.7,13592.1 19825.5,13685.7C19817,13739.5 19754.6,13804.7 19712.1,13804.7C19663.9,13804.7 19587.4,13725.4 19587.4,13677.2C19587.4,13609.1 19675.3,13543.9 19746.1,13560.9C19780.2,13569.4 19819.8,13566.6 19828.3,13549.6C19836.9,13535.4 19958.7,13521.3 20094.8,13521.3C20307.4,13521.3 20352.8,13512.8 20395.3,13464.6C20432.1,13422 20483.2,13407.9 20576.7,13407.9C20698.6,13407.9 20721.3,13419.2 20863,13563.8C20999.1,13702.7 21030.2,13719.7 21132.3,13719.7C21237.2,13719.7 21265.5,13736.7 21486.6,13960.6L21727.6,14201.6L23660.8,14201.6L24230.6,14782.7L24797.5,15363.8L25154.6,15363.8C25446.6,15363.8 25511.8,15355.3 25511.8,15324.1C25511.8,15273.1 25588.3,15193.7 25639.4,15193.7C25659.2,15193.7 25698.9,15216.4 25727.2,15241.9C25758.4,15273.1 25809.4,15287.2 25877.5,15284.4C25973.9,15275.9 25999.4,15298.6 26404.7,15703.9L26829.9,16129.1L27498.9,16129.1C28068.7,16129.1 28173.5,16123.5 28187.7,16086.6C28207.6,16035.6 28320.9,16029.9 28369.1,16078.1C28420.2,16129.1 28408.8,16236.9 28349.3,16270.9C28275.6,16307.7 28269.9,16307.7 28204.7,16242.5Z" style="fill:rgb(226,238,255);fill-rule:nonzero;"/>
                <path id="path3752" d="M18805,15494.2C18776.7,15417.6 18807.9,15349.6 18878.7,15341.1C18966.6,15326.9 19029,15406.3 18989.3,15480C18955.3,15542.4 18827.7,15550.9 18805,15494.2Z" style="fill:rgb(226,238,255);fill-rule:nonzero;"/>
                <path id="path3754" d="M26943.3,15505.5C26934.8,15491.3 26872.4,15477.2 26807.2,15477.2C26699.5,15477.2 26674,15460.2 26486.9,15275.9L26285.7,15077.5L25894.5,15077.5C25540.2,15077.5 25500.5,15083.1 25443.8,15134.2C25387.1,15188 25344.6,15193.7 25069.6,15193.7L24760.6,15193.7L24236.2,14669.3L23711.8,14144.9L22748,14144.9L21784.3,14144.9L21515,13875.6C21276.9,13634.6 21234.3,13606.3 21146.5,13606.3C21064.3,13606.3 21021.7,13583.6 20919.7,13475.9L20792.1,13348.3L20469,13356.9C20168.5,13362.5 20143,13359.7 20106.1,13305.8C20072.1,13254.8 20075,13237.8 20120.3,13181.1C20179.8,13107.4 20281.9,13121.6 20310.2,13212.3C20327.2,13260.5 20355.6,13266.1 20576.7,13266.1L20823.3,13266.1L20962.2,13407.9C21078.4,13524.1 21118.1,13549.6 21203.2,13549.6C21291,13549.6 21333.5,13578 21557.5,13804.7L21812.6,14059.8L23740.2,14059.8L24817.3,15137L25075.3,15137C25313.4,15137 25336.1,15131.3 25398.4,15066.1C25463.6,14995.3 25472.1,14995.3 25891.7,14995.3L26322.5,14995.3L26532.3,15207.9C26759.1,15437.5 26866.8,15480 26929.1,15363.8C26974.5,15281.6 27093.5,15290.1 27133.2,15378C27155.9,15431.8 27155.9,15457.3 27127.6,15491.3C27087.9,15539.5 26968.8,15548 26943.3,15505.5Z" style="fill:rgb(226,238,255);fill-rule:nonzero;"/>
                <path id="path3768" d="M18813.5,15091.7C18773.9,15052 18793.7,14941.4 18847.6,14913.1C18921.3,14873.4 19000.6,14935.7 18986.5,15026.5C18980.8,15074.6 18958.1,15097.3 18907.1,15103C18867.4,15108.7 18824.9,15103 18813.5,15091.7Z" style="fill:rgb(226,238,255);fill-rule:nonzero;"/>
                <path id="path3790" d="M19281.3,14621.1C19230.2,14570.1 19238.7,14456.7 19298.3,14436.9C19323.8,14428.3 19380.5,14388.7 19425.8,14349L19502.4,14275.3L19502.4,13464.6C19502.4,12659.5 19502.4,12651 19567.6,12594.3C19627.1,12540.5 19675.3,12534.8 20522.8,12517.8L21415.7,12500.8L22181.1,13266.1L24930.7,13266.1L25426.8,12770.1C25900.2,12296.7 25917.2,12274 25883.2,12208.8C25837.8,12123.8 25849.1,12050.1 25914.3,12007.6C26024.9,11939.5 26138.3,12132.3 26039.1,12217.3C26013.5,12237.2 25993.7,12268.3 25993.7,12285.4C25993.7,12302.4 25761.3,12549 25475,12835.3L24959.1,13351.2L23555.9,13351.2L22152.8,13351.2L21758.7,12957.2L21361.9,12560.3L20525.7,12577.3C19732,12591.5 19683.8,12597.2 19624.3,12651C19559.1,12707.7 19559.1,12716.2 19559.1,13521.3L19559.1,14334.8L19491,14397.2C19445.7,14439.7 19428.7,14479.4 19440,14519.1C19448.5,14558.7 19437.2,14592.8 19403.2,14615.4C19338,14663.6 19323.8,14663.6 19281.3,14621.1Z" style="fill:rgb(226,238,255);fill-rule:nonzero;"/>
                <path id="path3814" d="M18805,14161.9C18771,14074 18805,14017.3 18892.9,14017.3C18969.4,14017.3 18978,14025.8 18978,14102.4C18978,14173.2 18966.6,14187.4 18898.6,14195.9C18850.4,14201.6 18816.4,14190.2 18805,14161.9Z" style="fill:rgb(226,238,255);fill-rule:nonzero;"/>
                <path id="path3816" d="M19250.1,14150.6C19210.4,14074 19272.8,13994.6 19363.5,14008.8C19417.3,14014.5 19431.5,14034.3 19431.5,14102.4C19431.5,14173.2 19420.2,14190.2 19355,14195.9C19303.9,14201.6 19269.9,14187.4 19250.1,14150.6Z" style="fill:rgb(226,238,255);fill-rule:nonzero;"/>
                <path id="path3828" d="M23570.1,13838.7L21954.3,13833.1L21557.5,13436.2C21194.6,13073.4 21152.1,13039.4 21058.6,13039.4C20987.7,13039.4 20939.5,13059.2 20891.3,13110.2C20834.6,13172.6 20800.6,13181.1 20636.2,13181.1C20463.3,13181.1 20440.6,13172.6 20366.9,13096.1C20293.2,13019.5 20267.7,13011 20111.8,13011C19972.9,13011 19924.7,12999.7 19887.9,12957.2C19859.5,12926 19797.2,12897.6 19749,12892C19576.1,12875 19573.2,12685 19746.1,12685C19811.3,12685 19831.2,12699.2 19836.9,12755.9C19842.5,12795.6 19873.7,12855.1 19907.7,12892C19955.9,12943 19995.6,12954.3 20140.2,12954.3C20296.1,12954.3 20321.6,12962.8 20395.3,13039.4C20469,13115.9 20494.5,13124.4 20647.6,13124.4C20772.3,13124.4 20831.8,13110.2 20874.3,13070.6C20911.2,13039.4 20990.6,13013.9 21081.3,13005.4L21225.8,12991.2L22011,13776.4L25157.5,13776.4L25931.3,13002.5L26702.4,12231.5L26702.4,12103.9C26702.4,11987.7 26688.2,11965 26540.8,11814.8C26410.4,11684.4 26359.4,11650.4 26288.5,11650.4C26240.3,11650.4 26183.6,11670.2 26163.8,11692.9C26090.1,11780.8 25965.4,11724.1 25965.4,11602.2C25965.4,11508.7 26064.6,11463.3 26149.6,11520C26189.3,11545.5 26260.2,11565.4 26311.2,11565.4C26390.6,11565.4 26438.7,11596.5 26597.5,11758.1C26784.6,11948 26787.4,11950.9 26787.4,12103.9L26787.4,12259.8L25988,13053.5L25185.8,13847.2L23570.1,13838.7Z" style="fill:rgb(226,238,255);fill-rule:nonzero;"/>
                <path id="path3836" d="M19238.7,13756.5C19207.6,13728.2 19216.1,13583.6 19247.2,13563.8C19264.3,13552.4 19275.6,13368.2 19275.6,13098.9L19275.6,12653.9L19389,12543.3C19479.7,12455.4 19502.4,12412.9 19502.4,12327.9C19502.4,12240 19525,12203.1 19655.4,12078.4L19811.3,11933.9L20006.9,11933.9C20177,11933.9 20208.2,11925.4 20267.7,11863L20332.9,11792.1L21529.1,11792.1L22407.9,12670.9L23400,12670.9L24037.8,12033.1L24675.6,11395.3L26404.7,11395.3L26929.1,11919.7L26929.1,12120.9C26929.1,12381.7 26963.2,12415.7 27218.3,12415.7C27425.2,12415.7 27484.7,12376.1 27501.7,12234.3C27513.1,12132.3 27589.6,12078.4 27657.6,12120.9C27771,12191.8 27717.2,12378.9 27595.3,12347.7C27552.8,12336.4 27513.1,12353.4 27467.7,12401.6C27408.2,12463.9 27377,12472.4 27198.4,12472.4C27022.7,12472.4 26988.7,12463.9 26934.8,12407.2C26883.8,12353.4 26872.4,12308 26872.4,12143.6L26872.4,11948L26623,11698.6L26376.4,11452L25526,11452L24675.6,11452L24037.8,12089.8L23400,12727.6L22903.9,12727.6L22407.9,12727.6L21968.5,12288.2L21529.1,11848.8L20931,11848.8L20332.9,11848.8L20267.7,11919.7C20211,11982 20177,11990.6 20012.6,11990.6L19825.5,11990.6L19678.1,12140.8C19564.7,12254.2 19530.7,12310.9 19530.7,12376.1C19530.7,12435.6 19502.4,12489.4 19431.5,12557.5L19332.3,12653.9L19332.3,13096.1C19332.3,13504.3 19335.1,13538.3 19389,13572.3C19451.3,13612 19462.7,13691.3 19411.7,13742.4C19374.8,13779.2 19269.9,13787.7 19238.7,13756.5Z" style="fill:rgb(226,238,255);fill-rule:nonzero;"/>
                <path id="path3840" d="M21656.7,13280.3L21245.7,12869.3L21089.8,12869.3C20945.2,12869.3 20922.5,12877.8 20834.6,12968.5C20695.7,13113.1 20579.5,13107.4 20418,12948.7C20324.4,12855.1 20287.6,12838.1 20262,12863.6C20208.2,12917.5 20103.3,12903.3 20069.3,12838.1C20029.6,12767.2 20046.6,12713.4 20126,12670.9C20177,12642.5 20205.4,12659.5 20364.1,12809.8C20576.7,13013.9 20661.7,13033.7 20792.1,12897.6C20868.7,12818.3 20885.7,12812.6 21089.8,12812.6L21302.4,12812.6L22096.1,13606.3L25044.1,13606.3L25749.9,12900.5C26407.6,12242.8 26452.9,12191.8 26410.4,12146.5C26350.9,12089.8 26350.9,12075.6 26407.6,11996.2C26461.4,11919.7 26509.6,11916.9 26572,11987.7C26623,12044.4 26614.5,12160.6 26557.8,12160.6C26543.6,12160.6 26532.3,12177.6 26532.3,12197.5C26532.3,12214.5 26203.5,12560.3 25800.9,12962.8L25072.4,13691.3L23570.1,13691.3L22067.7,13691.3L21656.7,13280.3Z" style="fill:rgb(226,238,255);fill-rule:nonzero;"/>
                <path id="path3860" d="M21869.3,12614.2L21444.1,12189L20976.4,12189L20505.8,12189L20366.9,12330.7C20290.4,12410.1 20211,12472.4 20191.2,12472.4C20140.2,12472.4 20075,12361.9 20089.1,12299.5C20109,12231.5 20225.2,12197.5 20284.7,12245.7C20318.7,12276.9 20341.4,12268.3 20418,12194.6L20511.5,12103.9L21444.1,12103.9L22294.5,12954.3L24281.6,12954.3L24278.7,12880.6C24278.7,12787.1 24358.1,12730.4 24426.1,12772.9C24505.5,12821.1 24505.5,12928.8 24429,12988.3C24369.4,13033.7 24281.6,13039.4 23329.1,13039.4L22294.5,13039.4L21869.3,12614.2Z" style="fill:rgb(226,238,255);fill-rule:nonzero;"/>
                <path id="path3872" d="M21940.2,12429.9L21500.8,11990.6L20959.4,11990.6L20420.8,11990.6L20338.6,12075.6C20267.7,12149.3 20236.5,12160.6 20111.8,12160.6C19995.6,12160.6 19953.1,12174.8 19904.9,12225.8C19870.9,12262.7 19842.5,12319.4 19842.5,12353.4C19842.5,12395.9 19819.8,12421.4 19771.7,12432.8C19689.4,12452.6 19615.7,12404.4 19615.7,12327.9C19615.7,12268.3 19717.8,12186.1 19768.8,12206C19788.7,12214.5 19834,12186.1 19870.9,12146.5C19924.7,12089.8 19964.4,12075.6 20077.8,12075.6C20194,12075.6 20233.7,12061.4 20315.9,11990.6L20412.3,11905.5L21498,11905.5L22410.7,12812.6L24083.2,12812.6L24173.9,12719.1C24224.9,12668 24258.9,12617 24247.6,12608.5C24216.4,12574.5 24267.4,12475.3 24324.1,12458.3C24386.5,12438.4 24491.3,12509.3 24491.3,12571.7C24491.3,12617 24397.8,12699.2 24346.8,12699.2C24321.3,12699.2 24267.4,12738.9 24222,12784.3L24139.8,12869.3L23261.1,12869.3L22379.5,12869.3L21940.2,12429.9Z" style="fill:rgb(226,238,255);fill-rule:nonzero;"/>
                <path id="path3884" d="M28544.9,12461.1C28527.9,12438.4 28516.5,12393.1 28522.2,12361.9C28527.9,12322.2 28459.8,12234.3 28289.8,12061.4L28048.8,11820.5L27654.8,11820.5L27260.8,11820.5L26886.6,11452L26515.3,11083.5L25183,11083.5L23853.5,11083.5L23414.2,11522.8L22974.8,11962.2L22606.3,11962.2L22237.8,11962.2L21869.3,11593.7L21498,11222.4L20525.7,11222.4C19811.3,11222.4 19542,11233.7 19510.9,11256.4C19488.2,11276.2 19454.2,11332.9 19431.5,11386.8C19403.2,11454.8 19374.8,11480.3 19323.8,11480.3C19221.7,11480.3 19173.5,11412.3 19216.1,11321.6C19241.6,11259.2 19264.3,11250.7 19332.3,11259.2C19391.8,11267.7 19431.5,11256.4 19465.5,11219.5C19508,11171.3 19578.9,11168.5 20505.8,11168.5L21500.8,11168.5L22237.8,11905.5L22946.5,11905.5L23385.8,11466.1L23825.2,11026.8L26546.5,11026.8L27283.5,11763.8L28077.2,11763.8L28332.3,12018.9C28496.7,12183.3 28610.1,12274 28655.4,12279.7C28712.1,12285.4 28732,12305.2 28737.6,12370.4C28751.8,12489.4 28621.4,12551.8 28544.9,12461.1Z" style="fill:rgb(226,238,255);fill-rule:nonzero;"/>
                <path id="path3890" d="M11712.8,12265.5L11565.4,12115.3L11565.4,11437.8L11565.4,10757.5L11318.7,10510.9L11069.3,10261.4L10811.3,10261.4C10590.2,10261.4 10547.7,10252.9 10502.4,10204.7C10457,10153.7 10414.5,10148 10057.3,10148L9663.31,10148L9025.51,9518.74L8390.55,8892.28L8390.55,7982.36L8390.55,7072.44L7341.73,6023.62L6292.91,4974.8L6292.91,4733.86L6292.91,4492.91L5839.37,4039.37L5385.83,3585.83L5385.83,3146.46L5385.83,2707.09L5825.2,2267.72L6264.57,1828.35L6264.57,1584.57C6264.57,1369.13 6258.9,1335.12 6199.37,1281.26C6151.18,1233.07 6097.32,1218.9 5992.44,1218.9L5853.54,1218.9L5309.29,1763.15L4762.2,2310.24L4762.2,4376.69L4685.67,4456.06L4609.13,4535.43L2304.57,4535.43C274.961,4535.43 0,4529.76 0,4492.91C0,4456.06 272.126,4450.39 2290.39,4450.39C4475.91,4450.39 4586.46,4447.56 4628.98,4399.37C4671.5,4351.18 4677.16,4234.96 4677.16,3313.7L4677.16,2281.89L5252.6,1706.46L5825.2,1133.86L5998.11,1133.86C6154.02,1133.86 6176.69,1142.36 6258.9,1227.4C6346.77,1318.11 6349.61,1326.61 6349.61,1590.24L6349.61,1856.69L5910.24,2296.06L5470.87,2735.43L5470.87,3585.83L6377.95,4492.91L6377.95,4974.8L8475.59,7072.44L8475.59,8858.27L9708.66,10091.3L10108.3,10091.3C10471.2,10091.3 10513.7,10097 10559.1,10148C10601.6,10196.2 10646.9,10204.7 10853.9,10204.7L11097.6,10204.7L11622,10729.1L11622,12064.3L11894.2,12330.7L12772.9,12330.7C13592.1,12330.7 13657.3,12327.9 13699.8,12279.7C13739.5,12234.3 13748,12157.8 13748,11797.8C13748,11534.2 13759.4,11341.4 13782,11296.1L13813.2,11225.2L15576.4,11225.2C17302.7,11225.2 17339.5,11225.2 17390.6,11168.5C17438.7,11117.5 17478.4,11111.8 17869.6,11111.8L18300.5,11111.8L18447.9,11262C18586.8,11400.9 18595.3,11420.8 18595.3,11554C18595.3,11684.4 18603.8,11704.3 18731.3,11829L18867.4,11962.2L19547.7,11962.2L19629.9,11877.2C19703.6,11800.6 19729.1,11792.1 19885,11792.1C20023.9,11792.1 20072.1,11780.8 20111.8,11735.4C20148.7,11692.9 20199.7,11678.7 20296.1,11678.7C20446.3,11678.7 20522.8,11619.2 20522.8,11505.8C20522.8,11423.6 20571,11366.9 20639.1,11366.9C20763.8,11366.9 20780.8,11571 20656.1,11610.7C20622,11622 20556.9,11658.9 20514.3,11695.7C20457.6,11743.9 20398.1,11763.8 20313.1,11763.8C20228,11763.8 20177,11780.8 20140.2,11820.5C20100.5,11865.8 20052.3,11877.2 19913.4,11877.2C19757.5,11877.2 19732,11885.7 19658.3,11962.2L19576.1,12047.2L19204.7,12047.2L18833.4,12047.2L18671.8,11882.8C18518.7,11729.8 18510.2,11712.8 18510.2,11579.5C18510.2,11454.8 18498.9,11429.3 18391.2,11318.7L18272.1,11196.9L17855.4,11196.9C17475.6,11196.9 17438.7,11202.5 17390.6,11253.5C17339.5,11310.2 17308.3,11310.2 15613.2,11310.2C14663.6,11310.2 13875.6,11315.9 13861.4,11324.4C13844.4,11335.7 13833.1,11539.8 13833.1,11803.5L13833.1,12262.7L13753.7,12339.2L13674.3,12415.7L12767.2,12415.7L11860.2,12415.7L11712.8,12265.5Z" style="fill:rgb(226,238,255);fill-rule:nonzero;"/>
                <path id="path3896" d="M22229.3,12268.3C22209.4,12248.5 22195.3,12214.5 22195.3,12189C22195.3,12166.3 22013.9,11965 21789.9,11741.1L21387.4,11338.6L20488.8,11338.6L19587.4,11338.6L19573.2,11418C19542,11562.5 19519.4,11579.5 19346.5,11588C19131,11599.4 19077.2,11554 19077.2,11355.6C19077.2,11213.9 19071.5,11202.5 18907.1,11040.9L18737,10873.7L18737,10204.7L18737,9538.58L19071.5,9204.09C19369.1,8906.46 19414.5,8872.44 19505.2,8872.44C19581.7,8872.44 19627.1,8849.76 19698,8776.06C19800,8671.18 19822.7,8665.51 20352.8,8628.66L20565.4,8614.49L22033.7,7148.98L23499.2,5683.47L23499.2,4521.26L23499.2,3356.22L23612.6,3245.67L23726,3135.12L23726,2267.72L23726,1403.15L24137,992.126L24548,581.102L24548,374.173C24548,243.78 24536.7,172.913 24519.7,184.252C24505.5,192.756 24491.3,286.299 24491.3,391.181L24491.3,581.102L24094.5,977.953L23697.6,1374.8L23697.6,3098.27L23584.3,3220.16L23470.9,3344.88L23470.9,5655.12L22002.5,7123.47L20537,8588.98L20332.9,8588.98C20222.4,8588.98 20120.3,8603.15 20111.8,8617.32C20103.3,8634.33 20009.8,8645.67 19907.7,8645.67C19734.8,8645.67 19715,8651.34 19612.9,8744.88C19550.6,8798.74 19474,8844.09 19437.2,8844.09C19394.6,8844.09 19267.1,8951.81 19026.1,9192.76L18680.3,9538.58L18680.3,10902L18850.4,11069.3C19012,11230.9 19020.5,11245 19020.5,11378.3C19020.5,11494.5 19034.6,11534.2 19097,11599.4C19165,11670.2 19190.6,11678.7 19360.6,11678.7C19516.5,11678.7 19559.1,11667.4 19604.4,11619.2C19632.8,11585.2 19655.4,11531.3 19649.8,11497.3C19638.4,11418 19706.5,11358.4 19791.5,11372.6C19910.6,11389.6 19882.2,11593.7 19760.3,11593.7C19732,11593.7 19680.9,11624.9 19644.1,11664.6C19584.6,11726.9 19556.2,11735.4 19360.6,11735.4C19153.7,11735.4 19142.4,11732.6 19054.5,11641.9C18975.1,11559.7 18963.8,11528.5 18963.8,11392.4C18963.8,11239.4 18960.9,11233.7 18793.7,11069.3L18623.6,10902L18623.6,10207.6L18623.6,9515.91L18983.6,9150.24C19261.4,8869.61 19360.6,8787.4 19417.3,8787.4C19465.5,8787.4 19525,8750.55 19587.4,8688.19C19678.1,8594.65 19692.3,8588.98 19873.7,8588.98C19978.6,8588.98 20075,8577.64 20083.5,8560.63C20092,8546.46 20199.7,8532.28 20318.7,8532.28L20537,8532.28L21991.2,7078.11L23442.5,5626.77L23442.5,4461.73L23442.5,3299.53L23541.7,3203.15L23640.9,3106.77L23640.9,2239.37L23640.9,1374.8L24037.8,977.953L24434.6,581.102L24434.6,382.677C24434.6,192.756 24440.3,175.748 24528.2,90.709C24590.6,31.181 24650.1,0 24703.9,0L24786.1,0L24681.3,107.717C24579.2,212.598 24576.4,221.102 24576.4,428.031L24576.4,640.63L24165.4,1048.82L23754.3,1454.17L23754.3,3191.81L23655.1,3288.19L23555.9,3384.57L23555.9,5674.96L22076.2,7168.82L20599.4,8659.84L20383.9,8668.35C20264.9,8674.02 20157.2,8688.19 20143,8702.36C20126,8719.37 20043.8,8730.71 19955.9,8730.71C19811.3,8730.71 19788.7,8739.21 19700.8,8829.92C19632.8,8900.79 19578.9,8929.13 19516.5,8929.13C19445.7,8929.13 19380.5,8980.16 19111.2,9249.45L18793.7,9566.93L18793.7,10845.4L18963.8,11012.6C19128.2,11174.2 19133.9,11185.5 19133.9,11327.2C19133.9,11497.3 19190.6,11565.4 19329.4,11565.4C19462.7,11565.4 19530.7,11520 19530.7,11429.3C19530.7,11383.9 19544.9,11335.7 19564.7,11315.9C19590.2,11290.4 19839.7,11281.9 20508.7,11281.9L21415.7,11281.9L21812.6,11678.7C22132.9,11999.1 22218,12069.9 22269,12058.6C22337,12041.6 22422,12109.6 22422,12186.1C22422,12245.7 22368.2,12302.4 22308.7,12302.4C22283.2,12302.4 22249.1,12288.2 22229.3,12268.3Z" style="fill:rgb(226,238,255);fill-rule:nonzero;"/>
                <path id="path3906" d="M12038.7,11826.1L11735.4,11522.8L11735.4,11111.8L11735.4,10700.8L11443.5,10408.8L11154.3,10119.7L10924.7,10119.7C10709.3,10119.7 10692.3,10114 10615.7,10034.6L10533.5,9949.61L10136.7,9949.61L9737.01,9949.61L9161.58,9374.17L8588.98,8801.58L8588.98,7894.49L8588.98,6987.4L7540.16,5938.58L6491.34,4889.76L6491.34,4662.99L6491.34,4436.22L6037.8,3982.68L5584.25,3529.13L5584.25,3188.98L5584.25,2848.82L6023.62,2409.45L6462.99,1970.08L6462.99,1615.75L6462.99,1258.58L6326.93,1125.35L6190.87,992.126L5966.93,992.126L5740.16,992.126L5153.39,1578.9L4563.78,2168.5L4563.78,3174.8C4563.78,4042.2 4558.11,4192.44 4518.43,4246.3L4475.91,4308.66L2236.53,4308.66C765.354,4308.66 0,4300.16 0,4280.32C0,4260.47 754.016,4251.97 2205.35,4251.97C3883.47,4251.97 4419.21,4243.47 4444.72,4217.95C4470.24,4192.44 4478.74,3920.32 4478.74,3160.63L4478.74,2140.16L5096.69,1522.2L5711.81,907.087L6219.21,907.087L6548.03,1230.24L6548.03,1970.08L6105.83,2412.28L5663.62,2857.32L5666.46,3177.64L5672.13,3500.79L6122.84,3954.33L6576.38,4407.87L6576.38,4861.42L7625.2,5910.24L8674.02,6961.89L8674.02,8773.23L9765.35,9864.57L10561.9,9864.57L10644.1,9949.61C10720.6,10029 10737.6,10034.6 10955.9,10034.6L11182.7,10034.6L11820.5,10672.4L11820.5,11494.5L12401.6,12075.6L12917.5,12075.6C13200.9,12075.6 13450.4,12067.1 13475.9,12058.6C13515.6,12044.4 13521.3,11982 13521.3,11653.2L13521.3,11264.9L13671.5,11117.5L13821.7,10970.1L15548,10970.1C16993.7,10967.2 17288.5,10961.6 17348,10927.6C17401.9,10896.4 17538,10887.9 17900.8,10885L18382.7,10885L18603.8,11106.1C18819.2,11321.6 18822,11327.2 18822,11469C18822,11596.5 18833.4,11622 18929.8,11715.6L19037.5,11820.5L19292.6,11820.5C19539.2,11820.5 19550.6,11817.6 19629.9,11735.4C19700.8,11661.7 19732,11650.4 19862.4,11650.4C19987.1,11650.4 20015.4,11639.1 20046.6,11588C20066.5,11551.2 20077.8,11505.8 20072.1,11486C20052.3,11383.9 20239.4,11321.6 20290.4,11412.3C20332.9,11488.8 20296.1,11568.2 20208.2,11585.2C20165.7,11593.7 20100.5,11630.6 20066.5,11667.4C20018.3,11721.3 19972.9,11735.4 19870.9,11735.4C19766,11735.4 19726.3,11749.6 19672.4,11806.3C19610.1,11874.3 19590.2,11877.2 19289.8,11877.2L18975.1,11877.2L18856.1,11755.3C18748.3,11644.7 18737,11622 18737,11491.7C18737,11355.6 18731.3,11344.3 18544.3,11160L18351.5,10967.2L17855.4,10984.3C17583.3,10992.8 16571.3,11006.9 15604.7,11012.6L13847.2,11026.8L13728.2,11145.8L13606.3,11264.9L13606.3,11653.2C13606.3,11990.6 13600.6,12044.4 13555.3,12084.1C13509.9,12126.6 13422,12132.3 12923.1,12132.3L12344.9,12132.3L12038.7,11826.1Z" style="fill:rgb(226,238,255);fill-rule:nonzero;"/>
                <path id="path3920" d="M22308.7,11647.6C22288.8,11616.4 22283.2,11573.9 22288.8,11554C22297.3,11534.2 22212.3,11426.5 22098.9,11313.1L21897.6,11111.8L20735.4,11111.8L19573.2,11111.8L19267.1,10805.7L18963.8,10502.4L18963.8,10091.3L18963.8,9680.32L19241.6,9402.52C19408.8,9235.28 19539.2,9127.56 19576.1,9127.56C19607.2,9127.56 19689.4,9070.87 19757.5,9000C19876.5,8878.11 19890.7,8872.44 20043.8,8872.44C20134.5,8872.44 20216.7,8861.1 20225.2,8844.09C20233.7,8829.92 20341.4,8815.75 20460.5,8815.75L20678.7,8815.75L22203.8,7290.71L23726,5768.5L23726,4617.64L23726,3469.61L23825.2,3373.23L23924.4,3276.85L23924.4,2395.28L23924.4,1516.54L24273.1,1167.87L24618.9,822.047L24961.9,822.047C25188.7,822.047 25313.4,810.709 25336.1,788.031C25358.7,765.354 25370.1,632.126 25370.1,377.008C25370.1,144.567 25381.4,0 25398.4,0C25415.4,0 25426.8,144.567 25426.8,377.008C25426.8,737.008 25423.9,759.685 25361.6,816.378C25302,873.071 25265.2,878.74 24973.2,878.74L24647.2,878.74L24315.6,1210.39L23981.1,1544.88L23981.1,3276.85L23881.9,3373.23L23782.7,3469.61L23782.7,5768.5L22229.3,7321.89L20678.7,8872.44L20457.6,8872.44C20330.1,8872.44 20239.4,8883.78 20239.4,8900.79C20239.4,8917.8 20165.7,8929.13 20072.1,8929.13C19916.2,8929.13 19899.2,8934.8 19791.5,9042.52C19726.3,9107.72 19652.6,9155.91 19615.7,9155.91C19573.2,9155.91 19462.7,9243.78 19286.9,9416.69L19020.5,9677.48L19020.5,10474L19601.6,11055.1L21900.5,11055.1L22110.2,11267.7C22260.5,11418 22337,11477.5 22373.9,11469C22424.9,11457.6 22535.4,11539.8 22535.4,11590.9C22535.4,11636.2 22447.6,11707.1 22393.7,11707.1C22362.5,11707.1 22325.7,11681.6 22308.7,11647.6Z" style="fill:rgb(226,238,255);fill-rule:nonzero;"/>
                <path id="path3952" d="M19071.5,10995.6C19037.5,10978.6 19020.5,10933.2 19020.5,10870.9C19020.5,10800 18997.8,10757.5 18932.6,10703.6L18844.7,10629.9L18847.6,10111.2L18853.2,9595.28L19156.5,9291.97C19408.8,9034.02 19474,8985.83 19544.9,8985.83C19607.2,8985.83 19661.1,8957.48 19729.1,8886.61C19817,8795.91 19839.7,8787.4 19987.1,8787.4C20077.8,8787.4 20160,8776.06 20168.5,8759.06C20177,8744.88 20279.1,8730.71 20389.6,8730.71L20593.7,8730.71L22104.6,7219.84L23612.6,5711.81L23612.6,4546.77L23612.6,3384.57L23711.8,3288.19L23811,3191.81L23811,2324.41L23811,1459.84L24173.9,1099.84L24533.9,739.843L24902.4,731.339L25270.9,722.835L25279.4,362.835C25282.2,153.071 25299.2,0 25313.4,0C25350.2,0 25350.2,668.976 25313.4,739.843C25285,788.031 25251,793.701 24922.2,793.701L24562.2,793.701L24213.5,1142.36L23867.7,1488.19L23867.7,3220.16L23768.5,3316.53L23669.3,3412.91L23669.3,5740.16L22158.4,7251.02L20650.4,8759.06L20435,8759.06C20276.2,8759.06 20208.2,8770.39 20182.7,8801.58C20160,8829.92 20097.6,8844.09 20001.3,8844.09C19870.9,8844.09 19842.5,8855.43 19757.5,8943.31C19689.4,9014.17 19635.6,9042.52 19573.2,9042.52C19502.4,9042.52 19437.2,9090.71 19182,9348.66L18878.7,9651.97L18878.7,10590.2L18972.3,10680.9C19023.3,10732 19091.3,10771.7 19125.4,10771.7C19196.2,10771.7 19255.7,10836.9 19241.6,10902C19227.4,10975.7 19128.2,11029.6 19071.5,10995.6Z" style="fill:rgb(226,238,255);fill-rule:nonzero;"/>
                <path id="path3958" d="M19544.9,10743.3L19403.2,10598.7L19380.5,10281.3C19369.1,10105.5 19352.1,9844.72 19343.6,9697.32L19329.4,9430.87L19448.5,9308.98C19530.7,9223.94 19595.9,9184.25 19644.1,9184.25C19689.4,9184.25 19749,9150.24 19800,9099.21C19873.7,9022.68 19899.2,9014.17 20052.3,9014.17C20148.7,9011.34 20256.4,8994.33 20296.1,8971.65C20335.7,8948.98 20437.8,8931.97 20522.8,8929.13L20678.7,8929.13L22246.3,7361.57L23811,5796.85L23811,4645.98L23811,3497.95L23924.4,3387.4L24037.8,3276.85L24037.8,2423.62L24037.8,1573.23L24358.1,1252.91L24675.6,935.433L25018.6,935.433C25338.9,935.433 25364.4,932.598 25421.1,870.236C25477.8,810.709 25483.5,773.858 25483.5,436.535C25483.5,65.197 25500.5,0 25594,0C25628,0 25625.2,8.504 25588.3,51.024C25548.7,93.543 25540.2,167.244 25540.2,462.047C25540.2,802.205 25537.3,822.047 25466.5,904.252L25392.8,992.126L25032.8,992.126L24675.6,992.126L24369.4,1298.27L24066.1,1601.58L24066.1,3333.54L23966.9,3429.92L23867.7,3526.3L23867.7,5825.2L22288.8,7404.09L20707.1,8982.99L20508.7,9000C19896.4,9048.19 19941.7,9039.68 19839.7,9144.57C19771.7,9212.6 19720.6,9240.94 19658.3,9240.94C19595.9,9240.94 19544.9,9269.29 19479.7,9334.49C19391.8,9425.2 19389,9433.7 19389,9685.98C19389,9830.55 19403.2,9955.28 19417.3,9963.78C19434.3,9972.28 19445.7,10108.3 19445.7,10269.9L19445.7,10561.9L19581.7,10695.1L19720.6,10831.2L20483.2,10828.3L21242.8,10828.3L21336.4,10737.6C21398.7,10678.1 21424.3,10629.9 21415.7,10598.7C21404.4,10567.6 21424.3,10522.2 21458.3,10488.2C21503.6,10442.8 21526.3,10437.2 21574.5,10459.8C21651,10502.4 21668,10556.2 21628.3,10627.1C21608.5,10666.8 21568.8,10686.6 21520.6,10686.6C21466.8,10686.6 21410.1,10720.6 21344.9,10785.8L21248.5,10885L20466.1,10885L19683.8,10885L19544.9,10743.3Z" style="fill:rgb(226,238,255);fill-rule:nonzero;"/>
                <path id="path3962" d="M19899.2,10729.1C19862.4,10689.4 19805.7,10658.3 19771.7,10658.3C19695.1,10658.3 19644.1,10607.2 19644.1,10525C19644.1,10454.2 19729.1,10394.6 19797.2,10420.2C19845.4,10440 19890.7,10564.7 19859.5,10593.1C19851,10604.4 19870.9,10641.3 19904.9,10678.1C19964.4,10743.3 19975.7,10743.3 20565.4,10743.3C21112.4,10743.3 21169.1,10737.6 21211.7,10692.3C21240,10663.9 21259.8,10604.4 21259.8,10559.1C21259.8,10508 21288.2,10445.7 21336.4,10397.5C21407.2,10323.8 21427.1,10318.1 21642.5,10318.1L21872.1,10318.1L22263.3,10715L24224.9,10715C26087.2,10715 26186.5,10712.1 26229,10663.9C26294.2,10590.2 26291.3,10414.5 26220.5,10326.6C26169.4,10261.4 26166.6,10244.4 26203.5,10193.4C26248.8,10122.5 26322.5,10102.7 26376.4,10148C26430.2,10193.4 26430.2,10315.3 26376.4,10335.1C26348,10346.5 26333.9,10391.8 26333.9,10482.5C26333.9,10584.6 26316.9,10629.9 26257.3,10692.3L26180.8,10771.7L24207.9,10771.7L22235,10771.7L22025.2,10559.1L21815.4,10346.5L21642.5,10346.5C21489.4,10346.5 21461.1,10355 21393.1,10425.8C21344.9,10476.9 21316.5,10536.4 21316.5,10590.2C21316.5,10644.1 21291,10700.8 21251.3,10737.6C21189,10797.2 21163.5,10800 20576.7,10800L19964.4,10800L19899.2,10729.1Z" style="fill:rgb(226,238,255);fill-rule:nonzero;"/>
            </g>
        </g>
        <g transform="matrix(0.96,0,0,0.958558,2.0368,7.66846)">
            <g transform="matrix(16,0,0,16,0.682334,20.0037)">
                <path d="M0.205,0.01C0.172,0.01 0.142,0.003 0.116,-0.012C0.09,-0.027 0.07,-0.047 0.056,-0.073C0.041,-0.099 0.034,-0.129 0.034,-0.162L0.034,-0.187L0.136,-0.198L0.136,-0.172C0.136,-0.147 0.142,-0.127 0.154,-0.112C0.166,-0.097 0.183,-0.09 0.204,-0.09C0.225,-0.09 0.241,-0.096 0.254,-0.108C0.266,-0.12 0.272,-0.136 0.272,-0.157C0.272,-0.18 0.266,-0.201 0.253,-0.222C0.24,-0.243 0.214,-0.271 0.175,-0.308C0.123,-0.357 0.088,-0.398 0.069,-0.431C0.05,-0.464 0.04,-0.499 0.04,-0.538C0.04,-0.591 0.054,-0.632 0.083,-0.664C0.112,-0.695 0.151,-0.71 0.201,-0.71C0.251,-0.71 0.29,-0.694 0.319,-0.663C0.348,-0.632 0.362,-0.59 0.362,-0.537L0.362,-0.519L0.26,-0.508L0.26,-0.528C0.26,-0.555 0.255,-0.575 0.245,-0.589C0.235,-0.603 0.221,-0.61 0.202,-0.61C0.183,-0.61 0.169,-0.604 0.159,-0.593C0.149,-0.582 0.144,-0.565 0.144,-0.543C0.144,-0.521 0.151,-0.5 0.164,-0.48C0.177,-0.459 0.203,-0.43 0.241,-0.392C0.293,-0.34 0.329,-0.298 0.348,-0.267C0.367,-0.235 0.376,-0.2 0.376,-0.162C0.376,-0.129 0.369,-0.099 0.355,-0.073C0.34,-0.047 0.32,-0.027 0.294,-0.012C0.268,0.003 0.238,0.01 0.205,0.01Z" style="fill:rgb(226,238,255);fill-rule:nonzero;"/>
            </g>
            <g transform="matrix(16,0,0,16,7.16233,20.0037)">
                <path d="M0.577,-0.7L0.474,0L0.357,0L0.301,-0.461L0.245,0L0.128,0L0.025,-0.7L0.132,-0.7L0.19,-0.227L0.248,-0.7L0.356,-0.7L0.414,-0.227L0.472,-0.7L0.577,-0.7Z" style="fill:rgb(226,238,255);fill-rule:nonzero;"/>
            </g>
            <g transform="matrix(16,0,0,16,16.7943,20.0037)">
                <rect x="0.058" y="-0.7" width="0.106" height="0.7" style="fill:rgb(226,238,255);fill-rule:nonzero;"/>
            </g>
            <g transform="matrix(16,0,0,16,20.3463,20.0037)">
                <path d="M0.024,-0.7L0.362,-0.7L0.362,-0.6L0.246,-0.6L0.246,0L0.14,0L0.14,-0.6L0.024,-0.6L0.024,-0.7Z" style="fill:rgb(226,238,255);fill-rule:nonzero;"/>
            </g>
            <g transform="matrix(16,0,0,16,26.5223,20.0037)">
                <path d="M0.215,0.01C0.166,0.01 0.126,-0.005 0.095,-0.036C0.064,-0.067 0.049,-0.107 0.049,-0.156L0.049,-0.544C0.049,-0.593 0.064,-0.633 0.095,-0.664C0.126,-0.695 0.166,-0.71 0.215,-0.71C0.264,-0.71 0.304,-0.695 0.335,-0.664C0.366,-0.633 0.381,-0.593 0.381,-0.544L0.381,-0.462L0.277,-0.462L0.277,-0.544C0.277,-0.564 0.271,-0.58 0.26,-0.592C0.249,-0.604 0.234,-0.61 0.216,-0.61C0.198,-0.61 0.183,-0.604 0.172,-0.592C0.161,-0.58 0.155,-0.564 0.155,-0.544L0.155,-0.156C0.155,-0.136 0.161,-0.12 0.172,-0.108C0.183,-0.096 0.198,-0.09 0.216,-0.09C0.234,-0.09 0.249,-0.096 0.26,-0.108C0.271,-0.12 0.277,-0.136 0.277,-0.156L0.277,-0.256L0.381,-0.256L0.381,-0.156C0.381,-0.107 0.366,-0.067 0.335,-0.036C0.304,-0.005 0.264,0.01 0.215,0.01Z" style="fill:rgb(226,238,255);fill-rule:nonzero;"/>
            </g>
            <g transform="matrix(16,0,0,16,33.2423,20.0037)">
                <path d="M0.058,0L0.058,-0.7L0.164,-0.7L0.164,-0.405L0.29,-0.405L0.29,-0.7L0.396,-0.7L0.396,0L0.29,0L0.29,-0.305L0.164,-0.305L0.164,0L0.058,0Z" style="fill:rgb(226,238,255);fill-rule:nonzero;"/>
            </g>
            <g transform="matrix(16,0,0,16,12.5063,36.0037)">
                <path d="M0.058,-0.7L0.175,-0.7L0.31,-0.23L0.31,-0.7L0.414,-0.7L0.414,0L0.302,0L0.162,-0.448L0.162,0L0.058,0L0.058,-0.7Z" style="fill:rgb(226,238,255);fill-rule:nonzero;"/>
            </g>
            <g transform="matrix(16,0,0,16,20.0583,36.0037)">
                <path d="M0.065,-0.105L0.171,-0.105L0.171,0L0.065,0L0.065,-0.105ZM0.065,-0.482L0.171,-0.482L0.171,-0.377L0.065,-0.377L0.065,-0.482Z" style="fill:rgb(226,238,255);fill-rule:nonzero;"/>
            </g>
            <g transform="matrix(16,0,0,16,23.8343,36.0037)">
                <path d="M0.141,-0.549L0.021,-0.549L0.021,-0.623C0.06,-0.626 0.092,-0.634 0.118,-0.648C0.143,-0.662 0.162,-0.679 0.173,-0.7L0.247,-0.7L0.247,0L0.141,0L0.141,-0.549Z" style="fill:rgb(226,238,255);fill-rule:nonzero;"/>
            </g>
        </g>
    </g>
    <g id="rect2071" transform="matrix(1.04167,0,0,1.04323,0,0)">
        <rect x="6.929" y="288.103" width="29.736" height="41.504" style="fill:rgb(226,238,255);"/>
    </g>
    <g id="logo" transform="matrix(0.150679,0,0,0.150906,2.71453,347.933)">
        <g id="path1388" transform="matrix(0.264583,0,0,0.264583,-130.714,-190.714)">
            <path d="M717.038,858.57L856.29,858.57C892.609,858.57 919.184,874.072 936.014,905.076C938.849,911.631 940.266,918.363 940.266,925.273L940.266,928.727C940.266,957.605 920.778,978.688 881.802,991.975C873.475,994.279 864.971,995.43 856.29,995.43L718.101,995.43C699.144,995.43 685.68,1003.93 677.707,1020.94L677.707,1063.2L896.684,1063.2L896.684,1054.69C899.164,1043.88 905.896,1038.48 916.881,1038.48L920.07,1038.48C932.825,1040.61 939.203,1044.86 939.203,1051.24L939.203,1084.99C939.203,1091.72 932.825,1095.97 920.07,1097.74L654.321,1097.74C640.857,1095.97 634.125,1090.66 634.125,1081.8L634.125,1019.88C634.125,1003.05 647.235,986.749 673.455,970.981C687.629,964.249 702.156,960.883 717.038,960.883L855.227,960.883C873.652,960.883 886.762,952.999 894.558,937.231C895.975,934.928 896.684,931.828 896.684,927.93L896.684,926.07C896.684,911.365 886.762,901.001 866.92,894.977C864.085,893.737 860.188,893.117 855.227,893.117L718.101,893.117C693.652,893.117 679.125,906.139 674.518,932.182C669.026,937.674 663.003,940.42 656.447,940.42L653.258,940.42C640.503,938.472 634.125,934.308 634.125,927.93L634.125,917.832C634.125,900.824 647.235,884.436 673.455,868.668C687.629,861.936 702.156,858.57 717.038,858.57Z" style="fill:rgb(226,238,255);fill-rule:nonzero;"/>
        </g>
        <g id="path1391" transform="matrix(0.455057,0,0,0.50612,-115.92,-291.316)">
            <path d="M680.858,680.21C684.716,680.21 688.712,684.206 692.846,692.198L730.464,750.485L731.291,750.899L731.704,750.899C732.255,750.623 744.932,730.953 769.735,691.888C774.145,684.102 778.003,680.21 781.31,680.21L782.55,680.21C787.924,680.21 790.818,682.69 791.232,687.651C760.985,736.223 743.072,764.196 737.491,771.568C735.287,772.67 733.358,773.221 731.704,773.221L730.877,773.221C726.192,773.221 722.334,769.777 719.302,762.887C718.269,762.129 702.422,737.395 671.763,688.684C671.487,688.271 671.35,687.72 671.35,687.031C671.35,682.828 674.519,680.554 680.858,680.21Z" style="fill:rgb(226,238,255);fill-rule:nonzero;"/>
        </g>
        <g id="path1394" transform="matrix(-0.880393,0,0,1.13586,0,0)">
            <path d="M-178.964,31.82L-143.099,31.82C-139.945,32.277 -138.367,33.522 -138.367,35.556L-138.367,36.116C-138.948,38.607 -140.526,39.852 -143.099,39.852L-174.73,39.852C-186.56,39.852 -194.53,43.671 -198.64,51.309C-198.764,52.222 -199.013,52.679 -199.387,52.679L-209.349,52.679L-209.847,52.492C-207.813,46.141 -204.409,41.409 -199.636,38.296C-193.077,33.979 -186.187,31.82 -178.964,31.82L-178.964,31.82ZM-205.613,55.605L-162.526,55.605C-159.371,56.062 -157.794,57.307 -157.794,59.341L-157.794,59.964C-158.375,62.454 -159.952,63.7 -162.526,63.7L-205.613,63.7C-208.768,63.243 -210.345,61.998 -210.345,59.964L-210.345,59.341C-209.764,56.851 -208.187,55.605 -205.613,55.605ZM-209.349,66.626L-199.636,66.626C-199.387,66.668 -198.557,68.038 -197.145,70.736C-192.787,76.796 -185.315,79.826 -174.73,79.826L-143.099,79.826C-139.945,80.241 -138.367,81.487 -138.367,83.562L-138.367,84.123C-138.948,86.613 -140.526,87.859 -143.099,87.859L-178.964,87.859C-189.964,87.859 -199.096,83.542 -206.36,74.907C-208.685,70.839 -209.847,68.141 -209.847,66.813L-209.349,66.626Z" style="fill:rgb(226,238,255);fill-rule:nonzero;"/>
        </g>
    </g>
    <g id="main" transform="matrix(1.04167,0,0,1.04323,0,-498.288)">
        <g id="flowRoot1442" transform="matrix(0.264583,0,0,0.264583,5.12913,567.166)">
            <path id="path1506" d="M51.85,290.477C49.613,290.477 47.798,289.781 46.408,288.391C45.017,287 44.321,285.186 44.321,282.948L44.321,265.351C44.321,263.113 45.017,261.299 46.408,259.908C47.798,258.517 49.613,257.822 51.85,257.822C54.088,257.822 55.902,258.517 57.293,259.908C58.683,261.299 59.379,263.113 59.379,265.351L59.379,269.07L54.662,269.07L54.662,265.351C54.662,264.444 54.405,263.718 53.891,263.174C53.377,262.629 52.712,262.357 51.895,262.357C51.079,262.357 50.414,262.629 49.9,263.174C49.386,263.718 49.129,264.444 49.129,265.351L49.129,282.948C49.129,283.855 49.386,284.581 49.9,285.125C50.414,285.669 51.079,285.941 51.895,285.941C52.712,285.941 53.377,285.669 53.891,285.125C54.405,284.581 54.662,283.855 54.662,282.948L54.662,278.413L59.379,278.413L59.379,282.948C59.379,285.186 58.683,287 57.293,288.391C55.902,289.781 54.088,290.477 51.85,290.477Z" style="fill:rgb(226,238,255);fill-rule:nonzero;"/>
            <path id="path1508" d="M79.195,258.275L73.934,290.023L67.494,290.023L62.233,258.275L67.131,258.275L70.759,283.22L74.388,258.275L79.195,258.275Z" style="fill:rgb(226,238,255);fill-rule:nonzero;"/>
        </g>
        <g id="flowRoot1455" transform="matrix(0.264583,0,0,0.264583,0.629126,605.478)">
            <path id="path1511" d="M51.397,290.477C49.885,290.477 48.539,290.144 47.36,289.479C46.181,288.814 45.259,287.892 44.593,286.713C43.958,285.533 43.641,284.188 43.641,282.676L43.641,281.542L48.267,281.043L48.267,282.222C48.267,283.371 48.539,284.278 49.083,284.944C49.628,285.609 50.384,285.941 51.351,285.941C52.289,285.941 53.029,285.669 53.574,285.125C54.148,284.581 54.435,283.84 54.435,282.903C54.435,281.875 54.133,280.892 53.528,279.955C52.954,279.017 51.79,277.717 50.036,276.054C47.677,273.817 46.06,271.957 45.183,270.476C44.336,268.994 43.913,267.376 43.913,265.623C43.913,263.234 44.563,261.344 45.863,259.953C47.163,258.532 48.947,257.822 51.215,257.822C53.483,257.822 55.267,258.532 56.567,259.953C57.867,261.375 58.517,263.279 58.517,265.668L58.517,266.484L53.891,266.983L53.891,266.076C53.891,264.867 53.664,263.945 53.211,263.31C52.757,262.675 52.107,262.357 51.26,262.357C50.414,262.357 49.764,262.614 49.31,263.128C48.857,263.642 48.63,264.398 48.63,265.396C48.63,266.394 48.932,267.361 49.537,268.299C50.142,269.206 51.306,270.521 53.029,272.244C55.388,274.603 56.99,276.508 57.837,277.959C58.714,279.38 59.152,280.953 59.152,282.676C59.152,284.188 58.82,285.533 58.154,286.713C57.519,287.892 56.612,288.814 55.433,289.479C54.254,290.144 52.908,290.477 51.397,290.477Z" style="fill:rgb(226,238,255);fill-rule:nonzero;"/>
            <path id="path1513" d="M61.524,258.275L76.854,258.275L76.854,262.811L71.593,262.811L71.593,290.023L66.785,290.023L66.785,262.811L61.524,262.811L61.524,258.275Z" style="fill:rgb(226,238,255);fill-rule:nonzero;"/>
            <path id="path1515" d="M80.605,258.275L94.257,258.275L94.257,262.811L85.413,262.811L85.413,271.655L92.443,271.655L92.443,276.19L85.413,276.19L85.413,285.488L94.257,285.488L94.257,290.023L80.605,290.023L80.605,258.275Z" style="fill:rgb(226,238,255);fill-rule:nonzero;"/>
            <path id="path1517" d="M98.322,258.275L105.851,258.275C108.149,258.275 109.978,258.971 111.339,260.362C112.699,261.722 113.38,263.552 113.38,265.85L113.38,269.569C113.38,271.867 112.699,273.711 111.339,275.102C109.978,276.462 108.149,277.143 105.851,277.143L103.13,277.143L103.13,290.023L98.322,290.023L98.322,258.275ZM105.624,272.607C106.561,272.607 107.287,272.35 107.801,271.836C108.315,271.322 108.572,270.597 108.572,269.659L108.572,265.759C108.572,264.821 108.315,264.096 107.801,263.582C107.287,263.068 106.561,262.811 105.624,262.811L103.13,262.811L103.13,272.607L105.624,272.607Z" style="fill:rgb(226,238,255);fill-rule:nonzero;"/>
            <path id="path1519" d="M132.831,276.281L126.436,276.281L126.436,282.676L122.898,282.676L122.898,276.281L116.503,276.281L116.503,272.743L122.898,272.743L122.898,266.348L126.436,266.348L126.436,272.743L132.831,272.743L132.831,276.281Z" style="fill:rgb(226,238,255);fill-rule:nonzero;"/>
        </g>
        <g id="flowRoot1467" transform="matrix(0.264583,0,0,0.264583,0.214806,645.134)">
            <path id="path1522" d="M51.397,290.477C49.885,290.477 48.539,290.144 47.36,289.479C46.181,288.814 45.259,287.892 44.593,286.713C43.958,285.533 43.641,284.188 43.641,282.676L43.641,281.542L48.267,281.043L48.267,282.222C48.267,283.371 48.539,284.278 49.083,284.944C49.628,285.609 50.384,285.941 51.351,285.941C52.289,285.941 53.029,285.669 53.574,285.125C54.148,284.581 54.435,283.84 54.435,282.903C54.435,281.875 54.133,280.892 53.528,279.955C52.954,279.017 51.79,277.717 50.036,276.054C47.677,273.817 46.06,271.957 45.183,270.476C44.336,268.994 43.913,267.376 43.913,265.623C43.913,263.234 44.563,261.344 45.863,259.953C47.163,258.532 48.947,257.822 51.215,257.822C53.483,257.822 55.267,258.532 56.567,259.953C57.867,261.375 58.517,263.279 58.517,265.668L58.517,266.484L53.891,266.983L53.891,266.076C53.891,264.867 53.664,263.945 53.211,263.31C52.757,262.675 52.107,262.357 51.26,262.357C50.414,262.357 49.764,262.614 49.31,263.128C48.857,263.642 48.63,264.398 48.63,265.396C48.63,266.394 48.932,267.361 49.537,268.299C50.142,269.206 51.306,270.521 53.029,272.244C55.388,274.603 56.99,276.508 57.837,277.959C58.714,279.38 59.152,280.953 59.152,282.676C59.152,284.188 58.82,285.533 58.154,286.713C57.519,287.892 56.612,288.814 55.433,289.479C54.254,290.144 52.908,290.477 51.397,290.477Z" style="fill:rgb(226,238,255);fill-rule:nonzero;"/>
            <path id="path1524" d="M61.524,258.275L76.854,258.275L76.854,262.811L71.593,262.811L71.593,290.023L66.785,290.023L66.785,262.811L61.524,262.811L61.524,258.275Z" style="fill:rgb(226,238,255);fill-rule:nonzero;"/>
            <path id="path1526" d="M80.605,258.275L94.257,258.275L94.257,262.811L85.413,262.811L85.413,271.655L92.443,271.655L92.443,276.19L85.413,276.19L85.413,285.488L94.257,285.488L94.257,290.023L80.605,290.023L80.605,258.275Z" style="fill:rgb(226,238,255);fill-rule:nonzero;"/>
            <path id="path1528" d="M98.322,258.275L105.851,258.275C108.149,258.275 109.978,258.971 111.339,260.362C112.699,261.722 113.38,263.552 113.38,265.85L113.38,269.569C113.38,271.867 112.699,273.711 111.339,275.102C109.978,276.462 108.149,277.143 105.851,277.143L103.13,277.143L103.13,290.023L98.322,290.023L98.322,258.275ZM105.624,272.607C106.561,272.607 107.287,272.35 107.801,271.836C108.315,271.322 108.572,270.597 108.572,269.659L108.572,265.759C108.572,264.821 108.315,264.096 107.801,263.582C107.287,263.068 106.561,262.811 105.624,262.811L103.13,262.811L103.13,272.607L105.624,272.607Z" style="fill:rgb(226,238,255);fill-rule:nonzero;"/>
            <rect id="path1530" x="116.186" y="271.791" width="10.885" height="4.717" style="fill:rgb(226,238,255);fill-rule:nonzero;"/>
        </g>
        <g id="flowRoot1477" transform="matrix(0.264583,0,0,0.264583,2.55856,683.93)">
            <path id="path1533" d="M55.524,290.023L52.032,276.916L49.537,276.916L49.537,290.023L44.729,290.023L44.729,258.275L52.258,258.275C54.556,258.275 56.386,258.971 57.746,260.362C59.107,261.722 59.787,263.552 59.787,265.85L59.787,269.342C59.787,270.793 59.5,272.078 58.925,273.197C58.351,274.316 57.535,275.193 56.476,275.827L60.513,290.023L55.524,290.023ZM49.537,272.381L52.032,272.381C52.969,272.381 53.695,272.124 54.209,271.61C54.723,271.096 54.98,270.37 54.98,269.433L54.98,265.759C54.98,264.821 54.723,264.096 54.209,263.582C53.695,263.068 52.969,262.811 52.032,262.811L49.537,262.811L49.537,272.381Z" style="fill:rgb(226,238,255);fill-rule:nonzero;"/>
            <path id="path1535" d="M64.483,258.275L69.79,258.275L75.913,279.592L75.913,258.275L80.63,258.275L80.63,290.023L75.55,290.023L69.2,269.705L69.2,290.023L64.483,290.023L64.483,258.275Z" style="fill:rgb(226,238,255);fill-rule:nonzero;"/>
            <path id="path1537" d="M85.92,258.275L93.449,258.275C95.747,258.275 97.576,258.971 98.937,260.362C100.298,261.722 100.978,263.552 100.978,265.85L100.978,282.449C100.978,284.747 100.298,286.592 98.937,287.982C97.576,289.343 95.747,290.023 93.449,290.023L85.92,290.023L85.92,258.275ZM93.222,285.488C94.16,285.488 94.885,285.231 95.399,284.717C95.913,284.203 96.17,283.477 96.17,282.54L96.17,265.759C96.17,264.821 95.913,264.096 95.399,263.582C94.885,263.068 94.16,262.811 93.222,262.811L90.728,262.811L90.728,285.488L93.222,285.488Z" style="fill:rgb(226,238,255);fill-rule:nonzero;"/>
        </g>
        <g transform="matrix(0.96,0,0,0.958558,-3.71431,474.762)">
            <g transform="matrix(12,0,0,12,14.1111,136.569)">
                <path d="M0.296,0L0.219,-0.289L0.164,-0.289L0.164,0L0.058,0L0.058,-0.7L0.224,-0.7C0.275,-0.7 0.315,-0.685 0.345,-0.655C0.375,-0.624 0.39,-0.584 0.39,-0.533L0.39,-0.456C0.39,-0.424 0.384,-0.396 0.371,-0.371C0.358,-0.346 0.34,-0.327 0.317,-0.313L0.406,0L0.296,0ZM0.164,-0.389L0.219,-0.389C0.24,-0.389 0.256,-0.395 0.267,-0.406C0.278,-0.417 0.284,-0.433 0.284,-0.454L0.284,-0.535C0.284,-0.556 0.278,-0.572 0.267,-0.583C0.256,-0.594 0.24,-0.6 0.219,-0.6L0.164,-0.6L0.164,-0.389Z" style="fill:rgb(226,238,255);fill-rule:nonzero;"/>
            </g>
            <g transform="matrix(12,0,0,12,19.3311,136.569)">
                <path d="M0.058,-0.7L0.359,-0.7L0.359,-0.6L0.164,-0.6L0.164,-0.405L0.319,-0.405L0.319,-0.305L0.164,-0.305L0.164,-0.1L0.359,-0.1L0.359,0L0.058,0L0.058,-0.7Z" style="fill:rgb(226,238,255);fill-rule:nonzero;"/>
            </g>
            <g transform="matrix(12,0,0,12,24.0111,136.569)">
                <path d="M0.205,0.01C0.172,0.01 0.142,0.003 0.116,-0.012C0.09,-0.027 0.07,-0.047 0.056,-0.073C0.041,-0.099 0.034,-0.129 0.034,-0.162L0.034,-0.187L0.136,-0.198L0.136,-0.172C0.136,-0.147 0.142,-0.127 0.154,-0.112C0.166,-0.097 0.183,-0.09 0.204,-0.09C0.225,-0.09 0.241,-0.096 0.254,-0.108C0.266,-0.12 0.272,-0.136 0.272,-0.157C0.272,-0.18 0.266,-0.201 0.253,-0.222C0.24,-0.243 0.214,-0.271 0.175,-0.308C0.123,-0.357 0.088,-0.398 0.069,-0.431C0.05,-0.464 0.04,-0.499 0.04,-0.538C0.04,-0.591 0.054,-0.632 0.083,-0.664C0.112,-0.695 0.151,-0.71 0.201,-0.71C0.251,-0.71 0.29,-0.694 0.319,-0.663C0.348,-0.632 0.362,-0.59 0.362,-0.537L0.362,-0.519L0.26,-0.508L0.26,-0.528C0.26,-0.555 0.255,-0.575 0.245,-0.589C0.235,-0.603 0.221,-0.61 0.202,-0.61C0.183,-0.61 0.169,-0.604 0.159,-0.593C0.149,-0.582 0.144,-0.565 0.144,-0.543C0.144,-0.521 0.151,-0.5 0.164,-0.48C0.177,-0.459 0.203,-0.43 0.241,-0.392C0.293,-0.34 0.329,-0.298 0.348,-0.267C0.367,-0.235 0.376,-0.2 0.376,-0.162C0.376,-0.129 0.369,-0.099 0.355,-0.073C0.34,-0.047 0.32,-0.027 0.294,-0.012C0.268,0.003 0.238,0.01 0.205,0.01Z" style="fill:rgb(226,238,255);fill-rule:nonzero;"/>
            </g>
            <g transform="matrix(12,0,0,12,28.9071,136.569)">
                <path d="M0.058,-0.7L0.359,-0.7L0.359,-0.6L0.164,-0.6L0.164,-0.405L0.319,-0.405L0.319,-0.305L0.164,-0.305L0.164,-0.1L0.359,-0.1L0.359,0L0.058,0L0.058,-0.7Z" style="fill:rgb(226,238,255);fill-rule:nonzero;"/>
            </g>
            <g transform="matrix(12,0,0,12,33.5871,136.569)">
                <path d="M0.024,-0.7L0.362,-0.7L0.362,-0.6L0.246,-0.6L0.246,0L0.14,0L0.14,-0.6L0.024,-0.6L0.024,-0.7Z" style="fill:rgb(226,238,255);fill-rule:nonzero;"/>
            </g>
        </g>
        <g transform="matrix(0.96,0,0,0.958558,0,479.555)">
            <g transform="matrix(12,0,0,12,18.0722,92.1883)">
                <rect x="0.058" y="-0.7" width="0.106" height="0.7" style="fill:rgb(226,238,255);fill-rule:nonzero;"/>
            </g>
            <g transform="matrix(12,0,0,12,20.7362,92.1883)">
                <path d="M0.058,-0.7L0.175,-0.7L0.31,-0.23L0.31,-0.7L0.414,-0.7L0.414,0L0.302,0L0.162,-0.448L0.162,0L0.058,0L0.058,-0.7Z" style="fill:rgb(226,238,255);fill-rule:nonzero;"/>
            </g>
        </g>
    </g>
    <g id="flowRoot1370" transform="matrix(0.275608,0,0,0.276022,4.09561,-5.30322)">
        <path id="path1370" d="M47.159,1253.11C44.862,1253.11 43.002,1252.41 41.581,1251.02C40.16,1249.6 39.449,1247.74 39.449,1245.45L39.449,1228.12C39.449,1225.82 40.16,1223.98 41.581,1222.59C43.002,1221.17 44.862,1220.45 47.159,1220.45C49.457,1220.45 51.317,1221.17 52.738,1222.59C54.159,1223.98 54.87,1225.82 54.87,1228.12L54.87,1245.45C54.87,1247.74 54.159,1249.6 52.738,1251.02C51.317,1252.41 49.457,1253.11 47.159,1253.11ZM47.159,1248.58C48.067,1248.58 48.777,1248.3 49.291,1247.76C49.805,1247.21 50.062,1246.44 50.062,1245.45L50.062,1228.12C50.062,1227.12 49.805,1226.35 49.291,1225.81C48.777,1225.26 48.067,1224.99 47.159,1224.99C46.252,1224.99 45.542,1225.26 45.028,1225.81C44.514,1226.35 44.257,1227.12 44.257,1228.12L44.257,1245.45C44.257,1246.44 44.514,1247.21 45.028,1247.76C45.542,1248.3 46.252,1248.58 47.159,1248.58Z" style="fill:rgb(62,71,83);fill-rule:nonzero;"/>
        <path id="path1372" d="M67.002,1253.11C64.795,1253.11 62.996,1252.43 61.605,1251.07C60.214,1249.68 59.519,1247.88 59.519,1245.67L59.519,1220.91L64.326,1220.91L64.326,1245.67C64.326,1246.58 64.568,1247.29 65.052,1247.8C65.566,1248.32 66.216,1248.58 67.002,1248.58C67.788,1248.58 68.423,1248.32 68.907,1247.8C69.421,1247.29 69.678,1246.58 69.678,1245.67L69.678,1220.91L74.395,1220.91L74.395,1245.67C74.395,1247.88 73.714,1249.68 72.354,1251.07C70.993,1252.43 69.209,1253.11 67.002,1253.11Z" style="fill:rgb(62,71,83);fill-rule:nonzero;"/>
        <path id="path1374" d="M77.912,1220.91L93.242,1220.91L93.242,1225.44L87.98,1225.44L87.98,1252.66L83.173,1252.66L83.173,1225.44L77.912,1225.44L77.912,1220.91Z" style="fill:rgb(62,71,83);fill-rule:nonzero;"/>
    </g>
    <g id="flowRoot1396">
    </g>
    <g id="flowRoot1404">
    </g>
</svg>
